<?xml version="1.0" encoding="utf-8"?>
<!-- Generator: Adobe Illustrator 26.5.0, SVG Export Plug-In . SVG Version: 6.00 Build 0)  -->
<svg version="1.1" id="Layer_1" xmlns="http://www.w3.org/2000/svg" xmlns:xlink="http://www.w3.org/1999/xlink" x="0px" y="0px"
	 viewBox="0 0 1000 300" style="enable-background:new 0 0 1000 300;" xml:space="preserve">
<polygon style="fill:#FFFFFF;stroke:#000000;stroke-width:6;stroke-miterlimit:10;" points="831.6033,58.9836 824.1299,51.5102 
	816.6564,58.9836 673.8036,58.9836 658.5302,43.7102 648.4935,53.7469 643.2567,48.5102 635.62,56.1469 627.9832,48.5102 
	617.5098,58.9836 429.9307,58.9836 414.6572,43.7102 404.6205,53.7469 399.3837,48.5102 388.9102,58.9836 124.2578,58.9836 
	126.6578,56.5837 111.3843,41.3102 96.1108,56.5837 98.5107,58.9836 -23.0154,58.9836 -23.0154,319.3831 1049.7825,319.3831 
	1049.7825,58.9836 "/>
<g>
	<path style="fill:#FFFFFF;stroke:#000000;stroke-width:6;stroke-miterlimit:10;" d="M303.0812,136.3595
		c-16.2605,7.8609-23.0696,27.4152-15.2087,43.6757c7.861,16.2605,27.4153,23.0696,43.6757,15.2086
		c1.1727-0.5669,2.29-1.2012,3.3625-1.8841l3.869,8.0031l25.9784-12.559l-18.0012-37.2357
		C338.8959,135.3076,319.3417,128.4985,303.0812,136.3595z"/>
	
		<line style="fill:none;stroke:#000000;stroke-width:6;stroke-miterlimit:10;" x1="341.0151" y1="179.8065" x2="356.7346" y2="172.2071"/>
	<circle style="fill:none;stroke:#000000;stroke-width:6;stroke-miterlimit:10;" cx="329.8609" cy="162.6492" r="8.6328"/>
</g>
</svg>
