<?xml version="1.0" encoding="utf-8"?>
<!-- Generator: Adobe Illustrator 26.5.1, SVG Export Plug-In . SVG Version: 6.00 Build 0)  -->
<svg version="1.1" id="background" xmlns="http://www.w3.org/2000/svg" xmlns:xlink="http://www.w3.org/1999/xlink" x="0px" y="0px"
	 viewBox="0 0 5000 950" style="enable-background:new 0 0 5000 950;" xml:space="preserve">
<path id="bg5" style="fill:#68652F;" d="M4895.3901,0.75h-74.4902H4635.48h-213.2402H4407.48h-208.79h-57.2402h-91.5601h-2.5601
	h-90.5901h-83.3701h-83.4099h-113.8601h-64.9099h-192.73H3206.5h-16.3999h-78.75H3086.98h-91.0801h-93.53h-58.5701h-39.3799H2754.5
	h-616.6599h-111.0699h-133.66h-83.33H943.93H860.8H694.54h-55.39H-0.01v99.6v545.44v304.96h5000V695.28V0.75H4895.3901z
	 M74.32,542.28c-1.81,1.53-3.53,3.19-5.16,4.94c-0.4-0.13-0.81-0.24-1.21-0.35c-0.58-29.03-19.34-53.59-45.38-62.75l0.99-111.69
	c9.05-2.34,17.58-7.1,24.52-14.23c4.39,6.26,10.19,11.48,17.27,15.11c8.6,4.41,18.01,5.92,27.29,4.91L74.32,542.28z M167.12,553.49
	h-4.27c-5.97-8.47-14.18-15.53-24.29-20.13c-14.68-6.68-30.62-7-44.76-2.14l17.72-158.7c3.96-2,7.77-4.47,11.31-7.4
	c2.65,2.25,5.59,4.24,8.82,5.89c11.97,6.14,25.38,6.54,37.08,2.21L167.12,553.49z M304.58,498.65c-4.66,4.47-8.25,10.1-10.27,16.51
	c-2.61-1.37-5.51-2.3-8.62-2.64c-8.64-0.96-16.72,2.72-21.76,9.05c-19.81,1.41-37.07,13.93-44.73,31.93h-15.82l2.04-229.66
	c12.93,2.29,25.99-0.4,36.77-7.02c12.88,10.01,30.71,10.97,44.58,2.51c1.06,2.75,2.64,5.36,4.76,7.66
	c5.87,6.41,14.38,8.94,22.34,7.49c2.68,2.02,5.51,3.75,8.46,5.19L304.58,498.65z M466.78,506.47c-24.1-7.48-51.3,0.7-66.93,22.26
	c-2.38,3.28-4.37,6.72-6.01,10.27c-1.91-9.3-9.61-16.73-19.55-17.84c-1.19-0.13-2.37-0.17-3.53-0.12
	c-2.57-16.73-15.79-30.42-33.21-32.96l16.03-143.6c9.24-1.4,18.21-5.27,25.84-11.66c3.73,6.68,8.96,12.46,15.64,16.8
	c17.47,11.35,40.02,9.7,58.01-2.26c2.41,2.51,5.13,4.78,8.17,6.76c2.22,1.44,4.52,2.66,6.87,3.67L466.78,506.47z M610.94,475.08
	c-4.18,4.93-7.18,10.89-8.53,17.47c-2.74-1.1-5.72-1.72-8.85-1.75c-8.69-0.08-16.35,4.41-20.72,11.22
	c-7.44,1.3-14.34,4.17-20.36,8.24c-15.15-4.53-31.88-0.8-43.67,10.17c-1.83-2.85-4.2-5.42-7.11-7.52
	c-5.08-3.68-10.97-5.4-16.79-5.31l1.3-146.02c15.14,0.04,29.99-7.34,38.86-20.98c7.99-12.29,9.35-26.96,5.02-39.85
	c0.08-0.06,0.16-0.11,0.24-0.17c13.84,8.64,31.67,7.78,44.6-2.05c1.34,2.63,3.18,5.06,5.51,7.14c3.81,3.39,8.39,5.35,13.1,5.94
	c0.38,13.16,7.38,25.37,18.58,32.32L610.94,475.08z M702.79,503.35c-3.56-7.61-11.24-12.91-20.2-12.99
	c-1.2-0.01-2.38,0.07-3.53,0.25c-4.26-16.38-18.81-28.65-36.4-29.4l1-112.89c9.06-2.59,17.04-8.4,22.26-16.46
	c5.54,5.19,12.63,8.85,20.69,10.13c2.63,0.42,5.24,0.56,7.8,0.46l9.84,160.24C703.76,502.9,703.27,503.12,702.79,503.35z
	 M722.11,497.67l-9.85-160.35c6.72-3.83,12.27-9.6,15.8-16.69c1.5-0.78,2.95-1.64,4.37-2.57c1.82,0.79,3.76,1.38,5.81,1.71
	c2.2,0.35,4.38,0.39,6.5,0.16L724.92,497.4C723.98,497.47,723.04,497.56,722.11,497.67z M816.29,490.31
	c-4.18,4.93-7.18,10.89-8.53,17.47c-2.74-1.1-5.72-1.72-8.85-1.75c-8.69-0.08-16.35,4.41-20.72,11.22c-1.13,0.2-2.25,0.45-3.36,0.71
	c-5.5-6.3-12.38-11.58-20.49-15.27c-3.71-1.69-7.51-2.97-11.34-3.87l19.83-177.64c1.63-0.27,3.23-0.63,4.82-1.09
	c5.51,0.65,11.04,0.28,16.33-1c0.56,0.62,1.16,1.22,1.8,1.78c6.5,5.77,15.22,7.43,22.99,5.17c2.87,1.74,5.87,3.16,8.94,4.3
	L816.29,490.31z M888.32,480c-2.84-0.79-5.87-1.08-8.99-0.77c-4.07,0.41-7.79,1.82-10.97,3.93c-5.85-3.97-12.82-6.4-20.36-6.72
	l1.28-144.48c9.05-2.34,17.58-7.1,24.52-14.23c2.1,3,4.54,5.75,7.27,8.21l13.8,135.76C891.27,467.05,888.95,473.31,888.32,480z
	 M963.04,466.7c-6.78-14.18-21.7-23.4-38.16-22.29l-10.82-106.4c9.53-0.23,19.07-3.18,27.62-8.46c2.12,1.53,4.54,2.71,7.21,3.45
	c1.16,0.32,2.32,0.54,3.47,0.67c-0.08,17.36,11.4,33.31,28.94,38.13c7.72,2.12,15.54,1.78,22.62-0.53l4.79,78.06
	C991.78,448.45,975.13,454.77,963.04,466.7z M1175.15,513.69c-4.1801,4.93-7.1801,10.89-8.53,17.47c-2.74-1.1-5.72-1.72-8.85-1.75
	c-1.3-0.01-2.58,0.09-3.83,0.28c-5.53-14.18-16.35-26.3-31.3-33.1c-19.23-8.76-40.64-6.6-57.29,3.85
	c-3.05-19.42-15.48-36.99-34.71-45.74c-1.16-0.53-2.34-1.01-3.52-1.46l-5.74-93.48c2.18-2.49,4.0601-5.27,5.58-8.31
	c2.36,1.76,5.09,3.13,8.1,3.96c8.38,2.3,16.9399-0.07,22.9-5.54c13.34,1.15,26.33-2.87,36.5601-10.69
	c13.84,8.64,31.67,7.78,44.6-2.05c1.34,2.63,3.1801,5.06,5.51,7.14c6.5,5.77,15.22,7.43,22.99,5.17c2.87,1.74,5.87,3.16,8.9399,4.3
	L1175.15,513.69z M1258.92,525.19c-1.8101,1.53-3.53,3.19-5.17,4.94c-2.1899-0.73-4.52-1.14-6.95-1.16
	c-1.2-0.01-2.38,0.07-3.53,0.25c-4.26-16.38-18.8101-28.65-36.4-29.4l1.28-144.48c9.05-2.34,17.58-7.1,24.52-14.23
	c4.39,6.26,10.1899,11.48,17.27,15.11c8.6,4.41,18.01,5.92,27.29,4.91L1258.92,525.19z M1351.65,543.29
	c-6.02-11.52-15.76-21.21-28.51-27.02c-14.6801-6.68-30.62-7-44.76-2.14l17.72-158.7c3.96-2,7.77-4.47,11.3101-7.4
	c2.65,2.25,5.59,4.24,8.8199,5.89c11.97,6.14,25.38,6.54,37.08,2.21L1351.65,543.29z M1489.17,481.56
	c-4.66,4.47-8.25,10.1-10.27,16.51c-2.61-1.37-5.51-2.3-8.62-2.64c-8.64-0.96-16.72,2.72-21.76,9.05
	c-24.89,1.77-45.76,21.06-48.63,46.75c-0.08,0.76-0.14,1.51-0.2,2.27c-3.96-0.64-7.9399-0.88-11.88-0.73L1390,306.75
	c12.9301,2.29,25.99-0.4,36.77-7.02c12.88,10.01,30.71,10.97,44.58,2.51c1.0601,2.75,2.64,5.36,4.76,7.66
	c5.87,6.41,14.38,8.94,22.34,7.49c2.6801,2.02,5.52,3.75,8.46,5.19L1489.17,481.56z M1651.38,489.38
	c-24.1-7.48-51.3,0.7-66.9301,22.26c-2.38,3.28-4.37,6.72-6.01,10.27c-1.91-9.3-9.61-16.73-19.55-17.84
	c-1.1899-0.13-2.37-0.17-3.53-0.12c-2.5699-16.73-15.79-30.42-33.21-32.96l16.03-143.6c9.24-1.4,18.21-5.27,25.84-11.66
	c3.73,6.68,8.96,12.46,15.64,16.8c17.47,11.35,40.02,9.7,58.01-2.26c2.41,2.51,5.13,4.78,8.17,6.76c2.22,1.44,4.52,2.66,6.87,3.67
	L1651.38,489.38z M1686.28,495.83c-5.08-3.68-10.97-5.4-16.79-5.31l1.3-146.02c13.99,0.04,27.72-6.27,36.72-17.99l-19.09,171.04
	C1687.74,496.94,1687.03,496.37,1686.28,495.83z M1795.53,458c-4.1801,4.93-7.1801,10.89-8.53,17.47c-2.74-1.1-5.72-1.72-8.85-1.75
	c-8.6899-0.08-16.35,4.41-20.72,11.22c-7.4399,1.3-14.34,4.17-20.36,8.24c-9.97-2.98-20.61-2.38-30.09,1.5l22.96-205.7
	c10.28,1.52,21-1.03,29.5699-7.55c1.34,2.63,3.1801,5.06,5.51,7.14c3.8101,3.39,8.39,5.35,13.1,5.94
	c0.38,13.16,7.38,25.37,18.58,32.32L1795.53,458z M1887.38,486.27c-3.5601-7.61-11.24-12.91-20.2-12.99
	c-1.2-0.01-2.38,0.07-3.53,0.25c-4.26-16.38-18.8101-28.65-36.4-29.4l1-112.89c9.4-2.69,17.64-8.83,22.83-17.37
	c5.92,8.04,14.87,13.86,25.51,15.55c0.89,0.14,1.79,0.24,2.6801,0.32l9.5699,155.85C1888.36,485.82,1887.86,486.03,1887.38,486.27z
	 M2000.88,473.22c-4.1801,4.93-7.1801,10.89-8.53,17.47c-2.74-1.1-5.72-1.72-8.85-1.75c-8.6899-0.08-16.35,4.41-20.72,11.22
	c-1.13,0.2-2.25,0.45-3.36,0.71c-5.5-6.3-12.38-11.58-20.49-15.27c-10.47-4.77-21.59-6.3-32.23-5.03l-9.42-153.44
	c10.22-4.06,18.53-12.31,22.46-22.98c2.54,1.49,5.4,2.55,8.49,3.04c5.52,0.88,10.89-0.18,15.45-2.66c2.9-0.19,5.77-0.7,8.5699-1.53
	c5.51,0.65,11.04,0.28,16.33-1c0.5601,0.62,1.16,1.22,1.8,1.78c6.5,5.77,15.22,7.43,22.99,5.17c2.87,1.74,5.87,3.16,8.9399,4.3
	L2000.88,473.22z M2078.3101,467.43c-2.8401-0.79-5.8701-1.08-8.99-0.77c-4.04,0.41-7.73,1.79-10.8999,3.88
	c-6.71-6.57-15.77-10.77-25.8199-11.19l1.28-144.48c9.05-2.34,17.58-7.1,24.5199-14.23c3.3899,4.83,7.6201,9.03,12.6299,12.37
	l13.8401,136.12C2081.26,454.48,2078.9299,460.74,2078.3101,467.43z M2153.03,454.14c-6.78-14.18-21.7-23.4-38.1599-22.29
	l-11.3101-111.27c8.0601-0.98,16.01-3.86,23.23-8.42c2.8899,3.9,7.05,6.89,12.1001,8.28c1.1599,0.32,2.3201,0.54,3.47,0.67
	c-0.0801,17.36,11.3999,33.31,28.9399,38.13c7.72,2.12,15.54,1.78,22.6201-0.53l4.79,78.06
	C2181.77,435.89,2165.1101,442.21,2153.03,454.14z M2365.1399,501.12c-4.1799,4.93-7.1799,10.89-8.53,17.47
	c-2.74-1.1-5.72-1.72-8.8501-1.75c-1.3-0.01-2.5801,0.09-3.8301,0.28c-5.52-14.18-16.3501-26.3-31.3-33.1
	c-19.23-8.76-40.6399-6.6-57.29,3.85c-3.05-19.42-15.48-36.99-34.71-45.74c-1.1599-0.53-2.3401-1.01-3.52-1.46l-5.74-93.48
	c2.1799-2.49,4.0601-5.27,5.5801-8.31c2.3601,1.76,5.0901,3.13,8.1001,3.96c8.3799,2.3,16.9399-0.07,22.8999-5.54
	c13.3401,1.15,26.3301-2.87,36.5601-10.69c13.8401,8.64,31.6699,7.78,44.6001-2.05c1.3401,2.63,3.1799,5.06,5.51,7.14
	c6.5,5.77,15.22,7.43,22.99,5.17c2.8701,1.74,5.8701,3.16,8.9399,4.3L2365.1399,501.12z M2448.8999,512.63
	c-1.8101,1.53-3.53,3.19-5.1599,4.94c-2.1899-0.73-4.52-1.14-6.95-1.16c-1.2-0.01-2.3799,0.07-3.53,0.25
	c-4.26-16.38-18.8101-28.65-36.3999-29.4l1.28-144.48c9.05-2.34,17.5801-7.1,24.52-14.23c4.3899,6.26,10.1899,11.48,17.27,15.11
	c8.6001,4.41,18.01,5.92,27.29,4.91L2448.8999,512.63z M2541.6399,530.73c-6.02-11.52-15.76-21.21-28.51-27.02
	c-14.6799-6.68-30.6201-7-44.76-2.14l17.72-158.7c3.96-2,7.77-4.47,11.3101-7.4c2.6499,2.25,5.5901,4.24,8.8201,5.89
	c11.97,6.14,25.3799,6.54,37.0801,2.21L2541.6399,530.73z M2679.1599,469c-4.6599,4.47-8.25,10.1-10.27,16.51
	c-2.6101-1.37-5.51-2.3-8.6201-2.64c-8.6399-0.96-16.72,2.72-21.76,9.05c-24.8899,1.77-45.76,21.06-48.6299,46.75
	c-0.0801,0.76-0.1399,1.51-0.2,2.27c-3.96-0.64-7.9399-0.88-11.8799-0.73l2.1899-246.02c12.9299,2.29,25.99-0.4,36.77-7.02
	c12.8799,10.01,30.71,10.97,44.5801,2.51c1.0601,2.75,2.6399,5.36,4.76,7.66c5.8701,6.41,14.3799,8.94,22.3401,7.49
	c2.6799,2.02,5.51,3.75,8.46,5.19L2679.1599,469z M2841.3601,476.82c-24.1001-7.48-51.3,0.7-66.9299,22.26
	c-2.3799,3.28-4.3799,6.72-6.01,10.27c-1.9099-9.3-9.6101-16.73-19.55-17.84c-1.1899-0.13-2.3701-0.17-3.53-0.12
	c-2.5701-16.73-15.79-30.42-33.21-32.96l16.03-143.6c9.24-1.4,18.21-5.27,25.8401-11.66c3.73,6.68,8.97,12.46,15.6399,16.8
	c17.47,11.35,40.02,9.7,58.01-2.26c2.4099,2.51,5.1299,4.78,8.1699,6.76c2.22,1.44,4.52,2.66,6.8701,3.67L2841.3601,476.82z
	 M2985.52,445.43c-4.1799,4.93-7.1799,10.89-8.53,17.47c-2.74-1.1-5.72-1.72-8.8501-1.75c-8.6899-0.08-16.3501,4.41-20.72,11.22
	c-7.4399,1.3-14.3401,4.17-20.3601,8.24c-15.1499-4.53-31.8799-0.8-43.6699,10.17c-1.8301-2.85-4.2-5.42-7.1101-7.52
	c-5.0801-3.68-10.97-5.4-16.79-5.31l1.3-146.02c15.1399,0.04,29.99-7.34,38.8601-20.98c7.99-12.29,9.3501-26.96,5.02-39.85
	c0.0801-0.06,0.1599-0.11,0.24-0.17c13.8401,8.64,31.6699,7.78,44.6001-2.05c1.3401,2.63,3.1799,5.06,5.51,7.14
	c3.8101,3.39,8.3899,5.35,13.1001,5.94c0.3799,13.16,7.3799,25.37,18.5801,32.32L2985.52,445.43z M3077.3601,473.7
	c-3.5601-7.61-11.24-12.91-20.2-12.99c-1.2-0.01-2.3799,0.07-3.53,0.25c-4.26-16.38-18.8101-28.65-36.3999-29.4l1-112.89
	c10.4299-2.98,19.4299-10.21,24.4299-20.26c2.3601,1.76,5.0901,3.13,8.1001,3.96c6.0801,1.67,12.26,0.87,17.47-1.78l10.5901,172.44
	C3078.3401,473.25,3077.8501,473.47,3077.3601,473.7z M3096.6899,468.02l-10.54-171.6c0.8101-0.12,1.6201-0.27,2.4199-0.43
	c3.29,1.55,6.8401,2.67,10.6101,3.27c6.73,1.07,13.3301,0.36,19.3301-1.77l-19.01,170.26
	C3098.5601,467.82,3097.6201,467.91,3096.6899,468.02z M3190.8701,460.66c-4.1799,4.93-7.1799,10.89-8.53,17.47
	c-2.74-1.1-5.72-1.72-8.8501-1.75c-8.6899-0.08-16.3501,4.41-20.72,11.22c-1.1299,0.2-2.25,0.45-3.3601,0.71
	c-5.5-6.3-12.3799-11.58-20.49-15.27c-3.71-1.69-7.51-2.97-11.3401-3.87l19.8301-177.64c1.6299-0.27,3.23-0.63,4.8201-1.09
	c5.51,0.65,11.04,0.28,16.3301-1c0.5601,0.62,1.1599,1.22,1.8,1.78c6.5,5.77,15.22,7.43,22.99,5.17
	c2.8701,1.74,5.8701,3.16,8.9399,4.3L3190.8701,460.66z M3300.8799,437.27c-2.8401-0.79-5.8701-1.08-8.99-0.77
	c-8.6499,0.88-15.77,6.18-19.3601,13.43c-7.8999,2.3-14.97,6.38-20.8101,11.73c-6.8799-8.67-17.3201-14.38-29.1499-14.88
	l1.28-144.48c9.05-2.34,17.5801-7.1,24.52-14.23c4.3899,6.26,10.1899,11.48,17.27,15.11c9.5901,4.92,20.1799,6.23,30.47,4.45
	l11.3201,111.33C3303.8301,424.32,3301.51,430.58,3300.8799,437.27z M3375.6001,423.97c-6.78-14.18-21.7-23.4-38.1599-22.29
	l-10.55-103.82c1.6001,1.1,3.28,2.12,5.0601,3.03c11.3,5.8,23.8799,6.48,35.0901,2.9c4.0701,11.92,13.77,21.69,26.8301,25.28
	c7.72,2.12,15.54,1.78,22.6201-0.53l4.79,78.06C3404.3401,405.72,3387.6899,412.04,3375.6001,423.97z M3587.72,470.96
	c-4.1799,4.93-7.1799,10.89-8.53,17.47c-2.74-1.1-5.72-1.72-8.8501-1.75c-1.3-0.01-2.5801,0.09-3.8301,0.28
	c-5.52-14.18-16.3501-26.3-31.3-33.1c-19.23-8.76-40.6399-6.6-57.29,3.85c-3.05-19.42-15.48-36.99-34.71-45.74
	c-1.1599-0.53-2.3401-1.01-3.52-1.46l-5.74-93.48c2.1799-2.49,4.0601-5.27,5.5801-8.31c2.3601,1.76,5.0901,3.13,8.1001,3.96
	c8.3799,2.3,16.9399-0.07,22.8999-5.54c13.3401,1.15,26.3301-2.87,36.5601-10.69c13.8401,8.64,31.6699,7.78,44.6001-2.05
	c1.3401,2.63,3.1799,5.06,5.51,7.14c6.5,5.77,15.22,7.43,22.99,5.17c2.8701,1.74,5.8701,3.16,8.9399,4.3L3587.72,470.96z
	 M3671.48,482.46c-1.8101,1.53-3.53,3.19-5.1599,4.94c-2.1899-0.73-4.52-1.14-6.95-1.16c-1.2-0.01-2.3799,0.07-3.53,0.25
	c-4.26-16.38-18.8101-28.65-36.3999-29.4l1.28-144.48c9.05-2.34,17.5801-7.1,24.52-14.23c4.3899,6.26,10.1899,11.48,17.27,15.11
	c8.6001,4.41,18.01,5.92,27.29,4.91L3671.48,482.46z M3764.21,500.56c-6.02-11.52-15.76-21.21-28.51-27.02
	c-14.6799-6.68-30.6201-7-44.76-2.14l17.72-158.7c3.96-2,7.77-4.47,11.3101-7.4c2.6499,2.25,5.5901,4.24,8.8201,5.89
	c11.97,6.14,25.3799,6.54,37.0801,2.21L3764.21,500.56z M3901.73,438.83c-4.6599,4.47-8.25,10.1-10.27,16.51
	c-2.6101-1.37-5.51-2.3-8.6201-2.64c-8.6399-0.96-16.72,2.72-21.76,9.05c-24.8899,1.77-45.76,21.06-48.6299,46.75
	c-0.0801,0.76-0.1399,1.51-0.2,2.27c-3.96-0.64-7.9399-0.88-11.8799-0.73l2.1899-246.02c12.9299,2.29,25.99-0.4,36.77-7.02
	c12.8799,10.01,30.71,10.97,44.5801,2.51c1.0601,2.75,2.6399,5.36,4.76,7.66c5.8701,6.41,14.3799,8.94,22.3401,7.49
	c2.6799,2.02,5.51,3.75,8.46,5.19L3901.73,438.83z M4063.9399,446.65c-24.1001-7.48-51.3,0.7-66.9299,22.26
	c-2.3799,3.28-4.3701,6.72-6.01,10.27c-1.9099-9.3-9.6101-16.73-19.55-17.84c-1.1899-0.13-2.3701-0.17-3.53-0.12
	c-2.5701-16.73-15.79-30.42-33.21-32.96l16.03-143.6c9.24-1.4,18.21-5.27,25.8401-11.66c3.73,6.68,8.96,12.46,15.6399,16.8
	c17.47,11.35,40.02,9.7,58.01-2.26c2.4099,2.51,5.1299,4.78,8.1699,6.76c2.22,1.44,4.52,2.66,6.8701,3.67L4063.9399,446.65z
	 M4208.0898,415.27c-4.1802,4.93-7.1802,10.89-8.5298,17.47c-2.7402-1.1-5.7202-1.72-8.8501-1.75
	c-8.6899-0.08-16.3501,4.41-20.7202,11.22c-7.4399,1.3-14.3398,4.17-20.3599,8.24c-15.1499-4.53-31.8799-0.8-43.6699,10.17
	c-1.8301-2.85-4.2002-5.42-7.1099-7.52c-5.0801-3.68-10.97-5.4-16.79-5.31l1.3-146.02c15.1399,0.04,29.99-7.34,38.8601-20.98
	c7.9902-12.29,9.3501-26.96,5.02-39.85c0.0801-0.06,0.1602-0.11,0.2402-0.17c13.8398,8.64,31.6699,7.78,44.6001-2.05
	c1.3398,2.63,3.1802,5.06,5.5098,7.14c3.8101,3.39,8.3901,5.35,13.1001,5.94c0.3799,13.16,7.3799,25.37,18.5801,32.32
	L4208.0898,415.27z M4299.9399,443.54c-3.5601-7.61-11.2402-12.91-20.2002-12.99c-1.2002-0.01-2.3799,0.07-3.5298,0.25
	c-4.2598-16.38-18.8101-28.65-36.3999-29.4l1-112.89c10.4302-2.98,19.4302-10.21,24.4302-20.26c2.3599,1.76,5.0898,3.13,8.1001,3.96
	c3.8501,1.06,7.7402,1.12,11.3901,0.35c1.7798,3.51,4.0698,6.73,6.79,9.56l9.8701,160.74
	C4300.9199,443.09,4300.4199,443.3,4299.9399,443.54z M4322.0801,437.59c-0.9399,0.07-1.8799,0.16-2.8198,0.27l-8.8999-144.84
	c1.0898,0.27,2.1899,0.49,3.3198,0.67c8.8999,1.42,17.5801-0.27,24.9302-4.26L4322.0801,437.59z M4413.4399,430.49
	c-4.1802,4.93-7.1802,10.89-8.5298,17.47c-2.7402-1.1-5.7202-1.72-8.8501-1.75c-8.6899-0.08-16.3501,4.41-20.7202,11.22
	c-1.1299,0.2-2.25,0.45-3.3599,0.71c-5.5-6.3-12.3799-11.58-20.4902-15.27c-3.71-1.69-7.5098-2.97-11.3398-3.87l18.9102-169.43
	c1.9399,0.88,4.0298,1.54,6.2402,1.89c8.3301,1.33,16.3301-1.75,21.6699-7.5c5.8301,3.35,12.6899,4.08,18.9399,2.26
	c2.8701,1.74,5.8701,3.16,8.9399,4.3L4413.4399,430.49z M4515.3901,431.7c-2.8398-0.79-5.8701-1.08-8.9902-0.77
	c-8.6499,0.88-15.77,6.18-19.3599,13.43c-1.54,0.45-3.0498,0.97-4.5298,1.55c-0.3198,0.03-0.6401,0.06-0.96,0.1
	c-4.2598-16.38-18.8101-28.65-36.3999-29.4l1.2798-144.48c9.0498-2.34,17.5801-7.1,24.52-14.23
	c4.3901,6.26,10.1899,11.48,17.27,15.11c6.3501,3.25,13.1299,4.93,19.98,5.18l13.7402,135.2
	C4518.3398,418.75,4516.02,425.01,4515.3901,431.7z M4590.1099,418.4c-6.7798-14.18-21.7002-23.4-38.1602-22.29l-12.8599-126.52
	c2.2798-1.42,4.4902-3.01,6.6099-4.75c2.6499,2.25,5.5898,4.24,8.8198,5.89c2.5098,1.29,5.0801,2.31,7.6802,3.1
	c2.8301,5.15,7.6499,9.2,13.7598,10.88c1.1602,0.32,2.3198,0.54,3.4702,0.67c-0.0801,17.36,11.3999,33.31,28.9399,38.13
	c7.7202,2.12,15.54,1.78,22.6201-0.53l4.79,78.06C4618.8501,400.15,4602.2002,406.47,4590.1099,418.4z M4802.23,465.39
	c-4.1802,4.93-7.1802,10.89-8.5298,17.47c-2.7402-1.1-5.7202-1.72-8.8501-1.75c-1.2998-0.01-2.5801,0.09-3.8301,0.28
	c-5.52-14.18-16.3501-26.3-31.2998-33.1c-19.23-8.76-40.6401-6.6-57.29,3.85c-3.0498-19.42-15.48-36.99-34.71-45.74
	c-1.1602-0.53-2.3398-1.01-3.52-1.46l-5.7402-93.48c2.1802-2.49,4.0601-5.27,5.5801-8.31c2.3599,1.76,5.0898,3.13,8.1001,3.96
	c8.3799,2.3,16.9399-0.07,22.8999-5.54c13.3398,1.15,26.3301-2.87,36.5601-10.69c13.8398,8.64,31.6699,7.78,44.6001-2.05
	c1.3398,2.63,3.1802,5.06,5.5098,7.14c6.5,5.77,15.2202,7.43,22.9902,5.17c2.8701,1.74,5.8701,3.16,8.9399,4.3L4802.23,465.39z
	 M4885.9902,476.89c-1.8101,1.53-3.5298,3.19-5.1699,4.94c-2.1899-0.73-4.52-1.14-6.9502-1.16c-1.2002-0.01-2.3799,0.07-3.5298,0.25
	c-4.2598-16.38-18.8101-28.65-36.3999-29.4l1.2798-144.48c9.0498-2.34,17.5801-7.1,24.52-14.23
	c4.3901,6.26,10.1899,11.48,17.27,15.11c8.6001,4.41,18.0098,5.92,27.29,4.91L4885.9902,476.89z M4978.79,487.04
	c-1.4399,0.31-2.8701,0.67-4.2798,1.08c-5.9702-8.47-14.1802-15.53-24.2998-20.14c-14.6802-6.68-30.6201-7-44.7598-2.14
	l17.7202-158.7c3.96-2,7.77-4.47,11.3101-7.4c2.6499,2.25,5.5898,4.24,8.8198,5.89c11.9702,6.14,25.3799,6.54,37.0801,2.21
	L4978.79,487.04z"/>
</svg>
