<?xml version="1.0" encoding="utf-8"?>
<!-- Generator: Adobe Illustrator 26.5.1, SVG Export Plug-In . SVG Version: 6.00 Build 0)  -->
<svg version="1.1" id="background" xmlns="http://www.w3.org/2000/svg" xmlns:xlink="http://www.w3.org/1999/xlink" x="0px" y="0px"
	 viewBox="0 0 5000 950" style="enable-background:new 0 0 5000 950;" xml:space="preserve">
<g id="mtn1_00000082340706366480796030000003519016369600498561_" style="display:none;">
	<rect id="sky" style="display:inline;fill:#3E77AA;" width="5000" height="950"/>
	<polygon id="mtn1" style="display:inline;fill:#FFFFFF;" points="4952.6299,310 4931.2402,328.04 4919.27,317.95 4895.4102,338.07 
		4895.0498,337.77 4771.0698,233.21 4676.9302,312.6 4616.8799,261.95 4603.5498,273.19 4556.1401,233.21 4520.25,263.48 
		4433.8701,190.64 4310.5,294.68 4271.7002,261.95 4231.5098,295.85 4149.5498,226.73 4055.4099,306.12 3995.3601,255.47 
		3982.03,266.71 3934.6201,226.73 3898.73,257 3812.3501,184.15 3688.98,288.19 3650.1799,255.47 3604.8201,293.72 3565.21,260.32 
		3471.0801,339.71 3411.02,289.06 3397.6899,300.3 3350.28,260.32 3314.3899,290.59 3228.01,217.75 3168.8301,267.66 
		3101.96,211.26 3033.26,269.2 3022.1499,259.82 2955.75,315.82 2934.3501,333.87 2922.3899,323.77 2898.53,343.9 2898.1699,343.59 
		2774.1799,239.03 2680.05,318.42 2619.99,267.78 2606.6599,279.02 2559.25,239.03 2523.3601,269.3 2436.99,196.46 2313.6201,300.5 
		2274.8101,267.78 2234.6201,301.67 2152.6599,232.55 2058.53,311.94 1998.47,261.29 1985.14,272.53 1937.73,232.55 1901.84,262.82 
		1815.47,189.97 1692.1,294.02 1653.29,261.29 1589.79,314.84 1508.5699,251.95 1417.8199,335.2 1355.71,287.1 1342.86,298.89 
		1293.8199,260.92 1259.23,292.66 1169.89,223.48 1112.84,275.82 1043.67,222.26 977.45,283.01 965.96,274.11 901.95,332.83 
		881.33,351.75 868.95,342.17 845.95,363.27 845.58,362.98 717.34,263.69 626.59,346.94 564.48,298.84 551.63,310.62 502.59,272.66 
		468,304.4 378.66,235.22 259.74,344.32 219.6,313.24 180.86,348.78 96.09,283.15 63.14,313.37 0,271.52 0,362.25 0,374.59 
		0,386.87 0,496.46 0,950 5000,950 5000,442.33 5000,374.59 5000,270.05 	"/>
</g>
<polygon id="mtn2" style="display:none;fill:#D0DCE8;" points="4998.29,276.79 4918.8398,330.84 4812.0098,240.75 4717.8701,320.14 
	4657.8101,269.49 4644.4902,280.73 4597.0801,240.75 4561.1899,271.02 4474.8101,198.17 4351.4399,302.21 4312.6401,269.49 
	4272.4502,303.38 4190.4902,234.27 4096.3501,313.65 4036.29,263.01 4022.97,274.25 3975.5601,234.27 3939.6699,264.53 
	3853.29,191.69 3729.9199,295.73 3691.1201,263.01 3645.76,301.26 3606.1499,267.86 3512.01,347.25 3451.96,296.6 3438.6299,307.84 
	3391.22,267.86 3355.3301,298.13 3268.95,225.28 3209.77,275.2 3142.8999,218.8 3074.2,276.73 3063.0901,267.36 2996.6899,323.36 
	2975.29,341.4 2963.3301,331.31 2939.46,351.44 2939.1001,351.13 2815.1201,246.57 2720.98,325.96 2660.9299,275.31 
	2647.6001,286.55 2600.1899,246.57 2564.3,276.84 2477.9199,204 2354.55,308.04 2315.75,275.31 2275.5601,309.21 2193.6001,240.09 
	2099.47,319.48 2039.41,268.83 2026.08,280.07 1978.67,240.09 1942.78,270.36 1856.4,197.51 1733.04,301.55 1694.23,268.83 
	1631.11,322.06 1549.8101,259.1 1459.0699,342.35 1396.95,294.25 1384.1,306.04 1335.0699,268.07 1300.47,299.81 1211.13,230.64 
	1154.08,282.97 1084.92,229.42 1018.7,290.17 1007.2,281.27 943.19,339.99 922.57,358.91 910.19,349.32 887.19,370.43 
	886.82,370.14 758.58,270.84 667.84,354.09 605.72,305.99 592.88,317.78 543.84,279.81 509.24,311.55 419.9,242.37 300.98,351.47 
	260.85,320.4 222.1,355.94 137.33,290.3 87.57,335.95 85.89,334.84 0,277.92 0,505.34 0,950 5000,950 5000,449.87 5000,449.87 
	5000,277.92 "/>
<polygon id="mtn3" style="display:none;fill:#CDD3D1;" points="4953.8301,322.13 4943.0898,314.96 4878.9399,357.78 4858.27,371.58 
	4846.71,363.86 4823.6499,379.25 4823.3101,379.02 4703.52,299.06 4612.5698,359.77 4554.5498,321.04 4541.6699,329.63 
	4495.8599,299.06 4461.1899,322.21 4377.7402,266.5 4258.54,346.06 4221.0498,321.04 4182.2202,346.96 4103.04,294.1 
	4012.0901,354.81 3954.0601,316.08 3941.1899,324.68 3895.3799,294.1 3860.71,317.25 3777.25,261.54 3658.0601,341.11 
	3620.5701,316.08 3556.4199,358.9 3541.9199,368.58 3470.8899,321.16 3379.9399,381.87 3321.9099,343.14 3309.04,351.74 
	3263.23,321.16 3228.5601,344.31 3145.1001,288.6 3087.9199,326.77 3023.3201,283.64 2956.9399,327.95 2946.21,320.78 
	2882.05,363.61 2861.3799,377.4 2849.8201,369.69 2826.77,385.08 2826.4199,384.84 2706.6299,304.88 2615.6799,365.59 
	2557.6599,326.86 2544.78,335.46 2498.98,304.88 2464.3,328.03 2380.8501,272.32 2261.6599,351.89 2224.1699,326.86 
	2185.3401,352.78 2106.1499,299.92 2015.2,360.64 1957.1801,321.9 1944.3,330.5 1898.5,299.92 1863.8199,323.07 1780.37,267.36 
	1661.1801,346.93 1623.6899,321.9 1559.53,364.73 1532.74,382.61 1416.76,312.01 1328.4301,376.46 1268.84,340.19 1256.33,349.31 
	1209.29,320.67 1175.61,345.25 1089.91,293.07 1034.37,333.59 968.02,293.2 903.55,340.24 892.53,333.52 830.22,378.99 
	810.14,393.64 798.26,386.41 775.87,402.75 775.52,402.53 652.5,327.63 564.16,392.09 504.57,355.81 492.06,364.94 445.02,336.3 
	411.34,360.87 325.64,308.7 209.87,393.17 171.37,369.73 133.65,397.25 52.33,347.74 25.65,367.2 0,350.2 0,950 5000,950 
	5000,442.7 5000,291.3 "/>
<path id="bg4" style="display:none;fill:#BBB486;" d="M4996.29,405.95c-9.5801-7.63-22.1602-13.19-36.3701-15.66
	c-3.5698-5.2-10.4199-8.77-18.3301-8.86c-1.3599-0.02-2.6899,0.07-3.98,0.26c-2.6001-6.95-10.5698-12.08-20.0801-12.2
	c-7.1401-0.09-13.4902,2.68-17.3799,6.98c-6.3799-3.13-13.8398-4.98-21.8301-5.08c-13.5898-0.17-25.7598,4.75-33.7402,12.56
	c0.3501-1.19,0.54-2.43,0.5601-3.7c0.1201-9.39-9.27-17.12-20.9702-17.27c-9.6299-0.12-17.8101,4.94-20.4702,11.97
	c-3.8101-4.21-9.9502-6.98-16.9102-7.07c-4.04-0.05-7.8198,0.81-11.0498,2.35c-2.9302-6.49-10.6201-11.18-19.7002-11.29
	c-11.7002-0.14-21.27,7.35-21.3901,16.74c0,0.35,0.0098,0.7,0.0298,1.04c-2.27-0.7-4.73-1.1-7.2998-1.13
	c-11.7002-0.14-21.27,7.35-21.3901,16.74c-0.02,1.76,0.2998,3.47,0.8999,5.07c-2.98-0.54-6.0698-0.85-9.25-0.89
	c-4.0098-0.05-7.8999,0.35-11.6099,1.1c-3.79-4.36-10.0298-7.26-17.1401-7.35c-0.1499,0-0.3101,0.01-0.46,0.01
	c-0.1699-0.01-0.3398-0.02-0.52-0.02c-7.77-0.1-14.6001,3.18-18.3501,8.15c-3.6499-0.47-7.3901-0.74-11.21-0.78
	c-0.75-0.01-1.5,0-2.25,0.01c-0.5698-0.02-1.1299-0.05-1.71-0.06c-3.02-0.04-6,0.07-8.9302,0.3
	c-3.6602-4.92-10.3198-8.26-17.9702-8.35c-5.2598-0.06-10.0898,1.42-13.8301,3.93c-7.3501-4.41-16.4102-7.07-26.2598-7.2
	c-8.8198-0.11-17.0698,1.84-24.0498,5.29c-3.4199-1.98-7.5898-3.18-12.1099-3.23c-7.73-0.1-14.54,3.15-18.29,8.08
	c-4.6299-1.4-9.6099-2.21-14.8198-2.31c-2.02-2.33-4.2598-4.54-6.7402-6.61c1.6401-2.38,2.5898-5.12,2.6299-8.03
	c0.1201-9.39-9.27-17.12-20.9702-17.27c-8.0898-0.1-15.1699,3.46-18.7998,8.77c-5.04-0.9-10.29-1.4-15.6899-1.47
	c-3.02-0.04-6,0.07-8.9302,0.3c-3.6602-4.92-10.3198-8.26-17.9702-8.35c-5.2598-0.06-10.0898,1.42-13.8301,3.93
	c-7.3501-4.41-16.4102-7.07-26.2598-7.2c-8.8198-0.11-17.0698,1.84-24.0498,5.29c-3.4199-1.98-7.5898-3.18-12.1099-3.23
	c-7.73-0.1-14.54,3.15-18.29,8.08c-4.7402-1.44-9.8599-2.26-15.21-2.32c-4.3101-0.05-8.4702,0.39-12.4199,1.25
	c-3.77-4.46-10.0898-7.42-17.29-7.51c-7.77-0.1-14.6001,3.18-18.3501,8.15c-3.6499-0.47-7.3901-0.74-11.21-0.78
	c-16.4399-0.2-31.6299,3.7-43.7998,10.42c-3.3799-1.69-7.3799-2.64-11.6401-2.57c-11.6899,0.19-20.9199,7.96-20.6201,17.35
	c0.1602,4.79,2.77,9.07,6.8398,12.1c-0.79,1.97-1.4302,4-1.9102,6.06c-3.4302-5.57-10.5098-9.45-18.7598-9.55
	c-9.6299-0.12-17.8101,4.94-20.4702,11.97c-3.8101-4.21-9.9502-6.98-16.9102-7.07c-1-0.01-1.9902,0.03-2.96,0.13
	c-4.3198-1.86-8.9302-3.4-13.7598-4.58c-2.2798-1.68-5.02-2.96-8.05-3.72c-3.8401-3.82-9.6699-6.31-16.25-6.39
	c-1.3601-0.02-2.6899,0.07-3.98,0.26c-2.6001-6.95-10.5801-12.08-20.0801-12.2c-7.1399-0.09-13.49,2.68-17.3799,6.98
	c-6.3799-3.13-13.8401-4.98-21.8401-5.08c-13.5901-0.17-25.76,4.75-33.74,12.56c0.3501-1.19,0.54-2.43,0.5601-3.7
	c0.1201-9.39-9.27-17.12-20.97-17.27c-9.6299-0.12-17.8101,4.94-20.47,11.97c-3.8101-4.21-9.95-6.98-16.9099-7.07
	c-4.04-0.05-7.8201,0.81-11.05,2.35c-2.9299-6.49-10.6201-11.18-19.7-11.29c-11.7-0.14-21.27,7.35-21.3899,16.74
	c0,0.35,0.01,0.7,0.03,1.04c-2.27-0.7-4.73-1.1-7.3-1.13c-7.9099-0.1-14.8401,3.31-18.54,8.42c-3.8201-4.12-9.8701-6.83-16.74-6.91
	c-8.0901-0.1-15.1699,3.46-18.8,8.77c-5.04-0.9-10.29-1.4-15.6899-1.47c-3.02-0.04-6,0.07-8.9299,0.3
	c-3.6599-4.92-10.3201-8.26-17.97-8.35c-5.26-0.06-10.0901,1.42-13.8301,3.93c-7.3501-4.41-16.4099-7.07-26.26-7.2
	c-8.8201-0.11-17.0701,1.84-24.05,5.29c-3.4199-1.98-7.5901-3.18-12.1101-3.23c-0.05,0-0.0901,0-0.1399,0
	c-3.6899-4.84-10.27-8.11-17.8301-8.2c-8.0901-0.1-15.1699,3.46-18.8,8.77c-5.04-0.9-10.29-1.4-15.6899-1.47
	c-3.02-0.04-6,0.07-8.9299,0.3c-3.6599-4.92-10.3201-8.26-17.97-8.35c-5.26-0.06-10.0901,1.42-13.8301,3.93
	c-7.3501-4.41-16.4099-7.07-26.26-7.2c-8.8201-0.11-17.0701,1.84-24.05,5.29c-3.4199-1.98-7.5901-3.18-12.1101-3.23
	c-7.73-0.1-14.54,3.15-18.29,8.08c-4.74-1.44-9.8601-2.26-15.21-2.32c-4.3-0.05-8.47,0.39-12.4199,1.25
	c-3.77-4.46-10.0901-7.42-17.29-7.51c-7.77-0.1-14.6001,3.18-18.3501,8.15c-3.6499-0.47-7.3899-0.74-11.21-0.78
	c-16.4399-0.2-31.6299,3.7-43.8,10.42c-3.3799-1.69-7.3799-2.64-11.6399-2.57c-4.96,0.08-9.48,1.54-13.01,3.9
	c-2.7-8.84-8.3999-16.87-16.28-23.45c1.6399-2.38,2.5901-5.12,2.6299-8.03c0.1201-9.39-9.27-17.12-20.97-17.27
	c-8.0901-0.1-15.1699,3.46-18.8,8.77c-5.04-0.9-10.29-1.4-15.6899-1.47c-3.02-0.04-6,0.07-8.9299,0.3
	c-3.6599-4.92-10.3201-8.26-17.97-8.35c-5.26-0.06-10.0901,1.42-13.8301,3.93c-7.3501-4.41-16.4099-7.07-26.26-7.2
	c-8.8201-0.11-17.0701,1.84-24.05,5.29c-3.4199-1.98-7.5901-3.18-12.1101-3.23c-7.73-0.1-14.54,3.15-18.29,8.08
	c-4.74-1.44-9.8601-2.26-15.21-2.32c-4.3101-0.05-8.47,0.39-12.4199,1.25c-3.77-4.46-10.0901-7.42-17.29-7.51
	c-7.77-0.1-14.6001,3.18-18.3501,8.15c-3.6499-0.47-7.3899-0.74-11.21-0.78c-16.4399-0.2-31.6299,3.7-43.8,10.42
	c-3.3799-1.69-7.3799-2.64-11.6399-2.57c-11.6899,0.19-20.9199,7.96-20.6201,17.35c0.1599,4.79,2.77,9.07,6.8401,12.1
	c-1.5601,3.87-2.52,7.93-2.8301,12.13c-3.1201-0.59-6.3601-0.93-9.6899-0.97c-9.4399-0.12-18.23,2.12-25.51,6.03
	c-10-10.6-25.1101-18.42-42.72-21.47c-3.5701-5.2-10.4199-8.77-18.3301-8.86c-1.3601-0.02-2.6899,0.07-3.98,0.26
	c-2.6001-6.95-10.5701-12.08-20.0801-12.2c-7.1399-0.09-13.49,2.68-17.3799,6.98c-6.3799-3.13-13.8401-4.98-21.8401-5.08
	c-13.5901-0.17-25.76,4.75-33.74,12.56c0.3501-1.19,0.54-2.43,0.5601-3.7c0.1201-9.39-9.27-17.12-20.97-17.27
	c-9.6299-0.12-17.8101,4.94-20.47,11.97c-3.8101-4.21-9.95-6.98-16.9099-7.07c-4.04-0.05-7.8201,0.81-11.05,2.35
	c-2.9299-6.49-10.6201-11.18-19.7-11.29c-11.7-0.14-21.27,7.35-21.3899,16.74c0,0.35,0.01,0.7,0.03,1.04
	c-2.27-0.7-4.73-1.1-7.3-1.13c-11.7-0.14-21.27,7.35-21.3899,16.74c-0.02,1.76,0.3,3.47,0.8999,5.07
	c-2.98-0.54-6.0701-0.85-9.25-0.89c-4.01-0.05-7.8999,0.35-11.6101,1.1c-3.79-4.36-10.03-7.26-17.1399-7.35
	c-0.1499,0-0.3101,0.01-0.46,0.01c-0.1699-0.01-0.3401-0.02-0.51-0.02c-7.77-0.1-14.6001,3.18-18.3501,8.15
	c-3.6499-0.47-7.3899-0.74-11.21-0.78c-0.75-0.01-1.5,0-2.25,0.01c-0.5701-0.02-1.1299-0.05-1.71-0.06c-3.02-0.04-6,0.07-8.9299,0.3
	c-3.6599-4.92-10.3201-8.26-17.97-8.35c-5.26-0.06-10.0901,1.42-13.8301,3.93c-7.3501-4.41-16.4099-7.07-26.26-7.2
	c-8.8201-0.11-17.0701,1.84-24.05,5.29c-3.4199-1.98-7.5901-3.18-12.1101-3.23c-7.73-0.1-14.54,3.15-18.29,8.08
	c-4.6299-1.4-9.6101-2.21-14.8201-2.31c-2.02-2.33-4.26-4.54-6.74-6.61c1.6399-2.38,2.5901-5.12,2.6299-8.03
	c0.1201-9.39-9.27-17.12-20.97-17.27c-8.0901-0.1-15.1699,3.46-18.8,8.77c-5.04-0.9-10.29-1.4-15.6899-1.47
	c-3.02-0.04-6,0.07-8.9299,0.3c-3.6599-4.92-10.3201-8.26-17.97-8.35c-5.26-0.06-10.0901,1.42-13.8301,3.93
	c-7.3501-4.41-16.4099-7.07-26.26-7.2c-8.8201-0.11-17.0701,1.84-24.05,5.29c-3.4199-1.98-7.5901-3.18-12.1101-3.23
	c-7.73-0.1-14.54,3.15-18.29,8.08c-4.74-1.44-9.8601-2.26-15.21-2.32c-4.3101-0.05-8.47,0.39-12.4199,1.25
	c-3.77-4.46-10.0901-7.42-17.29-7.51c-7.77-0.1-14.6001,3.18-18.3501,8.15c-3.6499-0.47-7.3899-0.74-11.21-0.78
	c-16.4399-0.2-31.6299,3.7-43.8,10.42c-3.3799-1.69-7.3799-2.64-11.6399-2.57c-11.6899,0.19-20.9199,7.96-20.6201,17.35
	c0.1599,4.79,2.77,9.07,6.8401,12.1c-0.79,1.97-1.4299,4-1.9099,6.06c-3.4299-5.57-10.51-9.45-18.76-9.55
	c-9.6299-0.12-17.8101,4.94-20.47,11.97c-3.8101-4.21-9.95-6.98-16.9099-7.07c-1-0.01-1.99,0.03-2.96,0.13
	c-4.3201-1.86-8.9299-3.4-13.76-4.58c-2.28-1.68-5.02-2.96-8.05-3.72c-3.8401-3.82-9.6699-6.31-16.25-6.39
	c-1.3601-0.02-2.6899,0.07-3.98,0.26c-2.6001-6.95-10.5801-12.08-20.08-12.2c-7.14-0.09-13.49,2.68-17.38,6.98
	c-6.38-3.13-13.84-4.98-21.84-5.08c-13.59-0.17-25.76,4.75-33.74,12.56c0.35-1.19,0.54-2.43,0.5601-3.7
	c0.12-9.39-9.27-17.12-20.97-17.27c-9.63-0.12-17.8101,4.94-20.47,11.97c-3.8101-4.21-9.95-6.98-16.91-7.07
	c-4.04-0.05-7.8199,0.81-11.05,2.35c-2.9301-6.49-10.62-11.18-19.7-11.29c-11.7-0.14-21.27,7.35-21.39,16.74
	c0,0.35,0.01,0.7,0.03,1.04c-2.27-0.7-4.73-1.1-7.3-1.13c-7.91-0.1-14.84,3.31-18.54,8.42c-3.8199-4.12-9.87-6.83-16.74-6.91
	c-8.09-0.1-15.17,3.46-18.8,8.77c-5.04-0.9-10.29-1.4-15.6899-1.47c-3.02-0.04-6,0.07-8.9301,0.3
	c-3.66-4.92-10.3199-8.26-17.97-8.35c-5.26-0.06-10.09,1.42-13.83,3.93c-7.35-4.41-16.41-7.07-26.26-7.2
	c-8.8199-0.11-17.0699,1.84-24.05,5.29c-3.42-1.98-7.59-3.18-12.11-3.23c-7.73-0.1-14.54,3.15-18.29,8.08
	c-4.74-1.44-9.86-2.26-15.21-2.32c-4.3-0.05-8.47,0.39-12.42,1.25c-3.77-4.46-10.09-7.42-17.29-7.51
	c-1.48-0.02-2.92,0.09-4.3101,0.3c-3.8199-4.1-9.86-6.79-16.71-6.88c-8.09-0.1-15.17,3.46-18.8,8.77
	c-5.04-0.9-10.29-1.4-15.6899-1.47c-3.02-0.04-6,0.07-8.9301,0.3c-3.66-4.92-10.3199-8.26-17.97-8.35
	c-5.26-0.06-10.09,1.42-13.83,3.93c-7.35-4.41-16.41-7.07-26.26-7.2c-8.8199-0.11-17.0699,1.84-24.05,5.29
	c-3.42-1.98-7.59-3.18-12.11-3.23c-7.73-0.1-14.54,3.15-18.29,8.08c-4.74-1.44-9.86-2.26-15.21-2.32
	c-4.3101-0.05-8.47,0.39-12.42,1.25c-3.77-4.46-10.09-7.42-17.29-7.51c-7.77-0.1-14.6,3.18-18.35,8.15
	c-3.65-0.47-7.39-0.74-11.21-0.78c-16.4399-0.2-31.63,3.7-43.8,10.42c-3.38-1.69-7.38-2.64-11.64-2.57
	c-7.73,0.13-14.36,3.57-17.89,8.6c-5.23,2.03-9.26,5.74-10.98,10.28c-3.8101-4.21-9.95-6.98-16.91-7.07
	c-4.04-0.05-7.8199,0.81-11.05,2.35c-2.9301-6.49-10.62-11.18-19.7-11.29c-11.7-0.14-21.27,7.35-21.39,16.74
	c0,0.35,0.01,0.7,0.03,1.04c-0.6-0.18-1.21-0.35-1.84-0.49c-3.59-2.35-8.14-3.79-13.12-3.85c-1.36-0.02-2.6899,0.07-3.98,0.26
	c-2.6-6.95-10.58-12.08-20.08-12.2c-7.14-0.09-13.49,2.68-17.38,6.98c-6.38-3.13-13.84-4.98-21.84-5.08
	c-13.59-0.17-25.76,4.75-33.74,12.56c0.35-1.19,0.54-2.43,0.5601-3.7c0.12-9.39-9.27-17.12-20.97-17.27
	c-9.63-0.12-17.8101,4.94-20.47,11.97c-3.8101-4.21-9.95-6.98-16.91-7.07c-4.04-0.05-7.8199,0.81-11.05,2.35
	c-2.9301-6.49-10.62-11.18-19.7-11.29c-11.7-0.14-21.27,7.35-21.39,16.74c0,0.35,0.01,0.7,0.03,1.04c-2.27-0.7-4.73-1.1-7.3-1.13
	c-11.7-0.14-21.27,7.35-21.39,16.74c-0.02,1.76,0.3,3.47,0.9,5.07c-2.98-0.54-6.07-0.85-9.25-0.89c-4.01-0.05-7.9,0.35-11.61,1.1
	c-3.79-4.36-10.03-7.26-17.14-7.35c-0.15,0-0.31,0.01-0.46,0.01c-0.17-0.01-0.34-0.02-0.51-0.02c-7.77-0.1-14.6,3.18-18.35,8.15
	c-3.65-0.47-7.39-0.74-11.21-0.78c-0.75-0.01-1.5,0-2.25,0.01c-0.57-0.02-1.13-0.05-1.71-0.06c-3.02-0.04-6,0.07-8.93,0.3
	c-3.66-4.92-10.32-8.26-17.97-8.35c-5.26-0.06-10.09,1.42-13.83,3.93c-7.35-4.41-16.41-7.07-26.26-7.2
	c-8.82-0.11-17.07,1.84-24.05,5.29c-3.42-1.98-7.59-3.18-12.11-3.23c-7.73-0.1-14.54,3.15-18.29,8.08
	c-4.63-1.4-9.61-2.21-14.82-2.31c-2.02-2.33-4.26-4.54-6.74-6.61c1.64-2.38,2.59-5.12,2.63-8.03c0.12-9.39-9.27-17.12-20.97-17.27
	c-8.09-0.1-15.17,3.46-18.8,8.77c-5.04-0.9-10.29-1.4-15.69-1.47c-3.02-0.04-6,0.07-8.93,0.3c-3.66-4.92-10.32-8.26-17.97-8.35
	c-5.26-0.06-10.09,1.42-13.83,3.93c-7.35-4.41-16.41-7.07-26.26-7.2c-8.82-0.11-17.07,1.84-24.05,5.29
	c-3.42-1.98-7.59-3.18-12.11-3.23c-7.73-0.1-14.54,3.15-18.29,8.08c-4.74-1.44-9.86-2.26-15.21-2.32
	c-4.31-0.05-8.47,0.39-12.42,1.25c-3.77-4.46-10.09-7.42-17.29-7.51c-7.77-0.1-14.6,3.18-18.35,8.15
	c-3.65-0.47-7.39-0.74-11.21-0.78c-16.44-0.2-31.63,3.7-43.8,10.42c-3.38-1.69-7.38-2.64-11.64-2.57
	c-11.69,0.19-20.92,7.96-20.62,17.35c0.16,4.79,2.77,9.07,6.84,12.1c-0.79,1.97-1.43,4-1.91,6.06c-3.43-5.57-10.51-9.45-18.76-9.55
	c-9.63-0.12-17.81,4.94-20.47,11.97c-3.81-4.21-9.95-6.98-16.91-7.07c-1-0.01-1.99,0.03-2.96,0.13c-4.32-1.86-8.93-3.4-13.76-4.58
	c-2.28-1.68-5.02-2.96-8.05-3.72c-3.84-3.82-9.67-6.31-16.25-6.39c-1.36-0.02-2.69,0.07-3.98,0.26c-2.6-6.95-10.58-12.08-20.08-12.2
	c-7.14-0.09-13.49,2.68-17.38,6.98c-6.38-3.13-13.84-4.98-21.84-5.08c-13.59-0.17-25.76,4.75-33.74,12.56
	c0.35-1.19,0.54-2.43,0.56-3.7c0.12-9.39-9.27-17.12-20.97-17.27c-9.63-0.12-17.81,4.94-20.47,11.97
	c-3.81-4.21-9.95-6.98-16.91-7.07c-4.04-0.05-7.82,0.81-11.05,2.35c-2.93-6.49-10.62-11.18-19.7-11.29
	c-11.7-0.14-21.27,7.35-21.39,16.74c0,0.35,0.01,0.7,0.03,1.04c-2.27-0.7-4.73-1.1-7.3-1.13c-7.91-0.1-14.84,3.31-18.54,8.42
	c-3.82-4.12-9.87-6.83-16.74-6.91c-8.09-0.1-15.17,3.46-18.8,8.77c-5.04-0.9-10.29-1.4-15.69-1.47c-3.02-0.04-6,0.07-8.93,0.3
	c-3.66-4.92-10.32-8.26-17.97-8.35c-4.83-0.06-9.29,1.2-12.88,3.34c-1.82-1-3.83-1.68-5.96-2.02c-0.97-0.43-1.96-0.83-2.97-1.21
	v160.56V950h5000V474.6v-69.5C4998.7202,405.26,4997.48,405.54,4996.29,405.95z"/>
<path id="bg5" style="display:none;fill:#68652F;" d="M4895.3901,0.75h-74.4902H4635.48h-213.2402H4407.48h-208.79h-57.2402
	h-91.5601h-2.5601h-90.5901h-83.3701h-83.4099h-113.8601h-64.9099h-192.73H3206.5h-16.3999h-78.75H3086.98h-91.0801h-93.53h-58.5701
	h-39.3799H2754.5h-616.6599h-111.0699h-133.66h-83.33H943.93H860.8H694.54h-55.39H-0.01v99.6v545.44v304.96h5000V695.28V0.75
	H4895.3901z M74.32,542.28c-1.81,1.53-3.53,3.19-5.16,4.94c-0.4-0.13-0.81-0.24-1.21-0.35c-0.58-29.03-19.34-53.59-45.38-62.75
	l0.99-111.69c9.05-2.34,17.58-7.1,24.52-14.23c4.39,6.26,10.19,11.48,17.27,15.11c8.6,4.41,18.01,5.92,27.29,4.91L74.32,542.28z
	 M167.12,553.49h-4.27c-5.97-8.47-14.18-15.53-24.29-20.13c-14.68-6.68-30.62-7-44.76-2.14l17.72-158.7c3.96-2,7.77-4.47,11.31-7.4
	c2.65,2.25,5.59,4.24,8.82,5.89c11.97,6.14,25.38,6.54,37.08,2.21L167.12,553.49z M304.58,498.65c-4.66,4.47-8.25,10.1-10.27,16.51
	c-2.61-1.37-5.51-2.3-8.62-2.64c-8.64-0.96-16.72,2.72-21.76,9.05c-19.81,1.41-37.07,13.93-44.73,31.93h-15.82l2.04-229.66
	c12.93,2.29,25.99-0.4,36.77-7.02c12.88,10.01,30.71,10.97,44.58,2.51c1.06,2.75,2.64,5.36,4.76,7.66
	c5.87,6.41,14.38,8.94,22.34,7.49c2.68,2.02,5.51,3.75,8.46,5.19L304.58,498.65z M466.78,506.47c-24.1-7.48-51.3,0.7-66.93,22.26
	c-2.38,3.28-4.37,6.72-6.01,10.27c-1.91-9.3-9.61-16.73-19.55-17.84c-1.19-0.13-2.37-0.17-3.53-0.12
	c-2.57-16.73-15.79-30.42-33.21-32.96l16.03-143.6c9.24-1.4,18.21-5.27,25.84-11.66c3.73,6.68,8.96,12.46,15.64,16.8
	c17.47,11.35,40.02,9.7,58.01-2.26c2.41,2.51,5.13,4.78,8.17,6.76c2.22,1.44,4.52,2.66,6.87,3.67L466.78,506.47z M610.94,475.08
	c-4.18,4.93-7.18,10.89-8.53,17.47c-2.74-1.1-5.72-1.72-8.85-1.75c-8.69-0.08-16.35,4.41-20.72,11.22
	c-7.44,1.3-14.34,4.17-20.36,8.24c-15.15-4.53-31.88-0.8-43.67,10.17c-1.83-2.85-4.2-5.42-7.11-7.52
	c-5.08-3.68-10.97-5.4-16.79-5.31l1.3-146.02c15.14,0.04,29.99-7.34,38.86-20.98c7.99-12.29,9.35-26.96,5.02-39.85
	c0.08-0.06,0.16-0.11,0.24-0.17c13.84,8.64,31.67,7.78,44.6-2.05c1.34,2.63,3.18,5.06,5.51,7.14c3.81,3.39,8.39,5.35,13.1,5.94
	c0.38,13.16,7.38,25.37,18.58,32.32L610.94,475.08z M702.79,503.35c-3.56-7.61-11.24-12.91-20.2-12.99
	c-1.2-0.01-2.38,0.07-3.53,0.25c-4.26-16.38-18.81-28.65-36.4-29.4l1-112.89c9.06-2.59,17.04-8.4,22.26-16.46
	c5.54,5.19,12.63,8.85,20.69,10.13c2.63,0.42,5.24,0.56,7.8,0.46l9.84,160.24C703.76,502.9,703.27,503.12,702.79,503.35z
	 M722.11,497.67l-9.85-160.35c6.72-3.83,12.27-9.6,15.8-16.69c1.5-0.78,2.95-1.64,4.37-2.57c1.82,0.79,3.76,1.38,5.81,1.71
	c2.2,0.35,4.38,0.39,6.5,0.16L724.92,497.4C723.98,497.47,723.04,497.56,722.11,497.67z M816.29,490.31
	c-4.18,4.93-7.18,10.89-8.53,17.47c-2.74-1.1-5.72-1.72-8.85-1.75c-8.69-0.08-16.35,4.41-20.72,11.22c-1.13,0.2-2.25,0.45-3.36,0.71
	c-5.5-6.3-12.38-11.58-20.49-15.27c-3.71-1.69-7.51-2.97-11.34-3.87l19.83-177.64c1.63-0.27,3.23-0.63,4.82-1.09
	c5.51,0.65,11.04,0.28,16.33-1c0.56,0.62,1.16,1.22,1.8,1.78c6.5,5.77,15.22,7.43,22.99,5.17c2.87,1.74,5.87,3.16,8.94,4.3
	L816.29,490.31z M888.32,480c-2.84-0.79-5.87-1.08-8.99-0.77c-4.07,0.41-7.79,1.82-10.97,3.93c-5.85-3.97-12.82-6.4-20.36-6.72
	l1.28-144.48c9.05-2.34,17.58-7.1,24.52-14.23c2.1,3,4.54,5.75,7.27,8.21l13.8,135.76C891.27,467.05,888.95,473.31,888.32,480z
	 M963.04,466.7c-6.78-14.18-21.7-23.4-38.16-22.29l-10.82-106.4c9.53-0.23,19.07-3.18,27.62-8.46c2.12,1.53,4.54,2.71,7.21,3.45
	c1.16,0.32,2.32,0.54,3.47,0.67c-0.08,17.36,11.4,33.31,28.94,38.13c7.72,2.12,15.54,1.78,22.62-0.53l4.79,78.06
	C991.78,448.45,975.13,454.77,963.04,466.7z M1175.15,513.69c-4.1801,4.93-7.1801,10.89-8.53,17.47c-2.74-1.1-5.72-1.72-8.85-1.75
	c-1.3-0.01-2.58,0.09-3.83,0.28c-5.53-14.18-16.35-26.3-31.3-33.1c-19.23-8.76-40.64-6.6-57.29,3.85
	c-3.05-19.42-15.48-36.99-34.71-45.74c-1.16-0.53-2.34-1.01-3.52-1.46l-5.74-93.48c2.18-2.49,4.0601-5.27,5.58-8.31
	c2.36,1.76,5.09,3.13,8.1,3.96c8.38,2.3,16.9399-0.07,22.9-5.54c13.34,1.15,26.33-2.87,36.5601-10.69
	c13.84,8.64,31.67,7.78,44.6-2.05c1.34,2.63,3.1801,5.06,5.51,7.14c6.5,5.77,15.22,7.43,22.99,5.17c2.87,1.74,5.87,3.16,8.9399,4.3
	L1175.15,513.69z M1258.92,525.19c-1.8101,1.53-3.53,3.19-5.17,4.94c-2.1899-0.73-4.52-1.14-6.95-1.16
	c-1.2-0.01-2.38,0.07-3.53,0.25c-4.26-16.38-18.8101-28.65-36.4-29.4l1.28-144.48c9.05-2.34,17.58-7.1,24.52-14.23
	c4.39,6.26,10.1899,11.48,17.27,15.11c8.6,4.41,18.01,5.92,27.29,4.91L1258.92,525.19z M1351.65,543.29
	c-6.02-11.52-15.76-21.21-28.51-27.02c-14.6801-6.68-30.62-7-44.76-2.14l17.72-158.7c3.96-2,7.77-4.47,11.3101-7.4
	c2.65,2.25,5.59,4.24,8.8199,5.89c11.97,6.14,25.38,6.54,37.08,2.21L1351.65,543.29z M1489.17,481.56
	c-4.66,4.47-8.25,10.1-10.27,16.51c-2.61-1.37-5.51-2.3-8.62-2.64c-8.64-0.96-16.72,2.72-21.76,9.05
	c-24.89,1.77-45.76,21.06-48.63,46.75c-0.08,0.76-0.14,1.51-0.2,2.27c-3.96-0.64-7.9399-0.88-11.88-0.73L1390,306.75
	c12.9301,2.29,25.99-0.4,36.77-7.02c12.88,10.01,30.71,10.97,44.58,2.51c1.0601,2.75,2.64,5.36,4.76,7.66
	c5.87,6.41,14.38,8.94,22.34,7.49c2.6801,2.02,5.52,3.75,8.46,5.19L1489.17,481.56z M1651.38,489.38
	c-24.1-7.48-51.3,0.7-66.9301,22.26c-2.38,3.28-4.37,6.72-6.01,10.27c-1.91-9.3-9.61-16.73-19.55-17.84
	c-1.1899-0.13-2.37-0.17-3.53-0.12c-2.5699-16.73-15.79-30.42-33.21-32.96l16.03-143.6c9.24-1.4,18.21-5.27,25.84-11.66
	c3.73,6.68,8.96,12.46,15.64,16.8c17.47,11.35,40.02,9.7,58.01-2.26c2.41,2.51,5.13,4.78,8.17,6.76c2.22,1.44,4.52,2.66,6.87,3.67
	L1651.38,489.38z M1686.28,495.83c-5.08-3.68-10.97-5.4-16.79-5.31l1.3-146.02c13.99,0.04,27.72-6.27,36.72-17.99l-19.09,171.04
	C1687.74,496.94,1687.03,496.37,1686.28,495.83z M1795.53,458c-4.1801,4.93-7.1801,10.89-8.53,17.47c-2.74-1.1-5.72-1.72-8.85-1.75
	c-8.6899-0.08-16.35,4.41-20.72,11.22c-7.4399,1.3-14.34,4.17-20.36,8.24c-9.97-2.98-20.61-2.38-30.09,1.5l22.96-205.7
	c10.28,1.52,21-1.03,29.5699-7.55c1.34,2.63,3.1801,5.06,5.51,7.14c3.8101,3.39,8.39,5.35,13.1,5.94
	c0.38,13.16,7.38,25.37,18.58,32.32L1795.53,458z M1887.38,486.27c-3.5601-7.61-11.24-12.91-20.2-12.99
	c-1.2-0.01-2.38,0.07-3.53,0.25c-4.26-16.38-18.8101-28.65-36.4-29.4l1-112.89c9.4-2.69,17.64-8.83,22.83-17.37
	c5.92,8.04,14.87,13.86,25.51,15.55c0.89,0.14,1.79,0.24,2.6801,0.32l9.5699,155.85C1888.36,485.82,1887.86,486.03,1887.38,486.27z
	 M2000.88,473.22c-4.1801,4.93-7.1801,10.89-8.53,17.47c-2.74-1.1-5.72-1.72-8.85-1.75c-8.6899-0.08-16.35,4.41-20.72,11.22
	c-1.13,0.2-2.25,0.45-3.36,0.71c-5.5-6.3-12.38-11.58-20.49-15.27c-10.47-4.77-21.59-6.3-32.23-5.03l-9.42-153.44
	c10.22-4.06,18.53-12.31,22.46-22.98c2.54,1.49,5.4,2.55,8.49,3.04c5.52,0.88,10.89-0.18,15.45-2.66c2.9-0.19,5.77-0.7,8.5699-1.53
	c5.51,0.65,11.04,0.28,16.33-1c0.5601,0.62,1.16,1.22,1.8,1.78c6.5,5.77,15.22,7.43,22.99,5.17c2.87,1.74,5.87,3.16,8.9399,4.3
	L2000.88,473.22z M2078.3101,467.43c-2.8401-0.79-5.8701-1.08-8.99-0.77c-4.04,0.41-7.73,1.79-10.8999,3.88
	c-6.71-6.57-15.77-10.77-25.8199-11.19l1.28-144.48c9.05-2.34,17.58-7.1,24.5199-14.23c3.3899,4.83,7.6201,9.03,12.6299,12.37
	l13.8401,136.12C2081.26,454.48,2078.9299,460.74,2078.3101,467.43z M2153.03,454.14c-6.78-14.18-21.7-23.4-38.1599-22.29
	l-11.3101-111.27c8.0601-0.98,16.01-3.86,23.23-8.42c2.8899,3.9,7.05,6.89,12.1001,8.28c1.1599,0.32,2.3201,0.54,3.47,0.67
	c-0.0801,17.36,11.3999,33.31,28.9399,38.13c7.72,2.12,15.54,1.78,22.6201-0.53l4.79,78.06
	C2181.77,435.89,2165.1101,442.21,2153.03,454.14z M2365.1399,501.12c-4.1799,4.93-7.1799,10.89-8.53,17.47
	c-2.74-1.1-5.72-1.72-8.8501-1.75c-1.3-0.01-2.5801,0.09-3.8301,0.28c-5.52-14.18-16.3501-26.3-31.3-33.1
	c-19.23-8.76-40.6399-6.6-57.29,3.85c-3.05-19.42-15.48-36.99-34.71-45.74c-1.1599-0.53-2.3401-1.01-3.52-1.46l-5.74-93.48
	c2.1799-2.49,4.0601-5.27,5.5801-8.31c2.3601,1.76,5.0901,3.13,8.1001,3.96c8.3799,2.3,16.9399-0.07,22.8999-5.54
	c13.3401,1.15,26.3301-2.87,36.5601-10.69c13.8401,8.64,31.6699,7.78,44.6001-2.05c1.3401,2.63,3.1799,5.06,5.51,7.14
	c6.5,5.77,15.22,7.43,22.99,5.17c2.8701,1.74,5.8701,3.16,8.9399,4.3L2365.1399,501.12z M2448.8999,512.63
	c-1.8101,1.53-3.53,3.19-5.1599,4.94c-2.1899-0.73-4.52-1.14-6.95-1.16c-1.2-0.01-2.3799,0.07-3.53,0.25
	c-4.26-16.38-18.8101-28.65-36.3999-29.4l1.28-144.48c9.05-2.34,17.5801-7.1,24.52-14.23c4.3899,6.26,10.1899,11.48,17.27,15.11
	c8.6001,4.41,18.01,5.92,27.29,4.91L2448.8999,512.63z M2541.6399,530.73c-6.02-11.52-15.76-21.21-28.51-27.02
	c-14.6799-6.68-30.6201-7-44.76-2.14l17.72-158.7c3.96-2,7.77-4.47,11.3101-7.4c2.6499,2.25,5.5901,4.24,8.8201,5.89
	c11.97,6.14,25.3799,6.54,37.0801,2.21L2541.6399,530.73z M2679.1599,469c-4.6599,4.47-8.25,10.1-10.27,16.51
	c-2.6101-1.37-5.51-2.3-8.6201-2.64c-8.6399-0.96-16.72,2.72-21.76,9.05c-24.8899,1.77-45.76,21.06-48.6299,46.75
	c-0.0801,0.76-0.1399,1.51-0.2,2.27c-3.96-0.64-7.9399-0.88-11.8799-0.73l2.1899-246.02c12.9299,2.29,25.99-0.4,36.77-7.02
	c12.8799,10.01,30.71,10.97,44.5801,2.51c1.0601,2.75,2.6399,5.36,4.76,7.66c5.8701,6.41,14.3799,8.94,22.3401,7.49
	c2.6799,2.02,5.51,3.75,8.46,5.19L2679.1599,469z M2841.3601,476.82c-24.1001-7.48-51.3,0.7-66.9299,22.26
	c-2.3799,3.28-4.3799,6.72-6.01,10.27c-1.9099-9.3-9.6101-16.73-19.55-17.84c-1.1899-0.13-2.3701-0.17-3.53-0.12
	c-2.5701-16.73-15.79-30.42-33.21-32.96l16.03-143.6c9.24-1.4,18.21-5.27,25.8401-11.66c3.73,6.68,8.97,12.46,15.6399,16.8
	c17.47,11.35,40.02,9.7,58.01-2.26c2.4099,2.51,5.1299,4.78,8.1699,6.76c2.22,1.44,4.52,2.66,6.8701,3.67L2841.3601,476.82z
	 M2985.52,445.43c-4.1799,4.93-7.1799,10.89-8.53,17.47c-2.74-1.1-5.72-1.72-8.8501-1.75c-8.6899-0.08-16.3501,4.41-20.72,11.22
	c-7.4399,1.3-14.3401,4.17-20.3601,8.24c-15.1499-4.53-31.8799-0.8-43.6699,10.17c-1.8301-2.85-4.2-5.42-7.1101-7.52
	c-5.0801-3.68-10.97-5.4-16.79-5.31l1.3-146.02c15.1399,0.04,29.99-7.34,38.8601-20.98c7.99-12.29,9.3501-26.96,5.02-39.85
	c0.0801-0.06,0.1599-0.11,0.24-0.17c13.8401,8.64,31.6699,7.78,44.6001-2.05c1.3401,2.63,3.1799,5.06,5.51,7.14
	c3.8101,3.39,8.3899,5.35,13.1001,5.94c0.3799,13.16,7.3799,25.37,18.5801,32.32L2985.52,445.43z M3077.3601,473.7
	c-3.5601-7.61-11.24-12.91-20.2-12.99c-1.2-0.01-2.3799,0.07-3.53,0.25c-4.26-16.38-18.8101-28.65-36.3999-29.4l1-112.89
	c10.4299-2.98,19.4299-10.21,24.4299-20.26c2.3601,1.76,5.0901,3.13,8.1001,3.96c6.0801,1.67,12.26,0.87,17.47-1.78l10.5901,172.44
	C3078.3401,473.25,3077.8501,473.47,3077.3601,473.7z M3096.6899,468.02l-10.54-171.6c0.8101-0.12,1.6201-0.27,2.4199-0.43
	c3.29,1.55,6.8401,2.67,10.6101,3.27c6.73,1.07,13.3301,0.36,19.3301-1.77l-19.01,170.26
	C3098.5601,467.82,3097.6201,467.91,3096.6899,468.02z M3190.8701,460.66c-4.1799,4.93-7.1799,10.89-8.53,17.47
	c-2.74-1.1-5.72-1.72-8.8501-1.75c-8.6899-0.08-16.3501,4.41-20.72,11.22c-1.1299,0.2-2.25,0.45-3.3601,0.71
	c-5.5-6.3-12.3799-11.58-20.49-15.27c-3.71-1.69-7.51-2.97-11.3401-3.87l19.8301-177.64c1.6299-0.27,3.23-0.63,4.8201-1.09
	c5.51,0.65,11.04,0.28,16.3301-1c0.5601,0.62,1.1599,1.22,1.8,1.78c6.5,5.77,15.22,7.43,22.99,5.17
	c2.8701,1.74,5.8701,3.16,8.9399,4.3L3190.8701,460.66z M3300.8799,437.27c-2.8401-0.79-5.8701-1.08-8.99-0.77
	c-8.6499,0.88-15.77,6.18-19.3601,13.43c-7.8999,2.3-14.97,6.38-20.8101,11.73c-6.8799-8.67-17.3201-14.38-29.1499-14.88
	l1.28-144.48c9.05-2.34,17.5801-7.1,24.52-14.23c4.3899,6.26,10.1899,11.48,17.27,15.11c9.5901,4.92,20.1799,6.23,30.47,4.45
	l11.3201,111.33C3303.8301,424.32,3301.51,430.58,3300.8799,437.27z M3375.6001,423.97c-6.78-14.18-21.7-23.4-38.1599-22.29
	l-10.55-103.82c1.6001,1.1,3.28,2.12,5.0601,3.03c11.3,5.8,23.8799,6.48,35.0901,2.9c4.0701,11.92,13.77,21.69,26.8301,25.28
	c7.72,2.12,15.54,1.78,22.6201-0.53l4.79,78.06C3404.3401,405.72,3387.6899,412.04,3375.6001,423.97z M3587.72,470.96
	c-4.1799,4.93-7.1799,10.89-8.53,17.47c-2.74-1.1-5.72-1.72-8.8501-1.75c-1.3-0.01-2.5801,0.09-3.8301,0.28
	c-5.52-14.18-16.3501-26.3-31.3-33.1c-19.23-8.76-40.6399-6.6-57.29,3.85c-3.05-19.42-15.48-36.99-34.71-45.74
	c-1.1599-0.53-2.3401-1.01-3.52-1.46l-5.74-93.48c2.1799-2.49,4.0601-5.27,5.5801-8.31c2.3601,1.76,5.0901,3.13,8.1001,3.96
	c8.3799,2.3,16.9399-0.07,22.8999-5.54c13.3401,1.15,26.3301-2.87,36.5601-10.69c13.8401,8.64,31.6699,7.78,44.6001-2.05
	c1.3401,2.63,3.1799,5.06,5.51,7.14c6.5,5.77,15.22,7.43,22.99,5.17c2.8701,1.74,5.8701,3.16,8.9399,4.3L3587.72,470.96z
	 M3671.48,482.46c-1.8101,1.53-3.53,3.19-5.1599,4.94c-2.1899-0.73-4.52-1.14-6.95-1.16c-1.2-0.01-2.3799,0.07-3.53,0.25
	c-4.26-16.38-18.8101-28.65-36.3999-29.4l1.28-144.48c9.05-2.34,17.5801-7.1,24.52-14.23c4.3899,6.26,10.1899,11.48,17.27,15.11
	c8.6001,4.41,18.01,5.92,27.29,4.91L3671.48,482.46z M3764.21,500.56c-6.02-11.52-15.76-21.21-28.51-27.02
	c-14.6799-6.68-30.6201-7-44.76-2.14l17.72-158.7c3.96-2,7.77-4.47,11.3101-7.4c2.6499,2.25,5.5901,4.24,8.8201,5.89
	c11.97,6.14,25.3799,6.54,37.0801,2.21L3764.21,500.56z M3901.73,438.83c-4.6599,4.47-8.25,10.1-10.27,16.51
	c-2.6101-1.37-5.51-2.3-8.6201-2.64c-8.6399-0.96-16.72,2.72-21.76,9.05c-24.8899,1.77-45.76,21.06-48.6299,46.75
	c-0.0801,0.76-0.1399,1.51-0.2,2.27c-3.96-0.64-7.9399-0.88-11.8799-0.73l2.1899-246.02c12.9299,2.29,25.99-0.4,36.77-7.02
	c12.8799,10.01,30.71,10.97,44.5801,2.51c1.0601,2.75,2.6399,5.36,4.76,7.66c5.8701,6.41,14.3799,8.94,22.3401,7.49
	c2.6799,2.02,5.51,3.75,8.46,5.19L3901.73,438.83z M4063.9399,446.65c-24.1001-7.48-51.3,0.7-66.9299,22.26
	c-2.3799,3.28-4.3701,6.72-6.01,10.27c-1.9099-9.3-9.6101-16.73-19.55-17.84c-1.1899-0.13-2.3701-0.17-3.53-0.12
	c-2.5701-16.73-15.79-30.42-33.21-32.96l16.03-143.6c9.24-1.4,18.21-5.27,25.8401-11.66c3.73,6.68,8.96,12.46,15.6399,16.8
	c17.47,11.35,40.02,9.7,58.01-2.26c2.4099,2.51,5.1299,4.78,8.1699,6.76c2.22,1.44,4.52,2.66,6.8701,3.67L4063.9399,446.65z
	 M4208.0898,415.27c-4.1802,4.93-7.1802,10.89-8.5298,17.47c-2.7402-1.1-5.7202-1.72-8.8501-1.75
	c-8.6899-0.08-16.3501,4.41-20.7202,11.22c-7.4399,1.3-14.3398,4.17-20.3599,8.24c-15.1499-4.53-31.8799-0.8-43.6699,10.17
	c-1.8301-2.85-4.2002-5.42-7.1099-7.52c-5.0801-3.68-10.97-5.4-16.79-5.31l1.3-146.02c15.1399,0.04,29.99-7.34,38.8601-20.98
	c7.9902-12.29,9.3501-26.96,5.02-39.85c0.0801-0.06,0.1602-0.11,0.2402-0.17c13.8398,8.64,31.6699,7.78,44.6001-2.05
	c1.3398,2.63,3.1802,5.06,5.5098,7.14c3.8101,3.39,8.3901,5.35,13.1001,5.94c0.3799,13.16,7.3799,25.37,18.5801,32.32
	L4208.0898,415.27z M4299.9399,443.54c-3.5601-7.61-11.2402-12.91-20.2002-12.99c-1.2002-0.01-2.3799,0.07-3.5298,0.25
	c-4.2598-16.38-18.8101-28.65-36.3999-29.4l1-112.89c10.4302-2.98,19.4302-10.21,24.4302-20.26c2.3599,1.76,5.0898,3.13,8.1001,3.96
	c3.8501,1.06,7.7402,1.12,11.3901,0.35c1.7798,3.51,4.0698,6.73,6.79,9.56l9.8701,160.74
	C4300.9199,443.09,4300.4199,443.3,4299.9399,443.54z M4322.0801,437.59c-0.9399,0.07-1.8799,0.16-2.8198,0.27l-8.8999-144.84
	c1.0898,0.27,2.1899,0.49,3.3198,0.67c8.8999,1.42,17.5801-0.27,24.9302-4.26L4322.0801,437.59z M4413.4399,430.49
	c-4.1802,4.93-7.1802,10.89-8.5298,17.47c-2.7402-1.1-5.7202-1.72-8.8501-1.75c-8.6899-0.08-16.3501,4.41-20.7202,11.22
	c-1.1299,0.2-2.25,0.45-3.3599,0.71c-5.5-6.3-12.3799-11.58-20.4902-15.27c-3.71-1.69-7.5098-2.97-11.3398-3.87l18.9102-169.43
	c1.9399,0.88,4.0298,1.54,6.2402,1.89c8.3301,1.33,16.3301-1.75,21.6699-7.5c5.8301,3.35,12.6899,4.08,18.9399,2.26
	c2.8701,1.74,5.8701,3.16,8.9399,4.3L4413.4399,430.49z M4515.3901,431.7c-2.8398-0.79-5.8701-1.08-8.9902-0.77
	c-8.6499,0.88-15.77,6.18-19.3599,13.43c-1.54,0.45-3.0498,0.97-4.5298,1.55c-0.3198,0.03-0.6401,0.06-0.96,0.1
	c-4.2598-16.38-18.8101-28.65-36.3999-29.4l1.2798-144.48c9.0498-2.34,17.5801-7.1,24.52-14.23
	c4.3901,6.26,10.1899,11.48,17.27,15.11c6.3501,3.25,13.1299,4.93,19.98,5.18l13.7402,135.2
	C4518.3398,418.75,4516.02,425.01,4515.3901,431.7z M4590.1099,418.4c-6.7798-14.18-21.7002-23.4-38.1602-22.29l-12.8599-126.52
	c2.2798-1.42,4.4902-3.01,6.6099-4.75c2.6499,2.25,5.5898,4.24,8.8198,5.89c2.5098,1.29,5.0801,2.31,7.6802,3.1
	c2.8301,5.15,7.6499,9.2,13.7598,10.88c1.1602,0.32,2.3198,0.54,3.4702,0.67c-0.0801,17.36,11.3999,33.31,28.9399,38.13
	c7.7202,2.12,15.54,1.78,22.6201-0.53l4.79,78.06C4618.8501,400.15,4602.2002,406.47,4590.1099,418.4z M4802.23,465.39
	c-4.1802,4.93-7.1802,10.89-8.5298,17.47c-2.7402-1.1-5.7202-1.72-8.8501-1.75c-1.2998-0.01-2.5801,0.09-3.8301,0.28
	c-5.52-14.18-16.3501-26.3-31.2998-33.1c-19.23-8.76-40.6401-6.6-57.29,3.85c-3.0498-19.42-15.48-36.99-34.71-45.74
	c-1.1602-0.53-2.3398-1.01-3.52-1.46l-5.7402-93.48c2.1802-2.49,4.0601-5.27,5.5801-8.31c2.3599,1.76,5.0898,3.13,8.1001,3.96
	c8.3799,2.3,16.9399-0.07,22.8999-5.54c13.3398,1.15,26.3301-2.87,36.5601-10.69c13.8398,8.64,31.6699,7.78,44.6001-2.05
	c1.3398,2.63,3.1802,5.06,5.5098,7.14c6.5,5.77,15.2202,7.43,22.9902,5.17c2.8701,1.74,5.8701,3.16,8.9399,4.3L4802.23,465.39z
	 M4885.9902,476.89c-1.8101,1.53-3.5298,3.19-5.1699,4.94c-2.1899-0.73-4.52-1.14-6.9502-1.16c-1.2002-0.01-2.3799,0.07-3.5298,0.25
	c-4.2598-16.38-18.8101-28.65-36.3999-29.4l1.2798-144.48c9.0498-2.34,17.5801-7.1,24.52-14.23
	c4.3901,6.26,10.1899,11.48,17.27,15.11c8.6001,4.41,18.0098,5.92,27.29,4.91L4885.9902,476.89z M4978.79,487.04
	c-1.4399,0.31-2.8701,0.67-4.2798,1.08c-5.9702-8.47-14.1802-15.53-24.2998-20.14c-14.6802-6.68-30.6201-7-44.7598-2.14
	l17.7202-158.7c3.96-2,7.77-4.47,11.3101-7.4c2.6499,2.25,5.5898,4.24,8.8198,5.89c11.9702,6.14,25.3799,6.54,37.0801,2.21
	L4978.79,487.04z"/>
<path id="bg6" style="display:none;fill:#565624;" d="M-0.01,0.75v779.6v170.4h5000v-950H-0.01z M145.76,570.89
	c-3.14,1.89-6.1,4.03-8.83,6.38c-12.95-15.47-34.14-24.97-57.54-23.7c-32.7,1.78-58.8,24-63.36,51.84
	c-0.85-0.24-1.71-0.46-2.58-0.65l32.47-313.23c3.65,2.51,7.59,4.78,11.82,6.75c26.53,12.34,57.28,9.98,80.47-3.79
	c3.82,1.89,7.76,3.49,11.77,4.85L145.76,570.89z M482.86,591.48c-2.25,0.33-4.46,0.76-6.65,1.23c-8.05-17.01-24.69-29.77-44.9-34.32
	c-28.3-12.74-60.28-6.33-77.75,14.55c-3.42-3.59-7.55-6.72-12.31-9.15c-13.22-6.75-28.03-6.51-39.42-0.59
	c-27.73-8.87-56.83-4.81-78.28,9.84c-6.94-4.61-14.89-8.11-23.57-10.14l4.06-260.27c4.35,2.11,9.03,3.84,14,5.09
	c18.54,4.68,37.44,1.97,52.76-6.12c1.56,0.85,3.15,1.66,4.79,2.42c31.66,14.71,69.8,8.99,98.47-11.72
	c4.52,3.46,9.54,6.52,15.05,9.08c14.74,6.85,30.77,9.16,46.09,7.51c3.35,1.41,6.87,2.6,10.56,3.53c10.66,2.69,21.45,2.93,31.6,1.12
	l38.49,261.14C502.03,575.23,489.96,581.77,482.86,591.48z M550.6,439.69l-20.13-136.57c5.68,3.35,12.02,5.99,18.92,7.73
	c5.45,1.37,10.92,2.1,16.33,2.25L550.6,439.69z M776.7,512.92c-36.83-18.26-80.54-11.36-104.34,18.88
	c-6.98,8.86-11.56,18.88-13.89,29.39c-11.34-18.21-32.98-30.7-58.02-31.08c-2.09-0.03-4.15,0.02-6.19,0.16l29.05-243.2
	c1.62-2.11,3.1-4.34,4.42-6.66c4.03,2.72,8.68,4.83,13.84,6.13c10.45,2.64,21.07,1.47,30.05-2.55c2.09,1.2,4.25,2.33,6.49,3.37
	c28.26,13.13,61.68,9.97,88.92-5.58c4.26,2.2,8.68,4.06,13.19,5.58L776.7,512.92z M865.94,576.9c-0.38,1.2-0.73,2.42-1.02,3.65
	c-4.68-1.71-9.78-2.7-15.13-2.78c-7.25-0.11-14.09,1.44-20.07,4.25l4.51-289.48c13.5-0.92,26.57-4.9,37.86-11.6
	c8.9,4.4,18.42,7.35,28.14,8.87L865.94,576.9z M1172.5,575.06c-14.8,2.35-27.92,7.12-38.02,13.45c-5.96-2.78-12.83-4.2-20.0699-3.8
	c-2.05,0.11-4.05,0.37-6,0.75c-9.14-25.07-36.34-42.42-67.4301-40.73c-20.05,1.09-37.6,9.87-49.24,22.91
	c-10.68-20-33.4-33.99-59.94-34.4c-2.09-0.03-4.15,0.02-6.19,0.16l27.91-233.61c15.71-1.58,31.19-6.92,44.89-15.49
	c3.45,2.3,7.13,4.38,11.05,6.2c17.96,8.35,38,10.11,57.22,6.3c15.55-1.9,30.3-7.88,42.13-17.39c4.29,3.2,9.01,6.05,14.1801,8.45
	c14.0601,6.54,29.3,8.93,43.98,7.71l38.14,258.78C1192.59,558.54,1181.36,565.55,1172.5,575.06z M1496.16,564.94
	c-0.38,1.2-0.73,2.42-1.02,3.65c-4.6801-1.71-9.78-2.7-15.13-2.78c-14.88-0.23-28.03,6.51-35.5699,16.83
	c-5.13,0.76-10.11,1.91-14.9,3.41c-6.1-14.22-17.5699-26.87-33.25-34.87c-29.1-14.87-62.98-8.79-81.15,12.93
	c-3.42-3.59-7.55-6.72-12.3101-9.15c-13.22-6.75-28.03-6.51-39.42-0.59c-1.27-0.41-2.54-0.78-3.8199-1.14l-37.73-255.96
	c15.34-5.19,28.39-15.3,36.08-28.82c4.03,2.72,8.6801,4.83,13.84,6.13c14.33,3.61,29,0.1,39.26-8.14
	c22.84,1.92,45.1-4.04,62.6801-15.83c7.41,4.19,15.51,6.95,23.8199,8.31c4.65,21.66,22.5601,40.26,48.03,46.68
	c31,7.82,63-4.98,77.58-29.19c1.4399,0.34,2.88,0.63,4.33,0.9c0.9301,0.5,1.88,0.98,2.87,1.42L1496.16,564.94z M1775.47,574.26
	c-18.21-19.43-46.64-30.64-77.38-27.77c-20.6801,1.93-39.13,9.92-53.3199,21.78c-3.86-1.23-8-1.93-12.3199-2
	c-2.05-0.03-4.0699,0.08-6.04,0.33c-7.34-25.65-33.24-44.84-64.38-45.31c-2.09-0.03-4.15,0.02-6.1899,0.16l29.61-247.91
	c12.53,0,24.73-2.34,35.9-6.67c5.38,4.56,11.51,8.5,18.34,11.67c29.34,13.63,64.23,9.71,92.01-7.41
	c7.13,17.66,23.41,32.12,45.24,37.62c0.89,0.22,1.78,0.43,2.66,0.62L1775.47,574.26z M2107.1699,555.25
	c-3.1399,1.89-6.1001,4.03-8.8301,6.38c-12.95-15.47-34.1399-24.97-57.54-23.7c-32.7,1.78-58.8,24-63.36,51.84
	c-4.79-1.38-9.9399-2.01-15.29-1.72c-6.66,0.36-12.87,2.11-18.3199,4.89c-9.83-38.29-50.2-64.69-95.58-60.46
	c-6.26,0.58-12.3,1.73-18.1,3.36l3.67-235.61c8.89-5.53,16.34-12.97,21.42-21.92c4.03,2.72,8.6801,4.83,13.84,6.13
	c10.45,2.64,21.0699,1.47,30.05-2.55c2.09,1.2,4.25,2.33,6.49,3.37c31.66,14.71,69.8,8.99,98.47-11.72
	c4.52,3.46,9.54,6.52,15.05,9.08c26.53,12.34,57.2699,9.98,80.4701-3.79c3.8201,1.89,7.76,3.49,11.77,4.85L2107.1699,555.25z
	 M2495.99,558.13c-0.3799,1.2-0.73,2.42-1.02,3.65c-4.6799-1.71-9.78-2.7-15.1299-2.78c-14.8799-0.23-28.03,6.51-35.5701,16.83
	c-2.25,0.33-4.46,0.76-6.6499,1.23c-8.05-17.01-24.6899-29.77-44.8999-34.32c-28.3-12.74-60.28-6.33-77.75,14.55
	c-3.4199-3.59-7.55-6.72-12.3101-9.15c-13.22-6.75-28.03-6.51-39.4199-0.59c-27.73-8.87-56.8301-4.81-78.28,9.84
	c-6.9399-4.61-14.8899-8.11-23.5701-10.14l4.0601-260.27c4.3501,2.11,9.03,3.84,14,5.09c18.54,4.68,37.4399,1.97,52.76-6.12
	c1.5601,0.85,3.1499,1.66,4.79,2.42c31.6599,14.71,69.8,8.99,98.47-11.72c4.52,3.46,9.54,6.52,15.05,9.08
	c14.74,6.85,30.77,9.16,46.0901,7.51c3.3501,1.41,6.8701,2.6,10.5601,3.53c26.8799,6.78,54.51-1.94,70.8899-20.15
	c8.3501,8.62,19.54,15.24,32.76,18.58c5.45,1.37,10.9199,2.1,16.3301,2.25L2495.99,558.13z M2738.1101,497.28
	c-36.8301-18.26-80.54-11.36-104.3401,18.88c-6.98,8.86-11.5601,18.88-13.8899,29.39c-11.3401-18.21-32.98-30.7-58.02-31.08
	c-2.0901-0.03-4.1499,0.02-6.1899,0.16l29.05-243.2c1.6201-2.11,3.1001-4.34,4.4199-6.66c4.03,2.72,8.6799,4.83,13.8401,6.13
	c10.45,2.64,21.0701,1.47,30.05-2.55c2.0901,1.2,4.25,2.33,6.49,3.37c28.26,13.13,61.6799,9.97,88.9199-5.58
	c4.26,2.2,8.6799,4.06,13.1899,5.58L2738.1101,497.28z M2827.3501,561.25c-0.3799,1.2-0.73,2.42-1.02,3.65
	c-4.6799-1.71-9.78-2.7-15.1299-2.78c-7.25-0.11-14.0901,1.44-20.0701,4.25l4.51-289.48c13.5-0.92,26.5701-4.9,37.8601-11.6
	c8.8999,4.4,18.4199,7.35,28.1399,8.87L2827.3501,561.25z M3133.9099,559.42c-14.8,2.35-27.9199,7.12-38.02,13.45
	c-5.96-2.78-12.8301-4.2-20.0701-3.8c-2.05,0.11-4.05,0.37-6,0.75c-9.1399-25.07-36.3401-42.42-67.4299-40.73
	c-20.05,1.09-37.6001,9.87-49.24,22.91c-10.6799-20-33.3999-33.99-59.9399-34.4c-2.0901-0.03-4.1499,0.02-6.1899,0.16
	l27.9099-233.61c15.71-1.58,31.1899-6.92,44.8899-15.49c3.45,2.3,7.1299,4.38,11.05,6.2c17.96,8.35,38,10.11,57.21,6.3
	c15.55-1.9,30.3-7.88,42.1299-17.39c4.29,3.2,9.01,6.05,14.1799,8.45c14.73,6.85,30.77,9.16,46.0901,7.51
	c3.04,1.28,6.23,2.36,9.54,3.25l37.27,252.86C3160.49,539.17,3145.25,547.24,3133.9099,559.42z M3459.6101,532.2
	c-12.8101,4.53-24.1499,11.53-33.3501,20.27c-8.4299,2.78-15.5801,7.91-20.4099,14.53c-5.1299,0.76-10.1101,1.91-14.8999,3.41
	c-6.1001-14.22-17.5701-26.87-33.25-34.87c-29.1001-14.87-62.98-8.79-81.1499,12.93c-3.4199-3.59-7.55-6.72-12.3101-9.15
	c-10.6001-5.42-22.22-6.32-32.28-3.42l-38.1399-258.79c3.1499-1.67,6.1499-3.57,8.96-5.68c7.76,6.68,17.4299,11.81,28.55,14.61
	c31.53,7.95,64.1101-5.41,78.3301-30.43c4.03,2.72,8.6799,4.83,13.8401,6.13c14.3301,3.61,29,0.1,39.26-8.14
	c20.1299,1.69,39.8-2.74,56.23-11.88c0.6201,0.56,1.25,1.12,1.9199,1.65c11.0701,8.87,25.99,11.51,39.3201,8.16
	c9.8799,5.41,20.6299,8.96,31.6499,10.69L3459.6101,532.2z M3561.8101,517.01c-10.8201-6.96-24.04-11.15-38.3799-11.37
	c-2.0901-0.03-4.1499,0.02-6.1899,0.16l26.78-224.22c5.6101,3.27,11.8601,5.86,18.6599,7.58c0.8899,0.22,1.78,0.43,2.6599,0.62
	L3561.8101,517.01z M3892.9199,535.66c-3.1399,1.89-6.1001,4.03-8.8301,6.38c-12.95-15.47-34.1399-24.97-57.54-23.7
	c-32.7,1.78-58.8,24-63.3601,51.84c-4.79-1.38-9.9399-2.01-15.29-1.72c-6.6599,0.36-12.8701,2.11-18.3201,4.89
	c-9.8301-38.29-50.2-64.69-95.5801-60.46c-6.26,0.58-12.3,1.73-18.1001,3.36l3.6699-235.61c4.5-2.8,8.6299-6.08,12.26-9.81
	c12.8501,0.98,25.9099-0.7,38.3401-4.74c5.1699-0.44,10.1499-1.74,14.71-3.78c2.0901,1.2,4.25,2.33,6.49,3.37
	c23.3,10.83,50.1101,10.58,74.0701,1.44c10.1899-1.66,19.95-5.09,28.6899-10.12c3.3501,2.23,6.9299,4.27,10.76,6.05
	c26.53,12.34,57.28,9.98,80.47-3.79c3.8201,1.89,7.76,3.49,11.77,4.85L3892.9199,535.66z M4281.75,538.55
	c-0.3799,1.2-0.73,2.42-1.02,3.65c-4.6802-1.71-9.7798-2.7-15.1299-2.78c-14.8799-0.23-28.0298,6.51-35.5698,16.83
	c-2.25,0.33-4.46,0.76-6.6499,1.23c-8.0498-17.01-24.6899-29.77-44.8999-34.32c-28.2998-12.74-60.2798-6.33-77.75,14.55
	c-3.4199-3.59-7.55-6.72-12.3101-9.15c-13.22-6.75-28.03-6.51-39.4199-0.59c-27.73-8.87-56.8301-4.81-78.28,9.84
	c-6.9399-4.61-14.8899-8.11-23.5701-10.14l4.0601-260.27c4.3501,2.11,9.03,3.84,14,5.09c18.54,4.68,37.4399,1.97,52.76-6.13
	c1.5601,0.85,3.1499,1.66,4.79,2.42c31.6599,14.71,69.8,8.99,98.47-11.72c4.52,3.46,9.54,6.52,15.0498,9.08
	c14.73,6.85,30.77,9.16,46.0898,7.51c3.3501,1.41,6.8701,2.6,10.5601,3.53c26.8799,6.78,54.5098-1.94,70.8901-20.15
	c8.3501,8.62,19.54,15.24,32.7598,18.58c5.4502,1.37,10.9199,2.1,16.3301,2.25L4281.75,538.55z M4419.5098,496.58
	c-6.98,8.86-11.5601,18.88-13.8901,29.39c-11.3398-18.21-32.98-30.7-58.02-31.08c-2.0801-0.03-4.1499,0.02-6.1899,0.16
	l29.0498-243.2c1.6201-2.11,3.1001-4.34,4.4199-6.66c4.0298,2.72,8.6802,4.83,13.8398,6.13c3.4302,0.87,6.8901,1.31,10.29,1.39
	l34,230.68C4428.0498,487.13,4423.5,491.52,4419.5098,496.58z M4523.8599,477.69c-12.3901-6.14-25.5498-9.44-38.48-9.95
	L4454.75,259.96c20.3198,1.82,41.25-3.03,59.4302-13.41c4.2598,2.2,8.6802,4.06,13.1899,5.58L4523.8599,477.69z M4613.1001,541.67
	c-0.3799,1.2-0.73,2.42-1.02,3.65c-4.6802-1.71-9.7798-2.7-15.1299-2.78c-7.25-0.11-14.0898,1.44-20.0698,4.25l4.5098-289.48
	c13.5-0.92,26.5698-4.9,37.8599-11.6c8.8999,4.4,18.4199,7.35,28.1401,8.87L4613.1001,541.67z M4956.5,517.81
	c-14.2002,3.97-26.98,11.45-36.8301,22.02c-14.7998,2.35-27.9199,7.12-38.02,13.45c-5.96-2.78-12.8301-4.2-20.0698-3.8
	c-2.0498,0.11-4.0498,0.37-6,0.75c-9.1401-25.07-36.3301-42.42-67.4302-40.73c-20.0498,1.09-37.6001,9.87-49.2402,22.91
	c-10.6802-20-33.3999-33.99-59.9399-34.4c-2.0898-0.03-4.1499,0.02-6.1899,0.16l27.9102-233.61
	c15.71-1.58,31.1899-6.92,44.8901-15.49c3.4502,2.3,7.1299,4.38,11.0498,6.2c17.96,8.35,38,10.11,57.2202,6.3
	c15.5498-1.9,30.2998-7.88,42.1299-17.39c4.29,3.2,9.0098,6.05,14.1802,8.45c14.73,6.85,30.77,9.16,46.0898,7.51
	c3.3501,1.41,6.8701,2.6,10.5601,3.53c20.27,5.11,40.9702,1.4,56.9502-8.54L4956.5,517.81z"/>
<g id="road7" style="display:none;">
	<rect id="road" x="-0.01" y="757.36" style="display:inline;fill:#414042;" width="5000.0098" height="192.64"/>
	<g id="cobbleRoad" style="display:inline;">
		<path style="fill:#696E6F;" d="M4966.1602,927.16c0,8.89,14.71,16.43,35.1499,19.15v-38.3
			C4980.8599,910.73,4966.1602,918.27,4966.1602,927.16z"/>
		<path style="fill:#696E6F;" d="M4995.6401,848.22c-47.4399,0-85.9102,9.6-85.9102,21.45s38.46,21.45,85.9102,21.45
			c1.46,0,2.9102-0.01,4.3501-0.03v-42.85C4998.5498,848.23,4997.1001,848.22,4995.6401,848.22z"/>
		<path style="fill:#696E6F;" d="M28.51,840.07c48.84,0,88.43-15.81,88.43-35.31s-39.59-35.31-88.43-35.31
			c-10.62,0-20.81,0.75-30.25,2.12v66.39C7.7,839.32,17.89,840.07,28.51,840.07z"/>
		<ellipse style="fill:#696E6F;" cx="2496.23" cy="805.08" rx="55.48" ry="22.16"/>
		<ellipse style="fill:#696E6F;" cx="2113.46" cy="892.2" rx="56.54" ry="22.58"/>
		<ellipse style="fill:#696E6F;" cx="2064.6499" cy="817.29" rx="63.9399" ry="25.53"/>
		<ellipse style="fill:#696E6F;" cx="2341.1799" cy="876.24" rx="51.8701" ry="20.71"/>
		<ellipse style="fill:#696E6F;" cx="2375" cy="825.1" rx="49.26" ry="19.67"/>
		<ellipse style="fill:#696E6F;" cx="2524.6399" cy="877.13" rx="110.72" ry="44.22"/>
		<ellipse style="fill:#696E6F;" cx="1936.47" cy="809.78" rx="51.87" ry="20.71"/>
		<ellipse style="fill:#696E6F;" cx="2237.4199" cy="904.71" rx="51.8899" ry="20.23"/>
		<ellipse style="fill:#696E6F;" cx="2216.3401" cy="842.83" rx="85.9099" ry="34.31"/>
		<ellipse style="fill:#696E6F;" cx="1587.51" cy="899.23" rx="58.1899" ry="23.24"/>
		<ellipse style="fill:#696E6F;" cx="1537.26" cy="822.12" rx="65.8199" ry="26.28"/>
		<ellipse style="fill:#696E6F;" cx="1821.9" cy="882.79" rx="53.39" ry="21.32"/>
		<ellipse style="fill:#696E6F;" cx="1842.13" cy="834.63" rx="50.71" ry="20.25"/>
		<ellipse style="fill:#696E6F;" cx="1966.36" cy="869.63" rx="85.91" ry="34.31"/>
		<ellipse style="fill:#696E6F;" cx="1715.11" cy="912.1" rx="53.41" ry="20.82"/>
		<ellipse style="fill:#696E6F;" cx="1693.4" cy="848.4" rx="88.4301" ry="35.31"/>
		<ellipse style="fill:#696E6F;" cx="1381.59" cy="813.36" rx="55.48" ry="22.16"/>
		<ellipse style="fill:#696E6F;" cx="998.82" cy="900.48" rx="56.54" ry="22.58"/>
		<ellipse style="fill:#696E6F;" cx="950.02" cy="825.57" rx="63.94" ry="25.53"/>
		<ellipse style="fill:#696E6F;" cx="1226.54" cy="884.51" rx="51.87" ry="20.71"/>
		<ellipse style="fill:#696E6F;" cx="1260.36" cy="833.38" rx="49.26" ry="19.67"/>
		<ellipse style="fill:#696E6F;" cx="1410" cy="885.41" rx="110.72" ry="44.22"/>
		<ellipse style="fill:#696E6F;" cx="821.84" cy="818.05" rx="51.87" ry="20.71"/>
		<ellipse style="fill:#696E6F;" cx="1122.79" cy="912.98" rx="51.89" ry="20.23"/>
		<ellipse style="fill:#696E6F;" cx="1101.7" cy="851.1" rx="85.91" ry="34.31"/>
		<ellipse style="fill:#696E6F;" cx="480.87" cy="909.28" rx="58.19" ry="23.24"/>
		<ellipse style="fill:#696E6F;" cx="422.63" cy="830.39" rx="65.82" ry="26.28"/>
		<ellipse style="fill:#696E6F;" cx="707.26" cy="891.07" rx="53.39" ry="21.32"/>
		<ellipse style="fill:#696E6F;" cx="727.49" cy="842.91" rx="50.71" ry="20.25"/>
		<ellipse style="fill:#696E6F;" cx="851.72" cy="877.9" rx="85.91" ry="34.31"/>
		<ellipse style="fill:#696E6F;" cx="600.47" cy="920.38" rx="53.41" ry="20.82"/>
		<ellipse style="fill:#696E6F;" cx="578.76" cy="856.68" rx="88.43" ry="35.31"/>
		<ellipse style="fill:#696E6F;" cx="275.54" cy="827.53" rx="55.48" ry="22.16"/>
		<ellipse style="fill:#696E6F;" cx="120.49" cy="898.69" rx="51.87" ry="20.71"/>
		<ellipse style="fill:#696E6F;" cx="154.32" cy="847.55" rx="49.26" ry="19.67"/>
		<ellipse style="fill:#696E6F;" cx="303.95" cy="899.58" rx="110.72" ry="44.22"/>
		<path style="fill:#696E6F;" d="M68.62,927.16c0-11.17-23.23-20.23-51.89-20.23c-5.86,0-11.49,0.38-16.74,1.08v38.3
			c5.25,0.7,10.88,1.08,16.74,1.08C45.39,947.39,68.62,938.33,68.62,927.16z"/>
		<path style="fill:#696E6F;" d="M81.56,869.68c0-11.48-36.13-20.86-81.56-21.43v42.85C45.42,890.54,81.56,881.16,81.56,869.68z"/>
		<ellipse style="fill:#696E6F;" cx="4906.0498" cy="828.25" rx="39.8901" ry="18.51"/>
		<ellipse style="fill:#696E6F;" cx="4874.1099" cy="778.47" rx="65.8198" ry="26.28"/>
		<path style="fill:#696E6F;" d="M4941.8198,804.76c0,15.26,24.2402,28.26,58.1802,33.19v-66.39
			C4966.0601,776.5,4941.8198,789.49,4941.8198,804.76z"/>
		<ellipse style="fill:#696E6F;" cx="4727.0298" cy="775.61" rx="55.48" ry="22.16"/>
		<ellipse style="fill:#696E6F;" cx="4344.2598" cy="862.73" rx="56.5298" ry="22.58"/>
		<ellipse style="fill:#696E6F;" cx="4295.46" cy="787.82" rx="63.9399" ry="25.53"/>
		<ellipse style="fill:#696E6F;" cx="4571.98" cy="846.77" rx="51.8701" ry="20.71"/>
		<ellipse style="fill:#696E6F;" cx="4605.7998" cy="795.63" rx="49.2598" ry="19.67"/>
		<ellipse style="fill:#696E6F;" cx="4755.4399" cy="847.66" rx="110.7202" ry="44.22"/>
		<ellipse style="fill:#696E6F;" cx="4167.2798" cy="780.31" rx="51.8701" ry="20.71"/>
		<ellipse style="fill:#696E6F;" cx="4468.23" cy="875.24" rx="51.8901" ry="20.23"/>
		<ellipse style="fill:#696E6F;" cx="4447.1401" cy="813.36" rx="85.9102" ry="34.31"/>
		<ellipse style="fill:#696E6F;" cx="3818.3101" cy="869.76" rx="58.1899" ry="23.24"/>
		<ellipse style="fill:#696E6F;" cx="3768.0701" cy="792.65" rx="65.8201" ry="26.28"/>
		<ellipse style="fill:#696E6F;" cx="4052.7" cy="853.32" rx="53.3899" ry="21.32"/>
		<ellipse style="fill:#696E6F;" cx="4072.9299" cy="805.16" rx="50.7101" ry="20.25"/>
		<ellipse style="fill:#696E6F;" cx="4197.1602" cy="840.16" rx="85.9102" ry="34.31"/>
		<ellipse style="fill:#696E6F;" cx="3945.9099" cy="882.63" rx="53.4099" ry="20.82"/>
		<ellipse style="fill:#696E6F;" cx="3924.2" cy="818.93" rx="88.4299" ry="35.31"/>
		<ellipse style="fill:#696E6F;" cx="3612.3899" cy="783.89" rx="55.48" ry="22.16"/>
		<ellipse style="fill:#696E6F;" cx="3229.6201" cy="871.01" rx="56.54" ry="22.58"/>
		<ellipse style="fill:#696E6F;" cx="3180.8201" cy="796.1" rx="63.9399" ry="25.53"/>
		<ellipse style="fill:#696E6F;" cx="3457.3401" cy="855.04" rx="51.8701" ry="20.71"/>
		<ellipse style="fill:#696E6F;" cx="3491.1599" cy="803.91" rx="49.26" ry="19.67"/>
		<ellipse style="fill:#696E6F;" cx="3640.8" cy="855.94" rx="110.72" ry="44.22"/>
		<ellipse style="fill:#696E6F;" cx="3052.6399" cy="788.58" rx="51.8701" ry="20.71"/>
		<ellipse style="fill:#696E6F;" cx="3353.5901" cy="883.51" rx="51.8899" ry="20.23"/>
		<ellipse style="fill:#696E6F;" cx="3332.5" cy="821.63" rx="85.9099" ry="34.31"/>
		<ellipse style="fill:#696E6F;" cx="2703.6699" cy="878.03" rx="58.1899" ry="23.24"/>
		<ellipse style="fill:#696E6F;" cx="2653.4299" cy="800.92" rx="65.8201" ry="26.28"/>
		<ellipse style="fill:#696E6F;" cx="2938.0701" cy="861.6" rx="53.3899" ry="21.32"/>
		<ellipse style="fill:#696E6F;" cx="2958.29" cy="813.44" rx="50.71" ry="20.25"/>
		<ellipse style="fill:#696E6F;" cx="3082.52" cy="848.43" rx="85.9099" ry="34.31"/>
		<ellipse style="fill:#696E6F;" cx="2831.27" cy="890.9" rx="53.4099" ry="20.82"/>
		<ellipse style="fill:#696E6F;" cx="2809.5601" cy="827.21" rx="88.4299" ry="35.31"/>
		<ellipse style="fill:#696E6F;" cx="1770.38" cy="796.54" rx="51.89" ry="20.23"/>
		<ellipse style="fill:#696E6F;" cx="1639.3" cy="782.92" rx="51.89" ry="20.23"/>
		<ellipse style="fill:#696E6F;" cx="1293.9399" cy="782.92" rx="51.89" ry="20.23"/>
		<ellipse style="fill:#696E6F;" cx="1177.88" cy="791.89" rx="51.89" ry="20.23"/>
		<ellipse style="fill:#696E6F;" cx="1055.36" cy="782.92" rx="51.89" ry="20.23"/>
		<ellipse style="fill:#696E6F;" cx="662.74" cy="800.15" rx="51.89" ry="20.23"/>
		<ellipse style="fill:#696E6F;" cx="519.99" cy="791.89" rx="51.89" ry="20.23"/>
		<ellipse style="fill:#696E6F;" cx="192.1" cy="797.07" rx="51.89" ry="20.23"/>
		<ellipse style="fill:#696E6F;" cx="1998.5" cy="766.35" rx="51.8899" ry="20.23"/>
		<ellipse style="fill:#696E6F;" cx="2302.04" cy="786.91" rx="51.8899" ry="20.23"/>
	</g>
	<path id="bushesOverRoad" style="display:inline;fill:#565624;" d="M4952.73,650.43c-27.6401,1.19-50.2798,18.02-56.8799,40.04
		c-0.0898,0.04-0.1802,0.07-0.2598,0.11c-2.3599,0.71-4.6499,1.54-6.8701,2.48c-6-13.49-20.4702-22.68-36.9702-21.97
		c-2.1401,0.09-4.23,0.36-6.27,0.77c-7.9199-2.99-16.7202-4.55-25.9502-4.33c-10.9902-7.34-24.98-11.47-40.0498-10.82
		c-22.2202,0.96-41.2202,12.03-51.2402,27.78c-3.7002,4.71-6.54,9.94-8.3501,15.53c-0.75-0.14-1.4902-0.28-2.25-0.39
		c-2.7002-0.67-5.4702-1.18-8.2998-1.53c-6.3198-9.23-17.0098-15.51-29.2202-16.36c-10.1299-5.48-22.27-8.44-35.2002-7.88
		c-2.5898,0.11-5.1299,0.38-7.6201,0.75c-9.8999-5.11-21.6201-7.84-34.0801-7.31c-4.7402,0.2-9.3198,0.88-13.71,1.95
		c-7.3301-2.68-15.3901-4.19-23.8599-4.19c-24.8101,0-46.1299,12.73-55.7202,31.02c-8.2598-5.82-18.3398-9.76-29.3599-11.15
		c-5.0498-2.3-10.71-3.59-16.6899-3.59c-2.1499,0-4.2402,0.18-6.29,0.5c-7.7798-3.33-16.5098-5.27-25.7402-5.44
		c-10.6602-7.81-24.46-12.54-39.5498-12.54c-22.25,0-41.7002,10.24-52.3901,25.54c-4.1499,4.83-7.3501,10.28-9.3999,16.17
		c-2.3701,0.96-4.6499,2.05-6.8398,3.26c-4.6401-12.93-16.8701-22.59-31.73-24.27c-9.8799-5.92-21.8799-9.39-34.8301-9.4
		c-2.5898,0-5.1401,0.15-7.6401,0.42c-9.6699-5.53-21.2598-8.77-33.7402-8.77c-33.77-0.01-61.1499,23.57-61.1499,52.66
		c0,0.18,0.0098,0.35,0.0098,0.53c-4.8101,0.52-9.3398,1.91-13.4102,4c-3.8701-25.88-29.54-45.88-60.6299-45.88
		c-26.3,0-48.71,14.3-57.3501,34.36c-11.1001-13.26-29.1799-21.91-49.6101-21.91c-30.3,0-55.4399,18.97-60.3,43.88
		c-8.9299,0.63-17.01,4.12-23.1899,9.51c-5.45-9.03-14.9199-15.63-26.1299-17.64c-7.03-17.88-24.8999-31.44-46.8701-34.9
		c-5.3601-1.32-11.01-2.05-16.8601-2.05c-10.3501,0-20.0901,2.21-28.6299,6.12c-6.03-12.47-19.3899-21.14-34.9299-21.15
		c-7.6899,0-14.8501,2.13-20.8501,5.79c-10.98-14.03-29.6001-23.27-50.73-23.27c-27.6599,0-51.01,15.83-58.5601,37.54
		c-0.0901,0.04-0.1799,0.07-0.27,0.1c-2.3899,0.61-4.71,1.33-6.97,2.18c-5.4099-13.74-19.47-23.54-35.98-23.55
		c-2.1499,0-4.24,0.18-6.29,0.5c-7.78-3.33-16.51-5.27-25.74-5.44c-10.6599-7.81-24.46-12.54-39.55-12.54
		c-22.25,0-41.7,10.24-52.3899,25.54c-4.1499,4.83-7.3501,10.28-9.3999,16.17c-2.3701,0.96-4.6499,2.05-6.8401,3.26
		c-4.6399-12.93-16.8701-22.59-31.73-24.27c-9.8799-5.92-21.8799-9.39-34.8301-9.4c-2.5901,0-5.1399,0.15-7.6399,0.42
		c-9.6699-5.53-21.26-8.77-33.74-8.77c-25.8601,0-47.96,13.83-56.8999,33.37c-2.78,0.94-5.4199,2.16-7.8601,3.65
		c-10.98-14.03-29.6001-23.27-50.73-23.27c-0.4099,0-0.8201,0.01-1.22,0.02c-5.8301-1.59-12.03-2.46-18.47-2.46
		c-24.0701,0-44.8799,11.98-54.8601,29.39c-6.95-6.58-16.5701-10.67-27.22-10.67c-2.1499,0-4.24,0.18-6.29,0.5
		c-7.78-3.33-16.51-5.27-25.74-5.44c-10.6599-7.81-24.46-12.54-39.55-12.54c-22.25,0-41.7,10.24-52.3899,25.54
		c-4.1499,4.83-7.3501,10.28-9.3999,16.17c-2.3701,0.96-4.6499,2.05-6.8401,3.26c-4.6399-12.93-16.8701-22.59-31.73-24.27
		c-9.8799-5.92-21.8799-9.39-34.8301-9.4c-2.5901,0-5.1399,0.15-7.6399,0.42c-9.6699-5.53-21.26-8.77-33.74-8.77
		c-33.77-0.01-61.1499,23.57-61.1499,52.66c0,0.18,0.01,0.35,0.01,0.53c-4.8101,0.52-9.3401,1.91-13.4099,4
		c-3.8701-25.88-29.54-45.88-60.6299-45.88c-7.9299,0-15.5,1.31-22.46,3.68c-10.6201-7.66-24.29-12.28-39.22-12.28
		c-30.3,0-55.4399,18.97-60.3,43.88c-8.9299,0.63-17.01,4.12-23.1899,9.51c-5.45-9.03-14.9199-15.63-26.1299-17.64
		c-7.03-17.88-24.8999-31.44-46.8701-34.9c-5.3601-1.32-11.01-2.05-16.8601-2.05c-10.3501,0-20.0901,2.21-28.6299,6.12
		c-6.03-12.47-19.3899-21.14-34.9299-21.15c-7.6899,0-14.8501,2.13-20.8501,5.79c-10.98-14.03-29.6001-23.27-50.73-23.27
		c-27.6599,0-51.01,15.83-58.5601,37.54c-0.0901,0.04-0.1799,0.07-0.27,0.1c-2.3899,0.61-4.71,1.33-6.97,2.18
		c-5.4099-13.74-19.47-23.54-35.98-23.55c-2.1499,0-4.24,0.18-6.29,0.5c-7.78-3.33-16.51-5.27-25.74-5.44
		c-10.6599-7.81-24.46-12.54-39.55-12.54c-22.25,0-41.7,10.24-52.3899,25.54c-4.1499,4.83-7.3501,10.28-9.3999,16.17
		c-2.3701,0.96-4.6499,2.05-6.8401,3.26c-4.6399-12.93-16.8701-22.59-31.73-24.27c-9.8799-5.92-21.8799-9.39-34.83-9.4
		c-2.59,0-5.14,0.15-7.64,0.42c-9.67-5.53-21.26-8.77-33.74-8.77c-33.77-0.01-61.15,23.57-61.15,52.66c0,0.18,0.01,0.35,0.01,0.53
		c-4.8101,0.52-9.34,1.91-13.41,4c-3.87-25.88-29.54-45.88-60.63-45.88c-15.13,0-28.97,4.74-39.64,12.58
		c-4.62-0.96-9.4399-1.48-14.4-1.49c-30.3,0-55.4399,18.97-60.3,43.88c-8.9301,0.63-17.01,4.12-23.1899,9.51
		c-5.45-9.03-14.92-15.63-26.13-17.64c-7.03-17.88-24.9-31.44-46.87-34.9c-5.36-1.32-11.01-2.05-16.86-2.05
		c-10.35,0-20.09,2.21-28.63,6.12c-6.03-12.47-19.39-21.14-34.9301-21.15c-7.6899,0-14.85,2.13-20.85,5.79
		c-10.98-14.03-29.6-23.27-50.73-23.27c-27.66,0-51.01,15.83-58.5601,37.54c-0.09,0.04-0.1801,0.07-0.27,0.1
		c-2.39,0.61-4.71,1.33-6.97,2.18c-5.41-13.74-19.47-23.54-35.98-23.55c-2.15,0-4.24,0.18-6.29,0.5
		c-7.78-3.33-16.51-5.27-25.74-5.44c-10.66-7.81-24.46-12.54-39.55-12.54c-22.25,0-41.7,10.24-52.39,25.54
		c-4.15,4.83-7.35,10.28-9.4,16.17c-2.37,0.96-4.65,2.05-6.84,3.26c-4.64-12.93-16.87-22.59-31.73-24.27
		c-9.88-5.92-21.88-9.39-34.83-9.4c-2.59,0-5.14,0.15-7.64,0.42c-9.67-5.53-21.26-8.77-33.74-8.77
		c-33.77-0.01-61.15,23.57-61.15,52.66c0,0.18,0.01,0.35,0.01,0.53c-4.8101,0.52-9.34,1.91-13.41,4
		c-3.87-25.88-29.54-45.88-60.63-45.88c-24.34,0-45.35,12.25-55.2,29.98c-7.22-7.07-17.45-11.36-28.72-11.04
		c-7.69,0.22-14.78,2.55-20.68,6.37c-11.37-13.72-30.25-22.42-51.36-21.83c-27.65,0.78-50.54,17.26-57.48,39.18
		c-0.09,0.04-0.18,0.07-0.26,0.11c-2.37,0.68-4.67,1.47-6.9,2.37c-5.8-13.58-20.13-22.98-36.63-22.52c-2.14,0.06-4.24,0.3-6.28,0.68
		c-7.88-3.11-16.65-4.8-25.88-4.72c-10.88-7.5-24.8-11.84-39.89-11.42c-22.24,0.62-41.39,11.41-51.65,27.01
		c-4.01,4.94-7.06,10.49-8.94,16.43c-2.34,1.03-4.59,2.18-6.74,3.45c-5-12.8-17.5-22.1-32.4-23.36
		c-10.05-5.63-22.14-8.77-35.08-8.41c-2.59,0.07-5.13,0.3-7.63,0.64c-9.82-5.25-21.5-8.17-33.97-7.82
		c-33.76,0.95-60.46,25.29-59.64,54.37c0,0.18,0.02,0.35,0.02,0.53c-0.75,0.1-1.49,0.23-2.23,0.38
		c-6.11-12.77-17.87-23.03-32.61-28.43c-10.94-7.7-25.05-12.15-40.35-11.72c-33.76,0.95-60.46,25.29-59.64,54.37
		c0.01,0.48,0.05,0.96,0.08,1.44c-2.72,1.42-5.24,3.13-7.5,5.1c-5.45-9.03-14.92-15.63-26.13-17.64
		c-7.03-17.88-24.9-31.44-46.87-34.9c-5.36-1.32-11.01-2.05-16.86-2.05c-10.35,0-20.09,2.21-28.63,6.12
		c-6.03-12.47-19.39-21.14-34.93-21.15c-7.69,0-14.85,2.13-20.85,5.79c-10.98-14.03-29.6-23.27-50.73-23.27
		c-27.66,0-51.01,15.83-58.56,37.54c-0.09,0.04-0.18,0.07-0.27,0.1c-2.39,0.61-4.71,1.33-6.97,2.18
		c-2.63-6.67-7.3-12.41-13.29-16.55v122.89c0.95-0.54,1.88-1.11,2.78-1.72c3.17,2.55,7.28,4.1,11.78,4.1
		c6.42,0,12.05-3.14,15.27-7.87c4.38,0.86,8.94,1.32,13.62,1.33c3.01,0,5.97-0.2,8.87-0.56c1.2,1.57,2.68,2.94,4.37,4.05
		c3.19,2.63,7.37,4.23,11.95,4.24c6.16,0,11.6-2.89,14.87-7.3c3.37,0.91,6.93,1.41,10.61,1.41c4.58,0,8.96-0.75,13.03-2.13
		c3.16,4.97,8.94,8.3,15.56,8.3c3.87,0,7.45-1.14,10.39-3.08c5.93,3.53,12.96,5.59,20.51,5.59c8.42,0,16.2-2.55,22.53-6.87
		c3.17,2.55,7.28,4.1,11.78,4.1c6.54,0,12.27-3.25,15.45-8.13c2.5,0.27,5.04,0.41,7.63,0.41c4.61,0,9.11-0.44,13.43-1.28
		c3.05,5.36,9.06,9,15.98,9c4.72,0,9-1.71,12.22-4.48c3.01-1.27,5.58-3.29,7.45-5.81c3.37,0.91,6.93,1.41,10.61,1.41
		c4.57,0,8.96-0.75,13.03-2.13c3.16,4.97,8.94,8.3,15.56,8.3c3.87,0,7.45-1.14,10.39-3.08c5.93,3.53,12.96,5.59,20.51,5.59
		c4.21,0,8.27-0.64,12.06-1.82c1.88,0.56,3.88,0.85,5.97,0.79c3.58-0.1,6.88-1.18,9.64-2.94c2.06,0.77,4.3,1.2,6.65,1.2
		c6.54,0,12.27-3.25,15.45-8.13c2.5,0.27,5.04,0.41,7.63,0.41c1.9,0,3.76-0.09,5.61-0.24c3.38,3.13,8.07,5.01,13.2,4.86
		c0.05,0,0.1-0.01,0.15-0.01c2.95,1.96,6.55,3.11,10.44,3.11c9.56,0,17.38-6.96,18.05-15.78c5.25,2.48,11.22,3.81,17.52,3.63
		c6.84-0.19,13.18-2.13,18.58-5.34c3.4,4.26,8.88,6.95,14.98,6.78c6.37-0.18,11.87-3.43,14.96-8.2c0.64-0.17,1.27-0.36,1.88-0.59
		c-0.01,0.35-0.02,0.69-0.01,1.04c0.26,9.39,8.58,16.77,18.58,16.49c7.02-0.2,12.99-4.13,15.84-9.7c0.49-0.49,0.95-1,1.37-1.54
		c2.66,1.31,5.7,2.03,8.93,1.94c5.95-0.17,11.15-3.01,14.34-7.27c2.4,7,9.48,11.96,17.71,11.73c4.79-0.13,9.08-2.02,12.24-4.96
		c3.08,2.36,7,3.79,11.29,3.82c3.65,0.02,7.05-0.98,9.91-2.7c10.52,6.58,23.58,10.3,37.63,9.91c3.26-0.09,6.46-0.4,9.57-0.92
		c3.29,4.92,9.19,8.12,15.83,7.93c6.16-0.17,11.51-3.21,14.66-7.71c3.39,0.81,6.96,1.21,10.64,1.11c4.57-0.13,8.94-1.01,12.97-2.5
		c3.3,4.88,9.17,8.05,15.78,7.86c3.87-0.11,7.41-1.35,10.3-3.37c6.03,3.36,13.12,5.22,20.66,5.01c8.42-0.24,16.12-3.01,22.33-7.5
		c3.24,2.46,7.39,3.89,11.89,3.76c6.42-0.18,11.96-3.48,15.04-8.3c4.4,0.74,8.97,1.07,13.65,0.94c3.01-0.08,5.97-0.37,8.85-0.81
		c1.24,1.54,2.76,2.87,4.48,3.93c3.26,2.54,7.49,4.02,12.06,3.9c6.16-0.17,11.51-3.21,14.66-7.71c3.39,0.81,6.96,1.21,10.64,1.11
		c4.57-0.13,8.94-1.01,12.97-2.5c3.3,4.88,9.17,8.05,15.78,7.86c3.87-0.11,7.41-1.35,10.3-3.37c6.03,3.36,13.12,5.22,20.66,5.01
		c8.42-0.24,16.12-3.01,22.33-7.5c3.24,2.46,7.39,3.89,11.89,3.76c6.54-0.18,12.17-3.6,15.22-8.56c2.51,0.2,5.05,0.27,7.64,0.19
		c4.61-0.13,9.09-0.7,13.39-1.65c3.2,5.27,9.31,8.74,16.23,8.55c4.72-0.13,8.95-1.96,12.09-4.82c2.97-1.36,5.49-3.45,7.28-6.01
		c3.39,0.81,6.96,1.21,10.64,1.11c4.5699-0.13,8.9399-1.01,12.97-2.5c3.3,4.88,9.17,8.05,15.78,7.86c3.87-0.11,7.41-1.35,10.3-3.37
		c6.03,3.36,13.12,5.22,20.66,5.01c8.42-0.24,16.12-3.01,22.33-7.5c3.24,2.46,7.39,3.89,11.89,3.76c6.54-0.18,12.17-3.6,15.22-8.56
		c2.51,0.2,5.05,0.27,7.64,0.19c4.61-0.13,9.09-0.7,13.39-1.65c3.2,5.27,9.3101,8.74,16.23,8.55c10-0.28,17.89-8.12,17.62-17.51
		c-0.04-1.26-0.22-2.48-0.53-3.66c0.73,0.08,1.47,0.14,2.23,0.14c4.79,0,9.14-1.76,12.37-4.61c3.01,2.45,6.89,3.99,11.1801,4.13
		c3.64,0.12,7.0699-0.78,9.98-2.42c10.33,6.87,23.28,10.97,37.34,10.97c3.26,0,6.47-0.22,9.59-0.65c3.15,5.01,8.95,8.37,15.6,8.37
		c6.16,0,11.6-2.89,14.87-7.3c3.37,0.91,6.9301,1.41,10.61,1.41c4.58,0,8.96-0.75,13.03-2.13c3.16,4.97,8.9399,8.3,15.5601,8.3
		c3.87,0,7.45-1.14,10.39-3.08c5.9301,3.53,12.96,5.59,20.51,5.59c8.42,0,16.2-2.55,22.53-6.87c3.17,2.55,7.28,4.1,11.78,4.1
		c6.42,0,12.05-3.14,15.27-7.87c4.38,0.86,8.9399,1.32,13.62,1.33c3.01,0,5.97-0.2,8.87-0.56c1.2,1.57,2.6801,2.94,4.37,4.05
		c3.1899,2.63,7.37,4.23,11.95,4.24c6.16,0,11.6-2.89,14.87-7.3c3.37,0.91,6.9301,1.41,10.61,1.41c4.58,0,8.96-0.75,13.03-2.13
		c3.16,4.97,8.9399,8.3,15.5601,8.3c3.87,0,7.45-1.14,10.39-3.08c5.9301,3.53,12.96,5.59,20.51,5.59c8.42,0,16.2-2.55,22.53-6.87
		c3.17,2.55,7.28,4.1,11.78,4.1c6.54,0,12.27-3.25,15.45-8.13c2.5,0.27,5.04,0.41,7.63,0.41c4.61,0,9.11-0.44,13.4301-1.28
		c3.05,5.36,9.0601,9,15.98,9c4.72,0,9-1.71,12.22-4.48c3.01-1.27,5.58-3.29,7.45-5.81c3.37,0.91,6.9301,1.41,10.61,1.41
		c4.58,0,8.96-0.75,13.03-2.13c3.16,4.97,8.9399,8.3,15.5601,8.3c3.87,0,7.45-1.14,10.39-3.08c5.9301,3.53,12.96,5.59,20.51,5.59
		c8.42,0,16.2-2.55,22.53-6.87c3.17,2.55,7.28,4.1,11.78,4.1c6.54,0,12.27-3.25,15.45-8.13c2.5,0.27,5.04,0.41,7.63,0.41
		c4.61,0,9.11-0.44,13.4301-1.28c3.05,5.36,9.0601,9,15.98,9c8.33,0,15.34-5.29,17.45-12.49c2.2,0.9,4.64,1.4,7.1899,1.4
		c5.95,0,11.23-2.7,14.54-6.86c2.2,7.06,9.14,12.23,17.38,12.23c10,0,18.11-7.61,18.11-17c0-1.27-0.15-2.51-0.4399-3.71
		c6.74,7.9,17.09,12.97,28.71,12.97c6.84,0,13.24-1.76,18.72-4.81c3.28,4.35,8.6801,7.2,14.79,7.2c6.37,0,11.96-3.1,15.1899-7.77
		c0.65-0.15,1.28-0.32,1.9-0.53c-0.02,0.35-0.04,0.69-0.04,1.04c0,9.39,8.11,17.01,18.11,17.01c7.02,0,13.1-3.76,16.11-9.25
		c0.5-0.48,0.98-0.97,1.41-1.5c2.62,1.39,5.64,2.19,8.87,2.19c5.95,0,11.23-2.7,14.54-6.86c2.2,7.06,9.1399,12.23,17.3799,12.23
		c4.79,0,9.1399-1.76,12.3701-4.61c3.01,2.45,6.8899,3.99,11.1799,4.13c3.6399,0.12,7.0701-0.78,9.98-2.42
		c10.3301,6.87,23.28,10.97,37.3401,10.97c3.26,0,6.47-0.22,9.5901-0.65c3.1499,5.01,8.95,8.37,15.6001,8.37
		c6.1599,0,11.6001-2.89,14.8701-7.3c3.3701,0.91,6.9299,1.41,10.6101,1.41c4.5801,0,8.96-0.75,13.03-2.13
		c3.1599,4.97,8.9399,8.3,15.5601,8.3c3.8701,0,7.45-1.14,10.3899-3.08c5.9299,3.53,12.96,5.59,20.51,5.59
		c8.4199,0,16.2-2.55,22.53-6.87c3.1699,2.55,7.28,4.1,11.78,4.1c6.4199,0,12.05-3.14,15.27-7.87
		c4.3799,0.86,8.9399,1.32,13.6201,1.33c3.01,0,5.97-0.2,8.8701-0.56c1.2,1.57,2.6799,2.94,4.3701,4.05
		c3.1899,2.63,7.3701,4.23,11.95,4.24c6.1599,0,11.5901-2.89,14.8701-7.3c3.3701,0.91,6.9299,1.41,10.6101,1.41
		c4.5801,0,8.96-0.75,13.03-2.13c3.1599,4.97,8.9399,8.3,15.5601,8.3c3.8701,0,7.45-1.14,10.3899-3.08
		c5.9299,3.53,12.96,5.59,20.51,5.59c8.4199,0,16.2-2.55,22.53-6.87c3.1699,2.55,7.28,4.1,11.78,4.1c6.54,0,12.27-3.25,15.45-8.13
		c2.5,0.27,5.04,0.41,7.6299,0.41c4.6101,0,9.1101-0.44,13.4299-1.28c3.05,5.36,9.0601,9,15.98,9c4.72,0,9-1.71,12.22-4.48
		c3.01-1.27,5.5801-3.29,7.45-5.81c3.3701,0.91,6.9299,1.41,10.6101,1.41c4.5701,0,8.96-0.75,13.03-2.13
		c3.1599,4.97,8.9399,8.3,15.5601,8.3c3.8701,0,7.45-1.14,10.3899-3.08c5.9299,3.53,12.96,5.59,20.51,5.59
		c8.4199,0,16.2-2.55,22.53-6.87c3.1699,2.55,7.28,4.1,11.78,4.1c6.54,0,12.27-3.25,15.45-8.13c1.0701,0.11,2.1499,0.19,3.23,0.26
		c3.2,4.82,8.8701,8.03,15.3601,8.03c2.2,0,4.3101-0.37,6.25-1.04c-0.02,0.35-0.04,0.69-0.04,1.04
		c0,9.39,8.1101,17.01,18.1101,17.01c7.77,0,14.3899-4.59,16.97-11.04c2.74,1.57,5.97,2.48,9.4199,2.48c5.95,0,11.23-2.7,14.54-6.86
		c2.2,7.06,9.1399,12.23,17.3799,12.23c10,0,18.1101-7.61,18.1101-17c0-1.27-0.1499-2.51-0.4399-3.71
		c6.74,7.9,17.0901,12.97,28.71,12.97c6.8401,0,13.24-1.76,18.72-4.81c3.28,4.35,8.6799,7.2,14.79,7.2
		c6.3701,0,11.96-3.1,15.1899-7.77c0.6499-0.15,1.28-0.32,1.8999-0.53c-0.02,0.35-0.04,0.69-0.04,1.04
		c0,9.39,8.1101,17.01,18.1101,17.01c7.02,0,13.1001-3.76,16.1101-9.25c0.5-0.48,0.98-0.97,1.4099-1.5
		c2.6201,1.39,5.6399,2.19,8.8701,2.19c5.95,0,11.23-2.7,14.54-6.86c2.2,7.06,9.1399,12.23,17.3799,12.23
		c4.79,0,9.1399-1.76,12.3701-4.61c3.01,2.45,6.8899,3.99,11.1799,4.13c3.6399,0.12,7.0701-0.78,9.98-2.42
		c10.3301,6.87,23.28,10.97,37.3401,10.97c3.26,0,6.47-0.22,9.5901-0.65c3.1499,5.01,8.95,8.37,15.6001,8.37
		c6.1599,0,11.6001-2.89,14.8701-7.3c3.3701,0.91,6.9299,1.41,10.6101,1.41c4.5801,0,8.96-0.75,13.03-2.13
		c3.1599,4.97,8.9399,8.3,15.5601,8.3c3.8701,0,7.45-1.14,10.3899-3.08c5.9299,3.53,12.96,5.59,20.51,5.59
		c8.4199,0,16.2-2.55,22.53-6.87c3.1699,2.55,7.28,4.1,11.78,4.1c6.4199,0,12.05-3.14,15.27-7.87
		c4.3799,0.86,8.9399,1.32,13.6201,1.33c3.01,0,5.97-0.2,8.8701-0.56c1.2,1.57,2.6799,2.94,4.3701,4.05
		c3.1899,2.63,7.3701,4.23,11.95,4.24c6.1599,0,11.6001-2.89,14.8701-7.3c3.3701,0.91,6.9299,1.41,10.6101,1.41
		c4.5701,0,8.96-0.75,13.03-2.13c3.1599,4.97,8.9399,8.3,15.5601,8.3c3.8701,0,7.45-1.14,10.3899-3.08
		c5.9299,3.53,12.96,5.59,20.51,5.59c8.4199,0,16.2-2.55,22.53-6.87c3.1699,2.55,7.28,4.1,11.78,4.1c6.54,0,12.27-3.25,15.45-8.13
		c2.5,0.27,5.04,0.41,7.6299,0.41c4.6101,0,9.1101-0.44,13.4299-1.28c3.05,5.36,9.0601,9,15.98,9c4.72,0,9-1.71,12.22-4.48
		c3.01-1.27,5.5801-3.29,7.45-5.81c3.3701,0.91,6.9299,1.41,10.6101,1.41c4.5801,0,8.96-0.75,13.03-2.13
		c3.1599,4.97,8.9399,8.3,15.5601,8.3c3.8701,0,7.45-1.14,10.3899-3.08c5.9299,3.53,12.96,5.59,20.51,5.59
		c8.4199,0,16.2-2.55,22.53-6.87c3.1699,2.55,7.28,4.1,11.78,4.1c6.54,0,12.27-3.25,15.45-8.13c2.5,0.27,5.04,0.41,7.6299,0.41
		c4.6101,0,9.1101-0.44,13.4299-1.28c3.05,5.36,9.0601,9,15.98,9c8.3701,0,15.3899-5.33,17.47-12.57
		c3.55,1.02,7.3201,1.58,11.22,1.58c8.4199,0,16.2-2.55,22.53-6.87c3.1699,2.55,7.28,4.1,11.78,4.1c6.4199,0,12.05-3.14,15.27-7.87
		c4.3799,0.86,8.9399,1.32,13.6201,1.33c3.01,0,5.97-0.2,8.8701-0.56c1.2,1.57,2.6799,2.94,4.3701,4.05
		c3.1899,2.63,7.3701,4.23,11.95,4.23c6.1599,0,11.6001-2.89,14.8701-7.3c3.3701,0.91,6.9299,1.41,10.6101,1.41
		c4.5701,0,8.96-0.75,13.03-2.13c3.1599,4.97,8.9399,8.3,15.5601,8.3c3.8701,0,7.45-1.14,10.3899-3.08
		c5.9299,3.53,12.96,5.59,20.51,5.59c8.4199,0,16.2-2.55,22.53-6.87c3.1699,2.55,7.28,4.1,11.78,4.1c6.54,0,12.27-3.25,15.45-8.13
		c2.5,0.27,5.04,0.41,7.6299,0.41c4.6101,0,9.1101-0.44,13.4299-1.28c3.05,5.36,9.0601,9,15.98,9c4.72,0,9-1.71,12.22-4.48
		c3.01-1.27,5.5801-3.29,7.45-5.81c3.3701,0.91,6.9299,1.41,10.6101,1.41c4.5801,0,8.96-0.75,13.03-2.13
		c3.1599,4.97,8.9399,8.3,15.5601,8.3c3.8701,0,7.45-1.14,10.3899-3.08c5.9299,3.53,12.96,5.59,20.51,5.59
		c8.4199,0,16.2-2.55,22.53-6.87c3.1699,2.55,7.28,4.1,11.78,4.1c6.54,0,12.27-3.25,15.45-8.13c2.5,0.27,5.04,0.41,7.6299,0.41
		c4.6101,0,9.1101-0.44,13.4299-1.28c3.05,5.36,9.0601,9,15.98,9c10,0,18.1101-7.61,18.1101-17c0-2.46-0.5601-4.8-1.5701-6.92
		c2.9199,1.9,6.47,3.03,10.3,3.03c2.2,0,4.3101-0.37,6.25-1.04c-0.02,0.35-0.04,0.69-0.04,1.04c0,9.39,8.1101,17.01,18.1101,17.01
		c7.77,0,14.3899-4.59,16.97-11.04c2.74,1.57,5.97,2.48,9.4199,2.48c5.95,0,11.23-2.7,14.54-6.86
		c2.2,7.06,9.1399,12.23,17.3801,12.23c10,0,18.1099-7.61,18.1099-17c0-1.27-0.1499-2.51-0.4399-3.71
		c6.7402,7.9,17.0898,12.97,28.71,12.97c6.8398,0,13.2402-1.76,18.7202-4.81c3.2798,4.35,8.6802,7.2,14.79,7.2
		c6.3701,0,11.96-3.1,15.1899-7.77c0.6499-0.15,1.2798-0.32,1.8999-0.53c-0.02,0.35-0.04,0.69-0.04,1.04
		c0,9.39,8.1001,17.01,18.1099,17.01c7.02,0,13.1001-3.76,16.1099-9.25c0.5-0.48,0.98-0.97,1.4102-1.5
		c2.6201,1.39,5.6401,2.19,8.8701,2.19c5.9502,0,11.23-2.7,14.54-6.86c2.2002,7.06,9.1401,12.23,17.3799,12.23
		c4.79,0,9.1401-1.76,12.3701-4.61c3.0098,2.45,6.8901,3.99,11.1802,4.13c3.6401,0.12,7.0698-0.78,9.98-2.42
		c10.3301,6.87,23.2798,10.97,37.3398,10.97c3.2598,0,6.4702-0.22,9.5898-0.65c3.1499,5.01,8.96,8.37,15.6001,8.37
		c6.1602,0,11.6001-2.89,14.8701-7.3c3.3701,0.91,6.9302,1.41,10.6099,1.41c4.5801,0,8.96-0.75,13.0298-2.13
		c3.1602,4.97,8.9399,8.3,15.5601,8.3c3.8701,0,7.4502-1.14,10.3901-3.08c5.9302,3.53,12.96,5.59,20.5098,5.59
		c8.4199,0,16.2002-2.55,22.5298-6.87c3.1699,2.55,7.2798,4.1,11.7798,4.1c6.4199,0,12.0498-3.14,15.27-7.87
		c4.3799,0.86,8.9399,1.32,13.6201,1.33c3.0098,0,5.9702-0.2,8.8701-0.56c1.2002,1.57,2.6802,2.94,4.3701,4.05
		c3.1899,2.63,7.3701,4.23,11.9502,4.24c6.1602,0,11.6001-2.89,14.8701-7.3c3.3701,0.91,6.9302,1.41,10.6099,1.41
		c4.5801,0,8.96-0.75,13.0298-2.13c3.1602,4.97,8.9399,8.3,15.5601,8.3c3.8701,0,7.4502-1.14,10.3901-3.08
		c5.9302,3.53,12.96,5.59,20.5098,5.59c8.4199,0,16.2002-2.55,22.5298-6.87c3.1699,2.55,7.2798,4.1,11.7798,4.1
		c6.54,0,12.27-3.25,15.4502-8.13c2.5,0.27,5.04,0.41,7.6299,0.41c4.6099,0,9.1099-0.44,13.4302-1.28c3.0498,5.36,9.0601,9,15.98,9
		c4.7202,0,9-1.71,12.2202-4.48c3.0098-1.27,5.5801-3.29,7.4502-5.81c3.3701,0.91,6.9302,1.41,10.6099,1.41
		c3.1699,0,6.2402-0.37,9.1899-1.05c1.8701,0.91,3.9399,1.51,6.1099,1.75c3.3101,3.36,8.0298,5.47,13.29,5.47
		c3.8701,0,7.4502-1.14,10.3901-3.08c5.9302,3.53,12.96,5.59,20.5098,5.59c8.4199,0,16.2002-2.55,22.5298-6.87
		c3.1699,2.55,7.2798,4.1,11.7798,4.1c5.7598,0,10.8901-2.52,14.2002-6.46c1.96-0.31,3.8799-0.77,5.7202-1.35
		c1.0498,0.05,2.0898,0.09,3.1499,0.09c4.6099,0,9.1099-0.44,13.4302-1.28c3.0498,5.36,9.0601,9,15.98,9
		c10,0,18.1099-7.61,18.1099-17c0-0.33-0.0098-0.66-0.0298-0.99c0.5498-0.01,1.1001-0.01,1.6602-0.03
		c3.0098-0.13,5.96-0.46,8.8398-0.94c1.27,1.52,2.8101,2.83,4.54,3.86c3.2998,2.49,7.5498,3.91,12.1201,3.71
		c6.1499-0.27,11.46-3.39,14.54-7.93c3.4102,0.76,6.98,1.11,10.6602,0.95c4.5698-0.2,8.9199-1.14,12.9302-2.69
		c2.8901,4.13,7.6401,6.98,13.0898,7.53V666.9C4988.2998,656.08,4971.3398,649.63,4952.73,650.43z"/>
</g>
<path id="bg8" style="fill:#35360B;" d="M4998.3198,851.02c-3.1699-2.55-7.29-4.08-11.79-4.08c-6.4199,0.01-12.0498,3.16-15.25,7.9
	c-4.3799-0.85-8.9399-1.31-13.6299-1.3c-3.0098,0.01-5.9702,0.21-8.8701,0.58c-1.2002-1.57-2.6899-2.94-4.3799-4.05
	c-3.1899-2.63-7.3799-4.22-11.96-4.21c-6.1602,0.01-11.5898,2.91-14.8501,7.32c-3.3701-0.9-6.9302-1.39-10.6099-1.39
	c-4.5801,0.01-8.96,0.77-13.0298,2.16c-3.1699-4.97-8.96-8.29-15.5698-8.28c-3.8701,0.01-7.4502,1.15-10.3901,3.1
	c-5.9399-3.52-12.9702-5.56-20.52-5.55c-8.4199,0.01-16.2002,2.58-22.52,6.91c-3.1699-2.55-7.29-4.08-11.79-4.08
	c-6.54,0.01-12.2598,3.28-15.4399,8.16c-0.9502-0.1-1.9199-0.16-2.8901-0.23c-3.1899-2.63-7.3799-4.22-11.96-4.22
	c-3.1299,0.01-6.0698,0.77-8.6401,2.09c-3.3198-3.51-8.1602-5.73-13.5601-5.72c-1.8301,0-3.5898,0.27-5.25,0.75v0.58
	c-1.1401-0.09-2.29-0.16-3.4502-0.16c-8.4199,0.01-16.2002,2.58-22.52,6.91c-3.1699-2.55-7.29-4.08-11.79-4.08
	c-6.4199,0.01-12.0498,3.16-15.25,7.9c-4.3799-0.85-8.9399-1.31-13.6201-1.3c-3.0098,0.01-5.9702,0.21-8.8701,0.58
	c-1.2002-1.57-2.6899-2.94-4.3799-4.05c-3.1899-2.63-7.3799-4.22-11.96-4.21c-6.1602,0.01-11.5898,2.91-14.8501,7.32
	c-3.3701-0.9-6.9302-1.39-10.6099-1.39c-4.5801,0.01-8.96,0.77-13.0298,2.16c-3.1699-4.97-8.96-8.29-15.5698-8.28
	c-3.8701,0.01-7.4502,1.15-10.3901,3.1c-5.9399-3.52-12.9702-5.56-20.52-5.55c-8.4199,0.01-16.2002,2.58-22.52,6.91
	c-3.1699-2.55-7.29-4.08-11.79-4.08c-6.54,0.01-12.2598,3.28-15.4399,8.16c-2.5-0.26-5.04-0.4-7.6299-0.39
	c-4.6099,0.01-9.1099,0.46-13.4302,1.3c-3.0601-5.35-9.0698-8.99-15.9902-8.98c-4.7202,0.01-9,1.72-12.21,4.5
	c-3.0098,1.28-5.5801,3.3-7.4399,5.82c-3.3701-0.9-6.9302-1.39-10.6099-1.39c-4.5698,0.01-8.96,0.77-13.0298,2.16
	c-3.1699-4.97-8.96-8.29-15.5698-8.28c-3.8701,0.01-7.4502,1.15-10.3901,3.1c-5.9399-3.52-12.9702-5.56-20.52-5.55
	c-4.21,0.01-8.2598,0.65-12.0498,1.84c-1.8799-0.55-3.8799-0.84-5.9702-0.78c-3.5801,0.11-6.8799,1.19-9.6299,2.96
	c-2.0601-0.76-4.2998-1.19-6.6499-1.19c-6.54,0.01-12.2598,3.28-15.4399,8.16c-2.5-0.26-5.0498-0.4-7.6299-0.39
	c-1.8999,0-3.7598,0.1-5.6099,0.25c-3.3901-3.12-8.0801-4.99-13.21-4.84c-0.0498,0-0.1001,0.01-0.1499,0.01
	c-2.9502-1.96-6.5601-3.1-10.4502-3.1c-9.5601,0.02-17.3599,6.99-18.02,15.81c-5.2598-2.47-11.2202-3.79-17.52-3.6
	c-6.8398,0.2-13.1802,2.15-18.5698,5.37c-3.4102-4.25-8.8901-6.93-15-6.75c-6.3701,0.19-11.8599,3.46-14.9502,8.22
	c-0.6401,0.17-1.27,0.36-1.8799,0.59c0.0098-0.35,0.02-0.69,0.0098-1.04c-0.2798-9.39-8.6099-16.76-18.6099-16.46
	c-7.02,0.21-12.98,4.15-15.8198,9.73c-0.48,0.49-0.9502,1-1.3701,1.54c-2.6602-1.31-5.71-2.02-8.9302-1.92
	c-5.9502,0.18-11.1499,3.03-14.3198,7.29c-2.4102-6.99-9.5098-11.95-17.7402-11.7c-4.79,0.14-9.0801,2.03-12.23,4.98
	c-3.0801-2.35-7.0098-3.78-11.2998-3.8c-3.6499-0.01-7.0498,0.99-9.8999,2.72c-10.5298-6.56-23.5901-10.26-37.6499-9.84
	c-3.26,0.1-6.46,0.42-9.5701,0.93c-3.3-4.91-9.2-8.1-15.8401-7.9c-6.1599,0.18-11.5,3.23-14.6399,7.74
	c-3.3999-0.81-6.96-1.2-10.6399-1.09c-4.5701,0.14-8.9399,1.02-12.96,2.52c-3.3101-4.87-9.1899-8.03-15.8-7.83
	c-3.8701,0.12-7.4099,1.36-10.29,3.39c-6.04-3.35-13.1201-5.19-20.6699-4.97c-8.4199,0.25-16.1201,3.04-22.3101,7.54
	c-3.24-2.46-7.3999-3.88-11.8999-3.74c-6.4199,0.19-11.95,3.5-15.03,8.32c-4.4099-0.73-8.97-1.06-13.6599-0.92
	c-3.01,0.09-5.97,0.38-8.8501,0.83c-1.25-1.54-2.77-2.86-4.49-3.92c-3.27-2.54-7.49-4.01-12.0701-3.87
	c-6.1599,0.18-11.5,3.23-14.6399,7.74c-3.3999-0.81-6.96-1.2-10.6399-1.09c-4.5701,0.14-8.9399,1.02-12.96,2.52
	c-3.3101-4.87-9.1899-8.03-15.8-7.83c-3.8701,0.12-7.4099,1.36-10.29,3.39c-6.04-3.35-13.1201-5.19-20.6699-4.97
	c-8.4199,0.25-16.1201,3.04-22.3101,7.54c-3.24-2.46-7.3999-3.88-11.8999-3.74c-6.54,0.2-12.1599,3.62-15.2,8.59
	c-2.51-0.19-5.05-0.26-7.6399-0.18c-4.6101,0.14-9.0901,0.72-13.3799,1.68c-3.21-5.26-9.3201-8.73-16.24-8.52
	c-4.72,0.14-8.9399,1.98-12.0801,4.85c-2.97,1.36-5.48,3.46-7.27,6.03c-3.3999-0.81-6.96-1.2-10.6399-1.09
	c-4.5701,0.14-8.9399,1.02-12.96,2.52c-3.3101-4.87-9.1899-8.03-15.8-7.83c-3.8701,0.12-7.4099,1.36-10.29,3.39
	c-6.04-3.35-13.1201-5.19-20.6699-4.97c-8.4199,0.25-16.1201,3.04-22.3101,7.54c-3.24-2.46-7.3999-3.88-11.8999-3.74
	c-6.54,0.2-12.1599,3.62-15.2,8.59c-2.51-0.19-5.05-0.26-7.6399-0.18c-4.6101,0.14-9.0901,0.72-13.3799,1.68
	c-3.21-5.26-9.3201-8.73-16.24-8.52c-10,0.3-17.8701,8.15-17.5901,17.54c0.04,1.26,0.23,2.48,0.54,3.66
	c-0.73-0.08-1.47-0.14-2.23-0.14c-4.79,0.01-9.1299,1.78-12.3701,4.63c-3.02-2.44-6.8999-3.97-11.1899-4.11
	c-3.6399-0.12-7.0701,0.79-9.98,2.44c-10.3401-6.85-23.3-10.92-37.3601-10.9c-3.26,0.01-6.47,0.23-9.5901,0.66
	c-3.1599-5-8.97-8.36-15.6101-8.35c-6.1599,0.01-11.5901,2.91-14.8501,7.32c-3.3701-0.9-6.9299-1.39-10.6101-1.39
	c-4.5801,0.01-8.96,0.77-13.03,2.16c-3.1699-4.97-8.96-8.29-15.5701-8.28c-3.8701,0.01-7.45,1.15-10.3899,3.1
	c-5.9399-3.52-12.97-5.56-20.52-5.55c-8.4199,0.01-16.2,2.58-22.52,6.91c-3.1699-2.55-7.29-4.08-11.79-4.08
	c-6.4199,0.01-12.05,3.16-15.25,7.9c-4.3799-0.85-8.9399-1.31-13.6299-1.3c-3.01,0.01-5.97,0.21-8.8701,0.58
	c-1.2-1.57-2.6899-2.94-4.3799-4.05c-3.1899-2.63-7.3799-4.22-11.96-4.21c-6.1599,0.01-11.5901,2.91-14.8501,7.32
	c-3.3701-0.9-6.9299-1.39-10.6101-1.39c-4.5701,0.01-8.96,0.77-13.03,2.16c-3.1699-4.97-8.96-8.29-15.5701-8.28
	c-3.8701,0.01-7.45,1.15-10.3899,3.1c-5.9399-3.52-12.97-5.56-20.52-5.55c-8.4199,0.01-16.2,2.58-22.52,6.91
	c-3.1699-2.55-7.29-4.08-11.79-4.08c-6.54,0.01-12.26,3.28-15.4399,8.16c-2.5-0.26-5.05-0.4-7.6299-0.39
	c-4.6101,0.01-9.1101,0.46-13.4299,1.3c-3.0601-5.35-9.0701-8.99-15.99-8.98c-4.72,0.01-9,1.72-12.21,4.5
	c-3.01,1.28-5.5801,3.3-7.4399,5.82c-3.3701-0.9-6.9299-1.39-10.6101-1.39c-4.5801,0.01-8.96,0.77-13.03,2.16
	c-3.1699-4.97-8.96-8.29-15.5701-8.28c-3.8701,0.01-7.45,1.15-10.3899,3.1c-5.9399-3.52-12.97-5.56-20.52-5.55
	c-8.4199,0.01-16.2,2.58-22.52,6.91c-3.1699-2.55-7.29-4.08-11.79-4.08c-6.54,0.01-12.26,3.28-15.4399,8.16
	c-2.5-0.26-5.05-0.4-7.6299-0.39c-4.6101,0.01-9.1101,0.46-13.4299,1.3c-3.0601-5.35-9.0701-8.99-15.99-8.98
	c-8.3301,0.01-15.3301,5.32-17.4199,12.52c-2.21-0.89-4.6399-1.39-7.1899-1.39c-5.95,0.01-11.23,2.72-14.52,6.89
	c-2.21-7.06-9.1699-12.21-17.3999-12.2c-10,0.02-18.1001,7.64-18.0801,17.04c0,1.27,0.1599,2.51,0.4399,3.71
	c-6.75-7.89-17.1201-12.94-28.74-12.92c-6.8401,0.01-13.24,1.78-18.72,4.84c-3.29-4.35-8.6899-7.18-14.8-7.17
	c-6.3701,0.01-11.96,3.12-15.1699,7.8c-0.6499,0.15-1.28,0.32-1.8999,0.54c0.02-0.35,0.04-0.69,0.04-1.04
	c-0.02-9.39-8.1399-16.99-18.1399-16.98c-7.02,0.01-13.0901,3.78-16.0901,9.28c-0.5,0.48-0.98,0.97-1.4099,1.5
	c-2.6201-1.38-5.6499-2.18-8.8701-2.17c-5.95,0.01-11.23,2.72-14.52,6.89c-2.21-7.06-9.1699-12.21-17.3999-12.19
	c-4.79,0.01-9.1299,1.78-12.3701,4.63c-3.02-2.44-6.8999-3.97-11.1899-4.11c-3.6399-0.12-7.0701,0.79-9.98,2.44
	c-10.3401-6.85-23.3-10.92-37.3601-10.9c-3.26,0.01-6.47,0.23-9.5901,0.66c-3.1599-5-8.97-8.36-15.6101-8.35
	c-6.1599,0.01-11.5901,2.91-14.8501,7.32c-3.3701-0.9-6.9299-1.39-10.6101-1.39c-4.5801,0.01-8.96,0.77-13.03,2.16
	c-3.1699-4.97-8.96-8.29-15.5701-8.28c-3.8701,0.01-7.45,1.15-10.3899,3.1c-5.9399-3.52-12.97-5.56-20.52-5.55
	c-8.4199,0.01-16.2,2.58-22.52,6.91c-3.1699-2.55-7.29-4.08-11.79-4.08c-6.4199,0.01-12.05,3.16-15.25,7.9
	c-4.3799-0.85-8.9399-1.31-13.6299-1.3c-3.01,0.01-5.97,0.21-8.8701,0.58c-1.2-1.57-2.6899-2.94-4.3799-4.05
	c-3.1899-2.63-7.3799-4.22-11.96-4.21c-6.1599,0.01-11.5901,2.91-14.8501,7.32c-3.3701-0.9-6.9299-1.39-10.6101-1.39
	c-4.5801,0.01-8.96,0.77-13.03,2.16c-3.1699-4.97-8.96-8.29-15.5701-8.28c-3.8701,0.01-7.45,1.15-10.3899,3.1
	c-5.9399-3.52-12.97-5.56-20.52-5.55c-8.4199,0.01-16.2,2.58-22.52,6.91c-3.1699-2.55-7.29-4.08-11.79-4.08
	c-6.54,0.01-12.26,3.28-15.4399,8.16c-2.5-0.26-5.05-0.4-7.6299-0.39c-4.6101,0.01-9.1101,0.46-13.4299,1.3
	c-3.0601-5.35-9.0701-8.99-15.99-8.98c-4.72,0.01-9,1.72-12.21,4.5c-3.01,1.28-5.5801,3.3-7.4399,5.82
	c-3.3701-0.9-6.9299-1.39-10.6101-1.39c-4.5801,0.01-8.96,0.77-13.03,2.16c-3.1699-4.97-8.96-8.29-15.5701-8.28
	c-3.8701,0.01-7.45,1.15-10.3899,3.1c-5.9399-3.52-12.97-5.56-20.52-5.55c-8.4199,0.01-16.2,2.58-22.52,6.91
	c-3.1699-2.55-7.29-4.08-11.79-4.08c-6.54,0.01-12.26,3.28-15.4399,8.16c-1.0701-0.11-2.1499-0.19-3.23-0.25
	c-3.21-4.81-8.8899-8.02-15.3799-8.01c-2.2,0-4.3,0.38-6.25,1.05c0.02-0.35,0.04-0.69,0.04-1.04
	c-0.02-9.39-8.1399-16.99-18.14-16.98c-7.77,0.01-14.38,4.62-16.95,11.07c-2.75-1.57-5.97-2.47-9.4301-2.47
	c-5.95,0.01-11.23,2.72-14.52,6.89c-2.21-7.06-9.17-12.21-17.4-12.19c-10,0.02-18.1,7.64-18.08,17.04c0,1.27,0.16,2.51,0.4399,3.71
	c-6.75-7.89-17.12-12.94-28.74-12.92c-6.84,0.01-13.24,1.78-18.72,4.84c-3.29-4.35-8.6899-7.18-14.8-7.17
	c-6.37,0.01-11.96,3.12-15.17,7.8c-0.65,0.15-1.28,0.32-1.9,0.54c0.02-0.35,0.04-0.69,0.04-1.04c-0.02-9.39-8.14-16.99-18.14-16.98
	c-7.02,0.01-13.09,3.78-16.09,9.28c-0.5,0.48-0.97,0.97-1.41,1.5c-2.62-1.38-5.65-2.18-8.87-2.17c-5.95,0.01-11.23,2.72-14.52,6.89
	c-2.21-7.06-9.17-12.21-17.4-12.19c-4.79,0.01-9.13,1.78-12.37,4.63c-3.02-2.44-6.9-3.97-11.1899-4.11
	c-3.64-0.12-7.0699,0.79-9.98,2.44c-10.34-6.85-23.3-10.92-37.36-10.9c-3.26,0.01-6.47,0.23-9.59,0.66c-3.16-5-8.97-8.36-15.61-8.35
	c-6.16,0.01-11.59,2.91-14.85,7.32c-3.37-0.9-6.9301-1.39-10.61-1.39c-4.58,0.01-8.96,0.77-13.03,2.16
	c-3.17-4.97-8.96-8.29-15.5699-8.28c-3.87,0.01-7.45,1.15-10.39,3.1c-5.9399-3.52-12.97-5.56-20.52-5.55
	c-8.42,0.01-16.2,2.58-22.52,6.91c-3.17-2.55-7.29-4.08-11.79-4.08c-6.42,0.01-12.05,3.16-15.25,7.9
	c-4.38-0.85-8.9399-1.31-13.63-1.3c-3.01,0.01-5.97,0.21-8.87,0.58c-1.2-1.57-2.6899-2.94-4.38-4.05
	c-3.1899-2.63-7.38-4.22-11.96-4.21c-6.16,0.01-11.59,2.91-14.85,7.32c-3.37-0.9-6.9301-1.39-10.61-1.39
	c-4.58,0.01-8.96,0.77-13.03,2.16c-3.17-4.97-8.96-8.29-15.5699-8.28c-3.87,0.01-7.45,1.15-10.39,3.1
	c-5.9399-3.52-12.97-5.56-20.52-5.55c-8.42,0.01-16.2,2.58-22.52,6.91c-3.17-2.55-7.29-4.08-11.79-4.08
	c-6.54,0.01-12.26,3.28-15.4399,8.16c-2.5-0.26-5.05-0.4-7.63-0.39c-4.61,0.01-9.11,0.46-13.4301,1.3
	c-3.0601-5.35-9.08-8.99-15.99-8.98c-4.72,0.01-9,1.72-12.21,4.5c-3.01,1.28-5.58,3.3-7.4399,5.82c-3.37-0.9-6.9301-1.39-10.61-1.39
	c-4.58,0.01-8.96,0.77-13.03,2.16c-3.17-4.97-8.96-8.29-15.5699-8.28c-3.87,0.01-7.45,1.15-10.39,3.1
	c-5.9399-3.52-12.97-5.56-20.52-5.55c-8.42,0.01-16.2,2.58-22.52,6.91c-3.17-2.55-7.29-4.08-11.79-4.08
	c-6.54,0.01-12.26,3.28-15.4399,8.16c-2.5-0.26-5.05-0.4-7.63-0.39c-4.61,0.01-9.11,0.46-13.4301,1.3
	c-3.0601-5.35-9.0699-8.99-15.99-8.98c-8.37,0.01-15.38,5.36-17.45,12.61c-3.55-1.02-7.3199-1.57-11.23-1.56
	c-8.42,0.01-16.2,2.58-22.52,6.91c-3.17-2.55-7.29-4.08-11.79-4.08c-6.42,0.01-12.05,3.16-15.25,7.9
	c-4.38-0.85-8.9399-1.31-13.63-1.3c-3.01,0.01-5.97,0.21-8.87,0.58c-1.2-1.57-2.6899-2.94-4.38-4.05
	c-3.1899-2.63-7.38-4.22-11.96-4.21c-6.16,0.01-11.59,2.91-14.85,7.32c-3.37-0.9-6.9301-1.39-10.61-1.39
	c-4.58,0.01-8.96,0.77-13.03,2.16c-3.17-4.97-8.96-8.29-15.57-8.28c-3.87,0.01-7.45,1.15-10.39,3.1
	c-5.94-3.52-12.97-5.56-20.52-5.55c-8.42,0.01-16.2,2.58-22.52,6.91c-3.17-2.55-7.29-4.08-11.79-4.08
	c-6.54,0.01-12.26,3.28-15.44,8.16c-2.5-0.26-5.05-0.4-7.63-0.39c-4.61,0.01-9.11,0.46-13.43,1.3c-3.06-5.35-9.07-8.99-15.99-8.98
	c-4.72,0.01-9,1.72-12.21,4.5c-3.01,1.28-5.58,3.3-7.44,5.82c-3.37-0.9-6.93-1.39-10.61-1.39c-4.58,0.01-8.96,0.77-13.03,2.16
	c-3.17-4.97-8.96-8.29-15.57-8.28c-3.87,0.01-7.45,1.15-10.39,3.1c-5.94-3.52-12.97-5.56-20.52-5.55
	c-8.42,0.01-16.2,2.58-22.52,6.91c-3.17-2.55-7.29-4.08-11.79-4.08c-6.54,0.01-12.26,3.28-15.44,8.16c-2.5-0.26-5.05-0.4-7.63-0.39
	c-4.61,0.01-9.11,0.46-13.43,1.3c-3.06-5.35-9.07-8.99-15.99-8.98c-10,0.02-18.1,7.64-18.08,17.04c0,2.46,0.57,4.8,1.58,6.91
	c-2.93-1.9-6.48-3.01-10.3-3.01c-2.2,0-4.3,0.38-6.25,1.05c0.02-0.35,0.04-0.69,0.04-1.04c-0.02-9.39-8.14-16.99-18.14-16.98
	c-7.77,0.01-14.38,4.62-16.95,11.07c-2.75-1.57-5.97-2.47-9.43-2.47c-5.95,0.01-11.23,2.72-14.52,6.89
	c-2.21-7.06-9.17-12.21-17.4-12.19c-10,0.02-18.1,7.64-18.08,17.04c0,1.27,0.16,2.51,0.44,3.71c-6.75-7.89-17.11-12.94-28.74-12.92
	c-6.84,0.01-13.23,1.78-18.72,4.84c-3.29-4.35-8.69-7.18-14.8-7.17c-6.37,0.01-11.96,3.12-15.17,7.8c-0.65,0.15-1.28,0.32-1.9,0.54
	c0.02-0.35,0.04-0.69,0.04-1.04c-0.02-9.39-8.14-16.99-18.14-16.98c-7.02,0.01-13.09,3.78-16.09,9.28c-0.5,0.48-0.97,0.97-1.41,1.5
	c-2.62-1.38-5.65-2.18-8.87-2.17c-5.95,0.01-11.23,2.72-14.52,6.89c-2.21-7.06-9.17-12.21-17.4-12.19
	c-4.79,0.01-9.13,1.78-12.37,4.63c-3.01-2.44-6.9-3.97-11.19-4.11c-3.64-0.12-7.07,0.79-9.98,2.44
	c-10.34-6.85-23.3-10.92-37.36-10.9c-3.26,0.01-6.47,0.23-9.59,0.66c-3.16-5-8.97-8.36-15.61-8.35c-6.16,0.01-11.59,2.91-14.85,7.32
	c-3.37-0.9-6.93-1.39-10.61-1.39c-4.58,0.01-8.96,0.77-13.03,2.16c-3.17-4.97-8.96-8.29-15.57-8.28c-3.87,0.01-7.45,1.15-10.39,3.1
	c-5.94-3.52-12.97-5.56-20.52-5.55c-8.42,0.01-16.2,2.58-22.52,6.91c-3.17-2.55-7.29-4.08-11.79-4.08
	c-6.42,0.01-12.05,3.16-15.25,7.9c-4.38-0.85-8.94-1.31-13.63-1.3c-3.01,0.01-5.97,0.21-8.87,0.58c-1.2-1.57-2.69-2.94-4.38-4.05
	c-3.19-2.63-7.38-4.22-11.96-4.21c-6.16,0.01-11.59,2.91-14.85,7.32c-3.37-0.9-6.93-1.39-10.61-1.39
	c-4.58,0.01-8.96,0.77-13.03,2.16c-3.17-4.97-8.96-8.29-15.57-8.28c-3.87,0.01-7.45,1.15-10.39,3.1
	c-5.94-3.52-12.97-5.56-20.52-5.55c-8.42,0.01-16.2,2.58-22.52,6.91c-3.17-2.55-7.29-4.08-11.79-4.08
	c-6.54,0.01-12.26,3.28-15.44,8.16c-2.5-0.26-5.05-0.4-7.63-0.39c-4.61,0.01-9.11,0.46-13.43,1.3c-3.06-5.35-9.08-8.99-15.99-8.98
	c-1.83,0-3.59,0.27-5.25,0.75v103.44v3.36h5001.2998v-0.41V849.18C5000.2798,849.76,4999.2798,850.37,4998.3198,851.02z"/>
</svg>
