<?xml version="1.0" encoding="utf-8"?>
<!-- Generator: Adobe Illustrator 26.5.1, SVG Export Plug-In . SVG Version: 6.00 Build 0)  -->
<svg version="1.1" id="obstacle" xmlns="http://www.w3.org/2000/svg" xmlns:xlink="http://www.w3.org/1999/xlink" x="0px" y="0px"
	 viewBox="0 0 350 325" style="enable-background:new 0 0 350 325;" xml:space="preserve">
<g id="log1">
	<path style="fill:#3C2E1E;stroke:#000000;stroke-width:5;stroke-miterlimit:10;" d="M66.27,282.95v-0.18
		c-0.84,0.12-1.69,0.18-2.55,0.18c-20.15,0-36.49-32.16-36.49-71.83s16.34-71.83,36.49-71.83c0.86,0,1.71,0.06,2.55,0.18v-0.18
		h237.2v143.66H66.27z"/>
	<g>
		<path style="fill:#917A47;stroke:#000000;stroke-width:5;stroke-miterlimit:10;" d="M337.4,211.12
			c0-39.67-15.19-71.83-33.93-71.83s-33.93,32.16-33.93,71.83s15.19,71.83,33.93,71.83S337.4,250.79,337.4,211.12z M285,211.12
			c0-30.03,9.21-54.38,20.56-54.38s20.56,24.35,20.56,54.38s-9.21,54.38-20.56,54.38S285,241.16,285,211.12z"/>
	</g>
	<ellipse style="fill:#271C0A;" cx="305.56" cy="211.12" rx="20.56" ry="54.38"/>
	<g>
		<path style="fill:#3A4929;stroke:#000000;stroke-width:3;stroke-miterlimit:10;" d="M251.19,295.59c-3.22,1.1-6.64,1.11-9.95-0.02
			c0.01-0.5,0.01-1,0-1.51c-2.57,0.24-5.1,0.19-7.68-0.17c0.06-5.94,0.06-13.18,0.06-20.79c-3.33-11.85-8.53-23.3-10.39-32.64
			c-2.76-13.9-1.24-13.64-0.27-23.57c0.96-9.94,5.75-13.95,8.01-22.96c-0.95,9.14-4.24,14.46-3.61,24.06
			c0.64,9.6,0.74,10.06,4.76,22.96c0.46,1.47,0.99,3.02,1.56,4.62c0.06-6.43,0.16-12.26,0.35-16.78c0.65-15.6,1.35-19.57,2.04-31.23
			c0.69-11.65,1.53-19.19,2.23-30.43c0.71,11.24,1.58,18.77,2.26,30.43c0.16,2.75,0.33,5.08,0.49,7.23
			c2.78-7.27,6.47-12.13,9.64-20.06c-2.32,10.12-5,16.03-6.56,26.62s-1.59,13.58-0.39,28.36
			C244.94,254.5,251.41,278.46,251.19,295.59z"/>
	</g>
	<g>
		<path style="fill:#3A4929;stroke:#000000;stroke-width:3;stroke-miterlimit:10;" d="M19.97,296c2.99,0.71,6.17,0.72,9.25-0.01
			c-0.01-0.32-0.01-0.65,0-0.98c2.39,0.16,4.74,0.12,7.14-0.11c-0.05-3.85-0.05-8.54-0.05-13.46c3.1-7.67,7.93-15.09,9.65-21.13
			c2.57-9,1.15-8.83,0.26-15.26c-0.89-6.43-5.35-9.03-7.44-14.86c0.88,5.92,3.94,9.36,3.35,15.58c-0.59,6.21-0.69,6.52-4.42,14.86
			c-0.43,0.95-0.92,1.95-1.45,2.99c-0.05-4.17-0.15-7.94-0.33-10.87c-0.61-10.1-1.25-12.67-1.9-20.22
			c-0.64-7.55-1.42-12.42-2.07-19.7c-0.66,7.28-1.47,12.15-2.1,19.7c-0.15,1.78-0.31,3.29-0.46,4.68c-2.59-4.7-6.02-7.85-8.96-12.99
			c2.16,6.55,4.64,10.38,6.1,17.23c1.45,6.86,1.47,8.79,0.36,18.36C25.78,269.4,19.76,284.91,19.97,296z"/>
	</g>
	<g>
		<path style="fill:#3A4929;stroke:#000000;stroke-width:3;stroke-miterlimit:10;" d="M90.93,295.59c2.75,1.1,5.67,1.11,8.49-0.02
			c-0.01-0.5-0.01-1,0-1.51c2.19,0.24,4.35,0.19,6.56-0.17c-0.05-5.94-0.05-13.18-0.05-20.79c2.84-11.85,7.28-23.3,8.86-32.64
			c2.36-13.9,1.05-13.64,0.23-23.57c-0.82-9.94-4.91-13.95-6.84-22.96c0.81,9.14,3.62,14.46,3.08,24.06
			c-0.54,9.6-0.63,10.06-4.06,22.96c-0.39,1.47-0.84,3.02-1.33,4.62c-0.05-6.43-0.14-12.26-0.3-16.78
			c-0.56-15.6-1.15-19.57-1.74-31.23c-0.59-11.65-1.3-19.19-1.9-30.43c-0.6,11.24-1.35,18.77-1.93,30.43
			c-0.14,2.75-0.28,5.08-0.42,7.23c-2.38-7.27-5.53-12.13-8.22-20.06c1.98,10.12,4.26,16.03,5.6,26.62
			c1.33,10.59,1.35,13.58,0.33,28.36C96.27,254.5,90.74,278.46,90.93,295.59z"/>
	</g>
	<path style="fill:#58595B;stroke:#000000;stroke-width:5;stroke-miterlimit:10;" d="M193.25,276.9
		c1.04,2.45,24.38,24.84,27.94,24.46c0.66-0.07,1.59-0.7,2.69-1.72c6.86,0.99,16.93,1.12,19.46,1.12c3.69,0,26.95-0.2,31.2-0.98
		c0,0,0.7-1.34,1.47-3.08c5.55,1.02,10.63,1.87,12.44,1.91c0,0,5.43-6.82,5.32-9.24c-0.11-2.41-6.7-8.39-8.11-9.89
		c-1.41-1.49-0.43-12.69-2.04-14.1c-1.61-1.42-24.73-4.61-26.08-5.45c-0.65-0.4-1.63-2.56-2.75-4.84c0.43-0.77,0.76-1.4,0.96-1.84
		c0,0-3.69-8.02-5.82-8.89s-9.96,3.08-11.83,3.84c-1.86,0.76-11.13-4.73-13.01-3.74c-1.88,0.99-14.01,22.06-15.27,23.03
		c-1.27,0.97-9.75,0.25-11.69,2.08C196.18,271.44,192.22,274.46,193.25,276.9z"/>
	<g>
		<path style="fill:#3A4929;stroke:#000000;stroke-width:3;stroke-miterlimit:10;" d="M296.82,297.42
			c-2.58,0.74-5.31,0.74-7.96-0.02c0.01-0.33,0.01-0.67,0-1.01c-2.06,0.16-4.08,0.12-6.15-0.11c0.05-3.98,0.05-8.83,0.05-13.92
			c-2.67-7.94-6.83-15.6-8.31-21.86c-2.21-9.31-0.99-9.13-0.22-15.79c0.77-6.65,4.6-9.34,6.41-15.37c-0.76,6.12-3.4,9.69-2.89,16.11
			c0.51,6.43,0.59,6.74,3.81,15.37c0.37,0.99,0.79,2.02,1.25,3.1c0.05-4.31,0.13-8.21,0.28-11.24c0.52-10.45,1.08-13.11,1.63-20.91
			c0.55-7.8,1.22-12.85,1.79-20.38c0.57,7.53,1.26,12.57,1.81,20.38c0.13,1.84,0.26,3.4,0.39,4.84c2.23-4.87,5.18-8.12,7.71-13.43
			c-1.86,6.78-4,10.73-5.25,17.83c-1.25,7.09-1.27,9.09-0.31,18.99C291.81,269.91,296.99,285.95,296.82,297.42z"/>
	</g>
</g>
</svg>
