<?xml version="1.0" encoding="utf-8"?>
<!-- Generator: Adobe Illustrator 26.5.1, SVG Export Plug-In . SVG Version: 6.00 Build 0)  -->
<svg version="1.1" id="obstacle" xmlns="http://www.w3.org/2000/svg" xmlns:xlink="http://www.w3.org/1999/xlink" x="0px" y="0px"
	 viewBox="0 0 350 325" style="enable-background:new 0 0 350 325;" xml:space="preserve">
<g id="trunk2">
	<path style="fill:#917A47;stroke:#000000;stroke-width:5;stroke-miterlimit:10;" d="M297.92,129.73
		c0,11.02-32.16,19.96-71.83,19.96s-71.83-8.94-71.83-19.96s32.16-19.95,71.83-19.95C265.76,109.78,297.92,118.71,297.92,129.73z"/>
	<path style="fill:#3C2E1E;stroke:#000000;stroke-width:5;stroke-miterlimit:10;" d="M226.57,150.17
		c-39.67,0-71.83-8.94-71.83-19.96v41.48l-17.83-11.13l-5.48-39.01l-6.71,8.66L122.51,115l-0.53-3.67l-5.74,7.41l4.45,31.7
		l-55.01-34.35c-0.53-0.34-1.09-0.61-1.65-0.86l6.06,7.89l-14.72-3.18l9.18,11.95l-12.95-2.8l1.11,1.45l9.19,11.94l-4.74-1.02
		l97.58,60.93v66.16c0,11.02,32.16,19.95,71.83,19.95s71.83-8.93,71.83-19.95V130.21C298.4,141.23,266.24,150.17,226.57,150.17z"/>
	<g>
		<path style="fill:#917A47;stroke:#000000;stroke-miterlimit:10;" d="M226.57,116.64c-34.85,0-63.11,5.87-63.11,13.1
			c0,7.24,28.25,13.1,63.11,13.1c34.85,0,63.11-5.87,63.11-13.1C289.67,122.5,261.42,116.64,226.57,116.64z M226.57,136.87
			c-26.39,0-47.78-3.55-47.78-7.94s21.39-7.94,47.78-7.94s47.78,3.55,47.78,7.94S252.95,136.87,226.57,136.87z"/>
	</g>
	<g>
		<path style="fill:#917A47;stroke:#000000;stroke-width:0.75;stroke-miterlimit:10;" d="M226.09,123.68
			c-18.5,0-33.5,2.24-33.5,4.99c0,2.76,15,4.99,33.5,4.99s33.5-2.24,33.5-4.99C259.59,125.91,244.59,123.68,226.09,123.68z
			 M226.09,131.39c-14.01,0-25.36-1.35-25.36-3.03c0-1.67,11.35-3.03,25.36-3.03s25.36,1.35,25.36,3.03
			C251.45,130.03,240.09,131.39,226.09,131.39z"/>
	</g>
	<g>
		<path style="fill:#3A4929;stroke:#000000;stroke-width:3;stroke-miterlimit:10;" d="M186.82,295.63
			c-2.58,0.74-5.31,0.74-7.96-0.02c0.01-0.33,0.01-0.67,0-1.01c-2.06,0.16-4.08,0.12-6.15-0.11c0.05-3.98,0.05-8.83,0.05-13.92
			c-2.67-7.94-6.83-15.6-8.31-21.86c-2.21-9.31-0.99-9.13-0.22-15.79c0.77-6.65,4.6-9.34,6.41-15.37c-0.76,6.12-3.4,9.69-2.89,16.11
			c0.51,6.43,0.59,6.74,3.81,15.37c0.37,0.99,0.79,2.02,1.25,3.1c0.05-4.31,0.13-8.21,0.28-11.24c0.52-10.45,1.08-13.11,1.63-20.91
			s1.22-12.85,1.79-20.38c0.57,7.53,1.26,12.57,1.81,20.38c0.13,1.84,0.26,3.4,0.39,4.84c2.23-4.87,5.18-8.12,7.71-13.43
			c-1.86,6.78-4,10.73-5.25,17.83c-1.25,7.09-1.27,9.09-0.31,18.99C181.81,268.11,186.99,284.16,186.82,295.63z"/>
	</g>
	<g>
		<path style="fill:#3A4929;stroke:#000000;stroke-width:3;stroke-miterlimit:10;" d="M289.47,285.57c-1.65,0.56-3.4,0.57-5.09-0.01
			c0-0.26,0-0.51,0-0.77c-1.32,0.12-2.61,0.09-3.93-0.09c0.03-3.04,0.03-6.75,0.03-10.64c-1.71-6.07-4.37-11.93-5.32-16.71
			c-1.42-7.12-0.63-6.98-0.14-12.07c0.49-5.09,2.94-7.14,4.1-11.75c-0.49,4.68-2.17,7.41-1.85,12.32c0.33,4.91,0.38,5.15,2.44,11.75
			c0.23,0.75,0.5,1.55,0.8,2.37c0.03-3.29,0.08-6.28,0.18-8.59c0.33-7.99,0.69-10.02,1.05-15.99c0.35-5.97,0.78-9.82,1.14-15.58
			c0.36,5.75,0.81,9.61,1.16,15.58c0.08,1.41,0.17,2.6,0.25,3.7c1.43-3.72,3.32-6.21,4.93-10.27c-1.19,5.18-2.56,8.21-3.36,13.63
			s-0.81,6.95-0.2,14.52C286.27,264.53,289.58,276.8,289.47,285.57z"/>
	</g>
	<g>
		<path style="fill:#3A4929;stroke:#000000;stroke-width:3;stroke-miterlimit:10;" d="M214.48,293.21
			c4.03,0.96,8.31,0.96,12.46-0.02c-0.01-0.43-0.01-0.87,0-1.31c3.22,0.21,6.38,0.16,9.62-0.15c-0.07-5.18-0.07-11.5-0.07-18.13
			c4.17-10.34,10.68-20.32,13-28.46c3.46-12.12,1.55-11.89,0.34-20.55c-1.2-8.66-7.2-12.16-10.03-20.02
			c1.19,7.97,5.31,12.61,4.52,20.98c-0.8,8.37-0.93,8.78-5.96,20.02c-0.57,1.28-1.23,2.63-1.95,4.03
			c-0.07-5.61-0.2-10.69-0.44-14.63c-0.82-13.6-1.69-17.06-2.56-27.23c-0.87-10.16-1.91-16.73-2.79-26.53
			c-0.89,9.8-1.98,16.37-2.83,26.53c-0.2,2.4-0.41,4.43-0.62,6.3c-3.48-6.34-8.1-10.58-12.06-17.49c2.91,8.83,6.25,13.98,8.21,23.21
			c1.95,9.23,1.99,11.84,0.49,24.73C222.3,257.38,214.2,278.27,214.48,293.21z"/>
	</g>
</g>
</svg>
