<?xml version="1.0" encoding="utf-8"?>
<!-- Generator: Adobe Illustrator 26.5.1, SVG Export Plug-In . SVG Version: 6.00 Build 0)  -->
<svg version="1.1" id="charAnimations" xmlns="http://www.w3.org/2000/svg" xmlns:xlink="http://www.w3.org/1999/xlink" x="0px"
	 y="0px" viewBox="0 0 240 325" style="enable-background:new 0 0 240 325;" xml:space="preserve">
<g id="walk2">
	
		<circle id="Backfoot_00000041996734933496283910000017854447881444415660_" style="stroke:#000000;stroke-width:7;stroke-miterlimit:10;" cx="142.39" cy="275.24" r="26.56"/>
	
		<ellipse id="body_00000145055573607401158540000000958410395283665290_" style="fill:#6D6E71;stroke:#000000;stroke-width:7;stroke-miterlimit:10;" cx="130.4" cy="228.15" rx="68.31" ry="56.99"/>
	
		<circle id="frontFoot_00000036219675095098759330000010585715203727070082_" style="fill:#A7A9AC;stroke:#000000;stroke-width:7;stroke-miterlimit:10;" cx="120.32" cy="275.24" r="26.56"/>
	
		<circle id="eye_00000078042272606638306380000000515731881730193284_" style="fill:#F1F2F2;stroke:#000000;stroke-width:7;stroke-miterlimit:10;" cx="152.52" cy="209.89" r="16.44"/>
	
		<circle id="pupil_00000070095805456157998990000011131352471357160621_" style="stroke:#000000;stroke-width:7;stroke-miterlimit:10;" cx="156.95" cy="211.12" r="5.68"/>
	<g id="hatBent_copy">
		<g>
			<path style="fill:#3A297A;stroke:#000000;stroke-width:7;stroke-miterlimit:10;" d="M141.12,190.27
				c13.36,1.6,71.3,2.54,80.21-4.87c0.4-0.33,0.37-0.39,0.23-1.01c-2.05-9.32-29.19-16.86-37-18.86c0.69,3.31,2.28,6.86,2.67,10.13
				c0.16,1.32,0.67,1.59-1.11,2.44c-6.41,3.05-13.28,3.91-21.58,4.51c-4.82,0.35-14.57-0.06-20.32-0.59
				c-0.64-0.06-2.07-0.19-2.6-0.25c-13.63-1.61-33.6-1.38-44.78-9.17c-1.89-1.32-1.03-1.34-0.74-2.48c0.7-2.83,2.73-5.35,3.62-8.15
				c-8.07-0.7-32.99-3.79-37.89,4.69c-0.33,0.57-0.13,0.38,0.18,1.12C68.94,184.16,127.76,188.67,141.12,190.27z"/>
			<path style="fill:#502D8D;stroke:#000000;stroke-width:7;stroke-miterlimit:10;" d="M96.1,170.12c-0.29,1.09-1.15,1.16,0.74,2.47
				c11.18,7.78,31.13,7.57,44.78,9.17c0.54,0.06,1.91,0.21,2.55,0.25c-3.6-1.81-7.11-3.73-10.82-5.51c1.25-0.55-0.09,0.03,1.77-0.79
				c1.86-0.82,6.88-3.23,9.25-4.44c0.24-1.7,0.13-1.28,0.33-3.42s0.51-6.78,0.69-9.4c3.18,2.87,6.31,5.95,9.39,8.98
				c4.14-0.95,8.25-1.96,12.38-3.03c-0.84,1.95-1.43,3.33-2.31,5.42s-2.07,4.92-3.03,7.1c0.37,0.7,0.12,0.23,0.65,1.18
				s1.82,3.29,2.54,4.51c6.66-0.71,15.44-1.3,21.13-4.56c1.58-0.91,1.46-0.68,1.12-2.45c-0.85-4.4-1.23-4.66-2.92-10.79
				c-1.69-6.13-6.26-19.24-9.6-26.24c-2.36-0.43-4.56-0.38-6.85-0.62c-2.25,3.81-4.84,7.43-7.45,10.99
				c-1.17-4.45-2.36-8.85-3.9-13.19c-4-1.33-8.11-2.3-12.13-3.6c3.37-2.44,6.47-5.29,9.6-8.03c-0.77-4.36-1.22-8.93-2.44-13.19
				c3.98,2.08,7.96,4.53,11.58,7.2c0.41-0.16,0.81-0.33,1.22-0.49c-11.55-20.49-28.41-35.71-47.35-49.19
				c-0.72,0.3-1.44,0.6-2.16,0.89c-0.65,3.9-1.19,7.82-1.75,11.74c-3.29-2.83-6.49-5.73-9.68-8.67c-0.85,0.11-1.69,0.22-2.54,0.33
				c2.01,6.61,4.05,13.2,6.33,19.73c2.65,0.46,5.24,1.1,7.86,1.75c3.4-2.32,6.52-5,9.7-7.6c0.48,3.97,1.12,7.94,1.3,11.94
				c3.62,2.44,7.64,4.65,10.96,7.48c-4.13,0.77-8.24,1.65-12.36,2.47c-1.35,3.43-2.63,6.86-4.5,10.04
				c-1.95-3.32-4.25-6.27-6.62-9.29c-0.89-0.06-1.78-0.12-2.68-0.18c1.06,10.22,0.05,20.89-2.93,30.73
				c1.06,0.75,2.11,1.51,3.17,2.27c3.94-0.76,7.81-1.93,11.68-2.97c-1.38,3.44-2.66,6.91-4.24,10.27c2.26,3.2,4.36,6.6,6.4,9.94
				c-4.09-0.52-8.18-1.04-12.25-1.68c-2.73,2.74-5.59,5.34-8.44,7.96c-0.46-3.43-0.98-6.82-1.67-10.23
				c-0.9,2.39-1.89,4.17-2.86,6.67C98.77,164.55,96.82,167.42,96.1,170.12z"/>
			<path style="fill:#FFCD05;stroke:#000000;stroke-width:7;stroke-miterlimit:10;" d="M161.81,176.92c0.96-2.18,2.15-5.01,3.03-7.1
				c0.88-2.09,1.47-3.47,2.31-5.42c-4.13,1.07-8.24,2.08-12.38,3.03c-3.08-3.04-6.21-6.11-9.39-8.98c-0.18,2.62-0.5,7.26-0.69,9.4
				s-0.08,1.72-0.33,3.42c-2.37,1.21-7.39,3.62-9.25,4.44s-0.52,0.24-1.77,0.79c3.72,1.78,7.2,3.7,10.83,5.51
				c6.92,0.56,13.86,0.91,20.79,0.59c-0.68-1.22-1.99-3.56-2.52-4.51C161.93,177.15,162.17,177.62,161.81,176.92z"/>
			<path style="fill:#FFCD05;stroke:#000000;stroke-width:7;stroke-miterlimit:10;" d="M113.1,81.09c0.56-3.92,1.1-7.83,1.75-11.74
				c0.71-0.31,1.45-0.57,2.15-0.91c-5.53-3.75-11.51-8.52-16.58-12.43c-1.89-1.46-3.48-0.08-3.24,2.04c0.5,4.5,2.4,10.09,3.69,14.67
				c0.88-0.07,1.7-0.21,2.55-0.31C106.6,75.36,109.81,78.26,113.1,81.09z"/>
			<path style="fill:#FFCD05;stroke:#000000;stroke-width:7;stroke-miterlimit:10;" d="M120.16,118.55
				c1.87-3.19,3.15-6.62,4.5-10.04c4.12-0.82,8.23-1.7,12.36-2.47c-3.32-2.83-7.34-5.04-10.96-7.48c-0.18-4-0.82-7.97-1.3-11.94
				c-3.18,2.6-6.3,5.28-9.7,7.6c-2.61-0.65-5.2-1.29-7.86-1.75c1.85,5.29,3.08,11.03,3.66,16.61c0.89,0.06,1.78,0.12,2.68,0.18
				C115.91,112.28,118.21,115.23,120.16,118.55z"/>
			<path style="fill:#FFCD05;stroke:#000000;stroke-width:7;stroke-miterlimit:10;" d="M151.56,110.94
				c1.22,4.26,1.67,8.82,2.44,13.19c-3.13,2.74-6.23,5.59-9.6,8.03c4.01,1.3,8.13,2.27,12.13,3.6c1.54,4.34,2.73,8.73,3.9,13.19
				c2.61-3.56,5.19-7.19,7.45-10.99c2.27,0.16,4.54,0.33,6.81,0.49c-3.16-7.11-6.51-14.02-10.32-20.8
				c-0.41,0.16-0.81,0.33-1.22,0.49C159.52,115.47,155.54,113.02,151.56,110.94z"/>
			<path style="fill:#FFCD05;stroke:#000000;stroke-width:7;stroke-miterlimit:10;" d="M104.27,165.6c2.85-2.62,5.71-5.22,8.44-7.96
				c4.07,0.64,8.17,1.15,12.25,1.68c-2.04-3.34-4.14-6.75-6.4-9.94c1.58-3.36,2.86-6.82,4.24-10.27c-3.87,1.04-7.74,2.21-11.68,2.97
				c-1.06-0.76-2.11-1.52-3.17-2.27c-1.6,5.27-3.35,10.44-5.35,15.58C103.29,158.77,103.81,162.17,104.27,165.6z"/>
		</g>
	</g>
</g>
</svg>
