<?xml version="1.0" encoding="utf-8"?>
<!-- Generator: Adobe Illustrator 26.5.1, SVG Export Plug-In . SVG Version: 6.00 Build 0)  -->
<svg version="1.1" id="background" xmlns="http://www.w3.org/2000/svg" xmlns:xlink="http://www.w3.org/1999/xlink" x="0px" y="0px"
	 viewBox="0 0 5000 950" style="enable-background:new 0 0 5000 950;" xml:space="preserve">
<style type="text/css">
	.st0{fill:#BBB486;}
</style>
<path id="bg4" class="st0" d="M4996.29,405.95c-9.58-7.63-22.16-13.19-36.37-15.66c-3.57-5.2-10.42-8.77-18.33-8.86
	c-1.36-0.02-2.69,0.07-3.98,0.26c-2.6-6.95-10.57-12.08-20.08-12.2c-7.14-0.09-13.49,2.68-17.38,6.98
	c-6.38-3.13-13.84-4.98-21.83-5.08c-13.59-0.17-25.76,4.75-33.74,12.56c0.35-1.19,0.54-2.43,0.56-3.7
	c0.12-9.39-9.27-17.12-20.97-17.27c-9.63-0.12-17.81,4.94-20.47,11.97c-3.81-4.21-9.95-6.98-16.91-7.07
	c-4.04-0.05-7.82,0.81-11.05,2.35c-2.93-6.49-10.62-11.18-19.7-11.29c-11.7-0.14-21.27,7.35-21.39,16.74c0,0.35,0.01,0.7,0.03,1.04
	c-2.27-0.7-4.73-1.1-7.3-1.13c-11.7-0.14-21.27,7.35-21.39,16.74c-0.02,1.76,0.3,3.47,0.9,5.07c-2.98-0.54-6.07-0.85-9.25-0.89
	c-4.01-0.05-7.9,0.35-11.61,1.1c-3.79-4.36-10.03-7.26-17.14-7.35c-0.15,0-0.31,0.01-0.46,0.01c-0.17-0.01-0.34-0.02-0.52-0.02
	c-7.77-0.1-14.6,3.18-18.35,8.15c-3.65-0.47-7.39-0.74-11.21-0.78c-0.75-0.01-1.5,0-2.25,0.01c-0.57-0.02-1.13-0.05-1.71-0.06
	c-3.02-0.04-6,0.07-8.93,0.3c-3.66-4.92-10.32-8.26-17.97-8.35c-5.26-0.06-10.09,1.42-13.83,3.93c-7.35-4.41-16.41-7.07-26.26-7.2
	c-8.82-0.11-17.07,1.84-24.05,5.29c-3.42-1.98-7.59-3.18-12.11-3.23c-7.73-0.1-14.54,3.15-18.29,8.08
	c-4.63-1.4-9.61-2.21-14.82-2.31c-2.02-2.33-4.26-4.54-6.74-6.61c1.64-2.38,2.59-5.12,2.63-8.03c0.12-9.39-9.27-17.12-20.97-17.27
	c-8.09-0.1-15.17,3.46-18.8,8.77c-5.04-0.9-10.29-1.4-15.69-1.47c-3.02-0.04-6,0.07-8.93,0.3c-3.66-4.92-10.32-8.26-17.97-8.35
	c-5.26-0.06-10.09,1.42-13.83,3.93c-7.35-4.41-16.41-7.07-26.26-7.2c-8.82-0.11-17.07,1.84-24.05,5.29
	c-3.42-1.98-7.59-3.18-12.11-3.23c-7.73-0.1-14.54,3.15-18.29,8.08c-4.74-1.44-9.86-2.26-15.21-2.32
	c-4.31-0.05-8.47,0.39-12.42,1.25c-3.77-4.46-10.09-7.42-17.29-7.51c-7.77-0.1-14.6,3.18-18.35,8.15
	c-3.65-0.47-7.39-0.74-11.21-0.78c-16.44-0.2-31.63,3.7-43.8,10.42c-3.38-1.69-7.38-2.64-11.64-2.57
	c-11.69,0.19-20.92,7.96-20.62,17.35c0.16,4.79,2.77,9.07,6.84,12.1c-0.79,1.97-1.43,4-1.91,6.06c-3.43-5.57-10.51-9.45-18.76-9.55
	c-9.63-0.12-17.81,4.94-20.47,11.97c-3.81-4.21-9.95-6.98-16.91-7.07c-1-0.01-1.99,0.03-2.96,0.13c-4.32-1.86-8.93-3.4-13.76-4.58
	c-2.28-1.68-5.02-2.96-8.05-3.72c-3.84-3.82-9.67-6.31-16.25-6.39c-1.36-0.02-2.69,0.07-3.98,0.26c-2.6-6.95-10.58-12.08-20.08-12.2
	c-7.14-0.09-13.49,2.68-17.38,6.98c-6.38-3.13-13.84-4.98-21.84-5.08c-13.59-0.17-25.76,4.75-33.74,12.56
	c0.35-1.19,0.54-2.43,0.56-3.7c0.12-9.39-9.27-17.12-20.97-17.27c-9.63-0.12-17.81,4.94-20.47,11.97
	c-3.81-4.21-9.95-6.98-16.91-7.07c-4.04-0.05-7.82,0.81-11.05,2.35c-2.93-6.49-10.62-11.18-19.7-11.29
	c-11.7-0.14-21.27,7.35-21.39,16.74c0,0.35,0.01,0.7,0.03,1.04c-2.27-0.7-4.73-1.1-7.3-1.13c-7.91-0.1-14.84,3.31-18.54,8.42
	c-3.82-4.12-9.87-6.83-16.74-6.91c-8.09-0.1-15.17,3.46-18.8,8.77c-5.04-0.9-10.29-1.4-15.69-1.47c-3.02-0.04-6,0.07-8.93,0.3
	c-3.66-4.92-10.32-8.26-17.97-8.35c-5.26-0.06-10.09,1.42-13.83,3.93c-7.35-4.41-16.41-7.07-26.26-7.2
	c-8.82-0.11-17.07,1.84-24.05,5.29c-3.42-1.98-7.59-3.18-12.11-3.23c-0.05,0-0.09,0-0.14,0c-3.69-4.84-10.27-8.11-17.83-8.2
	c-8.09-0.1-15.17,3.46-18.8,8.77c-5.04-0.9-10.29-1.4-15.69-1.47c-3.02-0.04-6,0.07-8.93,0.3c-3.66-4.92-10.32-8.26-17.97-8.35
	c-5.26-0.06-10.09,1.42-13.83,3.93c-7.35-4.41-16.41-7.07-26.26-7.2c-8.82-0.11-17.07,1.84-24.05,5.29
	c-3.42-1.98-7.59-3.18-12.11-3.23c-7.73-0.1-14.54,3.15-18.29,8.08c-4.74-1.44-9.86-2.26-15.21-2.32c-4.3-0.05-8.47,0.39-12.42,1.25
	c-3.77-4.46-10.09-7.42-17.29-7.51c-7.77-0.1-14.6,3.18-18.35,8.15c-3.65-0.47-7.39-0.74-11.21-0.78
	c-16.44-0.2-31.63,3.7-43.8,10.42c-3.38-1.69-7.38-2.64-11.64-2.57c-4.96,0.08-9.48,1.54-13.01,3.9c-2.7-8.84-8.4-16.87-16.28-23.45
	c1.64-2.38,2.59-5.12,2.63-8.03c0.12-9.39-9.27-17.12-20.97-17.27c-8.09-0.1-15.17,3.46-18.8,8.77c-5.04-0.9-10.29-1.4-15.69-1.47
	c-3.02-0.04-6,0.07-8.93,0.3c-3.66-4.92-10.32-8.26-17.97-8.35c-5.26-0.06-10.09,1.42-13.83,3.93c-7.35-4.41-16.41-7.07-26.26-7.2
	c-8.82-0.11-17.07,1.84-24.05,5.29c-3.42-1.98-7.59-3.18-12.11-3.23c-7.73-0.1-14.54,3.15-18.29,8.08
	c-4.74-1.44-9.86-2.26-15.21-2.32c-4.31-0.05-8.47,0.39-12.42,1.25c-3.77-4.46-10.09-7.42-17.29-7.51
	c-7.77-0.1-14.6,3.18-18.35,8.15c-3.65-0.47-7.39-0.74-11.21-0.78c-16.44-0.2-31.63,3.7-43.8,10.42c-3.38-1.69-7.38-2.64-11.64-2.57
	c-11.69,0.19-20.92,7.96-20.62,17.35c0.16,4.79,2.77,9.07,6.84,12.1c-1.56,3.87-2.52,7.93-2.83,12.13
	c-3.12-0.59-6.36-0.93-9.69-0.97c-9.44-0.12-18.23,2.12-25.51,6.03c-10-10.6-25.11-18.42-42.72-21.47
	c-3.57-5.2-10.42-8.77-18.33-8.86c-1.36-0.02-2.69,0.07-3.98,0.26c-2.6-6.95-10.57-12.08-20.08-12.2
	c-7.14-0.09-13.49,2.68-17.38,6.98c-6.38-3.13-13.84-4.98-21.84-5.08c-13.59-0.17-25.76,4.75-33.74,12.56
	c0.35-1.19,0.54-2.43,0.56-3.7c0.12-9.39-9.27-17.12-20.97-17.27c-9.63-0.12-17.81,4.94-20.47,11.97
	c-3.81-4.21-9.95-6.98-16.91-7.07c-4.04-0.05-7.82,0.81-11.05,2.35c-2.93-6.49-10.62-11.18-19.7-11.29
	c-11.7-0.14-21.27,7.35-21.39,16.74c0,0.35,0.01,0.7,0.03,1.04c-2.27-0.7-4.73-1.1-7.3-1.13c-11.7-0.14-21.27,7.35-21.39,16.74
	c-0.02,1.76,0.3,3.47,0.9,5.07c-2.98-0.54-6.07-0.85-9.25-0.89c-4.01-0.05-7.9,0.35-11.61,1.1c-3.79-4.36-10.03-7.26-17.14-7.35
	c-0.15,0-0.31,0.01-0.46,0.01c-0.17-0.01-0.34-0.02-0.51-0.02c-7.77-0.1-14.6,3.18-18.35,8.15c-3.65-0.47-7.39-0.74-11.21-0.78
	c-0.75-0.01-1.5,0-2.25,0.01c-0.57-0.02-1.13-0.05-1.71-0.06c-3.02-0.04-6,0.07-8.93,0.3c-3.66-4.92-10.32-8.26-17.97-8.35
	c-5.26-0.06-10.09,1.42-13.83,3.93c-7.35-4.41-16.41-7.07-26.26-7.2c-8.82-0.11-17.07,1.84-24.05,5.29
	c-3.42-1.98-7.59-3.18-12.11-3.23c-7.73-0.1-14.54,3.15-18.29,8.08c-4.63-1.4-9.61-2.21-14.82-2.31c-2.02-2.33-4.26-4.54-6.74-6.61
	c1.64-2.38,2.59-5.12,2.63-8.03c0.12-9.39-9.27-17.12-20.97-17.27c-8.09-0.1-15.17,3.46-18.8,8.77c-5.04-0.9-10.29-1.4-15.69-1.47
	c-3.02-0.04-6,0.07-8.93,0.3c-3.66-4.92-10.32-8.26-17.97-8.35c-5.26-0.06-10.09,1.42-13.83,3.93c-7.35-4.41-16.41-7.07-26.26-7.2
	c-8.82-0.11-17.07,1.84-24.05,5.29c-3.42-1.98-7.59-3.18-12.11-3.23c-7.73-0.1-14.54,3.15-18.29,8.08
	c-4.74-1.44-9.86-2.26-15.21-2.32c-4.31-0.05-8.47,0.39-12.42,1.25c-3.77-4.46-10.09-7.42-17.29-7.51
	c-7.77-0.1-14.6,3.18-18.35,8.15c-3.65-0.47-7.39-0.74-11.21-0.78c-16.44-0.2-31.63,3.7-43.8,10.42c-3.38-1.69-7.38-2.64-11.64-2.57
	c-11.69,0.19-20.92,7.96-20.62,17.35c0.16,4.79,2.77,9.07,6.84,12.1c-0.79,1.97-1.43,4-1.91,6.06c-3.43-5.57-10.51-9.45-18.76-9.55
	c-9.63-0.12-17.81,4.94-20.47,11.97c-3.81-4.21-9.95-6.98-16.91-7.07c-1-0.01-1.99,0.03-2.96,0.13c-4.32-1.86-8.93-3.4-13.76-4.58
	c-2.28-1.68-5.02-2.96-8.05-3.72c-3.84-3.82-9.67-6.31-16.25-6.39c-1.36-0.02-2.69,0.07-3.98,0.26c-2.6-6.95-10.58-12.08-20.08-12.2
	c-7.14-0.09-13.49,2.68-17.38,6.98c-6.38-3.13-13.84-4.98-21.84-5.08c-13.59-0.17-25.76,4.75-33.74,12.56
	c0.35-1.19,0.54-2.43,0.56-3.7c0.12-9.39-9.27-17.12-20.97-17.27c-9.63-0.12-17.81,4.94-20.47,11.97
	c-3.81-4.21-9.95-6.98-16.91-7.07c-4.04-0.05-7.82,0.81-11.05,2.35c-2.93-6.49-10.62-11.18-19.7-11.29
	c-11.7-0.14-21.27,7.35-21.39,16.74c0,0.35,0.01,0.7,0.03,1.04c-2.27-0.7-4.73-1.1-7.3-1.13c-7.91-0.1-14.84,3.31-18.54,8.42
	c-3.82-4.12-9.87-6.83-16.74-6.91c-8.09-0.1-15.17,3.46-18.8,8.77c-5.04-0.9-10.29-1.4-15.69-1.47c-3.02-0.04-6,0.07-8.93,0.3
	c-3.66-4.92-10.32-8.26-17.97-8.35c-5.26-0.06-10.09,1.42-13.83,3.93c-7.35-4.41-16.41-7.07-26.26-7.2
	c-8.82-0.11-17.07,1.84-24.05,5.29c-3.42-1.98-7.59-3.18-12.11-3.23c-7.73-0.1-14.54,3.15-18.29,8.08
	c-4.74-1.44-9.86-2.26-15.21-2.32c-4.3-0.05-8.47,0.39-12.42,1.25c-3.77-4.46-10.09-7.42-17.29-7.51c-1.48-0.02-2.92,0.09-4.31,0.3
	c-3.82-4.1-9.86-6.79-16.71-6.88c-8.09-0.1-15.17,3.46-18.8,8.77c-5.04-0.9-10.29-1.4-15.69-1.47c-3.02-0.04-6,0.07-8.93,0.3
	c-3.66-4.92-10.32-8.26-17.97-8.35c-5.26-0.06-10.09,1.42-13.83,3.93c-7.35-4.41-16.41-7.07-26.26-7.2
	c-8.82-0.11-17.07,1.84-24.05,5.29c-3.42-1.98-7.59-3.18-12.11-3.23c-7.73-0.1-14.54,3.15-18.29,8.08
	c-4.74-1.44-9.86-2.26-15.21-2.32c-4.31-0.05-8.47,0.39-12.42,1.25c-3.77-4.46-10.09-7.42-17.29-7.51
	c-7.77-0.1-14.6,3.18-18.35,8.15c-3.65-0.47-7.39-0.74-11.21-0.78c-16.44-0.2-31.63,3.7-43.8,10.42c-3.38-1.69-7.38-2.64-11.64-2.57
	c-7.73,0.13-14.36,3.57-17.89,8.6c-5.23,2.03-9.26,5.74-10.98,10.28c-3.81-4.21-9.95-6.98-16.91-7.07
	c-4.04-0.05-7.82,0.81-11.05,2.35c-2.93-6.49-10.62-11.18-19.7-11.29c-11.7-0.14-21.27,7.35-21.39,16.74c0,0.35,0.01,0.7,0.03,1.04
	c-0.6-0.18-1.21-0.35-1.84-0.49c-3.59-2.35-8.14-3.79-13.12-3.85c-1.36-0.02-2.69,0.07-3.98,0.26c-2.6-6.95-10.58-12.08-20.08-12.2
	c-7.14-0.09-13.49,2.68-17.38,6.98c-6.38-3.13-13.84-4.98-21.84-5.08c-13.59-0.17-25.76,4.75-33.74,12.56
	c0.35-1.19,0.54-2.43,0.56-3.7c0.12-9.39-9.27-17.12-20.97-17.27c-9.63-0.12-17.81,4.94-20.47,11.97
	c-3.81-4.21-9.95-6.98-16.91-7.07c-4.04-0.05-7.82,0.81-11.05,2.35c-2.93-6.49-10.62-11.18-19.7-11.29
	c-11.7-0.14-21.27,7.35-21.39,16.74c0,0.35,0.01,0.7,0.03,1.04c-2.27-0.7-4.73-1.1-7.3-1.13c-11.7-0.14-21.27,7.35-21.39,16.74
	c-0.02,1.76,0.3,3.47,0.9,5.07c-2.98-0.54-6.07-0.85-9.25-0.89c-4.01-0.05-7.9,0.35-11.61,1.1c-3.79-4.36-10.03-7.26-17.14-7.35
	c-0.15,0-0.31,0.01-0.46,0.01c-0.17-0.01-0.34-0.02-0.51-0.02c-7.77-0.1-14.6,3.18-18.35,8.15c-3.65-0.47-7.39-0.74-11.21-0.78
	c-0.75-0.01-1.5,0-2.25,0.01c-0.57-0.02-1.13-0.05-1.71-0.06c-3.02-0.04-6,0.07-8.93,0.3c-3.66-4.92-10.32-8.26-17.97-8.35
	c-5.26-0.06-10.09,1.42-13.83,3.93c-7.35-4.41-16.41-7.07-26.26-7.2c-8.82-0.11-17.07,1.84-24.05,5.29
	c-3.42-1.98-7.59-3.18-12.11-3.23c-7.73-0.1-14.54,3.15-18.29,8.08c-4.63-1.4-9.61-2.21-14.82-2.31c-2.02-2.33-4.26-4.54-6.74-6.61
	c1.64-2.38,2.59-5.12,2.63-8.03c0.12-9.39-9.27-17.12-20.97-17.27c-8.09-0.1-15.17,3.46-18.8,8.77c-5.04-0.9-10.29-1.4-15.69-1.47
	c-3.02-0.04-6,0.07-8.93,0.3c-3.66-4.92-10.32-8.26-17.97-8.35c-5.26-0.06-10.09,1.42-13.83,3.93c-7.35-4.41-16.41-7.07-26.26-7.2
	c-8.82-0.11-17.07,1.84-24.05,5.29c-3.42-1.98-7.59-3.18-12.11-3.23c-7.73-0.1-14.54,3.15-18.29,8.08
	c-4.74-1.44-9.86-2.26-15.21-2.32c-4.31-0.05-8.47,0.39-12.42,1.25c-3.77-4.46-10.09-7.42-17.29-7.51
	c-7.77-0.1-14.6,3.18-18.35,8.15c-3.65-0.47-7.39-0.74-11.21-0.78c-16.44-0.2-31.63,3.7-43.8,10.42c-3.38-1.69-7.38-2.64-11.64-2.57
	c-11.69,0.19-20.92,7.96-20.62,17.35c0.16,4.79,2.77,9.07,6.84,12.1c-0.79,1.97-1.43,4-1.91,6.06c-3.43-5.57-10.51-9.45-18.76-9.55
	c-9.63-0.12-17.81,4.94-20.47,11.97c-3.81-4.21-9.95-6.98-16.91-7.07c-1-0.01-1.99,0.03-2.96,0.13c-4.32-1.86-8.93-3.4-13.76-4.58
	c-2.28-1.68-5.02-2.96-8.05-3.72c-3.84-3.82-9.67-6.31-16.25-6.39c-1.36-0.02-2.69,0.07-3.98,0.26c-2.6-6.95-10.58-12.08-20.08-12.2
	c-7.14-0.09-13.49,2.68-17.38,6.98c-6.38-3.13-13.84-4.98-21.84-5.08c-13.59-0.17-25.76,4.75-33.74,12.56
	c0.35-1.19,0.54-2.43,0.56-3.7c0.12-9.39-9.27-17.12-20.97-17.27c-9.63-0.12-17.81,4.94-20.47,11.97
	c-3.81-4.21-9.95-6.98-16.91-7.07c-4.04-0.05-7.82,0.81-11.05,2.35c-2.93-6.49-10.62-11.18-19.7-11.29
	c-11.7-0.14-21.27,7.35-21.39,16.74c0,0.35,0.01,0.7,0.03,1.04c-2.27-0.7-4.73-1.1-7.3-1.13c-7.91-0.1-14.84,3.31-18.54,8.42
	c-3.82-4.12-9.87-6.83-16.74-6.91c-8.09-0.1-15.17,3.46-18.8,8.77c-5.04-0.9-10.29-1.4-15.69-1.47c-3.02-0.04-6,0.07-8.93,0.3
	c-3.66-4.92-10.32-8.26-17.97-8.35c-4.83-0.06-9.29,1.2-12.88,3.34c-1.82-1-3.83-1.68-5.96-2.02c-0.97-0.43-1.96-0.83-2.97-1.21
	v160.56V950h5000V474.6v-69.5C4998.72,405.26,4997.48,405.54,4996.29,405.95z"/>
</svg>
