<?xml version="1.0" encoding="utf-8"?>
<!-- Generator: Adobe Illustrator 26.5.1, SVG Export Plug-In . SVG Version: 6.00 Build 0)  -->
<svg version="1.1" id="background" xmlns="http://www.w3.org/2000/svg" xmlns:xlink="http://www.w3.org/1999/xlink" x="0px" y="0px"
	 viewBox="0 0 5000 950" style="enable-background:new 0 0 5000 950;" xml:space="preserve">
<style type="text/css">
	.st0{fill:#3E77AA;}
	.st1{fill:#FFFFFF;}
	.st2{fill:#D0DCE8;}
	.st3{fill:#CDD3D1;}
	.st4{fill:#BBB486;}
	.st5{fill:#68652F;}
	.st6{fill:#565624;}
	.st7{fill:#414042;}
	.st8{fill:#696E6F;}
	.st9{fill:#35360B;}
</style>
<g id="mtn1_00000082340706366480796030000003519016369600498561_">
	
		<rect id="sky" x="2025" y="-2025" transform="matrix(-1.836970e-16 1 -1 -1.836970e-16 2975 -2025)" class="st0" width="950" height="5000"/>
	<polygon id="mtn1" class="st1" points="4952.63,310 4931.24,328.04 4919.27,317.95 4895.41,338.07 4895.05,337.77 4771.07,233.21 
		4676.93,312.6 4616.88,261.95 4603.55,273.19 4556.14,233.21 4520.25,263.48 4433.87,190.64 4310.5,294.68 4271.7,261.95 
		4231.51,295.85 4149.55,226.73 4055.41,306.12 3995.36,255.47 3982.03,266.71 3934.62,226.73 3898.73,257 3812.35,184.15 
		3688.98,288.19 3650.18,255.47 3604.82,293.72 3565.21,260.32 3471.08,339.71 3411.02,289.06 3397.69,300.3 3350.28,260.32 
		3314.39,290.59 3228.01,217.75 3168.83,267.66 3101.96,211.26 3033.26,269.2 3022.15,259.82 2955.75,315.82 2934.35,333.87 
		2922.39,323.77 2898.53,343.9 2898.17,343.59 2774.18,239.03 2680.05,318.42 2619.99,267.78 2606.66,279.02 2559.25,239.03 
		2523.36,269.3 2436.99,196.46 2313.62,300.5 2274.81,267.78 2234.62,301.67 2152.66,232.55 2058.53,311.94 1998.47,261.29 
		1985.14,272.53 1937.73,232.55 1901.84,262.82 1815.47,189.97 1692.1,294.02 1653.29,261.29 1589.79,314.84 1508.57,251.95 
		1417.82,335.2 1355.71,287.1 1342.86,298.89 1293.82,260.92 1259.23,292.66 1169.89,223.48 1112.84,275.82 1043.67,222.26 
		977.45,283.01 965.96,274.11 901.95,332.83 881.33,351.75 868.95,342.17 845.95,363.27 845.58,362.98 717.34,263.69 626.59,346.94 
		564.48,298.84 551.63,310.62 502.59,272.66 468,304.4 378.66,235.22 259.74,344.32 219.6,313.24 180.86,348.78 96.09,283.15 
		63.14,313.37 0,271.52 0,362.25 0,374.59 0,386.87 0,496.46 0,950 5000,950 5000,442.33 5000,374.59 5000,270.05 	"/>
</g>
<polygon id="mtn2" class="st2" points="4998.29,276.79 4918.84,330.84 4812.01,240.75 4717.87,320.14 4657.81,269.49 
	4644.49,280.73 4597.08,240.75 4561.19,271.02 4474.81,198.17 4351.44,302.21 4312.64,269.49 4272.45,303.38 4190.49,234.27 
	4096.35,313.65 4036.29,263.01 4022.97,274.25 3975.56,234.27 3939.67,264.53 3853.29,191.69 3729.92,295.73 3691.12,263.01 
	3645.76,301.26 3606.15,267.86 3512.01,347.25 3451.96,296.6 3438.63,307.84 3391.22,267.86 3355.33,298.13 3268.95,225.28 
	3209.77,275.2 3142.9,218.8 3074.2,276.73 3063.09,267.36 2996.69,323.36 2975.29,341.4 2963.33,331.31 2939.46,351.44 
	2939.1,351.13 2815.12,246.57 2720.98,325.96 2660.93,275.31 2647.6,286.55 2600.19,246.57 2564.3,276.84 2477.92,204 
	2354.55,308.04 2315.75,275.31 2275.56,309.21 2193.6,240.09 2099.47,319.48 2039.41,268.83 2026.08,280.07 1978.67,240.09 
	1942.78,270.36 1856.4,197.51 1733.04,301.55 1694.23,268.83 1631.11,322.06 1549.81,259.1 1459.07,342.35 1396.95,294.25 
	1384.1,306.04 1335.07,268.07 1300.47,299.81 1211.13,230.64 1154.08,282.97 1084.92,229.42 1018.7,290.17 1007.2,281.27 
	943.19,339.99 922.57,358.91 910.19,349.32 887.19,370.43 886.82,370.14 758.58,270.84 667.84,354.09 605.72,305.99 592.88,317.78 
	543.84,279.81 509.24,311.55 419.9,242.37 300.98,351.47 260.85,320.4 222.1,355.94 137.33,290.3 87.57,335.95 85.89,334.84 
	0,277.92 0,505.34 0,950 5000,950 5000,449.87 5000,449.87 5000,277.92 "/>
<polygon id="mtn3" class="st3" points="4953.83,322.13 4943.09,314.96 4878.94,357.78 4858.27,371.58 4846.71,363.86 
	4823.65,379.25 4823.31,379.02 4703.52,299.06 4612.57,359.77 4554.55,321.04 4541.67,329.63 4495.86,299.06 4461.19,322.21 
	4377.74,266.5 4258.54,346.06 4221.05,321.04 4182.22,346.96 4103.04,294.1 4012.09,354.81 3954.06,316.08 3941.19,324.68 
	3895.38,294.1 3860.71,317.25 3777.25,261.54 3658.06,341.11 3620.57,316.08 3556.42,358.9 3541.92,368.58 3470.89,321.16 
	3379.94,381.87 3321.91,343.14 3309.04,351.74 3263.23,321.16 3228.56,344.31 3145.1,288.6 3087.92,326.77 3023.32,283.64 
	2956.94,327.95 2946.21,320.78 2882.05,363.61 2861.38,377.4 2849.82,369.69 2826.77,385.08 2826.42,384.84 2706.63,304.88 
	2615.68,365.59 2557.66,326.86 2544.78,335.46 2498.98,304.88 2464.3,328.03 2380.85,272.32 2261.66,351.89 2224.17,326.86 
	2185.34,352.78 2106.15,299.92 2015.2,360.64 1957.18,321.9 1944.3,330.5 1898.5,299.92 1863.82,323.07 1780.37,267.36 
	1661.18,346.93 1623.69,321.9 1559.53,364.73 1532.74,382.61 1416.76,312.01 1328.43,376.46 1268.84,340.19 1256.33,349.31 
	1209.29,320.67 1175.61,345.25 1089.91,293.07 1034.37,333.59 968.02,293.2 903.55,340.24 892.53,333.52 830.22,378.99 
	810.14,393.64 798.26,386.41 775.87,402.75 775.52,402.53 652.5,327.63 564.16,392.09 504.57,355.81 492.06,364.94 445.02,336.3 
	411.34,360.87 325.64,308.7 209.87,393.17 171.37,369.73 133.65,397.25 52.33,347.74 25.65,367.2 0,350.2 0,950 5000,950 
	5000,442.7 5000,291.3 "/>
<path id="bg4" class="st4" d="M4996.29,405.95c-9.58-7.63-22.16-13.19-36.37-15.66c-3.57-5.2-10.42-8.77-18.33-8.86
	c-1.36-0.02-2.69,0.07-3.98,0.26c-2.6-6.95-10.57-12.08-20.08-12.2c-7.14-0.09-13.49,2.68-17.38,6.98
	c-6.38-3.13-13.84-4.98-21.83-5.08c-13.59-0.17-25.76,4.75-33.74,12.56c0.35-1.19,0.54-2.43,0.56-3.7
	c0.12-9.39-9.27-17.12-20.97-17.27c-9.63-0.12-17.81,4.94-20.47,11.97c-3.81-4.21-9.95-6.98-16.91-7.07
	c-4.04-0.05-7.82,0.81-11.05,2.35c-2.93-6.49-10.62-11.18-19.7-11.29c-11.7-0.14-21.27,7.35-21.39,16.74c0,0.35,0.01,0.7,0.03,1.04
	c-2.27-0.7-4.73-1.1-7.3-1.13c-11.7-0.14-21.27,7.35-21.39,16.74c-0.02,1.76,0.3,3.47,0.9,5.07c-2.98-0.54-6.07-0.85-9.25-0.89
	c-4.01-0.05-7.9,0.35-11.61,1.1c-3.79-4.36-10.03-7.26-17.14-7.35c-0.15,0-0.31,0.01-0.46,0.01c-0.17-0.01-0.34-0.02-0.52-0.02
	c-7.77-0.1-14.6,3.18-18.35,8.15c-3.65-0.47-7.39-0.74-11.21-0.78c-0.75-0.01-1.5,0-2.25,0.01c-0.57-0.02-1.13-0.05-1.71-0.06
	c-3.02-0.04-6,0.07-8.93,0.3c-3.66-4.92-10.32-8.26-17.97-8.35c-5.26-0.06-10.09,1.42-13.83,3.93c-7.35-4.41-16.41-7.07-26.26-7.2
	c-8.82-0.11-17.07,1.84-24.05,5.29c-3.42-1.98-7.59-3.18-12.11-3.23c-7.73-0.1-14.54,3.15-18.29,8.08
	c-4.63-1.4-9.61-2.21-14.82-2.31c-2.02-2.33-4.26-4.54-6.74-6.61c1.64-2.38,2.59-5.12,2.63-8.03c0.12-9.39-9.27-17.12-20.97-17.27
	c-8.09-0.1-15.17,3.46-18.8,8.77c-5.04-0.9-10.29-1.4-15.69-1.47c-3.02-0.04-6,0.07-8.93,0.3c-3.66-4.92-10.32-8.26-17.97-8.35
	c-5.26-0.06-10.09,1.42-13.83,3.93c-7.35-4.41-16.41-7.07-26.26-7.2c-8.82-0.11-17.07,1.84-24.05,5.29
	c-3.42-1.98-7.59-3.18-12.11-3.23c-7.73-0.1-14.54,3.15-18.29,8.08c-4.74-1.44-9.86-2.26-15.21-2.32
	c-4.31-0.05-8.47,0.39-12.42,1.25c-3.77-4.46-10.09-7.42-17.29-7.51c-7.77-0.1-14.6,3.18-18.35,8.15
	c-3.65-0.47-7.39-0.74-11.21-0.78c-16.44-0.2-31.63,3.7-43.8,10.42c-3.38-1.69-7.38-2.64-11.64-2.57
	c-11.69,0.19-20.92,7.96-20.62,17.35c0.16,4.79,2.77,9.07,6.84,12.1c-0.79,1.97-1.43,4-1.91,6.06c-3.43-5.57-10.51-9.45-18.76-9.55
	c-9.63-0.12-17.81,4.94-20.47,11.97c-3.81-4.21-9.95-6.98-16.91-7.07c-1-0.01-1.99,0.03-2.96,0.13c-4.32-1.86-8.93-3.4-13.76-4.58
	c-2.28-1.68-5.02-2.96-8.05-3.72c-3.84-3.82-9.67-6.31-16.25-6.39c-1.36-0.02-2.69,0.07-3.98,0.26c-2.6-6.95-10.58-12.08-20.08-12.2
	c-7.14-0.09-13.49,2.68-17.38,6.98c-6.38-3.13-13.84-4.98-21.84-5.08c-13.59-0.17-25.76,4.75-33.74,12.56
	c0.35-1.19,0.54-2.43,0.56-3.7c0.12-9.39-9.27-17.12-20.97-17.27c-9.63-0.12-17.81,4.94-20.47,11.97
	c-3.81-4.21-9.95-6.98-16.91-7.07c-4.04-0.05-7.82,0.81-11.05,2.35c-2.93-6.49-10.62-11.18-19.7-11.29
	c-11.7-0.14-21.27,7.35-21.39,16.74c0,0.35,0.01,0.7,0.03,1.04c-2.27-0.7-4.73-1.1-7.3-1.13c-7.91-0.1-14.84,3.31-18.54,8.42
	c-3.82-4.12-9.87-6.83-16.74-6.91c-8.09-0.1-15.17,3.46-18.8,8.77c-5.04-0.9-10.29-1.4-15.69-1.47c-3.02-0.04-6,0.07-8.93,0.3
	c-3.66-4.92-10.32-8.26-17.97-8.35c-5.26-0.06-10.09,1.42-13.83,3.93c-7.35-4.41-16.41-7.07-26.26-7.2
	c-8.82-0.11-17.07,1.84-24.05,5.29c-3.42-1.98-7.59-3.18-12.11-3.23c-0.05,0-0.09,0-0.14,0c-3.69-4.84-10.27-8.11-17.83-8.2
	c-8.09-0.1-15.17,3.46-18.8,8.77c-5.04-0.9-10.29-1.4-15.69-1.47c-3.02-0.04-6,0.07-8.93,0.3c-3.66-4.92-10.32-8.26-17.97-8.35
	c-5.26-0.06-10.09,1.42-13.83,3.93c-7.35-4.41-16.41-7.07-26.26-7.2c-8.82-0.11-17.07,1.84-24.05,5.29
	c-3.42-1.98-7.59-3.18-12.11-3.23c-7.73-0.1-14.54,3.15-18.29,8.08c-4.74-1.44-9.86-2.26-15.21-2.32c-4.3-0.05-8.47,0.39-12.42,1.25
	c-3.77-4.46-10.09-7.42-17.29-7.51c-7.77-0.1-14.6,3.18-18.35,8.15c-3.65-0.47-7.39-0.74-11.21-0.78
	c-16.44-0.2-31.63,3.7-43.8,10.42c-3.38-1.69-7.38-2.64-11.64-2.57c-4.96,0.08-9.48,1.54-13.01,3.9c-2.7-8.84-8.4-16.87-16.28-23.45
	c1.64-2.38,2.59-5.12,2.63-8.03c0.12-9.39-9.27-17.12-20.97-17.27c-8.09-0.1-15.17,3.46-18.8,8.77c-5.04-0.9-10.29-1.4-15.69-1.47
	c-3.02-0.04-6,0.07-8.93,0.3c-3.66-4.92-10.32-8.26-17.97-8.35c-5.26-0.06-10.09,1.42-13.83,3.93c-7.35-4.41-16.41-7.07-26.26-7.2
	c-8.82-0.11-17.07,1.84-24.05,5.29c-3.42-1.98-7.59-3.18-12.11-3.23c-7.73-0.1-14.54,3.15-18.29,8.08
	c-4.74-1.44-9.86-2.26-15.21-2.32c-4.31-0.05-8.47,0.39-12.42,1.25c-3.77-4.46-10.09-7.42-17.29-7.51
	c-7.77-0.1-14.6,3.18-18.35,8.15c-3.65-0.47-7.39-0.74-11.21-0.78c-16.44-0.2-31.63,3.7-43.8,10.42c-3.38-1.69-7.38-2.64-11.64-2.57
	c-11.69,0.19-20.92,7.96-20.62,17.35c0.16,4.79,2.77,9.07,6.84,12.1c-1.56,3.87-2.52,7.93-2.83,12.13
	c-3.12-0.59-6.36-0.93-9.69-0.97c-9.44-0.12-18.23,2.12-25.51,6.03c-10-10.6-25.11-18.42-42.72-21.47
	c-3.57-5.2-10.42-8.77-18.33-8.86c-1.36-0.02-2.69,0.07-3.98,0.26c-2.6-6.95-10.57-12.08-20.08-12.2
	c-7.14-0.09-13.49,2.68-17.38,6.98c-6.38-3.13-13.84-4.98-21.84-5.08c-13.59-0.17-25.76,4.75-33.74,12.56
	c0.35-1.19,0.54-2.43,0.56-3.7c0.12-9.39-9.27-17.12-20.97-17.27c-9.63-0.12-17.81,4.94-20.47,11.97
	c-3.81-4.21-9.95-6.98-16.91-7.07c-4.04-0.05-7.82,0.81-11.05,2.35c-2.93-6.49-10.62-11.18-19.7-11.29
	c-11.7-0.14-21.27,7.35-21.39,16.74c0,0.35,0.01,0.7,0.03,1.04c-2.27-0.7-4.73-1.1-7.3-1.13c-11.7-0.14-21.27,7.35-21.39,16.74
	c-0.02,1.76,0.3,3.47,0.9,5.07c-2.98-0.54-6.07-0.85-9.25-0.89c-4.01-0.05-7.9,0.35-11.61,1.1c-3.79-4.36-10.03-7.26-17.14-7.35
	c-0.15,0-0.31,0.01-0.46,0.01c-0.17-0.01-0.34-0.02-0.51-0.02c-7.77-0.1-14.6,3.18-18.35,8.15c-3.65-0.47-7.39-0.74-11.21-0.78
	c-0.75-0.01-1.5,0-2.25,0.01c-0.57-0.02-1.13-0.05-1.71-0.06c-3.02-0.04-6,0.07-8.93,0.3c-3.66-4.92-10.32-8.26-17.97-8.35
	c-5.26-0.06-10.09,1.42-13.83,3.93c-7.35-4.41-16.41-7.07-26.26-7.2c-8.82-0.11-17.07,1.84-24.05,5.29
	c-3.42-1.98-7.59-3.18-12.11-3.23c-7.73-0.1-14.54,3.15-18.29,8.08c-4.63-1.4-9.61-2.21-14.82-2.31c-2.02-2.33-4.26-4.54-6.74-6.61
	c1.64-2.38,2.59-5.12,2.63-8.03c0.12-9.39-9.27-17.12-20.97-17.27c-8.09-0.1-15.17,3.46-18.8,8.77c-5.04-0.9-10.29-1.4-15.69-1.47
	c-3.02-0.04-6,0.07-8.93,0.3c-3.66-4.92-10.32-8.26-17.97-8.35c-5.26-0.06-10.09,1.42-13.83,3.93c-7.35-4.41-16.41-7.07-26.26-7.2
	c-8.82-0.11-17.07,1.84-24.05,5.29c-3.42-1.98-7.59-3.18-12.11-3.23c-7.73-0.1-14.54,3.15-18.29,8.08
	c-4.74-1.44-9.86-2.26-15.21-2.32c-4.31-0.05-8.47,0.39-12.42,1.25c-3.77-4.46-10.09-7.42-17.29-7.51
	c-7.77-0.1-14.6,3.18-18.35,8.15c-3.65-0.47-7.39-0.74-11.21-0.78c-16.44-0.2-31.63,3.7-43.8,10.42c-3.38-1.69-7.38-2.64-11.64-2.57
	c-11.69,0.19-20.92,7.96-20.62,17.35c0.16,4.79,2.77,9.07,6.84,12.1c-0.79,1.97-1.43,4-1.91,6.06c-3.43-5.57-10.51-9.45-18.76-9.55
	c-9.63-0.12-17.81,4.94-20.47,11.97c-3.81-4.21-9.95-6.98-16.91-7.07c-1-0.01-1.99,0.03-2.96,0.13c-4.32-1.86-8.93-3.4-13.76-4.58
	c-2.28-1.68-5.02-2.96-8.05-3.72c-3.84-3.82-9.67-6.31-16.25-6.39c-1.36-0.02-2.69,0.07-3.98,0.26c-2.6-6.95-10.58-12.08-20.08-12.2
	c-7.14-0.09-13.49,2.68-17.38,6.98c-6.38-3.13-13.84-4.98-21.84-5.08c-13.59-0.17-25.76,4.75-33.74,12.56
	c0.35-1.19,0.54-2.43,0.56-3.7c0.12-9.39-9.27-17.12-20.97-17.27c-9.63-0.12-17.81,4.94-20.47,11.97
	c-3.81-4.21-9.95-6.98-16.91-7.07c-4.04-0.05-7.82,0.81-11.05,2.35c-2.93-6.49-10.62-11.18-19.7-11.29
	c-11.7-0.14-21.27,7.35-21.39,16.74c0,0.35,0.01,0.7,0.03,1.04c-2.27-0.7-4.73-1.1-7.3-1.13c-7.91-0.1-14.84,3.31-18.54,8.42
	c-3.82-4.12-9.87-6.83-16.74-6.91c-8.09-0.1-15.17,3.46-18.8,8.77c-5.04-0.9-10.29-1.4-15.69-1.47c-3.02-0.04-6,0.07-8.93,0.3
	c-3.66-4.92-10.32-8.26-17.97-8.35c-5.26-0.06-10.09,1.42-13.83,3.93c-7.35-4.41-16.41-7.07-26.26-7.2
	c-8.82-0.11-17.07,1.84-24.05,5.29c-3.42-1.98-7.59-3.18-12.11-3.23c-7.73-0.1-14.54,3.15-18.29,8.08
	c-4.74-1.44-9.86-2.26-15.21-2.32c-4.3-0.05-8.47,0.39-12.42,1.25c-3.77-4.46-10.09-7.42-17.29-7.51c-1.48-0.02-2.92,0.09-4.31,0.3
	c-3.82-4.1-9.86-6.79-16.71-6.88c-8.09-0.1-15.17,3.46-18.8,8.77c-5.04-0.9-10.29-1.4-15.69-1.47c-3.02-0.04-6,0.07-8.93,0.3
	c-3.66-4.92-10.32-8.26-17.97-8.35c-5.26-0.06-10.09,1.42-13.83,3.93c-7.35-4.41-16.41-7.07-26.26-7.2
	c-8.82-0.11-17.07,1.84-24.05,5.29c-3.42-1.98-7.59-3.18-12.11-3.23c-7.73-0.1-14.54,3.15-18.29,8.08
	c-4.74-1.44-9.86-2.26-15.21-2.32c-4.31-0.05-8.47,0.39-12.42,1.25c-3.77-4.46-10.09-7.42-17.29-7.51
	c-7.77-0.1-14.6,3.18-18.35,8.15c-3.65-0.47-7.39-0.74-11.21-0.78c-16.44-0.2-31.63,3.7-43.8,10.42c-3.38-1.69-7.38-2.64-11.64-2.57
	c-7.73,0.13-14.36,3.57-17.89,8.6c-5.23,2.03-9.26,5.74-10.98,10.28c-3.81-4.21-9.95-6.98-16.91-7.07
	c-4.04-0.05-7.82,0.81-11.05,2.35c-2.93-6.49-10.62-11.18-19.7-11.29c-11.7-0.14-21.27,7.35-21.39,16.74c0,0.35,0.01,0.7,0.03,1.04
	c-0.6-0.18-1.21-0.35-1.84-0.49c-3.59-2.35-8.14-3.79-13.12-3.85c-1.36-0.02-2.69,0.07-3.98,0.26c-2.6-6.95-10.58-12.08-20.08-12.2
	c-7.14-0.09-13.49,2.68-17.38,6.98c-6.38-3.13-13.84-4.98-21.84-5.08c-13.59-0.17-25.76,4.75-33.74,12.56
	c0.35-1.19,0.54-2.43,0.56-3.7c0.12-9.39-9.27-17.12-20.97-17.27c-9.63-0.12-17.81,4.94-20.47,11.97
	c-3.81-4.21-9.95-6.98-16.91-7.07c-4.04-0.05-7.82,0.81-11.05,2.35c-2.93-6.49-10.62-11.18-19.7-11.29
	c-11.7-0.14-21.27,7.35-21.39,16.74c0,0.35,0.01,0.7,0.03,1.04c-2.27-0.7-4.73-1.1-7.3-1.13c-11.7-0.14-21.27,7.35-21.39,16.74
	c-0.02,1.76,0.3,3.47,0.9,5.07c-2.98-0.54-6.07-0.85-9.25-0.89c-4.01-0.05-7.9,0.35-11.61,1.1c-3.79-4.36-10.03-7.26-17.14-7.35
	c-0.15,0-0.31,0.01-0.46,0.01c-0.17-0.01-0.34-0.02-0.51-0.02c-7.77-0.1-14.6,3.18-18.35,8.15c-3.65-0.47-7.39-0.74-11.21-0.78
	c-0.75-0.01-1.5,0-2.25,0.01c-0.57-0.02-1.13-0.05-1.71-0.06c-3.02-0.04-6,0.07-8.93,0.3c-3.66-4.92-10.32-8.26-17.97-8.35
	c-5.26-0.06-10.09,1.42-13.83,3.93c-7.35-4.41-16.41-7.07-26.26-7.2c-8.82-0.11-17.07,1.84-24.05,5.29
	c-3.42-1.98-7.59-3.18-12.11-3.23c-7.73-0.1-14.54,3.15-18.29,8.08c-4.63-1.4-9.61-2.21-14.82-2.31c-2.02-2.33-4.26-4.54-6.74-6.61
	c1.64-2.38,2.59-5.12,2.63-8.03c0.12-9.39-9.27-17.12-20.97-17.27c-8.09-0.1-15.17,3.46-18.8,8.77c-5.04-0.9-10.29-1.4-15.69-1.47
	c-3.02-0.04-6,0.07-8.93,0.3c-3.66-4.92-10.32-8.26-17.97-8.35c-5.26-0.06-10.09,1.42-13.83,3.93c-7.35-4.41-16.41-7.07-26.26-7.2
	c-8.82-0.11-17.07,1.84-24.05,5.29c-3.42-1.98-7.59-3.18-12.11-3.23c-7.73-0.1-14.54,3.15-18.29,8.08
	c-4.74-1.44-9.86-2.26-15.21-2.32c-4.31-0.05-8.47,0.39-12.42,1.25c-3.77-4.46-10.09-7.42-17.29-7.51
	c-7.77-0.1-14.6,3.18-18.35,8.15c-3.65-0.47-7.39-0.74-11.21-0.78c-16.44-0.2-31.63,3.7-43.8,10.42c-3.38-1.69-7.38-2.64-11.64-2.57
	c-11.69,0.19-20.92,7.96-20.62,17.35c0.16,4.79,2.77,9.07,6.84,12.1c-0.79,1.97-1.43,4-1.91,6.06c-3.43-5.57-10.51-9.45-18.76-9.55
	c-9.63-0.12-17.81,4.94-20.47,11.97c-3.81-4.21-9.95-6.98-16.91-7.07c-1-0.01-1.99,0.03-2.96,0.13c-4.32-1.86-8.93-3.4-13.76-4.58
	c-2.28-1.68-5.02-2.96-8.05-3.72c-3.84-3.82-9.67-6.31-16.25-6.39c-1.36-0.02-2.69,0.07-3.98,0.26c-2.6-6.95-10.58-12.08-20.08-12.2
	c-7.14-0.09-13.49,2.68-17.38,6.98c-6.38-3.13-13.84-4.98-21.84-5.08c-13.59-0.17-25.76,4.75-33.74,12.56
	c0.35-1.19,0.54-2.43,0.56-3.7c0.12-9.39-9.27-17.12-20.97-17.27c-9.63-0.12-17.81,4.94-20.47,11.97
	c-3.81-4.21-9.95-6.98-16.91-7.07c-4.04-0.05-7.82,0.81-11.05,2.35c-2.93-6.49-10.62-11.18-19.7-11.29
	c-11.7-0.14-21.27,7.35-21.39,16.74c0,0.35,0.01,0.7,0.03,1.04c-2.27-0.7-4.73-1.1-7.3-1.13c-7.91-0.1-14.84,3.31-18.54,8.42
	c-3.82-4.12-9.87-6.83-16.74-6.91c-8.09-0.1-15.17,3.46-18.8,8.77c-5.04-0.9-10.29-1.4-15.69-1.47c-3.02-0.04-6,0.07-8.93,0.3
	c-3.66-4.92-10.32-8.26-17.97-8.35c-4.83-0.06-9.29,1.2-12.88,3.34c-1.82-1-3.83-1.68-5.96-2.02c-0.97-0.43-1.96-0.83-2.97-1.21
	v160.56V950h5000V474.6v-69.5C4998.72,405.26,4997.48,405.54,4996.29,405.95z"/>
<path id="bg5" class="st5" d="M4895.39,0.75h-74.49h-185.42h-213.24h-14.76h-208.79h-57.24h-91.56h-2.56h-90.59h-83.37h-83.41
	h-113.86h-64.91h-192.73H3206.5h-16.4h-78.75h-24.37h-91.08h-93.53h-58.57h-39.38h-49.92h-616.66h-111.07h-133.66h-83.33H943.93
	H860.8H694.54h-55.39H-0.01v99.6v545.44v304.96h5000V695.28V0.75H4895.39z M74.32,542.28c-1.81,1.53-3.53,3.19-5.16,4.94
	c-0.4-0.13-0.81-0.24-1.21-0.35c-0.58-29.03-19.34-53.59-45.38-62.75l0.99-111.69c9.05-2.34,17.58-7.1,24.52-14.23
	c4.39,6.26,10.19,11.48,17.27,15.11c8.6,4.41,18.01,5.92,27.29,4.91L74.32,542.28z M167.12,553.49h-4.27
	c-5.97-8.47-14.18-15.53-24.29-20.13c-14.68-6.68-30.62-7-44.76-2.14l17.72-158.7c3.96-2,7.77-4.47,11.31-7.4
	c2.65,2.25,5.59,4.24,8.82,5.89c11.97,6.14,25.38,6.54,37.08,2.21L167.12,553.49z M304.58,498.65c-4.66,4.47-8.25,10.1-10.27,16.51
	c-2.61-1.37-5.51-2.3-8.62-2.64c-8.64-0.96-16.72,2.72-21.76,9.05c-19.81,1.41-37.07,13.93-44.73,31.93h-15.82l2.04-229.66
	c12.93,2.29,25.99-0.4,36.77-7.02c12.88,10.01,30.71,10.97,44.58,2.51c1.06,2.75,2.64,5.36,4.76,7.66
	c5.87,6.41,14.38,8.94,22.34,7.49c2.68,2.02,5.51,3.75,8.46,5.19L304.58,498.65z M466.78,506.47c-24.1-7.48-51.3,0.7-66.93,22.26
	c-2.38,3.28-4.37,6.72-6.01,10.27c-1.91-9.3-9.61-16.73-19.55-17.84c-1.19-0.13-2.37-0.17-3.53-0.12
	c-2.57-16.73-15.79-30.42-33.21-32.96l16.03-143.6c9.24-1.4,18.21-5.27,25.84-11.66c3.73,6.68,8.96,12.46,15.64,16.8
	c17.47,11.35,40.02,9.7,58.01-2.26c2.41,2.51,5.13,4.78,8.17,6.76c2.22,1.44,4.52,2.66,6.87,3.67L466.78,506.47z M610.94,475.08
	c-4.18,4.93-7.18,10.89-8.53,17.47c-2.74-1.1-5.72-1.72-8.85-1.75c-8.69-0.08-16.35,4.41-20.72,11.22
	c-7.44,1.3-14.34,4.17-20.36,8.24c-15.15-4.53-31.88-0.8-43.67,10.17c-1.83-2.85-4.2-5.42-7.11-7.52
	c-5.08-3.68-10.97-5.4-16.79-5.31l1.3-146.02c15.14,0.04,29.99-7.34,38.86-20.98c7.99-12.29,9.35-26.96,5.02-39.85
	c0.08-0.06,0.16-0.11,0.24-0.17c13.84,8.64,31.67,7.78,44.6-2.05c1.34,2.63,3.18,5.06,5.51,7.14c3.81,3.39,8.39,5.35,13.1,5.94
	c0.38,13.16,7.38,25.37,18.58,32.32L610.94,475.08z M702.79,503.35c-3.56-7.61-11.24-12.91-20.2-12.99
	c-1.2-0.01-2.38,0.07-3.53,0.25c-4.26-16.38-18.81-28.65-36.4-29.4l1-112.89c9.06-2.59,17.04-8.4,22.26-16.46
	c5.54,5.19,12.63,8.85,20.69,10.13c2.63,0.42,5.24,0.56,7.8,0.46l9.84,160.24C703.76,502.9,703.27,503.12,702.79,503.35z
	 M722.11,497.67l-9.85-160.35c6.72-3.83,12.27-9.6,15.8-16.69c1.5-0.78,2.95-1.64,4.37-2.57c1.82,0.79,3.76,1.38,5.81,1.71
	c2.2,0.35,4.38,0.39,6.5,0.16L724.92,497.4C723.98,497.47,723.04,497.56,722.11,497.67z M816.29,490.31
	c-4.18,4.93-7.18,10.89-8.53,17.47c-2.74-1.1-5.72-1.72-8.85-1.75c-8.69-0.08-16.35,4.41-20.72,11.22c-1.13,0.2-2.25,0.45-3.36,0.71
	c-5.5-6.3-12.38-11.58-20.49-15.27c-3.71-1.69-7.51-2.97-11.34-3.87l19.83-177.64c1.63-0.27,3.23-0.63,4.82-1.09
	c5.51,0.65,11.04,0.28,16.33-1c0.56,0.62,1.16,1.22,1.8,1.78c6.5,5.77,15.22,7.43,22.99,5.17c2.87,1.74,5.87,3.16,8.94,4.3
	L816.29,490.31z M888.32,480c-2.84-0.79-5.87-1.08-8.99-0.77c-4.07,0.41-7.79,1.82-10.97,3.93c-5.85-3.97-12.82-6.4-20.36-6.72
	l1.28-144.48c9.05-2.34,17.58-7.1,24.52-14.23c2.1,3,4.54,5.75,7.27,8.21l13.8,135.76C891.27,467.05,888.95,473.31,888.32,480z
	 M963.04,466.7c-6.78-14.18-21.7-23.4-38.16-22.29l-10.82-106.4c9.53-0.23,19.07-3.18,27.62-8.46c2.12,1.53,4.54,2.71,7.21,3.45
	c1.16,0.32,2.32,0.54,3.47,0.67c-0.08,17.36,11.4,33.31,28.94,38.13c7.72,2.12,15.54,1.78,22.62-0.53l4.79,78.06
	C991.78,448.45,975.13,454.77,963.04,466.7z M1175.15,513.69c-4.18,4.93-7.18,10.89-8.53,17.47c-2.74-1.1-5.72-1.72-8.85-1.75
	c-1.3-0.01-2.58,0.09-3.83,0.28c-5.53-14.18-16.35-26.3-31.3-33.1c-19.23-8.76-40.64-6.6-57.29,3.85
	c-3.05-19.42-15.48-36.99-34.71-45.74c-1.16-0.53-2.34-1.01-3.52-1.46l-5.74-93.48c2.18-2.49,4.06-5.27,5.58-8.31
	c2.36,1.76,5.09,3.13,8.1,3.96c8.38,2.3,16.94-0.07,22.9-5.54c13.34,1.15,26.33-2.87,36.56-10.69c13.84,8.64,31.67,7.78,44.6-2.05
	c1.34,2.63,3.18,5.06,5.51,7.14c6.5,5.77,15.22,7.43,22.99,5.17c2.87,1.74,5.87,3.16,8.94,4.3L1175.15,513.69z M1258.92,525.19
	c-1.81,1.53-3.53,3.19-5.17,4.94c-2.19-0.73-4.52-1.14-6.95-1.16c-1.2-0.01-2.38,0.07-3.53,0.25c-4.26-16.38-18.81-28.65-36.4-29.4
	l1.28-144.48c9.05-2.34,17.58-7.1,24.52-14.23c4.39,6.26,10.19,11.48,17.27,15.11c8.6,4.41,18.01,5.92,27.29,4.91L1258.92,525.19z
	 M1351.65,543.29c-6.02-11.52-15.76-21.21-28.51-27.02c-14.68-6.68-30.62-7-44.76-2.14l17.72-158.7c3.96-2,7.77-4.47,11.31-7.4
	c2.65,2.25,5.59,4.24,8.82,5.89c11.97,6.14,25.38,6.54,37.08,2.21L1351.65,543.29z M1489.17,481.56
	c-4.66,4.47-8.25,10.1-10.27,16.51c-2.61-1.37-5.51-2.3-8.62-2.64c-8.64-0.96-16.72,2.72-21.76,9.05
	c-24.89,1.77-45.76,21.06-48.63,46.75c-0.08,0.76-0.14,1.51-0.2,2.27c-3.96-0.64-7.94-0.88-11.88-0.73l2.19-246.02
	c12.93,2.29,25.99-0.4,36.77-7.02c12.88,10.01,30.71,10.97,44.58,2.51c1.06,2.75,2.64,5.36,4.76,7.66
	c5.87,6.41,14.38,8.94,22.34,7.49c2.68,2.02,5.52,3.75,8.46,5.19L1489.17,481.56z M1651.38,489.38c-24.1-7.48-51.3,0.7-66.93,22.26
	c-2.38,3.28-4.37,6.72-6.01,10.27c-1.91-9.3-9.61-16.73-19.55-17.84c-1.19-0.13-2.37-0.17-3.53-0.12
	c-2.57-16.73-15.79-30.42-33.21-32.96l16.03-143.6c9.24-1.4,18.21-5.27,25.84-11.66c3.73,6.68,8.96,12.46,15.64,16.8
	c17.47,11.35,40.02,9.7,58.01-2.26c2.41,2.51,5.13,4.78,8.17,6.76c2.22,1.44,4.52,2.66,6.87,3.67L1651.38,489.38z M1686.28,495.83
	c-5.08-3.68-10.97-5.4-16.79-5.31l1.3-146.02c13.99,0.04,27.72-6.27,36.72-17.99l-19.09,171.04
	C1687.74,496.94,1687.03,496.37,1686.28,495.83z M1795.53,458c-4.18,4.93-7.18,10.89-8.53,17.47c-2.74-1.1-5.72-1.72-8.85-1.75
	c-8.69-0.08-16.35,4.41-20.72,11.22c-7.44,1.3-14.34,4.17-20.36,8.24c-9.97-2.98-20.61-2.38-30.09,1.5l22.96-205.7
	c10.28,1.52,21-1.03,29.57-7.55c1.34,2.63,3.18,5.06,5.51,7.14c3.81,3.39,8.39,5.35,13.1,5.94c0.38,13.16,7.38,25.37,18.58,32.32
	L1795.53,458z M1887.38,486.27c-3.56-7.61-11.24-12.91-20.2-12.99c-1.2-0.01-2.38,0.07-3.53,0.25c-4.26-16.38-18.81-28.65-36.4-29.4
	l1-112.89c9.4-2.69,17.64-8.83,22.83-17.37c5.92,8.04,14.87,13.86,25.51,15.55c0.89,0.14,1.79,0.24,2.68,0.32l9.57,155.85
	C1888.36,485.82,1887.86,486.03,1887.38,486.27z M2000.88,473.22c-4.18,4.93-7.18,10.89-8.53,17.47c-2.74-1.1-5.72-1.72-8.85-1.75
	c-8.69-0.08-16.35,4.41-20.72,11.22c-1.13,0.2-2.25,0.45-3.36,0.71c-5.5-6.3-12.38-11.58-20.49-15.27
	c-10.47-4.77-21.59-6.3-32.23-5.03l-9.42-153.44c10.22-4.06,18.53-12.31,22.46-22.98c2.54,1.49,5.4,2.55,8.49,3.04
	c5.52,0.88,10.89-0.18,15.45-2.66c2.9-0.19,5.77-0.7,8.57-1.53c5.51,0.65,11.04,0.28,16.33-1c0.56,0.62,1.16,1.22,1.8,1.78
	c6.5,5.77,15.22,7.43,22.99,5.17c2.87,1.74,5.87,3.16,8.94,4.3L2000.88,473.22z M2078.31,467.43c-2.84-0.79-5.87-1.08-8.99-0.77
	c-4.04,0.41-7.73,1.79-10.9,3.88c-6.71-6.57-15.77-10.77-25.82-11.19l1.28-144.48c9.05-2.34,17.58-7.1,24.52-14.23
	c3.39,4.83,7.62,9.03,12.63,12.37l13.84,136.12C2081.26,454.48,2078.93,460.74,2078.31,467.43z M2153.03,454.14
	c-6.78-14.18-21.7-23.4-38.16-22.29l-11.31-111.27c8.06-0.98,16.01-3.86,23.23-8.42c2.89,3.9,7.05,6.89,12.1,8.28
	c1.16,0.32,2.32,0.54,3.47,0.67c-0.08,17.36,11.4,33.31,28.94,38.13c7.72,2.12,15.54,1.78,22.62-0.53l4.79,78.06
	C2181.77,435.89,2165.11,442.21,2153.03,454.14z M2365.14,501.12c-4.18,4.93-7.18,10.89-8.53,17.47c-2.74-1.1-5.72-1.72-8.85-1.75
	c-1.3-0.01-2.58,0.09-3.83,0.28c-5.52-14.18-16.35-26.3-31.3-33.1c-19.23-8.76-40.64-6.6-57.29,3.85
	c-3.05-19.42-15.48-36.99-34.71-45.74c-1.16-0.53-2.34-1.01-3.52-1.46l-5.74-93.48c2.18-2.49,4.06-5.27,5.58-8.31
	c2.36,1.76,5.09,3.13,8.1,3.96c8.38,2.3,16.94-0.07,22.9-5.54c13.34,1.15,26.33-2.87,36.56-10.69c13.84,8.64,31.67,7.78,44.6-2.05
	c1.34,2.63,3.18,5.06,5.51,7.14c6.5,5.77,15.22,7.43,22.99,5.17c2.87,1.74,5.87,3.16,8.94,4.3L2365.14,501.12z M2448.9,512.63
	c-1.81,1.53-3.53,3.19-5.16,4.94c-2.19-0.73-4.52-1.14-6.95-1.16c-1.2-0.01-2.38,0.07-3.53,0.25c-4.26-16.38-18.81-28.65-36.4-29.4
	l1.28-144.48c9.05-2.34,17.58-7.1,24.52-14.23c4.39,6.26,10.19,11.48,17.27,15.11c8.6,4.41,18.01,5.92,27.29,4.91L2448.9,512.63z
	 M2541.64,530.73c-6.02-11.52-15.76-21.21-28.51-27.02c-14.68-6.68-30.62-7-44.76-2.14l17.72-158.7c3.96-2,7.77-4.47,11.31-7.4
	c2.65,2.25,5.59,4.24,8.82,5.89c11.97,6.14,25.38,6.54,37.08,2.21L2541.64,530.73z M2679.16,469c-4.66,4.47-8.25,10.1-10.27,16.51
	c-2.61-1.37-5.51-2.3-8.62-2.64c-8.64-0.96-16.72,2.72-21.76,9.05c-24.89,1.77-45.76,21.06-48.63,46.75
	c-0.08,0.76-0.14,1.51-0.2,2.27c-3.96-0.64-7.94-0.88-11.88-0.73l2.19-246.02c12.93,2.29,25.99-0.4,36.77-7.02
	c12.88,10.01,30.71,10.97,44.58,2.51c1.06,2.75,2.64,5.36,4.76,7.66c5.87,6.41,14.38,8.94,22.34,7.49c2.68,2.02,5.51,3.75,8.46,5.19
	L2679.16,469z M2841.36,476.82c-24.1-7.48-51.3,0.7-66.93,22.26c-2.38,3.28-4.38,6.72-6.01,10.27c-1.91-9.3-9.61-16.73-19.55-17.84
	c-1.19-0.13-2.37-0.17-3.53-0.12c-2.57-16.73-15.79-30.42-33.21-32.96l16.03-143.6c9.24-1.4,18.21-5.27,25.84-11.66
	c3.73,6.68,8.97,12.46,15.64,16.8c17.47,11.35,40.02,9.7,58.01-2.26c2.41,2.51,5.13,4.78,8.17,6.76c2.22,1.44,4.52,2.66,6.87,3.67
	L2841.36,476.82z M2985.52,445.43c-4.18,4.93-7.18,10.89-8.53,17.47c-2.74-1.1-5.72-1.72-8.85-1.75
	c-8.69-0.08-16.35,4.41-20.72,11.22c-7.44,1.3-14.34,4.17-20.36,8.24c-15.15-4.53-31.88-0.8-43.67,10.17
	c-1.83-2.85-4.2-5.42-7.11-7.52c-5.08-3.68-10.97-5.4-16.79-5.31l1.3-146.02c15.14,0.04,29.99-7.34,38.86-20.98
	c7.99-12.29,9.35-26.96,5.02-39.85c0.08-0.06,0.16-0.11,0.24-0.17c13.84,8.64,31.67,7.78,44.6-2.05c1.34,2.63,3.18,5.06,5.51,7.14
	c3.81,3.39,8.39,5.35,13.1,5.94c0.38,13.16,7.38,25.37,18.58,32.32L2985.52,445.43z M3077.36,473.7
	c-3.56-7.61-11.24-12.91-20.2-12.99c-1.2-0.01-2.38,0.07-3.53,0.25c-4.26-16.38-18.81-28.65-36.4-29.4l1-112.89
	c10.43-2.98,19.43-10.21,24.43-20.26c2.36,1.76,5.09,3.13,8.1,3.96c6.08,1.67,12.26,0.87,17.47-1.78l10.59,172.44
	C3078.34,473.25,3077.85,473.47,3077.36,473.7z M3096.69,468.02l-10.54-171.6c0.81-0.12,1.62-0.27,2.42-0.43
	c3.29,1.55,6.84,2.67,10.61,3.27c6.73,1.07,13.33,0.36,19.33-1.77l-19.01,170.26C3098.56,467.82,3097.62,467.91,3096.69,468.02z
	 M3190.87,460.66c-4.18,4.93-7.18,10.89-8.53,17.47c-2.74-1.1-5.72-1.72-8.85-1.75c-8.69-0.08-16.35,4.41-20.72,11.22
	c-1.13,0.2-2.25,0.45-3.36,0.71c-5.5-6.3-12.38-11.58-20.49-15.27c-3.71-1.69-7.51-2.97-11.34-3.87l19.83-177.64
	c1.63-0.27,3.23-0.63,4.82-1.09c5.51,0.65,11.04,0.28,16.33-1c0.56,0.62,1.16,1.22,1.8,1.78c6.5,5.77,15.22,7.43,22.99,5.17
	c2.87,1.74,5.87,3.16,8.94,4.3L3190.87,460.66z M3300.88,437.27c-2.84-0.79-5.87-1.08-8.99-0.77c-8.65,0.88-15.77,6.18-19.36,13.43
	c-7.9,2.3-14.97,6.38-20.81,11.73c-6.88-8.67-17.32-14.38-29.15-14.88l1.28-144.48c9.05-2.34,17.58-7.1,24.52-14.23
	c4.39,6.26,10.19,11.48,17.27,15.11c9.59,4.92,20.18,6.23,30.47,4.45l11.32,111.33C3303.83,424.32,3301.51,430.58,3300.88,437.27z
	 M3375.6,423.97c-6.78-14.18-21.7-23.4-38.16-22.29l-10.55-103.82c1.6,1.1,3.28,2.12,5.06,3.03c11.3,5.8,23.88,6.48,35.09,2.9
	c4.07,11.92,13.77,21.69,26.83,25.28c7.72,2.12,15.54,1.78,22.62-0.53l4.79,78.06C3404.34,405.72,3387.69,412.04,3375.6,423.97z
	 M3587.72,470.96c-4.18,4.93-7.18,10.89-8.53,17.47c-2.74-1.1-5.72-1.72-8.85-1.75c-1.3-0.01-2.58,0.09-3.83,0.28
	c-5.52-14.18-16.35-26.3-31.3-33.1c-19.23-8.76-40.64-6.6-57.29,3.85c-3.05-19.42-15.48-36.99-34.71-45.74
	c-1.16-0.53-2.34-1.01-3.52-1.46l-5.74-93.48c2.18-2.49,4.06-5.27,5.58-8.31c2.36,1.76,5.09,3.13,8.1,3.96
	c8.38,2.3,16.94-0.07,22.9-5.54c13.34,1.15,26.33-2.87,36.56-10.69c13.84,8.64,31.67,7.78,44.6-2.05c1.34,2.63,3.18,5.06,5.51,7.14
	c6.5,5.77,15.22,7.43,22.99,5.17c2.87,1.74,5.87,3.16,8.94,4.3L3587.72,470.96z M3671.48,482.46c-1.81,1.53-3.53,3.19-5.16,4.94
	c-2.19-0.73-4.52-1.14-6.95-1.16c-1.2-0.01-2.38,0.07-3.53,0.25c-4.26-16.38-18.81-28.65-36.4-29.4l1.28-144.48
	c9.05-2.34,17.58-7.1,24.52-14.23c4.39,6.26,10.19,11.48,17.27,15.11c8.6,4.41,18.01,5.92,27.29,4.91L3671.48,482.46z
	 M3764.21,500.56c-6.02-11.52-15.76-21.21-28.51-27.02c-14.68-6.68-30.62-7-44.76-2.14l17.72-158.7c3.96-2,7.77-4.47,11.31-7.4
	c2.65,2.25,5.59,4.24,8.82,5.89c11.97,6.14,25.38,6.54,37.08,2.21L3764.21,500.56z M3901.73,438.83
	c-4.66,4.47-8.25,10.1-10.27,16.51c-2.61-1.37-5.51-2.3-8.62-2.64c-8.64-0.96-16.72,2.72-21.76,9.05
	c-24.89,1.77-45.76,21.06-48.63,46.75c-0.08,0.76-0.14,1.51-0.2,2.27c-3.96-0.64-7.94-0.88-11.88-0.73l2.19-246.02
	c12.93,2.29,25.99-0.4,36.77-7.02c12.88,10.01,30.71,10.97,44.58,2.51c1.06,2.75,2.64,5.36,4.76,7.66
	c5.87,6.41,14.38,8.94,22.34,7.49c2.68,2.02,5.51,3.75,8.46,5.19L3901.73,438.83z M4063.94,446.65c-24.1-7.48-51.3,0.7-66.93,22.26
	c-2.38,3.28-4.37,6.72-6.01,10.27c-1.91-9.3-9.61-16.73-19.55-17.84c-1.19-0.13-2.37-0.17-3.53-0.12
	c-2.57-16.73-15.79-30.42-33.21-32.96l16.03-143.6c9.24-1.4,18.21-5.27,25.84-11.66c3.73,6.68,8.96,12.46,15.64,16.8
	c17.47,11.35,40.02,9.7,58.01-2.26c2.41,2.51,5.13,4.78,8.17,6.76c2.22,1.44,4.52,2.66,6.87,3.67L4063.94,446.65z M4208.09,415.27
	c-4.18,4.93-7.18,10.89-8.53,17.47c-2.74-1.1-5.72-1.72-8.85-1.75c-8.69-0.08-16.35,4.41-20.72,11.22
	c-7.44,1.3-14.34,4.17-20.36,8.24c-15.15-4.53-31.88-0.8-43.67,10.17c-1.83-2.85-4.2-5.42-7.11-7.52
	c-5.08-3.68-10.97-5.4-16.79-5.31l1.3-146.02c15.14,0.04,29.99-7.34,38.86-20.98c7.99-12.29,9.35-26.96,5.02-39.85
	c0.08-0.06,0.16-0.11,0.24-0.17c13.84,8.64,31.67,7.78,44.6-2.05c1.34,2.63,3.18,5.06,5.51,7.14c3.81,3.39,8.39,5.35,13.1,5.94
	c0.38,13.16,7.38,25.37,18.58,32.32L4208.09,415.27z M4299.94,443.54c-3.56-7.61-11.24-12.91-20.2-12.99
	c-1.2-0.01-2.38,0.07-3.53,0.25c-4.26-16.38-18.81-28.65-36.4-29.4l1-112.89c10.43-2.98,19.43-10.21,24.43-20.26
	c2.36,1.76,5.09,3.13,8.1,3.96c3.85,1.06,7.74,1.12,11.39,0.35c1.78,3.51,4.07,6.73,6.79,9.56l9.87,160.74
	C4300.92,443.09,4300.42,443.3,4299.94,443.54z M4322.08,437.59c-0.94,0.07-1.88,0.16-2.82,0.27l-8.9-144.84
	c1.09,0.27,2.19,0.49,3.32,0.67c8.9,1.42,17.58-0.27,24.93-4.26L4322.08,437.59z M4413.44,430.49c-4.18,4.93-7.18,10.89-8.53,17.47
	c-2.74-1.1-5.72-1.72-8.85-1.75c-8.69-0.08-16.35,4.41-20.72,11.22c-1.13,0.2-2.25,0.45-3.36,0.71c-5.5-6.3-12.38-11.58-20.49-15.27
	c-3.71-1.69-7.51-2.97-11.34-3.87l18.91-169.43c1.94,0.88,4.03,1.54,6.24,1.89c8.33,1.33,16.33-1.75,21.67-7.5
	c5.83,3.35,12.69,4.08,18.94,2.26c2.87,1.74,5.87,3.16,8.94,4.3L4413.44,430.49z M4515.39,431.7c-2.84-0.79-5.87-1.08-8.99-0.77
	c-8.65,0.88-15.77,6.18-19.36,13.43c-1.54,0.45-3.05,0.97-4.53,1.55c-0.32,0.03-0.64,0.06-0.96,0.1
	c-4.26-16.38-18.81-28.65-36.4-29.4l1.28-144.48c9.05-2.34,17.58-7.1,24.52-14.23c4.39,6.26,10.19,11.48,17.27,15.11
	c6.35,3.25,13.13,4.93,19.98,5.18l13.74,135.2C4518.34,418.75,4516.02,425.01,4515.39,431.7z M4590.11,418.4
	c-6.78-14.18-21.7-23.4-38.16-22.29l-12.86-126.52c2.28-1.42,4.49-3.01,6.61-4.75c2.65,2.25,5.59,4.24,8.82,5.89
	c2.51,1.29,5.08,2.31,7.68,3.1c2.83,5.15,7.65,9.2,13.76,10.88c1.16,0.32,2.32,0.54,3.47,0.67c-0.08,17.36,11.4,33.31,28.94,38.13
	c7.72,2.12,15.54,1.78,22.62-0.53l4.79,78.06C4618.85,400.15,4602.2,406.47,4590.11,418.4z M4802.23,465.39
	c-4.18,4.93-7.18,10.89-8.53,17.47c-2.74-1.1-5.72-1.72-8.85-1.75c-1.3-0.01-2.58,0.09-3.83,0.28c-5.52-14.18-16.35-26.3-31.3-33.1
	c-19.23-8.76-40.64-6.6-57.29,3.85c-3.05-19.42-15.48-36.99-34.71-45.74c-1.16-0.53-2.34-1.01-3.52-1.46l-5.74-93.48
	c2.18-2.49,4.06-5.27,5.58-8.31c2.36,1.76,5.09,3.13,8.1,3.96c8.38,2.3,16.94-0.07,22.9-5.54c13.34,1.15,26.33-2.87,36.56-10.69
	c13.84,8.64,31.67,7.78,44.6-2.05c1.34,2.63,3.18,5.06,5.51,7.14c6.5,5.77,15.22,7.43,22.99,5.17c2.87,1.74,5.87,3.16,8.94,4.3
	L4802.23,465.39z M4885.99,476.89c-1.81,1.53-3.53,3.19-5.17,4.94c-2.19-0.73-4.52-1.14-6.95-1.16c-1.2-0.01-2.38,0.07-3.53,0.25
	c-4.26-16.38-18.81-28.65-36.4-29.4l1.28-144.48c9.05-2.34,17.58-7.1,24.52-14.23c4.39,6.26,10.19,11.48,17.27,15.11
	c8.6,4.41,18.01,5.92,27.29,4.91L4885.99,476.89z M4978.79,487.04c-1.44,0.31-2.87,0.67-4.28,1.08
	c-5.97-8.47-14.18-15.53-24.3-20.14c-14.68-6.68-30.62-7-44.76-2.14l17.72-158.7c3.96-2,7.77-4.47,11.31-7.4
	c2.65,2.25,5.59,4.24,8.82,5.89c11.97,6.14,25.38,6.54,37.08,2.21L4978.79,487.04z"/>
<path id="bg6" class="st6" d="M-0.01,0.75v779.6v170.4h5000v-950H-0.01z M145.76,570.89c-3.14,1.89-6.1,4.03-8.83,6.38
	c-12.95-15.47-34.14-24.97-57.54-23.7c-32.7,1.78-58.8,24-63.36,51.84c-0.85-0.24-1.71-0.46-2.58-0.65l32.47-313.23
	c3.65,2.51,7.59,4.78,11.82,6.75c26.53,12.34,57.28,9.98,80.47-3.79c3.82,1.89,7.76,3.49,11.77,4.85L145.76,570.89z M482.86,591.48
	c-2.25,0.33-4.46,0.76-6.65,1.23c-8.05-17.01-24.69-29.77-44.9-34.32c-28.3-12.74-60.28-6.33-77.75,14.55
	c-3.42-3.59-7.55-6.72-12.31-9.15c-13.22-6.75-28.03-6.51-39.42-0.59c-27.73-8.87-56.83-4.81-78.28,9.84
	c-6.94-4.61-14.89-8.11-23.57-10.14l4.06-260.27c4.35,2.11,9.03,3.84,14,5.09c18.54,4.68,37.44,1.97,52.76-6.12
	c1.56,0.85,3.15,1.66,4.79,2.42c31.66,14.71,69.8,8.99,98.47-11.72c4.52,3.46,9.54,6.52,15.05,9.08
	c14.74,6.85,30.77,9.16,46.09,7.51c3.35,1.41,6.87,2.6,10.56,3.53c10.66,2.69,21.45,2.93,31.6,1.12l38.49,261.14
	C502.03,575.23,489.96,581.77,482.86,591.48z M550.6,439.69l-20.13-136.57c5.68,3.35,12.02,5.99,18.92,7.73
	c5.45,1.37,10.92,2.1,16.33,2.25L550.6,439.69z M776.7,512.92c-36.83-18.26-80.54-11.36-104.34,18.88
	c-6.98,8.86-11.56,18.88-13.89,29.39c-11.34-18.21-32.98-30.7-58.02-31.08c-2.09-0.03-4.15,0.02-6.19,0.16l29.05-243.2
	c1.62-2.11,3.1-4.34,4.42-6.66c4.03,2.72,8.68,4.83,13.84,6.13c10.45,2.64,21.07,1.47,30.05-2.55c2.09,1.2,4.25,2.33,6.49,3.37
	c28.26,13.13,61.68,9.97,88.92-5.58c4.26,2.2,8.68,4.06,13.19,5.58L776.7,512.92z M865.94,576.9c-0.38,1.2-0.73,2.42-1.02,3.65
	c-4.68-1.71-9.78-2.7-15.13-2.78c-7.25-0.11-14.09,1.44-20.07,4.25l4.51-289.48c13.5-0.92,26.57-4.9,37.86-11.6
	c8.9,4.4,18.42,7.35,28.14,8.87L865.94,576.9z M1172.5,575.06c-14.8,2.35-27.92,7.12-38.02,13.45c-5.96-2.78-12.83-4.2-20.07-3.8
	c-2.05,0.11-4.05,0.37-6,0.75c-9.14-25.07-36.34-42.42-67.43-40.73c-20.05,1.09-37.6,9.87-49.24,22.91
	c-10.68-20-33.4-33.99-59.94-34.4c-2.09-0.03-4.15,0.02-6.19,0.16l27.91-233.61c15.71-1.58,31.19-6.92,44.89-15.49
	c3.45,2.3,7.13,4.38,11.05,6.2c17.96,8.35,38,10.11,57.22,6.3c15.55-1.9,30.3-7.88,42.13-17.39c4.29,3.2,9.01,6.05,14.18,8.45
	c14.06,6.54,29.3,8.93,43.98,7.71l38.14,258.78C1192.59,558.54,1181.36,565.55,1172.5,575.06z M1496.16,564.94
	c-0.38,1.2-0.73,2.42-1.02,3.65c-4.68-1.71-9.78-2.7-15.13-2.78c-14.88-0.23-28.03,6.51-35.57,16.83
	c-5.13,0.76-10.11,1.91-14.9,3.41c-6.1-14.22-17.57-26.87-33.25-34.87c-29.1-14.87-62.98-8.79-81.15,12.93
	c-3.42-3.59-7.55-6.72-12.31-9.15c-13.22-6.75-28.03-6.51-39.42-0.59c-1.27-0.41-2.54-0.78-3.82-1.14l-37.73-255.96
	c15.34-5.19,28.39-15.3,36.08-28.82c4.03,2.72,8.68,4.83,13.84,6.13c14.33,3.61,29,0.1,39.26-8.14c22.84,1.92,45.1-4.04,62.68-15.83
	c7.41,4.19,15.51,6.95,23.82,8.31c4.65,21.66,22.56,40.26,48.03,46.68c31,7.82,63-4.98,77.58-29.19c1.44,0.34,2.88,0.63,4.33,0.9
	c0.93,0.5,1.88,0.98,2.87,1.42L1496.16,564.94z M1775.47,574.26c-18.21-19.43-46.64-30.64-77.38-27.77
	c-20.68,1.93-39.13,9.92-53.32,21.78c-3.86-1.23-8-1.93-12.32-2c-2.05-0.03-4.07,0.08-6.04,0.33
	c-7.34-25.65-33.24-44.84-64.38-45.31c-2.09-0.03-4.15,0.02-6.19,0.16l29.61-247.91c12.53,0,24.73-2.34,35.9-6.67
	c5.38,4.56,11.51,8.5,18.34,11.67c29.34,13.63,64.23,9.71,92.01-7.41c7.13,17.66,23.41,32.12,45.24,37.62
	c0.89,0.22,1.78,0.43,2.66,0.62L1775.47,574.26z M2107.17,555.25c-3.14,1.89-6.1,4.03-8.83,6.38
	c-12.95-15.47-34.14-24.97-57.54-23.7c-32.7,1.78-58.8,24-63.36,51.84c-4.79-1.38-9.94-2.01-15.29-1.72
	c-6.66,0.36-12.87,2.11-18.32,4.89c-9.83-38.29-50.2-64.69-95.58-60.46c-6.26,0.58-12.3,1.73-18.1,3.36l3.67-235.61
	c8.89-5.53,16.34-12.97,21.42-21.92c4.03,2.72,8.68,4.83,13.84,6.13c10.45,2.64,21.07,1.47,30.05-2.55c2.09,1.2,4.25,2.33,6.49,3.37
	c31.66,14.71,69.8,8.99,98.47-11.72c4.52,3.46,9.54,6.52,15.05,9.08c26.53,12.34,57.27,9.98,80.47-3.79
	c3.82,1.89,7.76,3.49,11.77,4.85L2107.17,555.25z M2495.99,558.13c-0.38,1.2-0.73,2.42-1.02,3.65c-4.68-1.71-9.78-2.7-15.13-2.78
	c-14.88-0.23-28.03,6.51-35.57,16.83c-2.25,0.33-4.46,0.76-6.65,1.23c-8.05-17.01-24.69-29.77-44.9-34.32
	c-28.3-12.74-60.28-6.33-77.75,14.55c-3.42-3.59-7.55-6.72-12.31-9.15c-13.22-6.75-28.03-6.51-39.42-0.59
	c-27.73-8.87-56.83-4.81-78.28,9.84c-6.94-4.61-14.89-8.11-23.57-10.14l4.06-260.27c4.35,2.11,9.03,3.84,14,5.09
	c18.54,4.68,37.44,1.97,52.76-6.12c1.56,0.85,3.15,1.66,4.79,2.42c31.66,14.71,69.8,8.99,98.47-11.72
	c4.52,3.46,9.54,6.52,15.05,9.08c14.74,6.85,30.77,9.16,46.09,7.51c3.35,1.41,6.87,2.6,10.56,3.53
	c26.88,6.78,54.51-1.94,70.89-20.15c8.35,8.62,19.54,15.24,32.76,18.58c5.45,1.37,10.92,2.1,16.33,2.25L2495.99,558.13z
	 M2738.11,497.28c-36.83-18.26-80.54-11.36-104.34,18.88c-6.98,8.86-11.56,18.88-13.89,29.39c-11.34-18.21-32.98-30.7-58.02-31.08
	c-2.09-0.03-4.15,0.02-6.19,0.16l29.05-243.2c1.62-2.11,3.1-4.34,4.42-6.66c4.03,2.72,8.68,4.83,13.84,6.13
	c10.45,2.64,21.07,1.47,30.05-2.55c2.09,1.2,4.25,2.33,6.49,3.37c28.26,13.13,61.68,9.97,88.92-5.58c4.26,2.2,8.68,4.06,13.19,5.58
	L2738.11,497.28z M2827.35,561.25c-0.38,1.2-0.73,2.42-1.02,3.65c-4.68-1.71-9.78-2.7-15.13-2.78c-7.25-0.11-14.09,1.44-20.07,4.25
	l4.51-289.48c13.5-0.92,26.57-4.9,37.86-11.6c8.9,4.4,18.42,7.35,28.14,8.87L2827.35,561.25z M3133.91,559.42
	c-14.8,2.35-27.92,7.12-38.02,13.45c-5.96-2.78-12.83-4.2-20.07-3.8c-2.05,0.11-4.05,0.37-6,0.75
	c-9.14-25.07-36.34-42.42-67.43-40.73c-20.05,1.09-37.6,9.87-49.24,22.91c-10.68-20-33.4-33.99-59.94-34.4
	c-2.09-0.03-4.15,0.02-6.19,0.16l27.91-233.61c15.71-1.58,31.19-6.92,44.89-15.49c3.45,2.3,7.13,4.38,11.05,6.2
	c17.96,8.35,38,10.11,57.21,6.3c15.55-1.9,30.3-7.88,42.13-17.39c4.29,3.2,9.01,6.05,14.18,8.45c14.73,6.85,30.77,9.16,46.09,7.51
	c3.04,1.28,6.23,2.36,9.54,3.25l37.27,252.86C3160.49,539.17,3145.25,547.24,3133.91,559.42z M3459.61,532.2
	c-12.81,4.53-24.15,11.53-33.35,20.27c-8.43,2.78-15.58,7.91-20.41,14.53c-5.13,0.76-10.11,1.91-14.9,3.41
	c-6.1-14.22-17.57-26.87-33.25-34.87c-29.1-14.87-62.98-8.79-81.15,12.93c-3.42-3.59-7.55-6.72-12.31-9.15
	c-10.6-5.42-22.22-6.32-32.28-3.42l-38.14-258.79c3.15-1.67,6.15-3.57,8.96-5.68c7.76,6.68,17.43,11.81,28.55,14.61
	c31.53,7.95,64.11-5.41,78.33-30.43c4.03,2.72,8.68,4.83,13.84,6.13c14.33,3.61,29,0.1,39.26-8.14c20.13,1.69,39.8-2.74,56.23-11.88
	c0.62,0.56,1.25,1.12,1.92,1.65c11.07,8.87,25.99,11.51,39.32,8.16c9.88,5.41,20.63,8.96,31.65,10.69L3459.61,532.2z
	 M3561.81,517.01c-10.82-6.96-24.04-11.15-38.38-11.37c-2.09-0.03-4.15,0.02-6.19,0.16l26.78-224.22
	c5.61,3.27,11.86,5.86,18.66,7.58c0.89,0.22,1.78,0.43,2.66,0.62L3561.81,517.01z M3892.92,535.66c-3.14,1.89-6.1,4.03-8.83,6.38
	c-12.95-15.47-34.14-24.97-57.54-23.7c-32.7,1.78-58.8,24-63.36,51.84c-4.79-1.38-9.94-2.01-15.29-1.72
	c-6.66,0.36-12.87,2.11-18.32,4.89c-9.83-38.29-50.2-64.69-95.58-60.46c-6.26,0.58-12.3,1.73-18.1,3.36l3.67-235.61
	c4.5-2.8,8.63-6.08,12.26-9.81c12.85,0.98,25.91-0.7,38.34-4.74c5.17-0.44,10.15-1.74,14.71-3.78c2.09,1.2,4.25,2.33,6.49,3.37
	c23.3,10.83,50.11,10.58,74.07,1.44c10.19-1.66,19.95-5.09,28.69-10.12c3.35,2.23,6.93,4.27,10.76,6.05
	c26.53,12.34,57.28,9.98,80.47-3.79c3.82,1.89,7.76,3.49,11.77,4.85L3892.92,535.66z M4281.75,538.55c-0.38,1.2-0.73,2.42-1.02,3.65
	c-4.68-1.71-9.78-2.7-15.13-2.78c-14.88-0.23-28.03,6.51-35.57,16.83c-2.25,0.33-4.46,0.76-6.65,1.23
	c-8.05-17.01-24.69-29.77-44.9-34.32c-28.3-12.74-60.28-6.33-77.75,14.55c-3.42-3.59-7.55-6.72-12.31-9.15
	c-13.22-6.75-28.03-6.51-39.42-0.59c-27.73-8.87-56.83-4.81-78.28,9.84c-6.94-4.61-14.89-8.11-23.57-10.14l4.06-260.27
	c4.35,2.11,9.03,3.84,14,5.09c18.54,4.68,37.44,1.97,52.76-6.13c1.56,0.85,3.15,1.66,4.79,2.42c31.66,14.71,69.8,8.99,98.47-11.72
	c4.52,3.46,9.54,6.52,15.05,9.08c14.73,6.85,30.77,9.16,46.09,7.51c3.35,1.41,6.87,2.6,10.56,3.53
	c26.88,6.78,54.51-1.94,70.89-20.15c8.35,8.62,19.54,15.24,32.76,18.58c5.45,1.37,10.92,2.1,16.33,2.25L4281.75,538.55z
	 M4419.51,496.58c-6.98,8.86-11.56,18.88-13.89,29.39c-11.34-18.21-32.98-30.7-58.02-31.08c-2.08-0.03-4.15,0.02-6.19,0.16
	l29.05-243.2c1.62-2.11,3.1-4.34,4.42-6.66c4.03,2.72,8.68,4.83,13.84,6.13c3.43,0.87,6.89,1.31,10.29,1.39l34,230.68
	C4428.05,487.13,4423.5,491.52,4419.51,496.58z M4523.86,477.69c-12.39-6.14-25.55-9.44-38.48-9.95l-30.63-207.78
	c20.32,1.82,41.25-3.03,59.43-13.41c4.26,2.2,8.68,4.06,13.19,5.58L4523.86,477.69z M4613.1,541.67c-0.38,1.2-0.73,2.42-1.02,3.65
	c-4.68-1.71-9.78-2.7-15.13-2.78c-7.25-0.11-14.09,1.44-20.07,4.25l4.51-289.48c13.5-0.92,26.57-4.9,37.86-11.6
	c8.9,4.4,18.42,7.35,28.14,8.87L4613.1,541.67z M4956.5,517.81c-14.2,3.97-26.98,11.45-36.83,22.02
	c-14.8,2.35-27.92,7.12-38.02,13.45c-5.96-2.78-12.83-4.2-20.07-3.8c-2.05,0.11-4.05,0.37-6,0.75
	c-9.14-25.07-36.33-42.42-67.43-40.73c-20.05,1.09-37.6,9.87-49.24,22.91c-10.68-20-33.4-33.99-59.94-34.4
	c-2.09-0.03-4.15,0.02-6.19,0.16l27.91-233.61c15.71-1.58,31.19-6.92,44.89-15.49c3.45,2.3,7.13,4.38,11.05,6.2
	c17.96,8.35,38,10.11,57.22,6.3c15.55-1.9,30.3-7.88,42.13-17.39c4.29,3.2,9.01,6.05,14.18,8.45c14.73,6.85,30.77,9.16,46.09,7.51
	c3.35,1.41,6.87,2.6,10.56,3.53c20.27,5.11,40.97,1.4,56.95-8.54L4956.5,517.81z"/>
<g id="road7">
	<rect id="road" x="-0.01" y="757.36" class="st7" width="5000.01" height="192.64"/>
	<g id="cobbleRoad">
		<path class="st8" d="M4966.16,927.16c0,8.89,14.71,16.43,35.15,19.15v-38.3C4980.86,910.73,4966.16,918.27,4966.16,927.16z"/>
		<path class="st8" d="M4995.64,848.22c-47.44,0-85.91,9.6-85.91,21.45s38.46,21.45,85.91,21.45c1.46,0,2.91-0.01,4.35-0.03v-42.85
			C4998.55,848.23,4997.1,848.22,4995.64,848.22z"/>
		<path class="st8" d="M28.51,840.07c48.84,0,88.43-15.81,88.43-35.31s-39.59-35.31-88.43-35.31c-10.62,0-20.81,0.75-30.25,2.12
			v66.39C7.7,839.32,17.89,840.07,28.51,840.07z"/>
		<ellipse class="st8" cx="2496.23" cy="805.08" rx="55.48" ry="22.16"/>
		<ellipse class="st8" cx="2113.46" cy="892.2" rx="56.54" ry="22.58"/>
		<ellipse class="st8" cx="2064.65" cy="817.29" rx="63.94" ry="25.53"/>
		<ellipse class="st8" cx="2341.18" cy="876.24" rx="51.87" ry="20.71"/>
		<ellipse class="st8" cx="2375" cy="825.1" rx="49.26" ry="19.67"/>
		<ellipse class="st8" cx="2524.64" cy="877.13" rx="110.72" ry="44.22"/>
		<ellipse class="st8" cx="1936.47" cy="809.78" rx="51.87" ry="20.71"/>
		<ellipse class="st8" cx="2237.42" cy="904.71" rx="51.89" ry="20.23"/>
		<ellipse class="st8" cx="2216.34" cy="842.83" rx="85.91" ry="34.31"/>
		<ellipse class="st8" cx="1587.51" cy="899.23" rx="58.19" ry="23.24"/>
		<ellipse class="st8" cx="1537.26" cy="822.12" rx="65.82" ry="26.28"/>
		<ellipse class="st8" cx="1821.9" cy="882.79" rx="53.39" ry="21.32"/>
		<ellipse class="st8" cx="1842.13" cy="834.63" rx="50.71" ry="20.25"/>
		<ellipse class="st8" cx="1966.36" cy="869.63" rx="85.91" ry="34.31"/>
		<ellipse class="st8" cx="1715.11" cy="912.1" rx="53.41" ry="20.82"/>
		<ellipse class="st8" cx="1693.4" cy="848.4" rx="88.43" ry="35.31"/>
		<ellipse class="st8" cx="1381.59" cy="813.36" rx="55.48" ry="22.16"/>
		<ellipse class="st8" cx="998.82" cy="900.48" rx="56.54" ry="22.58"/>
		<ellipse class="st8" cx="950.02" cy="825.57" rx="63.94" ry="25.53"/>
		<ellipse class="st8" cx="1226.54" cy="884.51" rx="51.87" ry="20.71"/>
		<ellipse class="st8" cx="1260.36" cy="833.38" rx="49.26" ry="19.67"/>
		<ellipse class="st8" cx="1410" cy="885.41" rx="110.72" ry="44.22"/>
		<ellipse class="st8" cx="821.84" cy="818.05" rx="51.87" ry="20.71"/>
		<ellipse class="st8" cx="1122.79" cy="912.98" rx="51.89" ry="20.23"/>
		<ellipse class="st8" cx="1101.7" cy="851.1" rx="85.91" ry="34.31"/>
		<ellipse class="st8" cx="480.87" cy="909.28" rx="58.19" ry="23.24"/>
		<ellipse class="st8" cx="422.63" cy="830.39" rx="65.82" ry="26.28"/>
		<ellipse class="st8" cx="707.26" cy="891.07" rx="53.39" ry="21.32"/>
		<ellipse class="st8" cx="727.49" cy="842.91" rx="50.71" ry="20.25"/>
		<ellipse class="st8" cx="851.72" cy="877.9" rx="85.91" ry="34.31"/>
		<ellipse class="st8" cx="600.47" cy="920.38" rx="53.41" ry="20.82"/>
		<ellipse class="st8" cx="578.76" cy="856.68" rx="88.43" ry="35.31"/>
		<ellipse class="st8" cx="275.54" cy="827.53" rx="55.48" ry="22.16"/>
		<ellipse class="st8" cx="120.49" cy="898.69" rx="51.87" ry="20.71"/>
		<ellipse class="st8" cx="154.32" cy="847.55" rx="49.26" ry="19.67"/>
		<ellipse class="st8" cx="303.95" cy="899.58" rx="110.72" ry="44.22"/>
		<path class="st8" d="M68.62,927.16c0-11.17-23.23-20.23-51.89-20.23c-5.86,0-11.49,0.38-16.74,1.08v38.3
			c5.25,0.7,10.88,1.08,16.74,1.08C45.39,947.39,68.62,938.33,68.62,927.16z"/>
		<path class="st8" d="M81.56,869.68c0-11.48-36.13-20.86-81.56-21.43v42.85C45.42,890.54,81.56,881.16,81.56,869.68z"/>
		<ellipse class="st8" cx="4906.05" cy="828.25" rx="39.89" ry="18.51"/>
		<ellipse class="st8" cx="4874.11" cy="778.47" rx="65.82" ry="26.28"/>
		<path class="st8" d="M4941.82,804.76c0,15.26,24.24,28.26,58.18,33.19v-66.39C4966.06,776.5,4941.82,789.49,4941.82,804.76z"/>
		<ellipse class="st8" cx="4727.03" cy="775.61" rx="55.48" ry="22.16"/>
		<ellipse class="st8" cx="4344.26" cy="862.73" rx="56.53" ry="22.58"/>
		<ellipse class="st8" cx="4295.46" cy="787.82" rx="63.94" ry="25.53"/>
		<ellipse class="st8" cx="4571.98" cy="846.77" rx="51.87" ry="20.71"/>
		<ellipse class="st8" cx="4605.8" cy="795.63" rx="49.26" ry="19.67"/>
		<ellipse class="st8" cx="4755.44" cy="847.66" rx="110.72" ry="44.22"/>
		<ellipse class="st8" cx="4167.28" cy="780.31" rx="51.87" ry="20.71"/>
		<ellipse class="st8" cx="4468.23" cy="875.24" rx="51.89" ry="20.23"/>
		<ellipse class="st8" cx="4447.14" cy="813.36" rx="85.91" ry="34.31"/>
		<ellipse class="st8" cx="3818.31" cy="869.76" rx="58.19" ry="23.24"/>
		<ellipse class="st8" cx="3768.07" cy="792.65" rx="65.82" ry="26.28"/>
		<ellipse class="st8" cx="4052.7" cy="853.32" rx="53.39" ry="21.32"/>
		<ellipse class="st8" cx="4072.93" cy="805.16" rx="50.71" ry="20.25"/>
		<ellipse class="st8" cx="4197.16" cy="840.16" rx="85.91" ry="34.31"/>
		<ellipse class="st8" cx="3945.91" cy="882.63" rx="53.41" ry="20.82"/>
		<ellipse class="st8" cx="3924.2" cy="818.93" rx="88.43" ry="35.31"/>
		<ellipse class="st8" cx="3612.39" cy="783.89" rx="55.48" ry="22.16"/>
		<ellipse class="st8" cx="3229.62" cy="871.01" rx="56.54" ry="22.58"/>
		<ellipse class="st8" cx="3180.82" cy="796.1" rx="63.94" ry="25.53"/>
		<ellipse class="st8" cx="3457.34" cy="855.04" rx="51.87" ry="20.71"/>
		<ellipse class="st8" cx="3491.16" cy="803.91" rx="49.26" ry="19.67"/>
		<ellipse class="st8" cx="3640.8" cy="855.94" rx="110.72" ry="44.22"/>
		<ellipse class="st8" cx="3052.64" cy="788.58" rx="51.87" ry="20.71"/>
		<ellipse class="st8" cx="3353.59" cy="883.51" rx="51.89" ry="20.23"/>
		<ellipse class="st8" cx="3332.5" cy="821.63" rx="85.91" ry="34.31"/>
		<ellipse class="st8" cx="2703.67" cy="878.03" rx="58.19" ry="23.24"/>
		<ellipse class="st8" cx="2653.43" cy="800.92" rx="65.82" ry="26.28"/>
		<ellipse class="st8" cx="2938.07" cy="861.6" rx="53.39" ry="21.32"/>
		<ellipse class="st8" cx="2958.29" cy="813.44" rx="50.71" ry="20.25"/>
		<ellipse class="st8" cx="3082.52" cy="848.43" rx="85.91" ry="34.31"/>
		<ellipse class="st8" cx="2831.27" cy="890.9" rx="53.41" ry="20.82"/>
		<ellipse class="st8" cx="2809.56" cy="827.21" rx="88.43" ry="35.31"/>
		<ellipse class="st8" cx="1770.38" cy="796.54" rx="51.89" ry="20.23"/>
		<ellipse class="st8" cx="1639.3" cy="782.92" rx="51.89" ry="20.23"/>
		<ellipse class="st8" cx="1293.94" cy="782.92" rx="51.89" ry="20.23"/>
		<ellipse class="st8" cx="1177.88" cy="791.89" rx="51.89" ry="20.23"/>
		<ellipse class="st8" cx="1055.36" cy="782.92" rx="51.89" ry="20.23"/>
		<ellipse class="st8" cx="662.74" cy="800.15" rx="51.89" ry="20.23"/>
		<ellipse class="st8" cx="519.99" cy="791.89" rx="51.89" ry="20.23"/>
		<ellipse class="st8" cx="192.1" cy="797.07" rx="51.89" ry="20.23"/>
		<ellipse class="st8" cx="1998.5" cy="766.35" rx="51.89" ry="20.23"/>
		<ellipse class="st8" cx="2302.04" cy="786.91" rx="51.89" ry="20.23"/>
	</g>
	<path id="bushesOverRoad" class="st6" d="M4952.73,650.43c-27.64,1.19-50.28,18.02-56.88,40.04c-0.09,0.04-0.18,0.07-0.26,0.11
		c-2.36,0.71-4.65,1.54-6.87,2.48c-6-13.49-20.47-22.68-36.97-21.97c-2.14,0.09-4.23,0.36-6.27,0.77
		c-7.92-2.99-16.72-4.55-25.95-4.33c-10.99-7.34-24.98-11.47-40.05-10.82c-22.22,0.96-41.22,12.03-51.24,27.78
		c-3.7,4.71-6.54,9.94-8.35,15.53c-0.75-0.14-1.49-0.28-2.25-0.39c-2.7-0.67-5.47-1.18-8.3-1.53c-6.32-9.23-17.01-15.51-29.22-16.36
		c-10.13-5.48-22.27-8.44-35.2-7.88c-2.59,0.11-5.13,0.38-7.62,0.75c-9.9-5.11-21.62-7.84-34.08-7.31
		c-4.74,0.2-9.32,0.88-13.71,1.95c-7.33-2.68-15.39-4.19-23.86-4.19c-24.81,0-46.13,12.73-55.72,31.02
		c-8.26-5.82-18.34-9.76-29.36-11.15c-5.05-2.3-10.71-3.59-16.69-3.59c-2.15,0-4.24,0.18-6.29,0.5c-7.78-3.33-16.51-5.27-25.74-5.44
		c-10.66-7.81-24.46-12.54-39.55-12.54c-22.25,0-41.7,10.24-52.39,25.54c-4.15,4.83-7.35,10.28-9.4,16.17
		c-2.37,0.96-4.65,2.05-6.84,3.26c-4.64-12.93-16.87-22.59-31.73-24.27c-9.88-5.92-21.88-9.39-34.83-9.4
		c-2.59,0-5.14,0.15-7.64,0.42c-9.67-5.53-21.26-8.77-33.74-8.77c-33.77-0.01-61.15,23.57-61.15,52.66c0,0.18,0.01,0.35,0.01,0.53
		c-4.81,0.52-9.34,1.91-13.41,4c-3.87-25.88-29.54-45.88-60.63-45.88c-26.3,0-48.71,14.3-57.35,34.36
		c-11.1-13.26-29.18-21.91-49.61-21.91c-30.3,0-55.44,18.97-60.3,43.88c-8.93,0.63-17.01,4.12-23.19,9.51
		c-5.45-9.03-14.92-15.63-26.13-17.64c-7.03-17.88-24.9-31.44-46.87-34.9c-5.36-1.32-11.01-2.05-16.86-2.05
		c-10.35,0-20.09,2.21-28.63,6.12c-6.03-12.47-19.39-21.14-34.93-21.15c-7.69,0-14.85,2.13-20.85,5.79
		c-10.98-14.03-29.6-23.27-50.73-23.27c-27.66,0-51.01,15.83-58.56,37.54c-0.09,0.04-0.18,0.07-0.27,0.1
		c-2.39,0.61-4.71,1.33-6.97,2.18c-5.41-13.74-19.47-23.54-35.98-23.55c-2.15,0-4.24,0.18-6.29,0.5
		c-7.78-3.33-16.51-5.27-25.74-5.44c-10.66-7.81-24.46-12.54-39.55-12.54c-22.25,0-41.7,10.24-52.39,25.54
		c-4.15,4.83-7.35,10.28-9.4,16.17c-2.37,0.96-4.65,2.05-6.84,3.26c-4.64-12.93-16.87-22.59-31.73-24.27
		c-9.88-5.92-21.88-9.39-34.83-9.4c-2.59,0-5.14,0.15-7.64,0.42c-9.67-5.53-21.26-8.77-33.74-8.77c-25.86,0-47.96,13.83-56.9,33.37
		c-2.78,0.94-5.42,2.16-7.86,3.65c-10.98-14.03-29.6-23.27-50.73-23.27c-0.41,0-0.82,0.01-1.22,0.02
		c-5.83-1.59-12.03-2.46-18.47-2.46c-24.07,0-44.88,11.98-54.86,29.39c-6.95-6.58-16.57-10.67-27.22-10.67
		c-2.15,0-4.24,0.18-6.29,0.5c-7.78-3.33-16.51-5.27-25.74-5.44c-10.66-7.81-24.46-12.54-39.55-12.54
		c-22.25,0-41.7,10.24-52.39,25.54c-4.15,4.83-7.35,10.28-9.4,16.17c-2.37,0.96-4.65,2.05-6.84,3.26
		c-4.64-12.93-16.87-22.59-31.73-24.27c-9.88-5.92-21.88-9.39-34.83-9.4c-2.59,0-5.14,0.15-7.64,0.42
		c-9.67-5.53-21.26-8.77-33.74-8.77c-33.77-0.01-61.15,23.57-61.15,52.66c0,0.18,0.01,0.35,0.01,0.53c-4.81,0.52-9.34,1.91-13.41,4
		c-3.87-25.88-29.54-45.88-60.63-45.88c-7.93,0-15.5,1.31-22.46,3.68c-10.62-7.66-24.29-12.28-39.22-12.28
		c-30.3,0-55.44,18.97-60.3,43.88c-8.93,0.63-17.01,4.12-23.19,9.51c-5.45-9.03-14.92-15.63-26.13-17.64
		c-7.03-17.88-24.9-31.44-46.87-34.9c-5.36-1.32-11.01-2.05-16.86-2.05c-10.35,0-20.09,2.21-28.63,6.12
		c-6.03-12.47-19.39-21.14-34.93-21.15c-7.69,0-14.85,2.13-20.85,5.79c-10.98-14.03-29.6-23.27-50.73-23.27
		c-27.66,0-51.01,15.83-58.56,37.54c-0.09,0.04-0.18,0.07-0.27,0.1c-2.39,0.61-4.71,1.33-6.97,2.18
		c-5.41-13.74-19.47-23.54-35.98-23.55c-2.15,0-4.24,0.18-6.29,0.5c-7.78-3.33-16.51-5.27-25.74-5.44
		c-10.66-7.81-24.46-12.54-39.55-12.54c-22.25,0-41.7,10.24-52.39,25.54c-4.15,4.83-7.35,10.28-9.4,16.17
		c-2.37,0.96-4.65,2.05-6.84,3.26c-4.64-12.93-16.87-22.59-31.73-24.27c-9.88-5.92-21.88-9.39-34.83-9.4
		c-2.59,0-5.14,0.15-7.64,0.42c-9.67-5.53-21.26-8.77-33.74-8.77c-33.77-0.01-61.15,23.57-61.15,52.66c0,0.18,0.01,0.35,0.01,0.53
		c-4.81,0.52-9.34,1.91-13.41,4c-3.87-25.88-29.54-45.88-60.63-45.88c-15.13,0-28.97,4.74-39.64,12.58
		c-4.62-0.96-9.44-1.48-14.4-1.49c-30.3,0-55.44,18.97-60.3,43.88c-8.93,0.63-17.01,4.12-23.19,9.51
		c-5.45-9.03-14.92-15.63-26.13-17.64c-7.03-17.88-24.9-31.44-46.87-34.9c-5.36-1.32-11.01-2.05-16.86-2.05
		c-10.35,0-20.09,2.21-28.63,6.12c-6.03-12.47-19.39-21.14-34.93-21.15c-7.69,0-14.85,2.13-20.85,5.79
		c-10.98-14.03-29.6-23.27-50.73-23.27c-27.66,0-51.01,15.83-58.56,37.54c-0.09,0.04-0.18,0.07-0.27,0.1
		c-2.39,0.61-4.71,1.33-6.97,2.18c-5.41-13.74-19.47-23.54-35.98-23.55c-2.15,0-4.24,0.18-6.29,0.5
		c-7.78-3.33-16.51-5.27-25.74-5.44c-10.66-7.81-24.46-12.54-39.55-12.54c-22.25,0-41.7,10.24-52.39,25.54
		c-4.15,4.83-7.35,10.28-9.4,16.17c-2.37,0.96-4.65,2.05-6.84,3.26c-4.64-12.93-16.87-22.59-31.73-24.27
		c-9.88-5.92-21.88-9.39-34.83-9.4c-2.59,0-5.14,0.15-7.64,0.42c-9.67-5.53-21.26-8.77-33.74-8.77
		c-33.77-0.01-61.15,23.57-61.15,52.66c0,0.18,0.01,0.35,0.01,0.53c-4.81,0.52-9.34,1.91-13.41,4
		c-3.87-25.88-29.54-45.88-60.63-45.88c-24.34,0-45.35,12.25-55.2,29.98c-7.22-7.07-17.45-11.36-28.72-11.04
		c-7.69,0.22-14.78,2.55-20.68,6.37c-11.37-13.72-30.25-22.42-51.36-21.83c-27.65,0.78-50.54,17.26-57.48,39.18
		c-0.09,0.04-0.18,0.07-0.26,0.11c-2.37,0.68-4.67,1.47-6.9,2.37c-5.8-13.58-20.13-22.98-36.63-22.52c-2.14,0.06-4.24,0.3-6.28,0.68
		c-7.88-3.11-16.65-4.8-25.88-4.72c-10.88-7.5-24.8-11.84-39.89-11.42c-22.24,0.62-41.39,11.41-51.65,27.01
		c-4.01,4.94-7.06,10.49-8.94,16.43c-2.34,1.03-4.59,2.18-6.74,3.45c-5-12.8-17.5-22.1-32.4-23.36
		c-10.05-5.63-22.14-8.77-35.08-8.41c-2.59,0.07-5.13,0.3-7.63,0.64c-9.82-5.25-21.5-8.17-33.97-7.82
		c-33.76,0.95-60.46,25.29-59.64,54.37c0,0.18,0.02,0.35,0.02,0.53c-0.75,0.1-1.49,0.23-2.23,0.38
		c-6.11-12.77-17.87-23.03-32.61-28.43c-10.94-7.7-25.05-12.15-40.35-11.72c-33.76,0.95-60.46,25.29-59.64,54.37
		c0.01,0.48,0.05,0.96,0.08,1.44c-2.72,1.42-5.24,3.13-7.5,5.1c-5.45-9.03-14.92-15.63-26.13-17.64
		c-7.03-17.88-24.9-31.44-46.87-34.9c-5.36-1.32-11.01-2.05-16.86-2.05c-10.35,0-20.09,2.21-28.63,6.12
		c-6.03-12.47-19.39-21.14-34.93-21.15c-7.69,0-14.85,2.13-20.85,5.79c-10.98-14.03-29.6-23.27-50.73-23.27
		c-27.66,0-51.01,15.83-58.56,37.54c-0.09,0.04-0.18,0.07-0.27,0.1c-2.39,0.61-4.71,1.33-6.97,2.18
		c-2.63-6.67-7.3-12.41-13.29-16.55v122.89c0.95-0.54,1.88-1.11,2.78-1.72c3.17,2.55,7.28,4.1,11.78,4.1
		c6.42,0,12.05-3.14,15.27-7.87c4.38,0.86,8.94,1.32,13.62,1.33c3.01,0,5.97-0.2,8.87-0.56c1.2,1.57,2.68,2.94,4.37,4.05
		c3.19,2.63,7.37,4.23,11.95,4.24c6.16,0,11.6-2.89,14.87-7.3c3.37,0.91,6.93,1.41,10.61,1.41c4.58,0,8.96-0.75,13.03-2.13
		c3.16,4.97,8.94,8.3,15.56,8.3c3.87,0,7.45-1.14,10.39-3.08c5.93,3.53,12.96,5.59,20.51,5.59c8.42,0,16.2-2.55,22.53-6.87
		c3.17,2.55,7.28,4.1,11.78,4.1c6.54,0,12.27-3.25,15.45-8.13c2.5,0.27,5.04,0.41,7.63,0.41c4.61,0,9.11-0.44,13.43-1.28
		c3.05,5.36,9.06,9,15.98,9c4.72,0,9-1.71,12.22-4.48c3.01-1.27,5.58-3.29,7.45-5.81c3.37,0.91,6.93,1.41,10.61,1.41
		c4.57,0,8.96-0.75,13.03-2.13c3.16,4.97,8.94,8.3,15.56,8.3c3.87,0,7.45-1.14,10.39-3.08c5.93,3.53,12.96,5.59,20.51,5.59
		c4.21,0,8.27-0.64,12.06-1.82c1.88,0.56,3.88,0.85,5.97,0.79c3.58-0.1,6.88-1.18,9.64-2.94c2.06,0.77,4.3,1.2,6.65,1.2
		c6.54,0,12.27-3.25,15.45-8.13c2.5,0.27,5.04,0.41,7.63,0.41c1.9,0,3.76-0.09,5.61-0.24c3.38,3.13,8.07,5.01,13.2,4.86
		c0.05,0,0.1-0.01,0.15-0.01c2.95,1.96,6.55,3.11,10.44,3.11c9.56,0,17.38-6.96,18.05-15.78c5.25,2.48,11.22,3.81,17.52,3.63
		c6.84-0.19,13.18-2.13,18.58-5.34c3.4,4.26,8.88,6.95,14.98,6.78c6.37-0.18,11.87-3.43,14.96-8.2c0.64-0.17,1.27-0.36,1.88-0.59
		c-0.01,0.35-0.02,0.69-0.01,1.04c0.26,9.39,8.58,16.77,18.58,16.49c7.02-0.2,12.99-4.13,15.84-9.7c0.49-0.49,0.95-1,1.37-1.54
		c2.66,1.31,5.7,2.03,8.93,1.94c5.95-0.17,11.15-3.01,14.34-7.27c2.4,7,9.48,11.96,17.71,11.73c4.79-0.13,9.08-2.02,12.24-4.96
		c3.08,2.36,7,3.79,11.29,3.82c3.65,0.02,7.05-0.98,9.91-2.7c10.52,6.58,23.58,10.3,37.63,9.91c3.26-0.09,6.46-0.4,9.57-0.92
		c3.29,4.92,9.19,8.12,15.83,7.93c6.16-0.17,11.51-3.21,14.66-7.71c3.39,0.81,6.96,1.21,10.64,1.11c4.57-0.13,8.94-1.01,12.97-2.5
		c3.3,4.88,9.17,8.05,15.78,7.86c3.87-0.11,7.41-1.35,10.3-3.37c6.03,3.36,13.12,5.22,20.66,5.01c8.42-0.24,16.12-3.01,22.33-7.5
		c3.24,2.46,7.39,3.89,11.89,3.76c6.42-0.18,11.96-3.48,15.04-8.3c4.4,0.74,8.97,1.07,13.65,0.94c3.01-0.08,5.97-0.37,8.85-0.81
		c1.24,1.54,2.76,2.87,4.48,3.93c3.26,2.54,7.49,4.02,12.06,3.9c6.16-0.17,11.51-3.21,14.66-7.71c3.39,0.81,6.96,1.21,10.64,1.11
		c4.57-0.13,8.94-1.01,12.97-2.5c3.3,4.88,9.17,8.05,15.78,7.86c3.87-0.11,7.41-1.35,10.3-3.37c6.03,3.36,13.12,5.22,20.66,5.01
		c8.42-0.24,16.12-3.01,22.33-7.5c3.24,2.46,7.39,3.89,11.89,3.76c6.54-0.18,12.17-3.6,15.22-8.56c2.51,0.2,5.05,0.27,7.64,0.19
		c4.61-0.13,9.09-0.7,13.39-1.65c3.2,5.27,9.31,8.74,16.23,8.55c4.72-0.13,8.95-1.96,12.09-4.82c2.97-1.36,5.49-3.45,7.28-6.01
		c3.39,0.81,6.96,1.21,10.64,1.11c4.57-0.13,8.94-1.01,12.97-2.5c3.3,4.88,9.17,8.05,15.78,7.86c3.87-0.11,7.41-1.35,10.3-3.37
		c6.03,3.36,13.12,5.22,20.66,5.01c8.42-0.24,16.12-3.01,22.33-7.5c3.24,2.46,7.39,3.89,11.89,3.76c6.54-0.18,12.17-3.6,15.22-8.56
		c2.51,0.2,5.05,0.27,7.64,0.19c4.61-0.13,9.09-0.7,13.39-1.65c3.2,5.27,9.31,8.74,16.23,8.55c10-0.28,17.89-8.12,17.62-17.51
		c-0.04-1.26-0.22-2.48-0.53-3.66c0.73,0.08,1.47,0.14,2.23,0.14c4.79,0,9.14-1.76,12.37-4.61c3.01,2.45,6.89,3.99,11.18,4.13
		c3.64,0.12,7.07-0.78,9.98-2.42c10.33,6.87,23.28,10.97,37.34,10.97c3.26,0,6.47-0.22,9.59-0.65c3.15,5.01,8.95,8.37,15.6,8.37
		c6.16,0,11.6-2.89,14.87-7.3c3.37,0.91,6.93,1.41,10.61,1.41c4.58,0,8.96-0.75,13.03-2.13c3.16,4.97,8.94,8.3,15.56,8.3
		c3.87,0,7.45-1.14,10.39-3.08c5.93,3.53,12.96,5.59,20.51,5.59c8.42,0,16.2-2.55,22.53-6.87c3.17,2.55,7.28,4.1,11.78,4.1
		c6.42,0,12.05-3.14,15.27-7.87c4.38,0.86,8.94,1.32,13.62,1.33c3.01,0,5.97-0.2,8.87-0.56c1.2,1.57,2.68,2.94,4.37,4.05
		c3.19,2.63,7.37,4.23,11.95,4.24c6.16,0,11.6-2.89,14.87-7.3c3.37,0.91,6.93,1.41,10.61,1.41c4.58,0,8.96-0.75,13.03-2.13
		c3.16,4.97,8.94,8.3,15.56,8.3c3.87,0,7.45-1.14,10.39-3.08c5.93,3.53,12.96,5.59,20.51,5.59c8.42,0,16.2-2.55,22.53-6.87
		c3.17,2.55,7.28,4.1,11.78,4.1c6.54,0,12.27-3.25,15.45-8.13c2.5,0.27,5.04,0.41,7.63,0.41c4.61,0,9.11-0.44,13.43-1.28
		c3.05,5.36,9.06,9,15.98,9c4.72,0,9-1.71,12.22-4.48c3.01-1.27,5.58-3.29,7.45-5.81c3.37,0.91,6.93,1.41,10.61,1.41
		c4.58,0,8.96-0.75,13.03-2.13c3.16,4.97,8.94,8.3,15.56,8.3c3.87,0,7.45-1.14,10.39-3.08c5.93,3.53,12.96,5.59,20.51,5.59
		c8.42,0,16.2-2.55,22.53-6.87c3.17,2.55,7.28,4.1,11.78,4.1c6.54,0,12.27-3.25,15.45-8.13c2.5,0.27,5.04,0.41,7.63,0.41
		c4.61,0,9.11-0.44,13.43-1.28c3.05,5.36,9.06,9,15.98,9c8.33,0,15.34-5.29,17.45-12.49c2.2,0.9,4.64,1.4,7.19,1.4
		c5.95,0,11.23-2.7,14.54-6.86c2.2,7.06,9.14,12.23,17.38,12.23c10,0,18.11-7.61,18.11-17c0-1.27-0.15-2.51-0.44-3.71
		c6.74,7.9,17.09,12.97,28.71,12.97c6.84,0,13.24-1.76,18.72-4.81c3.28,4.35,8.68,7.2,14.79,7.2c6.37,0,11.96-3.1,15.19-7.77
		c0.65-0.15,1.28-0.32,1.9-0.53c-0.02,0.35-0.04,0.69-0.04,1.04c0,9.39,8.11,17.01,18.11,17.01c7.02,0,13.1-3.76,16.11-9.25
		c0.5-0.48,0.98-0.97,1.41-1.5c2.62,1.39,5.64,2.19,8.87,2.19c5.95,0,11.23-2.7,14.54-6.86c2.2,7.06,9.14,12.23,17.38,12.23
		c4.79,0,9.14-1.76,12.37-4.61c3.01,2.45,6.89,3.99,11.18,4.13c3.64,0.12,7.07-0.78,9.98-2.42c10.33,6.87,23.28,10.97,37.34,10.97
		c3.26,0,6.47-0.22,9.59-0.65c3.15,5.01,8.95,8.37,15.6,8.37c6.16,0,11.6-2.89,14.87-7.3c3.37,0.91,6.93,1.41,10.61,1.41
		c4.58,0,8.96-0.75,13.03-2.13c3.16,4.97,8.94,8.3,15.56,8.3c3.87,0,7.45-1.14,10.39-3.08c5.93,3.53,12.96,5.59,20.51,5.59
		c8.42,0,16.2-2.55,22.53-6.87c3.17,2.55,7.28,4.1,11.78,4.1c6.42,0,12.05-3.14,15.27-7.87c4.38,0.86,8.94,1.32,13.62,1.33
		c3.01,0,5.97-0.2,8.87-0.56c1.2,1.57,2.68,2.94,4.37,4.05c3.19,2.63,7.37,4.23,11.95,4.24c6.16,0,11.59-2.89,14.87-7.3
		c3.37,0.91,6.93,1.41,10.61,1.41c4.58,0,8.96-0.75,13.03-2.13c3.16,4.97,8.94,8.3,15.56,8.3c3.87,0,7.45-1.14,10.39-3.08
		c5.93,3.53,12.96,5.59,20.51,5.59c8.42,0,16.2-2.55,22.53-6.87c3.17,2.55,7.28,4.1,11.78,4.1c6.54,0,12.27-3.25,15.45-8.13
		c2.5,0.27,5.04,0.41,7.63,0.41c4.61,0,9.11-0.44,13.43-1.28c3.05,5.36,9.06,9,15.98,9c4.72,0,9-1.71,12.22-4.48
		c3.01-1.27,5.58-3.29,7.45-5.81c3.37,0.91,6.93,1.41,10.61,1.41c4.57,0,8.96-0.75,13.03-2.13c3.16,4.97,8.94,8.3,15.56,8.3
		c3.87,0,7.45-1.14,10.39-3.08c5.93,3.53,12.96,5.59,20.51,5.59c8.42,0,16.2-2.55,22.53-6.87c3.17,2.55,7.28,4.1,11.78,4.1
		c6.54,0,12.27-3.25,15.45-8.13c1.07,0.11,2.15,0.19,3.23,0.26c3.2,4.82,8.87,8.03,15.36,8.03c2.2,0,4.31-0.37,6.25-1.04
		c-0.02,0.35-0.04,0.69-0.04,1.04c0,9.39,8.11,17.01,18.11,17.01c7.77,0,14.39-4.59,16.97-11.04c2.74,1.57,5.97,2.48,9.42,2.48
		c5.95,0,11.23-2.7,14.54-6.86c2.2,7.06,9.14,12.23,17.38,12.23c10,0,18.11-7.61,18.11-17c0-1.27-0.15-2.51-0.44-3.71
		c6.74,7.9,17.09,12.97,28.71,12.97c6.84,0,13.24-1.76,18.72-4.81c3.28,4.35,8.68,7.2,14.79,7.2c6.37,0,11.96-3.1,15.19-7.77
		c0.65-0.15,1.28-0.32,1.9-0.53c-0.02,0.35-0.04,0.69-0.04,1.04c0,9.39,8.11,17.01,18.11,17.01c7.02,0,13.1-3.76,16.11-9.25
		c0.5-0.48,0.98-0.97,1.41-1.5c2.62,1.39,5.64,2.19,8.87,2.19c5.95,0,11.23-2.7,14.54-6.86c2.2,7.06,9.14,12.23,17.38,12.23
		c4.79,0,9.14-1.76,12.37-4.61c3.01,2.45,6.89,3.99,11.18,4.13c3.64,0.12,7.07-0.78,9.98-2.42c10.33,6.87,23.28,10.97,37.34,10.97
		c3.26,0,6.47-0.22,9.59-0.65c3.15,5.01,8.95,8.37,15.6,8.37c6.16,0,11.6-2.89,14.87-7.3c3.37,0.91,6.93,1.41,10.61,1.41
		c4.58,0,8.96-0.75,13.03-2.13c3.16,4.97,8.94,8.3,15.56,8.3c3.87,0,7.45-1.14,10.39-3.08c5.93,3.53,12.96,5.59,20.51,5.59
		c8.42,0,16.2-2.55,22.53-6.87c3.17,2.55,7.28,4.1,11.78,4.1c6.42,0,12.05-3.14,15.27-7.87c4.38,0.86,8.94,1.32,13.62,1.33
		c3.01,0,5.97-0.2,8.87-0.56c1.2,1.57,2.68,2.94,4.37,4.05c3.19,2.63,7.37,4.23,11.95,4.24c6.16,0,11.6-2.89,14.87-7.3
		c3.37,0.91,6.93,1.41,10.61,1.41c4.57,0,8.96-0.75,13.03-2.13c3.16,4.97,8.94,8.3,15.56,8.3c3.87,0,7.45-1.14,10.39-3.08
		c5.93,3.53,12.96,5.59,20.51,5.59c8.42,0,16.2-2.55,22.53-6.87c3.17,2.55,7.28,4.1,11.78,4.1c6.54,0,12.27-3.25,15.45-8.13
		c2.5,0.27,5.04,0.41,7.63,0.41c4.61,0,9.11-0.44,13.43-1.28c3.05,5.36,9.06,9,15.98,9c4.72,0,9-1.71,12.22-4.48
		c3.01-1.27,5.58-3.29,7.45-5.81c3.37,0.91,6.93,1.41,10.61,1.41c4.58,0,8.96-0.75,13.03-2.13c3.16,4.97,8.94,8.3,15.56,8.3
		c3.87,0,7.45-1.14,10.39-3.08c5.93,3.53,12.96,5.59,20.51,5.59c8.42,0,16.2-2.55,22.53-6.87c3.17,2.55,7.28,4.1,11.78,4.1
		c6.54,0,12.27-3.25,15.45-8.13c2.5,0.27,5.04,0.41,7.63,0.41c4.61,0,9.11-0.44,13.43-1.28c3.05,5.36,9.06,9,15.98,9
		c8.37,0,15.39-5.33,17.47-12.57c3.55,1.02,7.32,1.58,11.22,1.58c8.42,0,16.2-2.55,22.53-6.87c3.17,2.55,7.28,4.1,11.78,4.1
		c6.42,0,12.05-3.14,15.27-7.87c4.38,0.86,8.94,1.32,13.62,1.33c3.01,0,5.97-0.2,8.87-0.56c1.2,1.57,2.68,2.94,4.37,4.05
		c3.19,2.63,7.37,4.23,11.95,4.23c6.16,0,11.6-2.89,14.87-7.3c3.37,0.91,6.93,1.41,10.61,1.41c4.57,0,8.96-0.75,13.03-2.13
		c3.16,4.97,8.94,8.3,15.56,8.3c3.87,0,7.45-1.14,10.39-3.08c5.93,3.53,12.96,5.59,20.51,5.59c8.42,0,16.2-2.55,22.53-6.87
		c3.17,2.55,7.28,4.1,11.78,4.1c6.54,0,12.27-3.25,15.45-8.13c2.5,0.27,5.04,0.41,7.63,0.41c4.61,0,9.11-0.44,13.43-1.28
		c3.05,5.36,9.06,9,15.98,9c4.72,0,9-1.71,12.22-4.48c3.01-1.27,5.58-3.29,7.45-5.81c3.37,0.91,6.93,1.41,10.61,1.41
		c4.58,0,8.96-0.75,13.03-2.13c3.16,4.97,8.94,8.3,15.56,8.3c3.87,0,7.45-1.14,10.39-3.08c5.93,3.53,12.96,5.59,20.51,5.59
		c8.42,0,16.2-2.55,22.53-6.87c3.17,2.55,7.28,4.1,11.78,4.1c6.54,0,12.27-3.25,15.45-8.13c2.5,0.27,5.04,0.41,7.63,0.41
		c4.61,0,9.11-0.44,13.43-1.28c3.05,5.36,9.06,9,15.98,9c10,0,18.11-7.61,18.11-17c0-2.46-0.56-4.8-1.57-6.92
		c2.92,1.9,6.47,3.03,10.3,3.03c2.2,0,4.31-0.37,6.25-1.04c-0.02,0.35-0.04,0.69-0.04,1.04c0,9.39,8.11,17.01,18.11,17.01
		c7.77,0,14.39-4.59,16.97-11.04c2.74,1.57,5.97,2.48,9.42,2.48c5.95,0,11.23-2.7,14.54-6.86c2.2,7.06,9.14,12.23,17.38,12.23
		c10,0,18.11-7.61,18.11-17c0-1.27-0.15-2.51-0.44-3.71c6.74,7.9,17.09,12.97,28.71,12.97c6.84,0,13.24-1.76,18.72-4.81
		c3.28,4.35,8.68,7.2,14.79,7.2c6.37,0,11.96-3.1,15.19-7.77c0.65-0.15,1.28-0.32,1.9-0.53c-0.02,0.35-0.04,0.69-0.04,1.04
		c0,9.39,8.1,17.01,18.11,17.01c7.02,0,13.1-3.76,16.11-9.25c0.5-0.48,0.98-0.97,1.41-1.5c2.62,1.39,5.64,2.19,8.87,2.19
		c5.95,0,11.23-2.7,14.54-6.86c2.2,7.06,9.14,12.23,17.38,12.23c4.79,0,9.14-1.76,12.37-4.61c3.01,2.45,6.89,3.99,11.18,4.13
		c3.64,0.12,7.07-0.78,9.98-2.42c10.33,6.87,23.28,10.97,37.34,10.97c3.26,0,6.47-0.22,9.59-0.65c3.15,5.01,8.96,8.37,15.6,8.37
		c6.16,0,11.6-2.89,14.87-7.3c3.37,0.91,6.93,1.41,10.61,1.41c4.58,0,8.96-0.75,13.03-2.13c3.16,4.97,8.94,8.3,15.56,8.3
		c3.87,0,7.45-1.14,10.39-3.08c5.93,3.53,12.96,5.59,20.51,5.59c8.42,0,16.2-2.55,22.53-6.87c3.17,2.55,7.28,4.1,11.78,4.1
		c6.42,0,12.05-3.14,15.27-7.87c4.38,0.86,8.94,1.32,13.62,1.33c3.01,0,5.97-0.2,8.87-0.56c1.2,1.57,2.68,2.94,4.37,4.05
		c3.19,2.63,7.37,4.23,11.95,4.24c6.16,0,11.6-2.89,14.87-7.3c3.37,0.91,6.93,1.41,10.61,1.41c4.58,0,8.96-0.75,13.03-2.13
		c3.16,4.97,8.94,8.3,15.56,8.3c3.87,0,7.45-1.14,10.39-3.08c5.93,3.53,12.96,5.59,20.51,5.59c8.42,0,16.2-2.55,22.53-6.87
		c3.17,2.55,7.28,4.1,11.78,4.1c6.54,0,12.27-3.25,15.45-8.13c2.5,0.27,5.04,0.41,7.63,0.41c4.61,0,9.11-0.44,13.43-1.28
		c3.05,5.36,9.06,9,15.98,9c4.72,0,9-1.71,12.22-4.48c3.01-1.27,5.58-3.29,7.45-5.81c3.37,0.91,6.93,1.41,10.61,1.41
		c3.17,0,6.24-0.37,9.19-1.05c1.87,0.91,3.94,1.51,6.11,1.75c3.31,3.36,8.03,5.47,13.29,5.47c3.87,0,7.45-1.14,10.39-3.08
		c5.93,3.53,12.96,5.59,20.51,5.59c8.42,0,16.2-2.55,22.53-6.87c3.17,2.55,7.28,4.1,11.78,4.1c5.76,0,10.89-2.52,14.2-6.46
		c1.96-0.31,3.88-0.77,5.72-1.35c1.05,0.05,2.09,0.09,3.15,0.09c4.61,0,9.11-0.44,13.43-1.28c3.05,5.36,9.06,9,15.98,9
		c10,0,18.11-7.61,18.11-17c0-0.33-0.01-0.66-0.03-0.99c0.55-0.01,1.1-0.01,1.66-0.03c3.01-0.13,5.96-0.46,8.84-0.94
		c1.27,1.52,2.81,2.83,4.54,3.86c3.3,2.49,7.55,3.91,12.12,3.71c6.15-0.27,11.46-3.39,14.54-7.93c3.41,0.76,6.98,1.11,10.66,0.95
		c4.57-0.2,8.92-1.14,12.93-2.69c2.89,4.13,7.64,6.98,13.09,7.53V666.9C4988.3,656.08,4971.34,649.63,4952.73,650.43z"/>
</g>
<path id="bg8" class="st9" d="M4998.32,851.02c-3.17-2.55-7.29-4.08-11.79-4.08c-6.42,0.01-12.05,3.16-15.25,7.9
	c-4.38-0.85-8.94-1.31-13.63-1.3c-3.01,0.01-5.97,0.21-8.87,0.58c-1.2-1.57-2.69-2.94-4.38-4.05c-3.19-2.63-7.38-4.22-11.96-4.21
	c-6.16,0.01-11.59,2.91-14.85,7.32c-3.37-0.9-6.93-1.39-10.61-1.39c-4.58,0.01-8.96,0.77-13.03,2.16
	c-3.17-4.97-8.96-8.29-15.57-8.28c-3.87,0.01-7.45,1.15-10.39,3.1c-5.94-3.52-12.97-5.56-20.52-5.55
	c-8.42,0.01-16.2,2.58-22.52,6.91c-3.17-2.55-7.29-4.08-11.79-4.08c-6.54,0.01-12.26,3.28-15.44,8.16c-0.95-0.1-1.92-0.16-2.89-0.23
	c-3.19-2.63-7.38-4.22-11.96-4.22c-3.13,0.01-6.07,0.77-8.64,2.09c-3.32-3.51-8.16-5.73-13.56-5.72c-1.83,0-3.59,0.27-5.25,0.75
	v0.58c-1.14-0.09-2.29-0.16-3.45-0.16c-8.42,0.01-16.2,2.58-22.52,6.91c-3.17-2.55-7.29-4.08-11.79-4.08
	c-6.42,0.01-12.05,3.16-15.25,7.9c-4.38-0.85-8.94-1.31-13.62-1.3c-3.01,0.01-5.97,0.21-8.87,0.58c-1.2-1.57-2.69-2.94-4.38-4.05
	c-3.19-2.63-7.38-4.22-11.96-4.21c-6.16,0.01-11.59,2.91-14.85,7.32c-3.37-0.9-6.93-1.39-10.61-1.39
	c-4.58,0.01-8.96,0.77-13.03,2.16c-3.17-4.97-8.96-8.29-15.57-8.28c-3.87,0.01-7.45,1.15-10.39,3.1
	c-5.94-3.52-12.97-5.56-20.52-5.55c-8.42,0.01-16.2,2.58-22.52,6.91c-3.17-2.55-7.29-4.08-11.79-4.08
	c-6.54,0.01-12.26,3.28-15.44,8.16c-2.5-0.26-5.04-0.4-7.63-0.39c-4.61,0.01-9.11,0.46-13.43,1.3c-3.06-5.35-9.07-8.99-15.99-8.98
	c-4.72,0.01-9,1.72-12.21,4.5c-3.01,1.28-5.58,3.3-7.44,5.82c-3.37-0.9-6.93-1.39-10.61-1.39c-4.57,0.01-8.96,0.77-13.03,2.16
	c-3.17-4.97-8.96-8.29-15.57-8.28c-3.87,0.01-7.45,1.15-10.39,3.1c-5.94-3.52-12.97-5.56-20.52-5.55
	c-4.21,0.01-8.26,0.65-12.05,1.84c-1.88-0.55-3.88-0.84-5.97-0.78c-3.58,0.11-6.88,1.19-9.63,2.96c-2.06-0.76-4.3-1.19-6.65-1.19
	c-6.54,0.01-12.26,3.28-15.44,8.16c-2.5-0.26-5.05-0.4-7.63-0.39c-1.9,0-3.76,0.1-5.61,0.25c-3.39-3.12-8.08-4.99-13.21-4.84
	c-0.05,0-0.1,0.01-0.15,0.01c-2.95-1.96-6.56-3.1-10.45-3.1c-9.56,0.02-17.36,6.99-18.02,15.81c-5.26-2.47-11.22-3.79-17.52-3.6
	c-6.84,0.2-13.18,2.15-18.57,5.37c-3.41-4.25-8.89-6.93-15-6.75c-6.37,0.19-11.86,3.46-14.95,8.22c-0.64,0.17-1.27,0.36-1.88,0.59
	c0.01-0.35,0.02-0.69,0.01-1.04c-0.28-9.39-8.61-16.76-18.61-16.46c-7.02,0.21-12.98,4.15-15.82,9.73c-0.48,0.49-0.95,1-1.37,1.54
	c-2.66-1.31-5.71-2.02-8.93-1.92c-5.95,0.18-11.15,3.03-14.32,7.29c-2.41-6.99-9.51-11.95-17.74-11.7
	c-4.79,0.14-9.08,2.03-12.23,4.98c-3.08-2.35-7.01-3.78-11.3-3.8c-3.65-0.01-7.05,0.99-9.9,2.72c-10.53-6.56-23.59-10.26-37.65-9.84
	c-3.26,0.1-6.46,0.42-9.57,0.93c-3.3-4.91-9.2-8.1-15.84-7.9c-6.16,0.18-11.5,3.23-14.64,7.74c-3.4-0.81-6.96-1.2-10.64-1.09
	c-4.57,0.14-8.94,1.02-12.96,2.52c-3.31-4.87-9.19-8.03-15.8-7.83c-3.87,0.12-7.41,1.36-10.29,3.39
	c-6.04-3.35-13.12-5.19-20.67-4.97c-8.42,0.25-16.12,3.04-22.31,7.54c-3.24-2.46-7.4-3.88-11.9-3.74
	c-6.42,0.19-11.95,3.5-15.03,8.32c-4.41-0.73-8.97-1.06-13.66-0.92c-3.01,0.09-5.97,0.38-8.85,0.83c-1.25-1.54-2.77-2.86-4.49-3.92
	c-3.27-2.54-7.49-4.01-12.07-3.87c-6.16,0.18-11.5,3.23-14.64,7.74c-3.4-0.81-6.96-1.2-10.64-1.09c-4.57,0.14-8.94,1.02-12.96,2.52
	c-3.31-4.87-9.19-8.03-15.8-7.83c-3.87,0.12-7.41,1.36-10.29,3.39c-6.04-3.35-13.12-5.19-20.67-4.97
	c-8.42,0.25-16.12,3.04-22.31,7.54c-3.24-2.46-7.4-3.88-11.9-3.74c-6.54,0.2-12.16,3.62-15.2,8.59c-2.51-0.19-5.05-0.26-7.64-0.18
	c-4.61,0.14-9.09,0.72-13.38,1.68c-3.21-5.26-9.32-8.73-16.24-8.52c-4.72,0.14-8.94,1.98-12.08,4.85c-2.97,1.36-5.48,3.46-7.27,6.03
	c-3.4-0.81-6.96-1.2-10.64-1.09c-4.57,0.14-8.94,1.02-12.96,2.52c-3.31-4.87-9.19-8.03-15.8-7.83c-3.87,0.12-7.41,1.36-10.29,3.39
	c-6.04-3.35-13.12-5.19-20.67-4.97c-8.42,0.25-16.12,3.04-22.31,7.54c-3.24-2.46-7.4-3.88-11.9-3.74c-6.54,0.2-12.16,3.62-15.2,8.59
	c-2.51-0.19-5.05-0.26-7.64-0.18c-4.61,0.14-9.09,0.72-13.38,1.68c-3.21-5.26-9.32-8.73-16.24-8.52c-10,0.3-17.87,8.15-17.59,17.54
	c0.04,1.26,0.23,2.48,0.54,3.66c-0.73-0.08-1.47-0.14-2.23-0.14c-4.79,0.01-9.13,1.78-12.37,4.63c-3.02-2.44-6.9-3.97-11.19-4.11
	c-3.64-0.12-7.07,0.79-9.98,2.44c-10.34-6.85-23.3-10.92-37.36-10.9c-3.26,0.01-6.47,0.23-9.59,0.66c-3.16-5-8.97-8.36-15.61-8.35
	c-6.16,0.01-11.59,2.91-14.85,7.32c-3.37-0.9-6.93-1.39-10.61-1.39c-4.58,0.01-8.96,0.77-13.03,2.16
	c-3.17-4.97-8.96-8.29-15.57-8.28c-3.87,0.01-7.45,1.15-10.39,3.1c-5.94-3.52-12.97-5.56-20.52-5.55
	c-8.42,0.01-16.2,2.58-22.52,6.91c-3.17-2.55-7.29-4.08-11.79-4.08c-6.42,0.01-12.05,3.16-15.25,7.9c-4.38-0.85-8.94-1.31-13.63-1.3
	c-3.01,0.01-5.97,0.21-8.87,0.58c-1.2-1.57-2.69-2.94-4.38-4.05c-3.19-2.63-7.38-4.22-11.96-4.21c-6.16,0.01-11.59,2.91-14.85,7.32
	c-3.37-0.9-6.93-1.39-10.61-1.39c-4.57,0.01-8.96,0.77-13.03,2.16c-3.17-4.97-8.96-8.29-15.57-8.28c-3.87,0.01-7.45,1.15-10.39,3.1
	c-5.94-3.52-12.97-5.56-20.52-5.55c-8.42,0.01-16.2,2.58-22.52,6.91c-3.17-2.55-7.29-4.08-11.79-4.08
	c-6.54,0.01-12.26,3.28-15.44,8.16c-2.5-0.26-5.05-0.4-7.63-0.39c-4.61,0.01-9.11,0.46-13.43,1.3c-3.06-5.35-9.07-8.99-15.99-8.98
	c-4.72,0.01-9,1.72-12.21,4.5c-3.01,1.28-5.58,3.3-7.44,5.82c-3.37-0.9-6.93-1.39-10.61-1.39c-4.58,0.01-8.96,0.77-13.03,2.16
	c-3.17-4.97-8.96-8.29-15.57-8.28c-3.87,0.01-7.45,1.15-10.39,3.1c-5.94-3.52-12.97-5.56-20.52-5.55
	c-8.42,0.01-16.2,2.58-22.52,6.91c-3.17-2.55-7.29-4.08-11.79-4.08c-6.54,0.01-12.26,3.28-15.44,8.16c-2.5-0.26-5.05-0.4-7.63-0.39
	c-4.61,0.01-9.11,0.46-13.43,1.3c-3.06-5.35-9.07-8.99-15.99-8.98c-8.33,0.01-15.33,5.32-17.42,12.52
	c-2.21-0.89-4.64-1.39-7.19-1.39c-5.95,0.01-11.23,2.72-14.52,6.89c-2.21-7.06-9.17-12.21-17.4-12.2c-10,0.02-18.1,7.64-18.08,17.04
	c0,1.27,0.16,2.51,0.44,3.71c-6.75-7.89-17.12-12.94-28.74-12.92c-6.84,0.01-13.24,1.78-18.72,4.84c-3.29-4.35-8.69-7.18-14.8-7.17
	c-6.37,0.01-11.96,3.12-15.17,7.8c-0.65,0.15-1.28,0.32-1.9,0.54c0.02-0.35,0.04-0.69,0.04-1.04c-0.02-9.39-8.14-16.99-18.14-16.98
	c-7.02,0.01-13.09,3.78-16.09,9.28c-0.5,0.48-0.98,0.97-1.41,1.5c-2.62-1.38-5.65-2.18-8.87-2.17c-5.95,0.01-11.23,2.72-14.52,6.89
	c-2.21-7.06-9.17-12.21-17.4-12.19c-4.79,0.01-9.13,1.78-12.37,4.63c-3.02-2.44-6.9-3.97-11.19-4.11c-3.64-0.12-7.07,0.79-9.98,2.44
	c-10.34-6.85-23.3-10.92-37.36-10.9c-3.26,0.01-6.47,0.23-9.59,0.66c-3.16-5-8.97-8.36-15.61-8.35c-6.16,0.01-11.59,2.91-14.85,7.32
	c-3.37-0.9-6.93-1.39-10.61-1.39c-4.58,0.01-8.96,0.77-13.03,2.16c-3.17-4.97-8.96-8.29-15.57-8.28c-3.87,0.01-7.45,1.15-10.39,3.1
	c-5.94-3.52-12.97-5.56-20.52-5.55c-8.42,0.01-16.2,2.58-22.52,6.91c-3.17-2.55-7.29-4.08-11.79-4.08
	c-6.42,0.01-12.05,3.16-15.25,7.9c-4.38-0.85-8.94-1.31-13.63-1.3c-3.01,0.01-5.97,0.21-8.87,0.58c-1.2-1.57-2.69-2.94-4.38-4.05
	c-3.19-2.63-7.38-4.22-11.96-4.21c-6.16,0.01-11.59,2.91-14.85,7.32c-3.37-0.9-6.93-1.39-10.61-1.39
	c-4.58,0.01-8.96,0.77-13.03,2.16c-3.17-4.97-8.96-8.29-15.57-8.28c-3.87,0.01-7.45,1.15-10.39,3.1
	c-5.94-3.52-12.97-5.56-20.52-5.55c-8.42,0.01-16.2,2.58-22.52,6.91c-3.17-2.55-7.29-4.08-11.79-4.08
	c-6.54,0.01-12.26,3.28-15.44,8.16c-2.5-0.26-5.05-0.4-7.63-0.39c-4.61,0.01-9.11,0.46-13.43,1.3c-3.06-5.35-9.07-8.99-15.99-8.98
	c-4.72,0.01-9,1.72-12.21,4.5c-3.01,1.28-5.58,3.3-7.44,5.82c-3.37-0.9-6.93-1.39-10.61-1.39c-4.58,0.01-8.96,0.77-13.03,2.16
	c-3.17-4.97-8.96-8.29-15.57-8.28c-3.87,0.01-7.45,1.15-10.39,3.1c-5.94-3.52-12.97-5.56-20.52-5.55
	c-8.42,0.01-16.2,2.58-22.52,6.91c-3.17-2.55-7.29-4.08-11.79-4.08c-6.54,0.01-12.26,3.28-15.44,8.16
	c-1.07-0.11-2.15-0.19-3.23-0.25c-3.21-4.81-8.89-8.02-15.38-8.01c-2.2,0-4.3,0.38-6.25,1.05c0.02-0.35,0.04-0.69,0.04-1.04
	c-0.02-9.39-8.14-16.99-18.14-16.98c-7.77,0.01-14.38,4.62-16.95,11.07c-2.75-1.57-5.97-2.47-9.43-2.47
	c-5.95,0.01-11.23,2.72-14.52,6.89c-2.21-7.06-9.17-12.21-17.4-12.19c-10,0.02-18.1,7.64-18.08,17.04c0,1.27,0.16,2.51,0.44,3.71
	c-6.75-7.89-17.12-12.94-28.74-12.92c-6.84,0.01-13.24,1.78-18.72,4.84c-3.29-4.35-8.69-7.18-14.8-7.17
	c-6.37,0.01-11.96,3.12-15.17,7.8c-0.65,0.15-1.28,0.32-1.9,0.54c0.02-0.35,0.04-0.69,0.04-1.04c-0.02-9.39-8.14-16.99-18.14-16.98
	c-7.02,0.01-13.09,3.78-16.09,9.28c-0.5,0.48-0.97,0.97-1.41,1.5c-2.62-1.38-5.65-2.18-8.87-2.17c-5.95,0.01-11.23,2.72-14.52,6.89
	c-2.21-7.06-9.17-12.21-17.4-12.19c-4.79,0.01-9.13,1.78-12.37,4.63c-3.02-2.44-6.9-3.97-11.19-4.11c-3.64-0.12-7.07,0.79-9.98,2.44
	c-10.34-6.85-23.3-10.92-37.36-10.9c-3.26,0.01-6.47,0.23-9.59,0.66c-3.16-5-8.97-8.36-15.61-8.35c-6.16,0.01-11.59,2.91-14.85,7.32
	c-3.37-0.9-6.93-1.39-10.61-1.39c-4.58,0.01-8.96,0.77-13.03,2.16c-3.17-4.97-8.96-8.29-15.57-8.28c-3.87,0.01-7.45,1.15-10.39,3.1
	c-5.94-3.52-12.97-5.56-20.52-5.55c-8.42,0.01-16.2,2.58-22.52,6.91c-3.17-2.55-7.29-4.08-11.79-4.08
	c-6.42,0.01-12.05,3.16-15.25,7.9c-4.38-0.85-8.94-1.31-13.63-1.3c-3.01,0.01-5.97,0.21-8.87,0.58c-1.2-1.57-2.69-2.94-4.38-4.05
	c-3.19-2.63-7.38-4.22-11.96-4.21c-6.16,0.01-11.59,2.91-14.85,7.32c-3.37-0.9-6.93-1.39-10.61-1.39
	c-4.58,0.01-8.96,0.77-13.03,2.16c-3.17-4.97-8.96-8.29-15.57-8.28c-3.87,0.01-7.45,1.15-10.39,3.1
	c-5.94-3.52-12.97-5.56-20.52-5.55c-8.42,0.01-16.2,2.58-22.52,6.91c-3.17-2.55-7.29-4.08-11.79-4.08
	c-6.54,0.01-12.26,3.28-15.44,8.16c-2.5-0.26-5.05-0.4-7.63-0.39c-4.61,0.01-9.11,0.46-13.43,1.3c-3.06-5.35-9.08-8.99-15.99-8.98
	c-4.72,0.01-9,1.72-12.21,4.5c-3.01,1.28-5.58,3.3-7.44,5.82c-3.37-0.9-6.93-1.39-10.61-1.39c-4.58,0.01-8.96,0.77-13.03,2.16
	c-3.17-4.97-8.96-8.29-15.57-8.28c-3.87,0.01-7.45,1.15-10.39,3.1c-5.94-3.52-12.97-5.56-20.52-5.55
	c-8.42,0.01-16.2,2.58-22.52,6.91c-3.17-2.55-7.29-4.08-11.79-4.08c-6.54,0.01-12.26,3.28-15.44,8.16c-2.5-0.26-5.05-0.4-7.63-0.39
	c-4.61,0.01-9.11,0.46-13.43,1.3c-3.06-5.35-9.07-8.99-15.99-8.98c-8.37,0.01-15.38,5.36-17.45,12.61
	c-3.55-1.02-7.32-1.57-11.23-1.56c-8.42,0.01-16.2,2.58-22.52,6.91c-3.17-2.55-7.29-4.08-11.79-4.08
	c-6.42,0.01-12.05,3.16-15.25,7.9c-4.38-0.85-8.94-1.31-13.63-1.3c-3.01,0.01-5.97,0.21-8.87,0.58c-1.2-1.57-2.69-2.94-4.38-4.05
	c-3.19-2.63-7.38-4.22-11.96-4.21c-6.16,0.01-11.59,2.91-14.85,7.32c-3.37-0.9-6.93-1.39-10.61-1.39
	c-4.58,0.01-8.96,0.77-13.03,2.16c-3.17-4.97-8.96-8.29-15.57-8.28c-3.87,0.01-7.45,1.15-10.39,3.1
	c-5.94-3.52-12.97-5.56-20.52-5.55c-8.42,0.01-16.2,2.58-22.52,6.91c-3.17-2.55-7.29-4.08-11.79-4.08
	c-6.54,0.01-12.26,3.28-15.44,8.16c-2.5-0.26-5.05-0.4-7.63-0.39c-4.61,0.01-9.11,0.46-13.43,1.3c-3.06-5.35-9.07-8.99-15.99-8.98
	c-4.72,0.01-9,1.72-12.21,4.5c-3.01,1.28-5.58,3.3-7.44,5.82c-3.37-0.9-6.93-1.39-10.61-1.39c-4.58,0.01-8.96,0.77-13.03,2.16
	c-3.17-4.97-8.96-8.29-15.57-8.28c-3.87,0.01-7.45,1.15-10.39,3.1c-5.94-3.52-12.97-5.56-20.52-5.55
	c-8.42,0.01-16.2,2.58-22.52,6.91c-3.17-2.55-7.29-4.08-11.79-4.08c-6.54,0.01-12.26,3.28-15.44,8.16c-2.5-0.26-5.05-0.4-7.63-0.39
	c-4.61,0.01-9.11,0.46-13.43,1.3c-3.06-5.35-9.07-8.99-15.99-8.98c-10,0.02-18.1,7.64-18.08,17.04c0,2.46,0.57,4.8,1.58,6.91
	c-2.93-1.9-6.48-3.01-10.3-3.01c-2.2,0-4.3,0.38-6.25,1.05c0.02-0.35,0.04-0.69,0.04-1.04c-0.02-9.39-8.14-16.99-18.14-16.98
	c-7.77,0.01-14.38,4.62-16.95,11.07c-2.75-1.57-5.97-2.47-9.43-2.47c-5.95,0.01-11.23,2.72-14.52,6.89
	c-2.21-7.06-9.17-12.21-17.4-12.19c-10,0.02-18.1,7.64-18.08,17.04c0,1.27,0.16,2.51,0.44,3.71c-6.75-7.89-17.11-12.94-28.74-12.92
	c-6.84,0.01-13.23,1.78-18.72,4.84c-3.29-4.35-8.69-7.18-14.8-7.17c-6.37,0.01-11.96,3.12-15.17,7.8c-0.65,0.15-1.28,0.32-1.9,0.54
	c0.02-0.35,0.04-0.69,0.04-1.04c-0.02-9.39-8.14-16.99-18.14-16.98c-7.02,0.01-13.09,3.78-16.09,9.28c-0.5,0.48-0.97,0.97-1.41,1.5
	c-2.62-1.38-5.65-2.18-8.87-2.17c-5.95,0.01-11.23,2.72-14.52,6.89c-2.21-7.06-9.17-12.21-17.4-12.19
	c-4.79,0.01-9.13,1.78-12.37,4.63c-3.01-2.44-6.9-3.97-11.19-4.11c-3.64-0.12-7.07,0.79-9.98,2.44
	c-10.34-6.85-23.3-10.92-37.36-10.9c-3.26,0.01-6.47,0.23-9.59,0.66c-3.16-5-8.97-8.36-15.61-8.35c-6.16,0.01-11.59,2.91-14.85,7.32
	c-3.37-0.9-6.93-1.39-10.61-1.39c-4.58,0.01-8.96,0.77-13.03,2.16c-3.17-4.97-8.96-8.29-15.57-8.28c-3.87,0.01-7.45,1.15-10.39,3.1
	c-5.94-3.52-12.97-5.56-20.52-5.55c-8.42,0.01-16.2,2.58-22.52,6.91c-3.17-2.55-7.29-4.08-11.79-4.08
	c-6.42,0.01-12.05,3.16-15.25,7.9c-4.38-0.85-8.94-1.31-13.63-1.3c-3.01,0.01-5.97,0.21-8.87,0.58c-1.2-1.57-2.69-2.94-4.38-4.05
	c-3.19-2.63-7.38-4.22-11.96-4.21c-6.16,0.01-11.59,2.91-14.85,7.32c-3.37-0.9-6.93-1.39-10.61-1.39
	c-4.58,0.01-8.96,0.77-13.03,2.16c-3.17-4.97-8.96-8.29-15.57-8.28c-3.87,0.01-7.45,1.15-10.39,3.1
	c-5.94-3.52-12.97-5.56-20.52-5.55c-8.42,0.01-16.2,2.58-22.52,6.91c-3.17-2.55-7.29-4.08-11.79-4.08
	c-6.54,0.01-12.26,3.28-15.44,8.16c-2.5-0.26-5.05-0.4-7.63-0.39c-4.61,0.01-9.11,0.46-13.43,1.3c-3.06-5.35-9.08-8.99-15.99-8.98
	c-1.83,0-3.59,0.27-5.25,0.75v103.44v3.36h5001.3v-0.41V849.18C5000.28,849.76,4999.28,850.37,4998.32,851.02z"/>
</svg>
