<?xml version="1.0" encoding="utf-8"?>
<!-- Generator: Adobe Illustrator 26.5.1, SVG Export Plug-In . SVG Version: 6.00 Build 0)  -->
<svg version="1.1" id="obstacle" xmlns="http://www.w3.org/2000/svg" xmlns:xlink="http://www.w3.org/1999/xlink" x="0px" y="0px"
	 viewBox="0 0 350 325" style="enable-background:new 0 0 350 325;" xml:space="preserve">
<style type="text/css">
	.st0{fill:#3C2E1E;stroke:#000000;stroke-width:5;stroke-miterlimit:10;}
	.st1{fill:#3A4929;stroke:#000000;stroke-width:5;stroke-miterlimit:10;}
	.st2{fill:#384CA0;stroke:#000000;stroke-width:5;stroke-miterlimit:10;}
	.st3{fill:#58595B;stroke:#000000;stroke-width:5;stroke-miterlimit:10;}
</style>
<g id="bush2">
	<path class="st0" d="M94.73,275.41l19.32-22.34l31.78,0.48c2.4,0.04,4.37-1.88,4.41-4.28l0.02-1.13c0.04-2.4-1.88-4.37-4.28-4.41
		l-23.56-0.36l28.42-32.87c0.28-0.32,0.52-0.66,0.74-1.01l-5.85,3.2l3.62-9.42l-8.86,4.85l3.19-8.28l-1.07,0.59l-8.86,4.85
		l1.17-3.03L81.53,264c-1.57,1.82-2.26,4.1-2.1,6.33c0.16,2.22,1.17,4.39,2.99,5.96C86.07,279.45,91.58,279.05,94.73,275.41z"/>
	<path class="st1" d="M306.87,244.45c0.49-1.25,0.76-2.6,0.75-4.02c-0.01-3.89-2.05-7.3-5.12-9.24c-1.5-5.06-5.51-9.26-10.98-10.75
		c-0.48-0.13-0.96-0.23-1.43-0.31c-0.52-2.47-1.64-4.7-3.19-6.52c0.31-0.57,0.62-1.15,0.89-1.75c0.47,0.01,0.95-0.01,1.43-0.07
		c6.24-0.71,10.73-6.34,10.02-12.59c-0.16-1.43-0.59-2.76-1.21-3.97c0.36-0.67,0.66-1.38,0.89-2.13c1.6-5.29-0.84-10.84-5.54-13.34
		c0.06-0.85,0.08-1.71,0.07-2.55c0.8-1.23,1.44-2.58,1.89-4.06c2.31-7.63-1.41-15.65-8.42-18.94c0.02-0.05,0.04-0.11,0.05-0.16
		c2.1-6.93-1.82-14.25-8.75-16.35c-1.27-0.39-2.56-0.57-3.82-0.56c2.16-7.55-1.55-15.43-8.48-18.69c0.02-0.05,0.04-0.11,0.05-0.16
		c2.1-6.93-1.82-14.25-8.75-16.35c-5.13-1.55-10.46,0.19-13.75,4.01c-1.05-0.83-2.27-1.48-3.62-1.9c-3.72-1.13-7.58-0.17-10.33,2.19
		c-0.74-0.01-1.48,0.05-2.22,0.14c-1.03-0.56-2.14-1.02-3.32-1.35c-5.47-1.51-11.06,0.05-14.93,3.65c-1.5-0.23-3.04-0.35-4.6-0.35
		c-4.62,0-9,1.05-12.91,2.91c-2.28-1.44-4.99-2.28-7.89-2.28c-3.05,0-5.89,0.93-8.24,2.51c-0.53-0.38-1.08-0.74-1.64-1.08
		c0.06-0.47,0.09-0.94,0.09-1.43c0-6.28-5.09-11.38-11.38-11.38c-5.53,0-10.13,3.94-11.16,9.17c-0.83,0.19-1.66,0.41-2.46,0.67
		c-1.41-0.41-2.89-0.63-4.43-0.63c-7.97,0-14.57,5.88-15.69,13.55c-0.06,0-0.11,0-0.17,0c-7.24,0-13.11,5.87-13.11,13.11
		c0,3.63,1.48,6.91,3.86,9.28c-2.3,1.46-3.95,3.73-4.67,6.29c-4.42,2.89-7.3,7.92-7.17,13.59c0.13,5.67,3.24,10.57,7.8,13.25
		c0.21,1.5,0.54,3.01,0.99,4.51c1.33,4.43,3.6,8.31,6.51,11.53c-0.72,2.6-0.75,5.43,0.09,8.21c0.88,2.92,2.58,5.37,4.78,7.17
		c-0.21,0.62-0.4,1.25-0.57,1.88c-0.46,0.08-0.93,0.18-1.39,0.32c-6.02,1.81-9.42,8.16-7.61,14.18c1.59,5.29,6.7,8.57,12,8.04
		c0.42,0.74,0.87,1.47,1.36,2.17c0.01,1.46,0.23,2.95,0.67,4.42c0.67,2.23,1.8,4.2,3.24,5.85c-0.9,2.58-1.47,5.32-1.63,8.17
		c-5.96,1.89-10.29,7.47-10.3,14.06c-0.01,8.16,6.59,14.78,14.75,14.8c3.05,0,5.89-0.92,8.24-2.5c0.53,0.38,1.08,0.74,1.64,1.09
		c-0.06,0.47-0.09,0.94-0.09,1.43c-0.01,6.28,5.08,11.39,11.36,11.39c4.33,0.01,8.1-2.42,10.02-5.98c1.11,0.77,2.36,1.39,3.73,1.8
		c5.13,1.54,10.46-0.22,13.73-4.05c1.05,0.83,2.27,1.48,3.63,1.88c3.73,1.12,7.58,0.15,10.32-2.22c0.74,0,1.48-0.05,2.22-0.15
		c1.04,0.56,2.15,1.01,3.33,1.33c5.47,1.49,11.06-0.09,14.92-3.69c1.5,0.23,3.04,0.34,4.6,0.33c4.62-0.01,9-1.08,12.9-2.95
		c2.29,1.44,4.99,2.27,7.89,2.26c3.05-0.01,5.88-0.94,8.23-2.54c0.54,0.38,1.08,0.74,1.64,1.08c-0.06,0.47-0.09,0.94-0.09,1.43
		c0.02,6.28,5.13,11.36,11.41,11.34c5.53-0.02,10.12-3.98,11.13-9.21c0.83-0.19,1.66-0.42,2.46-0.68c1.41,0.4,2.89,0.62,4.43,0.62
		c7.97-0.03,14.55-5.93,15.64-13.6c0.06,0,0.11,0,0.17,0c7.24-0.02,13.09-5.91,13.07-13.15
		C314.71,251.06,311.48,246.47,306.87,244.45z"/>
	<circle class="st2" cx="170.3" cy="195.07" r="8.72"/>
	<circle class="st2" cx="269.22" cy="195.59" r="8.72"/>
	<path class="st1" d="M272.64,229.16c-0.19,0.63-0.41,1.25-0.64,1.86c2.12,1.88,3.73,4.39,4.5,7.34
		c2.06,7.89-2.68,15.96-10.57,18.02c-6.38,1.66-12.87-1.11-16.21-6.4c-15.55,3.13-31.01-6.4-35.05-21.93
		c-0.4-1.51-0.66-3.03-0.82-4.54c-4.01-2.57-6.79-6.9-7.23-11.89c-0.03,0-0.06-0.01-0.09-0.01c-3.61,3.85-9.08,5.81-14.64,4.69
		c-5.56-1.12-9.84-5.03-11.68-9.98c-3.18-1.72-5.45-4.99-5.73-8.87c-0.1-1.42,0.08-2.79,0.48-4.07c-4.74-1.7-8.27-6.06-8.65-11.41
		c-0.51-7.22,4.93-13.5,12.16-14c0.05-0.01,0.11-0.01,0.17-0.01c0.58-7.73,6.74-14.06,14.7-14.62c1.53-0.11,3.03,0.01,4.46,0.31
		c0.79-0.31,1.59-0.6,2.41-0.84c0.66-5.29,4.97-9.55,10.49-9.94c6.27-0.44,11.71,4.28,12.16,10.55c0.03,0.48,0.03,0.96,0.01,1.43
		c0.58,0.3,1.15,0.63,1.71,0.96c2.24-1.75,5-2.87,8.04-3.08c8.14-0.58,15.2,5.55,15.78,13.69c0.35,4.93-1.76,9.45-5.27,12.39
		c4.05,1.37,7.36,4.68,8.52,9.13c0.01,0.05,0.03,0.11,0.04,0.17c7.69-0.85,15.05,4.05,17.06,11.77c0.39,1.49,0.54,2.98,0.5,4.44
		c0.46,0.72,0.88,1.45,1.27,2.22c5.32-0.32,10.29,3.14,11.69,8.49c1.59,6.08-2.06,12.29-8.14,13.88
		C273.57,229.01,273.1,229.1,272.64,229.16z"/>
	<path class="st3" d="M136.5,268.59c-0.74,1.64-17.29,16.65-19.82,16.39c-0.47-0.05-1.13-0.47-1.91-1.15
		c-4.86,0.67-12.01,0.75-13.8,0.75c-2.62,0-19.12-0.13-22.13-0.65c0,0-0.49-0.9-1.04-2.07c-3.94,0.69-7.54,1.25-8.83,1.28
		c0,0-3.85-4.57-3.77-6.19c0.08-1.62,4.75-5.62,5.75-6.62c1-1,0.3-8.5,1.45-9.45c1.15-0.95,17.54-3.09,18.5-3.65
		c0.46-0.27,1.16-1.72,1.95-3.24c-0.3-0.52-0.54-0.94-0.68-1.23c0,0,2.62-5.37,4.13-5.96c1.51-0.59,7.07,2.07,8.39,2.57
		c1.32,0.51,7.9-3.17,9.23-2.51c1.33,0.66,9.94,14.78,10.83,15.43c0.9,0.65,6.92,0.17,8.29,1.4
		C134.43,264.93,137.24,266.95,136.5,268.59z"/>
	<circle class="st2" cx="148.58" cy="144.14" r="8.72"/>
	<circle class="st2" cx="179.02" cy="239.14" r="8.72"/>
	<circle class="st2" cx="224.42" cy="261.44" r="8.72"/>
	<circle class="st2" cx="209.66" cy="173.04" r="8.72"/>
</g>
</svg>
