<?xml version="1.0" encoding="utf-8"?>
<!-- Generator: Adobe Illustrator 26.5.1, SVG Export Plug-In . SVG Version: 6.00 Build 0)  -->
<svg version="1.1" id="background" xmlns="http://www.w3.org/2000/svg" xmlns:xlink="http://www.w3.org/1999/xlink" x="0px" y="0px"
	 viewBox="0 0 5000 950" style="enable-background:new 0 0 5000 950;" xml:space="preserve">
<style type="text/css">
	.st0{fill:#D0DCE8;}
</style>
<polygon id="mtn2" class="st0" points="4998.29,276.79 4918.84,330.84 4812.01,240.75 4717.87,320.14 4657.81,269.49 
	4644.49,280.73 4597.08,240.75 4561.19,271.02 4474.81,198.17 4351.44,302.21 4312.64,269.49 4272.45,303.38 4190.49,234.27 
	4096.35,313.65 4036.29,263.01 4022.97,274.25 3975.56,234.27 3939.67,264.53 3853.29,191.69 3729.92,295.73 3691.12,263.01 
	3645.76,301.26 3606.15,267.86 3512.01,347.25 3451.96,296.6 3438.63,307.84 3391.22,267.86 3355.33,298.13 3268.95,225.28 
	3209.77,275.2 3142.9,218.8 3074.2,276.73 3063.09,267.36 2996.69,323.36 2975.29,341.4 2963.33,331.31 2939.46,351.44 
	2939.1,351.13 2815.12,246.57 2720.98,325.96 2660.93,275.31 2647.6,286.55 2600.19,246.57 2564.3,276.84 2477.92,204 
	2354.55,308.04 2315.75,275.31 2275.56,309.21 2193.6,240.09 2099.47,319.48 2039.41,268.83 2026.08,280.07 1978.67,240.09 
	1942.78,270.36 1856.4,197.51 1733.04,301.55 1694.23,268.83 1631.11,322.06 1549.81,259.1 1459.07,342.35 1396.95,294.25 
	1384.1,306.04 1335.07,268.07 1300.47,299.81 1211.13,230.64 1154.08,282.97 1084.92,229.42 1018.7,290.17 1007.2,281.27 
	943.19,339.99 922.57,358.91 910.19,349.32 887.19,370.43 886.82,370.14 758.58,270.84 667.84,354.09 605.72,305.99 592.88,317.78 
	543.84,279.81 509.24,311.55 419.9,242.37 300.98,351.47 260.85,320.4 222.1,355.94 137.33,290.3 87.57,335.95 85.89,334.84 
	0,277.92 0,505.34 0,950 5000,950 5000,449.87 5000,449.87 5000,277.92 "/>
</svg>
