<?xml version="1.0" encoding="utf-8"?>
<!-- Generator: Adobe Illustrator 26.5.1, SVG Export Plug-In . SVG Version: 6.00 Build 0)  -->
<svg version="1.1" id="background" xmlns="http://www.w3.org/2000/svg" xmlns:xlink="http://www.w3.org/1999/xlink" x="0px" y="0px"
	 viewBox="0 0 5000 950" style="enable-background:new 0 0 5000 950;" xml:space="preserve">
<style type="text/css">
	.st0{fill:#CDD3D1;}
</style>
<polygon id="mtn3" class="st0" points="4953.83,322.13 4943.09,314.96 4878.94,357.78 4858.27,371.58 4846.71,363.86 
	4823.65,379.25 4823.31,379.02 4703.52,299.06 4612.57,359.77 4554.55,321.04 4541.67,329.63 4495.86,299.06 4461.19,322.21 
	4377.74,266.5 4258.54,346.06 4221.05,321.04 4182.22,346.96 4103.04,294.1 4012.09,354.81 3954.06,316.08 3941.19,324.68 
	3895.38,294.1 3860.71,317.25 3777.25,261.54 3658.06,341.11 3620.57,316.08 3556.42,358.9 3541.92,368.58 3470.89,321.16 
	3379.94,381.87 3321.91,343.14 3309.04,351.74 3263.23,321.16 3228.56,344.31 3145.1,288.6 3087.92,326.77 3023.32,283.64 
	2956.94,327.95 2946.21,320.78 2882.05,363.61 2861.38,377.4 2849.82,369.69 2826.77,385.08 2826.42,384.84 2706.63,304.88 
	2615.68,365.59 2557.66,326.86 2544.78,335.46 2498.98,304.88 2464.3,328.03 2380.85,272.32 2261.66,351.89 2224.17,326.86 
	2185.34,352.78 2106.15,299.92 2015.2,360.64 1957.18,321.9 1944.3,330.5 1898.5,299.92 1863.82,323.07 1780.37,267.36 
	1661.18,346.93 1623.69,321.9 1559.53,364.73 1532.74,382.61 1416.76,312.01 1328.43,376.46 1268.84,340.19 1256.33,349.31 
	1209.29,320.67 1175.61,345.25 1089.91,293.07 1034.37,333.59 968.02,293.2 903.55,340.24 892.53,333.52 830.22,378.99 
	810.14,393.64 798.26,386.41 775.87,402.75 775.52,402.53 652.5,327.63 564.16,392.09 504.57,355.81 492.06,364.94 445.02,336.3 
	411.34,360.87 325.64,308.7 209.87,393.17 171.37,369.73 133.65,397.25 52.33,347.74 25.65,367.2 0,350.2 0,950 5000,950 
	5000,442.7 5000,291.3 "/>
</svg>
