<?xml version="1.0" encoding="utf-8"?>
<!-- Generator: Adobe Illustrator 26.5.1, SVG Export Plug-In . SVG Version: 6.00 Build 0)  -->
<svg version="1.1" id="background" xmlns="http://www.w3.org/2000/svg" xmlns:xlink="http://www.w3.org/1999/xlink" x="0px" y="0px"
	 viewBox="0 0 5000 950" style="enable-background:new 0 0 5000 950;" xml:space="preserve">
<style type="text/css">
	.st0{fill:#414042;}
	.st1{fill:#696E6F;}
	.st2{fill:#565624;}
</style>
<g id="road7">
	<rect id="road" x="-0.01" y="757.36" class="st0" width="5000.01" height="192.64"/>
	<g id="cobbleRoad">
		<path class="st1" d="M4966.16,927.16c0,8.89,14.71,16.43,35.15,19.15v-38.3C4980.86,910.73,4966.16,918.27,4966.16,927.16z"/>
		<path class="st1" d="M4995.64,848.22c-47.44,0-85.91,9.6-85.91,21.45s38.46,21.45,85.91,21.45c1.46,0,2.91-0.01,4.35-0.03v-42.85
			C4998.55,848.23,4997.1,848.22,4995.64,848.22z"/>
		<path class="st1" d="M28.51,840.07c48.84,0,88.43-15.81,88.43-35.31s-39.59-35.31-88.43-35.31c-10.62,0-20.81,0.75-30.25,2.12
			v66.39C7.7,839.32,17.89,840.07,28.51,840.07z"/>
		<ellipse class="st1" cx="2496.23" cy="805.08" rx="55.48" ry="22.16"/>
		<ellipse class="st1" cx="2113.46" cy="892.2" rx="56.54" ry="22.58"/>
		<ellipse class="st1" cx="2064.65" cy="817.29" rx="63.94" ry="25.53"/>
		<ellipse class="st1" cx="2341.18" cy="876.24" rx="51.87" ry="20.71"/>
		<ellipse class="st1" cx="2375" cy="825.1" rx="49.26" ry="19.67"/>
		<ellipse class="st1" cx="2524.64" cy="877.13" rx="110.72" ry="44.22"/>
		<ellipse class="st1" cx="1936.47" cy="809.78" rx="51.87" ry="20.71"/>
		<ellipse class="st1" cx="2237.42" cy="904.71" rx="51.89" ry="20.23"/>
		<ellipse class="st1" cx="2216.34" cy="842.83" rx="85.91" ry="34.31"/>
		<ellipse class="st1" cx="1587.51" cy="899.23" rx="58.19" ry="23.24"/>
		<ellipse class="st1" cx="1537.26" cy="822.12" rx="65.82" ry="26.28"/>
		<ellipse class="st1" cx="1821.9" cy="882.79" rx="53.39" ry="21.32"/>
		<ellipse class="st1" cx="1842.13" cy="834.63" rx="50.71" ry="20.25"/>
		<ellipse class="st1" cx="1966.36" cy="869.63" rx="85.91" ry="34.31"/>
		<ellipse class="st1" cx="1715.11" cy="912.1" rx="53.41" ry="20.82"/>
		<ellipse class="st1" cx="1693.4" cy="848.4" rx="88.43" ry="35.31"/>
		<ellipse class="st1" cx="1381.59" cy="813.36" rx="55.48" ry="22.16"/>
		<ellipse class="st1" cx="998.82" cy="900.48" rx="56.54" ry="22.58"/>
		<ellipse class="st1" cx="950.02" cy="825.57" rx="63.94" ry="25.53"/>
		<ellipse class="st1" cx="1226.54" cy="884.51" rx="51.87" ry="20.71"/>
		<ellipse class="st1" cx="1260.36" cy="833.38" rx="49.26" ry="19.67"/>
		<ellipse class="st1" cx="1410" cy="885.41" rx="110.72" ry="44.22"/>
		<ellipse class="st1" cx="821.84" cy="818.05" rx="51.87" ry="20.71"/>
		<ellipse class="st1" cx="1122.79" cy="912.98" rx="51.89" ry="20.23"/>
		<ellipse class="st1" cx="1101.7" cy="851.1" rx="85.91" ry="34.31"/>
		<ellipse class="st1" cx="480.87" cy="909.28" rx="58.19" ry="23.24"/>
		<ellipse class="st1" cx="422.63" cy="830.39" rx="65.82" ry="26.28"/>
		<ellipse class="st1" cx="707.26" cy="891.07" rx="53.39" ry="21.32"/>
		<ellipse class="st1" cx="727.49" cy="842.91" rx="50.71" ry="20.25"/>
		<ellipse class="st1" cx="851.72" cy="877.9" rx="85.91" ry="34.31"/>
		<ellipse class="st1" cx="600.47" cy="920.38" rx="53.41" ry="20.82"/>
		<ellipse class="st1" cx="578.76" cy="856.68" rx="88.43" ry="35.31"/>
		<ellipse class="st1" cx="275.54" cy="827.53" rx="55.48" ry="22.16"/>
		<ellipse class="st1" cx="120.49" cy="898.69" rx="51.87" ry="20.71"/>
		<ellipse class="st1" cx="154.32" cy="847.55" rx="49.26" ry="19.67"/>
		<ellipse class="st1" cx="303.95" cy="899.58" rx="110.72" ry="44.22"/>
		<path class="st1" d="M68.62,927.16c0-11.17-23.23-20.23-51.89-20.23c-5.86,0-11.49,0.38-16.74,1.08v38.3
			c5.25,0.7,10.88,1.08,16.74,1.08C45.39,947.39,68.62,938.33,68.62,927.16z"/>
		<path class="st1" d="M81.56,869.68c0-11.48-36.13-20.86-81.56-21.43v42.85C45.42,890.54,81.56,881.16,81.56,869.68z"/>
		<ellipse class="st1" cx="4906.05" cy="828.25" rx="39.89" ry="18.51"/>
		<ellipse class="st1" cx="4874.11" cy="778.47" rx="65.82" ry="26.28"/>
		<path class="st1" d="M4941.82,804.76c0,15.26,24.24,28.26,58.18,33.19v-66.39C4966.06,776.5,4941.82,789.49,4941.82,804.76z"/>
		<ellipse class="st1" cx="4727.03" cy="775.61" rx="55.48" ry="22.16"/>
		<ellipse class="st1" cx="4344.26" cy="862.73" rx="56.53" ry="22.58"/>
		<ellipse class="st1" cx="4295.46" cy="787.82" rx="63.94" ry="25.53"/>
		<ellipse class="st1" cx="4571.98" cy="846.77" rx="51.87" ry="20.71"/>
		<ellipse class="st1" cx="4605.8" cy="795.63" rx="49.26" ry="19.67"/>
		<ellipse class="st1" cx="4755.44" cy="847.66" rx="110.72" ry="44.22"/>
		<ellipse class="st1" cx="4167.28" cy="780.31" rx="51.87" ry="20.71"/>
		<ellipse class="st1" cx="4468.23" cy="875.24" rx="51.89" ry="20.23"/>
		<ellipse class="st1" cx="4447.14" cy="813.36" rx="85.91" ry="34.31"/>
		<ellipse class="st1" cx="3818.31" cy="869.76" rx="58.19" ry="23.24"/>
		<ellipse class="st1" cx="3768.07" cy="792.65" rx="65.82" ry="26.28"/>
		<ellipse class="st1" cx="4052.7" cy="853.32" rx="53.39" ry="21.32"/>
		<ellipse class="st1" cx="4072.93" cy="805.16" rx="50.71" ry="20.25"/>
		<ellipse class="st1" cx="4197.16" cy="840.16" rx="85.91" ry="34.31"/>
		<ellipse class="st1" cx="3945.91" cy="882.63" rx="53.41" ry="20.82"/>
		<ellipse class="st1" cx="3924.2" cy="818.93" rx="88.43" ry="35.31"/>
		<ellipse class="st1" cx="3612.39" cy="783.89" rx="55.48" ry="22.16"/>
		<ellipse class="st1" cx="3229.62" cy="871.01" rx="56.54" ry="22.58"/>
		<ellipse class="st1" cx="3180.82" cy="796.1" rx="63.94" ry="25.53"/>
		<ellipse class="st1" cx="3457.34" cy="855.04" rx="51.87" ry="20.71"/>
		<ellipse class="st1" cx="3491.16" cy="803.91" rx="49.26" ry="19.67"/>
		<ellipse class="st1" cx="3640.8" cy="855.94" rx="110.72" ry="44.22"/>
		<ellipse class="st1" cx="3052.64" cy="788.58" rx="51.87" ry="20.71"/>
		<ellipse class="st1" cx="3353.59" cy="883.51" rx="51.89" ry="20.23"/>
		<ellipse class="st1" cx="3332.5" cy="821.63" rx="85.91" ry="34.31"/>
		<ellipse class="st1" cx="2703.67" cy="878.03" rx="58.19" ry="23.24"/>
		<ellipse class="st1" cx="2653.43" cy="800.92" rx="65.82" ry="26.28"/>
		<ellipse class="st1" cx="2938.07" cy="861.6" rx="53.39" ry="21.32"/>
		<ellipse class="st1" cx="2958.29" cy="813.44" rx="50.71" ry="20.25"/>
		<ellipse class="st1" cx="3082.52" cy="848.43" rx="85.91" ry="34.31"/>
		<ellipse class="st1" cx="2831.27" cy="890.9" rx="53.41" ry="20.82"/>
		<ellipse class="st1" cx="2809.56" cy="827.21" rx="88.43" ry="35.31"/>
		<ellipse class="st1" cx="1770.38" cy="796.54" rx="51.89" ry="20.23"/>
		<ellipse class="st1" cx="1639.3" cy="782.92" rx="51.89" ry="20.23"/>
		<ellipse class="st1" cx="1293.94" cy="782.92" rx="51.89" ry="20.23"/>
		<ellipse class="st1" cx="1177.88" cy="791.89" rx="51.89" ry="20.23"/>
		<ellipse class="st1" cx="1055.36" cy="782.92" rx="51.89" ry="20.23"/>
		<ellipse class="st1" cx="662.74" cy="800.15" rx="51.89" ry="20.23"/>
		<ellipse class="st1" cx="519.99" cy="791.89" rx="51.89" ry="20.23"/>
		<ellipse class="st1" cx="192.1" cy="797.07" rx="51.89" ry="20.23"/>
		<ellipse class="st1" cx="1998.5" cy="766.35" rx="51.89" ry="20.23"/>
		<ellipse class="st1" cx="2302.04" cy="786.91" rx="51.89" ry="20.23"/>
	</g>
	<path id="bushesOverRoad" class="st2" d="M4952.73,650.43c-27.64,1.19-50.28,18.02-56.88,40.04c-0.09,0.04-0.18,0.07-0.26,0.11
		c-2.36,0.71-4.65,1.54-6.87,2.48c-6-13.49-20.47-22.68-36.97-21.97c-2.14,0.09-4.23,0.36-6.27,0.77
		c-7.92-2.99-16.72-4.55-25.95-4.33c-10.99-7.34-24.98-11.47-40.05-10.82c-22.22,0.96-41.22,12.03-51.24,27.78
		c-3.7,4.71-6.54,9.94-8.35,15.53c-0.75-0.14-1.49-0.28-2.25-0.39c-2.7-0.67-5.47-1.18-8.3-1.53c-6.32-9.23-17.01-15.51-29.22-16.36
		c-10.13-5.48-22.27-8.44-35.2-7.88c-2.59,0.11-5.13,0.38-7.62,0.75c-9.9-5.11-21.62-7.84-34.08-7.31
		c-4.74,0.2-9.32,0.88-13.71,1.95c-7.33-2.68-15.39-4.19-23.86-4.19c-24.81,0-46.13,12.73-55.72,31.02
		c-8.26-5.82-18.34-9.76-29.36-11.15c-5.05-2.3-10.71-3.59-16.69-3.59c-2.15,0-4.24,0.18-6.29,0.5c-7.78-3.33-16.51-5.27-25.74-5.44
		c-10.66-7.81-24.46-12.54-39.55-12.54c-22.25,0-41.7,10.24-52.39,25.54c-4.15,4.83-7.35,10.28-9.4,16.17
		c-2.37,0.96-4.65,2.05-6.84,3.26c-4.64-12.93-16.87-22.59-31.73-24.27c-9.88-5.92-21.88-9.39-34.83-9.4
		c-2.59,0-5.14,0.15-7.64,0.42c-9.67-5.53-21.26-8.77-33.74-8.77c-33.77-0.01-61.15,23.57-61.15,52.66c0,0.18,0.01,0.35,0.01,0.53
		c-4.81,0.52-9.34,1.91-13.41,4c-3.87-25.88-29.54-45.88-60.63-45.88c-26.3,0-48.71,14.3-57.35,34.36
		c-11.1-13.26-29.18-21.91-49.61-21.91c-30.3,0-55.44,18.97-60.3,43.88c-8.93,0.63-17.01,4.12-23.19,9.51
		c-5.45-9.03-14.92-15.63-26.13-17.64c-7.03-17.88-24.9-31.44-46.87-34.9c-5.36-1.32-11.01-2.05-16.86-2.05
		c-10.35,0-20.09,2.21-28.63,6.12c-6.03-12.47-19.39-21.14-34.93-21.15c-7.69,0-14.85,2.13-20.85,5.79
		c-10.98-14.03-29.6-23.27-50.73-23.27c-27.66,0-51.01,15.83-58.56,37.54c-0.09,0.04-0.18,0.07-0.27,0.1
		c-2.39,0.61-4.71,1.33-6.97,2.18c-5.41-13.74-19.47-23.54-35.98-23.55c-2.15,0-4.24,0.18-6.29,0.5
		c-7.78-3.33-16.51-5.27-25.74-5.44c-10.66-7.81-24.46-12.54-39.55-12.54c-22.25,0-41.7,10.24-52.39,25.54
		c-4.15,4.83-7.35,10.28-9.4,16.17c-2.37,0.96-4.65,2.05-6.84,3.26c-4.64-12.93-16.87-22.59-31.73-24.27
		c-9.88-5.92-21.88-9.39-34.83-9.4c-2.59,0-5.14,0.15-7.64,0.42c-9.67-5.53-21.26-8.77-33.74-8.77c-25.86,0-47.96,13.83-56.9,33.37
		c-2.78,0.94-5.42,2.16-7.86,3.65c-10.98-14.03-29.6-23.27-50.73-23.27c-0.41,0-0.82,0.01-1.22,0.02
		c-5.83-1.59-12.03-2.46-18.47-2.46c-24.07,0-44.88,11.98-54.86,29.39c-6.95-6.58-16.57-10.67-27.22-10.67
		c-2.15,0-4.24,0.18-6.29,0.5c-7.78-3.33-16.51-5.27-25.74-5.44c-10.66-7.81-24.46-12.54-39.55-12.54
		c-22.25,0-41.7,10.24-52.39,25.54c-4.15,4.83-7.35,10.28-9.4,16.17c-2.37,0.96-4.65,2.05-6.84,3.26
		c-4.64-12.93-16.87-22.59-31.73-24.27c-9.88-5.92-21.88-9.39-34.83-9.4c-2.59,0-5.14,0.15-7.64,0.42
		c-9.67-5.53-21.26-8.77-33.74-8.77c-33.77-0.01-61.15,23.57-61.15,52.66c0,0.18,0.01,0.35,0.01,0.53c-4.81,0.52-9.34,1.91-13.41,4
		c-3.87-25.88-29.54-45.88-60.63-45.88c-7.93,0-15.5,1.31-22.46,3.68c-10.62-7.66-24.29-12.28-39.22-12.28
		c-30.3,0-55.44,18.97-60.3,43.88c-8.93,0.63-17.01,4.12-23.19,9.51c-5.45-9.03-14.92-15.63-26.13-17.64
		c-7.03-17.88-24.9-31.44-46.87-34.9c-5.36-1.32-11.01-2.05-16.86-2.05c-10.35,0-20.09,2.21-28.63,6.12
		c-6.03-12.47-19.39-21.14-34.93-21.15c-7.69,0-14.85,2.13-20.85,5.79c-10.98-14.03-29.6-23.27-50.73-23.27
		c-27.66,0-51.01,15.83-58.56,37.54c-0.09,0.04-0.18,0.07-0.27,0.1c-2.39,0.61-4.71,1.33-6.97,2.18
		c-5.41-13.74-19.47-23.54-35.98-23.55c-2.15,0-4.24,0.18-6.29,0.5c-7.78-3.33-16.51-5.27-25.74-5.44
		c-10.66-7.81-24.46-12.54-39.55-12.54c-22.25,0-41.7,10.24-52.39,25.54c-4.15,4.83-7.35,10.28-9.4,16.17
		c-2.37,0.96-4.65,2.05-6.84,3.26c-4.64-12.93-16.87-22.59-31.73-24.27c-9.88-5.92-21.88-9.39-34.83-9.4
		c-2.59,0-5.14,0.15-7.64,0.42c-9.67-5.53-21.26-8.77-33.74-8.77c-33.77-0.01-61.15,23.57-61.15,52.66c0,0.18,0.01,0.35,0.01,0.53
		c-4.81,0.52-9.34,1.91-13.41,4c-3.87-25.88-29.54-45.88-60.63-45.88c-15.13,0-28.97,4.74-39.64,12.58
		c-4.62-0.96-9.44-1.48-14.4-1.49c-30.3,0-55.44,18.97-60.3,43.88c-8.93,0.63-17.01,4.12-23.19,9.51
		c-5.45-9.03-14.92-15.63-26.13-17.64c-7.03-17.88-24.9-31.44-46.87-34.9c-5.36-1.32-11.01-2.05-16.86-2.05
		c-10.35,0-20.09,2.21-28.63,6.12c-6.03-12.47-19.39-21.14-34.93-21.15c-7.69,0-14.85,2.13-20.85,5.79
		c-10.98-14.03-29.6-23.27-50.73-23.27c-27.66,0-51.01,15.83-58.56,37.54c-0.09,0.04-0.18,0.07-0.27,0.1
		c-2.39,0.61-4.71,1.33-6.97,2.18c-5.41-13.74-19.47-23.54-35.98-23.55c-2.15,0-4.24,0.18-6.29,0.5
		c-7.78-3.33-16.51-5.27-25.74-5.44c-10.66-7.81-24.46-12.54-39.55-12.54c-22.25,0-41.7,10.24-52.39,25.54
		c-4.15,4.83-7.35,10.28-9.4,16.17c-2.37,0.96-4.65,2.05-6.84,3.26c-4.64-12.93-16.87-22.59-31.73-24.27
		c-9.88-5.92-21.88-9.39-34.83-9.4c-2.59,0-5.14,0.15-7.64,0.42c-9.67-5.53-21.26-8.77-33.74-8.77
		c-33.77-0.01-61.15,23.57-61.15,52.66c0,0.18,0.01,0.35,0.01,0.53c-4.81,0.52-9.34,1.91-13.41,4
		c-3.87-25.88-29.54-45.88-60.63-45.88c-24.34,0-45.35,12.25-55.2,29.98c-7.22-7.07-17.45-11.36-28.72-11.04
		c-7.69,0.22-14.78,2.55-20.68,6.37c-11.37-13.72-30.25-22.42-51.36-21.83c-27.65,0.78-50.54,17.26-57.48,39.18
		c-0.09,0.04-0.18,0.07-0.26,0.11c-2.37,0.68-4.67,1.47-6.9,2.37c-5.8-13.58-20.13-22.98-36.63-22.52c-2.14,0.06-4.24,0.3-6.28,0.68
		c-7.88-3.11-16.65-4.8-25.88-4.72c-10.88-7.5-24.8-11.84-39.89-11.42c-22.24,0.62-41.39,11.41-51.65,27.01
		c-4.01,4.94-7.06,10.49-8.94,16.43c-2.34,1.03-4.59,2.18-6.74,3.45c-5-12.8-17.5-22.1-32.4-23.36
		c-10.05-5.63-22.14-8.77-35.08-8.41c-2.59,0.07-5.13,0.3-7.63,0.64c-9.82-5.25-21.5-8.17-33.97-7.82
		c-33.76,0.95-60.46,25.29-59.64,54.37c0,0.18,0.02,0.35,0.02,0.53c-0.75,0.1-1.49,0.23-2.23,0.38
		c-6.11-12.77-17.87-23.03-32.61-28.43c-10.94-7.7-25.05-12.15-40.35-11.72c-33.76,0.95-60.46,25.29-59.64,54.37
		c0.01,0.48,0.05,0.96,0.08,1.44c-2.72,1.42-5.24,3.13-7.5,5.1c-5.45-9.03-14.92-15.63-26.13-17.64
		c-7.03-17.88-24.9-31.44-46.87-34.9c-5.36-1.32-11.01-2.05-16.86-2.05c-10.35,0-20.09,2.21-28.63,6.12
		c-6.03-12.47-19.39-21.14-34.93-21.15c-7.69,0-14.85,2.13-20.85,5.79c-10.98-14.03-29.6-23.27-50.73-23.27
		c-27.66,0-51.01,15.83-58.56,37.54c-0.09,0.04-0.18,0.07-0.27,0.1c-2.39,0.61-4.71,1.33-6.97,2.18
		c-2.63-6.67-7.3-12.41-13.29-16.55v122.89c0.95-0.54,1.88-1.11,2.78-1.72c3.17,2.55,7.28,4.1,11.78,4.1
		c6.42,0,12.05-3.14,15.27-7.87c4.38,0.86,8.94,1.32,13.62,1.33c3.01,0,5.97-0.2,8.87-0.56c1.2,1.57,2.68,2.94,4.37,4.05
		c3.19,2.63,7.37,4.23,11.95,4.24c6.16,0,11.6-2.89,14.87-7.3c3.37,0.91,6.93,1.41,10.61,1.41c4.58,0,8.96-0.75,13.03-2.13
		c3.16,4.97,8.94,8.3,15.56,8.3c3.87,0,7.45-1.14,10.39-3.08c5.93,3.53,12.96,5.59,20.51,5.59c8.42,0,16.2-2.55,22.53-6.87
		c3.17,2.55,7.28,4.1,11.78,4.1c6.54,0,12.27-3.25,15.45-8.13c2.5,0.27,5.04,0.41,7.63,0.41c4.61,0,9.11-0.44,13.43-1.28
		c3.05,5.36,9.06,9,15.98,9c4.72,0,9-1.71,12.22-4.48c3.01-1.27,5.58-3.29,7.45-5.81c3.37,0.91,6.93,1.41,10.61,1.41
		c4.57,0,8.96-0.75,13.03-2.13c3.16,4.97,8.94,8.3,15.56,8.3c3.87,0,7.45-1.14,10.39-3.08c5.93,3.53,12.96,5.59,20.51,5.59
		c4.21,0,8.27-0.64,12.06-1.82c1.88,0.56,3.88,0.85,5.97,0.79c3.58-0.1,6.88-1.18,9.64-2.94c2.06,0.77,4.3,1.2,6.65,1.2
		c6.54,0,12.27-3.25,15.45-8.13c2.5,0.27,5.04,0.41,7.63,0.41c1.9,0,3.76-0.09,5.61-0.24c3.38,3.13,8.07,5.01,13.2,4.86
		c0.05,0,0.1-0.01,0.15-0.01c2.95,1.96,6.55,3.11,10.44,3.11c9.56,0,17.38-6.96,18.05-15.78c5.25,2.48,11.22,3.81,17.52,3.63
		c6.84-0.19,13.18-2.13,18.58-5.34c3.4,4.26,8.88,6.95,14.98,6.78c6.37-0.18,11.87-3.43,14.96-8.2c0.64-0.17,1.27-0.36,1.88-0.59
		c-0.01,0.35-0.02,0.69-0.01,1.04c0.26,9.39,8.58,16.77,18.58,16.49c7.02-0.2,12.99-4.13,15.84-9.7c0.49-0.49,0.95-1,1.37-1.54
		c2.66,1.31,5.7,2.03,8.93,1.94c5.95-0.17,11.15-3.01,14.34-7.27c2.4,7,9.48,11.96,17.71,11.73c4.79-0.13,9.08-2.02,12.24-4.96
		c3.08,2.36,7,3.79,11.29,3.82c3.65,0.02,7.05-0.98,9.91-2.7c10.52,6.58,23.58,10.3,37.63,9.91c3.26-0.09,6.46-0.4,9.57-0.92
		c3.29,4.92,9.19,8.12,15.83,7.93c6.16-0.17,11.51-3.21,14.66-7.71c3.39,0.81,6.96,1.21,10.64,1.11c4.57-0.13,8.94-1.01,12.97-2.5
		c3.3,4.88,9.17,8.05,15.78,7.86c3.87-0.11,7.41-1.35,10.3-3.37c6.03,3.36,13.12,5.22,20.66,5.01c8.42-0.24,16.12-3.01,22.33-7.5
		c3.24,2.46,7.39,3.89,11.89,3.76c6.42-0.18,11.96-3.48,15.04-8.3c4.4,0.74,8.97,1.07,13.65,0.94c3.01-0.08,5.97-0.37,8.85-0.81
		c1.24,1.54,2.76,2.87,4.48,3.93c3.26,2.54,7.49,4.02,12.06,3.9c6.16-0.17,11.51-3.21,14.66-7.71c3.39,0.81,6.96,1.21,10.64,1.11
		c4.57-0.13,8.94-1.01,12.97-2.5c3.3,4.88,9.17,8.05,15.78,7.86c3.87-0.11,7.41-1.35,10.3-3.37c6.03,3.36,13.12,5.22,20.66,5.01
		c8.42-0.24,16.12-3.01,22.33-7.5c3.24,2.46,7.39,3.89,11.89,3.76c6.54-0.18,12.17-3.6,15.22-8.56c2.51,0.2,5.05,0.27,7.64,0.19
		c4.61-0.13,9.09-0.7,13.39-1.65c3.2,5.27,9.31,8.74,16.23,8.55c4.72-0.13,8.95-1.96,12.09-4.82c2.97-1.36,5.49-3.45,7.28-6.01
		c3.39,0.81,6.96,1.21,10.64,1.11c4.57-0.13,8.94-1.01,12.97-2.5c3.3,4.88,9.17,8.05,15.78,7.86c3.87-0.11,7.41-1.35,10.3-3.37
		c6.03,3.36,13.12,5.22,20.66,5.01c8.42-0.24,16.12-3.01,22.33-7.5c3.24,2.46,7.39,3.89,11.89,3.76c6.54-0.18,12.17-3.6,15.22-8.56
		c2.51,0.2,5.05,0.27,7.64,0.19c4.61-0.13,9.09-0.7,13.39-1.65c3.2,5.27,9.31,8.74,16.23,8.55c10-0.28,17.89-8.12,17.62-17.51
		c-0.04-1.26-0.22-2.48-0.53-3.66c0.73,0.08,1.47,0.14,2.23,0.14c4.79,0,9.14-1.76,12.37-4.61c3.01,2.45,6.89,3.99,11.18,4.13
		c3.64,0.12,7.07-0.78,9.98-2.42c10.33,6.87,23.28,10.97,37.34,10.97c3.26,0,6.47-0.22,9.59-0.65c3.15,5.01,8.95,8.37,15.6,8.37
		c6.16,0,11.6-2.89,14.87-7.3c3.37,0.91,6.93,1.41,10.61,1.41c4.58,0,8.96-0.75,13.03-2.13c3.16,4.97,8.94,8.3,15.56,8.3
		c3.87,0,7.45-1.14,10.39-3.08c5.93,3.53,12.96,5.59,20.51,5.59c8.42,0,16.2-2.55,22.53-6.87c3.17,2.55,7.28,4.1,11.78,4.1
		c6.42,0,12.05-3.14,15.27-7.87c4.38,0.86,8.94,1.32,13.62,1.33c3.01,0,5.97-0.2,8.87-0.56c1.2,1.57,2.68,2.94,4.37,4.05
		c3.19,2.63,7.37,4.23,11.95,4.24c6.16,0,11.6-2.89,14.87-7.3c3.37,0.91,6.93,1.41,10.61,1.41c4.58,0,8.96-0.75,13.03-2.13
		c3.16,4.97,8.94,8.3,15.56,8.3c3.87,0,7.45-1.14,10.39-3.08c5.93,3.53,12.96,5.59,20.51,5.59c8.42,0,16.2-2.55,22.53-6.87
		c3.17,2.55,7.28,4.1,11.78,4.1c6.54,0,12.27-3.25,15.45-8.13c2.5,0.27,5.04,0.41,7.63,0.41c4.61,0,9.11-0.44,13.43-1.28
		c3.05,5.36,9.06,9,15.98,9c4.72,0,9-1.71,12.22-4.48c3.01-1.27,5.58-3.29,7.45-5.81c3.37,0.91,6.93,1.41,10.61,1.41
		c4.58,0,8.96-0.75,13.03-2.13c3.16,4.97,8.94,8.3,15.56,8.3c3.87,0,7.45-1.14,10.39-3.08c5.93,3.53,12.96,5.59,20.51,5.59
		c8.42,0,16.2-2.55,22.53-6.87c3.17,2.55,7.28,4.1,11.78,4.1c6.54,0,12.27-3.25,15.45-8.13c2.5,0.27,5.04,0.41,7.63,0.41
		c4.61,0,9.11-0.44,13.43-1.28c3.05,5.36,9.06,9,15.98,9c8.33,0,15.34-5.29,17.45-12.49c2.2,0.9,4.64,1.4,7.19,1.4
		c5.95,0,11.23-2.7,14.54-6.86c2.2,7.06,9.14,12.23,17.38,12.23c10,0,18.11-7.61,18.11-17c0-1.27-0.15-2.51-0.44-3.71
		c6.74,7.9,17.09,12.97,28.71,12.97c6.84,0,13.24-1.76,18.72-4.81c3.28,4.35,8.68,7.2,14.79,7.2c6.37,0,11.96-3.1,15.19-7.77
		c0.65-0.15,1.28-0.32,1.9-0.53c-0.02,0.35-0.04,0.69-0.04,1.04c0,9.39,8.11,17.01,18.11,17.01c7.02,0,13.1-3.76,16.11-9.25
		c0.5-0.48,0.98-0.97,1.41-1.5c2.62,1.39,5.64,2.19,8.87,2.19c5.95,0,11.23-2.7,14.54-6.86c2.2,7.06,9.14,12.23,17.38,12.23
		c4.79,0,9.14-1.76,12.37-4.61c3.01,2.45,6.89,3.99,11.18,4.13c3.64,0.12,7.07-0.78,9.98-2.42c10.33,6.87,23.28,10.97,37.34,10.97
		c3.26,0,6.47-0.22,9.59-0.65c3.15,5.01,8.95,8.37,15.6,8.37c6.16,0,11.6-2.89,14.87-7.3c3.37,0.91,6.93,1.41,10.61,1.41
		c4.58,0,8.96-0.75,13.03-2.13c3.16,4.97,8.94,8.3,15.56,8.3c3.87,0,7.45-1.14,10.39-3.08c5.93,3.53,12.96,5.59,20.51,5.59
		c8.42,0,16.2-2.55,22.53-6.87c3.17,2.55,7.28,4.1,11.78,4.1c6.42,0,12.05-3.14,15.27-7.87c4.38,0.86,8.94,1.32,13.62,1.33
		c3.01,0,5.97-0.2,8.87-0.56c1.2,1.57,2.68,2.94,4.37,4.05c3.19,2.63,7.37,4.23,11.95,4.24c6.16,0,11.59-2.89,14.87-7.3
		c3.37,0.91,6.93,1.41,10.61,1.41c4.58,0,8.96-0.75,13.03-2.13c3.16,4.97,8.94,8.3,15.56,8.3c3.87,0,7.45-1.14,10.39-3.08
		c5.93,3.53,12.96,5.59,20.51,5.59c8.42,0,16.2-2.55,22.53-6.87c3.17,2.55,7.28,4.1,11.78,4.1c6.54,0,12.27-3.25,15.45-8.13
		c2.5,0.27,5.04,0.41,7.63,0.41c4.61,0,9.11-0.44,13.43-1.28c3.05,5.36,9.06,9,15.98,9c4.72,0,9-1.71,12.22-4.48
		c3.01-1.27,5.58-3.29,7.45-5.81c3.37,0.91,6.93,1.41,10.61,1.41c4.57,0,8.96-0.75,13.03-2.13c3.16,4.97,8.94,8.3,15.56,8.3
		c3.87,0,7.45-1.14,10.39-3.08c5.93,3.53,12.96,5.59,20.51,5.59c8.42,0,16.2-2.55,22.53-6.87c3.17,2.55,7.28,4.1,11.78,4.1
		c6.54,0,12.27-3.25,15.45-8.13c1.07,0.11,2.15,0.19,3.23,0.26c3.2,4.82,8.87,8.03,15.36,8.03c2.2,0,4.31-0.37,6.25-1.04
		c-0.02,0.35-0.04,0.69-0.04,1.04c0,9.39,8.11,17.01,18.11,17.01c7.77,0,14.39-4.59,16.97-11.04c2.74,1.57,5.97,2.48,9.42,2.48
		c5.95,0,11.23-2.7,14.54-6.86c2.2,7.06,9.14,12.23,17.38,12.23c10,0,18.11-7.61,18.11-17c0-1.27-0.15-2.51-0.44-3.71
		c6.74,7.9,17.09,12.97,28.71,12.97c6.84,0,13.24-1.76,18.72-4.81c3.28,4.35,8.68,7.2,14.79,7.2c6.37,0,11.96-3.1,15.19-7.77
		c0.65-0.15,1.28-0.32,1.9-0.53c-0.02,0.35-0.04,0.69-0.04,1.04c0,9.39,8.11,17.01,18.11,17.01c7.02,0,13.1-3.76,16.11-9.25
		c0.5-0.48,0.98-0.97,1.41-1.5c2.62,1.39,5.64,2.19,8.87,2.19c5.95,0,11.23-2.7,14.54-6.86c2.2,7.06,9.14,12.23,17.38,12.23
		c4.79,0,9.14-1.76,12.37-4.61c3.01,2.45,6.89,3.99,11.18,4.13c3.64,0.12,7.07-0.78,9.98-2.42c10.33,6.87,23.28,10.97,37.34,10.97
		c3.26,0,6.47-0.22,9.59-0.65c3.15,5.01,8.95,8.37,15.6,8.37c6.16,0,11.6-2.89,14.87-7.3c3.37,0.91,6.93,1.41,10.61,1.41
		c4.58,0,8.96-0.75,13.03-2.13c3.16,4.97,8.94,8.3,15.56,8.3c3.87,0,7.45-1.14,10.39-3.08c5.93,3.53,12.96,5.59,20.51,5.59
		c8.42,0,16.2-2.55,22.53-6.87c3.17,2.55,7.28,4.1,11.78,4.1c6.42,0,12.05-3.14,15.27-7.87c4.38,0.86,8.94,1.32,13.62,1.33
		c3.01,0,5.97-0.2,8.87-0.56c1.2,1.57,2.68,2.94,4.37,4.05c3.19,2.63,7.37,4.23,11.95,4.24c6.16,0,11.6-2.89,14.87-7.3
		c3.37,0.91,6.93,1.41,10.61,1.41c4.57,0,8.96-0.75,13.03-2.13c3.16,4.97,8.94,8.3,15.56,8.3c3.87,0,7.45-1.14,10.39-3.08
		c5.93,3.53,12.96,5.59,20.51,5.59c8.42,0,16.2-2.55,22.53-6.87c3.17,2.55,7.28,4.1,11.78,4.1c6.54,0,12.27-3.25,15.45-8.13
		c2.5,0.27,5.04,0.41,7.63,0.41c4.61,0,9.11-0.44,13.43-1.28c3.05,5.36,9.06,9,15.98,9c4.72,0,9-1.71,12.22-4.48
		c3.01-1.27,5.58-3.29,7.45-5.81c3.37,0.91,6.93,1.41,10.61,1.41c4.58,0,8.96-0.75,13.03-2.13c3.16,4.97,8.94,8.3,15.56,8.3
		c3.87,0,7.45-1.14,10.39-3.08c5.93,3.53,12.96,5.59,20.51,5.59c8.42,0,16.2-2.55,22.53-6.87c3.17,2.55,7.28,4.1,11.78,4.1
		c6.54,0,12.27-3.25,15.45-8.13c2.5,0.27,5.04,0.41,7.63,0.41c4.61,0,9.11-0.44,13.43-1.28c3.05,5.36,9.06,9,15.98,9
		c8.37,0,15.39-5.33,17.47-12.57c3.55,1.02,7.32,1.58,11.22,1.58c8.42,0,16.2-2.55,22.53-6.87c3.17,2.55,7.28,4.1,11.78,4.1
		c6.42,0,12.05-3.14,15.27-7.87c4.38,0.86,8.94,1.32,13.62,1.33c3.01,0,5.97-0.2,8.87-0.56c1.2,1.57,2.68,2.94,4.37,4.05
		c3.19,2.63,7.37,4.23,11.95,4.23c6.16,0,11.6-2.89,14.87-7.3c3.37,0.91,6.93,1.41,10.61,1.41c4.57,0,8.96-0.75,13.03-2.13
		c3.16,4.97,8.94,8.3,15.56,8.3c3.87,0,7.45-1.14,10.39-3.08c5.93,3.53,12.96,5.59,20.51,5.59c8.42,0,16.2-2.55,22.53-6.87
		c3.17,2.55,7.28,4.1,11.78,4.1c6.54,0,12.27-3.25,15.45-8.13c2.5,0.27,5.04,0.41,7.63,0.41c4.61,0,9.11-0.44,13.43-1.28
		c3.05,5.36,9.06,9,15.98,9c4.72,0,9-1.71,12.22-4.48c3.01-1.27,5.58-3.29,7.45-5.81c3.37,0.91,6.93,1.41,10.61,1.41
		c4.58,0,8.96-0.75,13.03-2.13c3.16,4.97,8.94,8.3,15.56,8.3c3.87,0,7.45-1.14,10.39-3.08c5.93,3.53,12.96,5.59,20.51,5.59
		c8.42,0,16.2-2.55,22.53-6.87c3.17,2.55,7.28,4.1,11.78,4.1c6.54,0,12.27-3.25,15.45-8.13c2.5,0.27,5.04,0.41,7.63,0.41
		c4.61,0,9.11-0.44,13.43-1.28c3.05,5.36,9.06,9,15.98,9c10,0,18.11-7.61,18.11-17c0-2.46-0.56-4.8-1.57-6.92
		c2.92,1.9,6.47,3.03,10.3,3.03c2.2,0,4.31-0.37,6.25-1.04c-0.02,0.35-0.04,0.69-0.04,1.04c0,9.39,8.11,17.01,18.11,17.01
		c7.77,0,14.39-4.59,16.97-11.04c2.74,1.57,5.97,2.48,9.42,2.48c5.95,0,11.23-2.7,14.54-6.86c2.2,7.06,9.14,12.23,17.38,12.23
		c10,0,18.11-7.61,18.11-17c0-1.27-0.15-2.51-0.44-3.71c6.74,7.9,17.09,12.97,28.71,12.97c6.84,0,13.24-1.76,18.72-4.81
		c3.28,4.35,8.68,7.2,14.79,7.2c6.37,0,11.96-3.1,15.19-7.77c0.65-0.15,1.28-0.32,1.9-0.53c-0.02,0.35-0.04,0.69-0.04,1.04
		c0,9.39,8.1,17.01,18.11,17.01c7.02,0,13.1-3.76,16.11-9.25c0.5-0.48,0.98-0.97,1.41-1.5c2.62,1.39,5.64,2.19,8.87,2.19
		c5.95,0,11.23-2.7,14.54-6.86c2.2,7.06,9.14,12.23,17.38,12.23c4.79,0,9.14-1.76,12.37-4.61c3.01,2.45,6.89,3.99,11.18,4.13
		c3.64,0.12,7.07-0.78,9.98-2.42c10.33,6.87,23.28,10.97,37.34,10.97c3.26,0,6.47-0.22,9.59-0.65c3.15,5.01,8.96,8.37,15.6,8.37
		c6.16,0,11.6-2.89,14.87-7.3c3.37,0.91,6.93,1.41,10.61,1.41c4.58,0,8.96-0.75,13.03-2.13c3.16,4.97,8.94,8.3,15.56,8.3
		c3.87,0,7.45-1.14,10.39-3.08c5.93,3.53,12.96,5.59,20.51,5.59c8.42,0,16.2-2.55,22.53-6.87c3.17,2.55,7.28,4.1,11.78,4.1
		c6.42,0,12.05-3.14,15.27-7.87c4.38,0.86,8.94,1.32,13.62,1.33c3.01,0,5.97-0.2,8.87-0.56c1.2,1.57,2.68,2.94,4.37,4.05
		c3.19,2.63,7.37,4.23,11.95,4.24c6.16,0,11.6-2.89,14.87-7.3c3.37,0.91,6.93,1.41,10.61,1.41c4.58,0,8.96-0.75,13.03-2.13
		c3.16,4.97,8.94,8.3,15.56,8.3c3.87,0,7.45-1.14,10.39-3.08c5.93,3.53,12.96,5.59,20.51,5.59c8.42,0,16.2-2.55,22.53-6.87
		c3.17,2.55,7.28,4.1,11.78,4.1c6.54,0,12.27-3.25,15.45-8.13c2.5,0.27,5.04,0.41,7.63,0.41c4.61,0,9.11-0.44,13.43-1.28
		c3.05,5.36,9.06,9,15.98,9c4.72,0,9-1.71,12.22-4.48c3.01-1.27,5.58-3.29,7.45-5.81c3.37,0.91,6.93,1.41,10.61,1.41
		c3.17,0,6.24-0.37,9.19-1.05c1.87,0.91,3.94,1.51,6.11,1.75c3.31,3.36,8.03,5.47,13.29,5.47c3.87,0,7.45-1.14,10.39-3.08
		c5.93,3.53,12.96,5.59,20.51,5.59c8.42,0,16.2-2.55,22.53-6.87c3.17,2.55,7.28,4.1,11.78,4.1c5.76,0,10.89-2.52,14.2-6.46
		c1.96-0.31,3.88-0.77,5.72-1.35c1.05,0.05,2.09,0.09,3.15,0.09c4.61,0,9.11-0.44,13.43-1.28c3.05,5.36,9.06,9,15.98,9
		c10,0,18.11-7.61,18.11-17c0-0.33-0.01-0.66-0.03-0.99c0.55-0.01,1.1-0.01,1.66-0.03c3.01-0.13,5.96-0.46,8.84-0.94
		c1.27,1.52,2.81,2.83,4.54,3.86c3.3,2.49,7.55,3.91,12.12,3.71c6.15-0.27,11.46-3.39,14.54-7.93c3.41,0.76,6.98,1.11,10.66,0.95
		c4.57-0.2,8.92-1.14,12.93-2.69c2.89,4.13,7.64,6.98,13.09,7.53V666.9C4988.3,656.08,4971.34,649.63,4952.73,650.43z"/>
</g>
</svg>
