<?xml version="1.0" encoding="utf-8"?>
<!-- Generator: Adobe Illustrator 26.5.1, SVG Export Plug-In . SVG Version: 6.00 Build 0)  -->
<svg version="1.1" id="charAnimations" xmlns="http://www.w3.org/2000/svg" xmlns:xlink="http://www.w3.org/1999/xlink" x="0px"
	 y="0px" viewBox="0 0 240 325" style="enable-background:new 0 0 240 325;" xml:space="preserve">
<style type="text/css">
	.st0{stroke:#000000;stroke-width:7;stroke-miterlimit:10;}
	.st1{fill:#6D6E71;stroke:#000000;stroke-width:7;stroke-miterlimit:10;}
	.st2{fill:#A7A9AC;stroke:#000000;stroke-width:7;stroke-miterlimit:10;}
	.st3{fill:#F1F2F2;stroke:#000000;stroke-width:7;stroke-miterlimit:10;}
	.st4{fill:#3A297A;stroke:#000000;stroke-width:7;stroke-miterlimit:10;}
	.st5{fill:#502D8D;stroke:#000000;stroke-width:7;stroke-miterlimit:10;}
	.st6{fill:#FFCD05;stroke:#000000;stroke-width:7;stroke-miterlimit:10;}
</style>
<g id="squat1">
	
		<ellipse id="Backfoot_00000086682014310811567080000003416554163820865959_" class="st0" cx="164.63" cy="280.51" rx="33.36" ry="15.44"/>
	
		<ellipse id="body_00000093881782531093259180000000021691041731413922_" class="st1" cx="140.28" cy="241.84" rx="78.09" ry="43.02"/>
	
		<ellipse id="frontFoot_00000018220345129771812820000003824539364479373188_" class="st2" cx="125.18" cy="284.86" rx="33.36" ry="15.44"/>
	
		<ellipse id="eye_00000179606601157638990020000014722065514015505570_" class="st3" cx="172.13" cy="219.28" rx="16.44" ry="11.78"/>
	
		<ellipse id="pupil_00000153704628287098088690000018194231431999350164_" class="st0" cx="176.62" cy="216.45" rx="5.68" ry="4.07"/>
	<g id="hatBent_copy_3">
		<g>
			<path class="st4" d="M134.18,222.4c13.02-3.41,67.28-23.75,72.86-33.91c0.25-0.46,0.2-0.5-0.15-1.03c-5.32-7.92-33.34-5-41.34-4
				c1.86,2.83,4.64,5.55,6.19,8.45c0.63,1.17,1.21,1.24-0.14,2.68c-4.85,5.19-10.93,8.5-18.43,12.1
				c-4.36,2.09-13.58,5.28-19.13,6.89c-0.62,0.18-1.99,0.58-2.52,0.72c-13.27,3.49-31.77,11.02-45.02,7.86
				c-2.24-0.53-1.44-0.87-1.6-2.03c-0.38-2.89,0.58-5.97,0.39-8.91c-7.77,2.31-32.09,8.55-33.54,18.24c-0.1,0.65,0.02,0.4,0.58,0.98
				C64.77,243.15,121.16,225.81,134.18,222.4z"/>
			<path class="st5" d="M84.9,220.14c0.13,1.12-0.64,1.5,1.6,2.03c13.25,3.14,31.74-4.36,45.03-7.87c0.52-0.14,1.85-0.5,2.46-0.7
				c-4.01-0.37-7.98-0.87-12.08-1.17c0.96-0.97-0.07,0.06,1.35-1.38c1.43-1.45,5.22-5.53,6.98-7.52c-0.4-1.67-0.35-1.24-0.95-3.3
				c-0.6-2.06-2.01-6.5-2.8-9c4.01,1.51,8.05,3.22,12.03,4.92c3.51-2.41,6.96-4.85,10.41-7.36c-0.07,2.12-0.11,3.63-0.16,5.89
				c-0.06,2.27-0.13,5.33-0.22,7.72c0.6,0.52,0.19,0.17,1.04,0.86c0.84,0.69,2.89,2.4,4.01,3.27c5.94-3.1,13.89-6.87,17.99-11.98
				c1.14-1.42,1.11-1.17,0.15-2.69c-2.41-3.78-2.85-3.88-6.67-8.97c-3.81-5.09-12.87-15.61-18.54-20.9
				c-2.35,0.46-4.38,1.32-6.6,1.93c-0.7,4.37-1.78,8.69-2.9,12.96c-2.72-3.71-5.43-7.37-8.46-10.84c-4.21,0.22-8.39,0.83-12.6,1.09
				c2.24-3.51,4.08-7.29,5.99-10.99c-2.31-3.78-4.4-7.86-7.1-11.38c4.47,0.48,9.07,1.3,13.42,2.45c0.32-0.3,0.63-0.6,0.95-0.9
				c-18.25-14.83-39.51-22.82-62.08-28.42c-0.56,0.54-1.12,1.08-1.68,1.62c0.82,3.87,1.76,7.71,2.67,11.56
				c-4.09-1.43-8.14-2.95-12.18-4.53c-0.75,0.41-1.5,0.82-2.24,1.23c4.3,5.41,8.61,10.8,13.12,16.04c2.64-0.55,5.28-0.9,7.95-1.25
				c2.31-3.4,4.23-7.04,6.24-10.62c1.9,3.52,3.95,6.98,5.58,10.64c4.26,0.94,8.81,1.53,12.94,2.94c-3.56,2.23-7.06,4.55-10.6,6.82
				c0,3.69,0.06,7.34-0.51,11c-3.03-2.37-6.25-4.27-9.56-6.22c-0.85,0.27-1.7,0.54-2.55,0.82c4.73,9.12,7.69,19.42,8.53,29.67
				c1.26,0.31,2.52,0.63,3.78,0.95c3.39-2.14,6.56-4.66,9.78-7.04c-0.02,3.71,0.05,7.4-0.18,11.11c3.28,2.15,6.47,4.54,9.6,6.91
				c-3.99,1.01-7.99,2.03-12.02,2.92c-1.53,3.55-3.25,7.02-4.94,10.5c-1.69-3.02-3.41-5.98-5.3-8.9c0.04,2.56-0.24,4.57-0.21,7.26
				C85.35,213.97,84.58,217.36,84.9,220.14z"/>
			<path class="st6" d="M148.53,202.4c0.1-2.38,0.17-5.45,0.22-7.72c0.06-2.27,0.1-3.77,0.16-5.89c-3.45,2.51-6.9,4.95-10.41,7.36
				c-3.98-1.7-8.02-3.41-12.03-4.92c0.8,2.5,2.2,6.94,2.8,9c0.6,2.06,0.55,1.63,0.95,3.3c-1.76,2-5.55,6.08-6.98,7.52
				c-1.43,1.45-0.4,0.41-1.35,1.38c4.11,0.3,8.05,0.8,12.1,1.16c6.64-2.01,13.23-4.23,19.56-7.06c-1.07-0.88-3.15-2.58-3.99-3.28
				C148.73,202.57,149.13,202.92,148.53,202.4z"/>
			<path class="st6" d="M68.11,131.07c-0.91-3.85-1.84-7.69-2.67-11.56c0.55-0.55,1.14-1.06,1.66-1.64
				c-6.52-1.46-13.83-3.71-19.98-5.5c-2.29-0.67-3.27,1.2-2.27,3.09c2.11,4.01,5.93,8.51,8.81,12.3c0.79-0.38,1.5-0.82,2.26-1.22
				C59.97,128.12,64.02,129.64,68.11,131.07z"/>
			<path class="st6" d="M88.4,163.34c0.58-3.65,0.51-7.31,0.51-11c3.53-2.27,7.04-4.59,10.6-6.82c-4.13-1.41-8.68-2-12.94-2.94
				c-1.63-3.65-3.68-7.12-5.58-10.64c-2.01,3.59-3.93,7.22-6.24,10.62c-2.67,0.35-5.31,0.71-7.95,1.25
				c3.66,4.25,6.91,9.13,9.49,14.11c0.85-0.27,1.7-0.54,2.55-0.82C82.15,159.06,85.37,160.96,88.4,163.34z"/>
			<path class="st6" d="M114.83,144.76c2.69,3.51,4.78,7.6,7.1,11.38c-1.91,3.7-3.75,7.48-5.99,10.99c4.21-0.26,8.4-0.86,12.6-1.09
				c3.03,3.47,5.74,7.13,8.46,10.84c1.12-4.27,2.2-8.59,2.91-12.95c2.17-0.68,4.35-1.36,6.52-2.04
				c-5.54-5.46-11.19-10.66-17.22-15.58c-0.32,0.3-0.64,0.6-0.95,0.9C123.9,146.06,119.3,145.23,114.83,144.76z"/>
			<path class="st6" d="M90.85,212.94c1.69-3.48,3.4-6.95,4.94-10.5c4.02-0.89,8.02-1.92,12.02-2.92c-3.12-2.36-6.32-4.76-9.6-6.91
				c0.24-3.7,0.16-7.4,0.18-11.11c-3.22,2.39-6.39,4.9-9.78,7.04c-1.26-0.32-2.52-0.64-3.78-0.95c0.44,5.49,0.71,10.94,0.73,16.45
				C87.43,206.94,89.16,209.92,90.85,212.94z"/>
		</g>
	</g>
</g>
</svg>
