<?xml version="1.0" encoding="utf-8"?>
<!-- Generator: Adobe Illustrator 26.5.1, SVG Export Plug-In . SVG Version: 6.00 Build 0)  -->
<svg version="1.1" id="charAnimations" xmlns="http://www.w3.org/2000/svg" xmlns:xlink="http://www.w3.org/1999/xlink" x="0px"
	 y="0px" viewBox="0 0 240 325" style="enable-background:new 0 0 240 325;" xml:space="preserve">
<style type="text/css">
	.st0{stroke:#000000;stroke-width:7;stroke-miterlimit:10;}
	.st1{fill:#6D6E71;stroke:#000000;stroke-width:7;stroke-miterlimit:10;}
	.st2{fill:#A7A9AC;stroke:#000000;stroke-width:7;stroke-miterlimit:10;}
	.st3{fill:#F1F2F2;stroke:#000000;stroke-width:7;stroke-miterlimit:10;}
	.st4{fill:#3A297A;stroke:#000000;stroke-width:7;stroke-miterlimit:10;}
	.st5{fill:#502D8D;stroke:#000000;stroke-width:7;stroke-miterlimit:10;}
	.st6{fill:#FFCD05;stroke:#000000;stroke-width:7;stroke-miterlimit:10;}
</style>
<g id="up1">
	
		<ellipse id="Backfoot_00000141423039832013001640000010628174823048715663_" transform="matrix(0.2056 -0.9786 0.9786 0.2056 -146.9243 362.8516)" class="st0" cx="150.05" cy="271.93" rx="35.7" ry="18.34"/>
	
		<ellipse id="body_00000023988360805033425230000018220885594961471113_" transform="matrix(0.5576 -0.8301 0.8301 0.5576 -116.8885 210.8057)" class="st1" cx="139.33" cy="215.06" rx="68.39" ry="50.49"/>
	
		<ellipse id="frontFoot_00000042737143125345998260000001616832422520087741_" transform="matrix(0.2056 -0.9786 0.9786 0.2056 -176.5396 326.3669)" class="st2" cx="112.76" cy="271.93" rx="35.7" ry="18.32"/>
	<circle id="eye_00000147204355663761557220000006151557236021337232_" class="st3" cx="153.89" cy="186.01" r="16.44"/>
	<circle id="pupil_00000008865137870991917840000017320946933854760378_" class="st0" cx="158.32" cy="180.9" r="5.68"/>
	<g id="hatBent_copy_4">
		<g>
			<path class="st4" d="M139.4,189c11.52-6.96,57.79-41.84,60.26-53.16c0.11-0.51,0.05-0.53-0.44-0.94
				c-7.34-6.09-33.39,4.65-40.78,7.88c2.58,2.18,6.02,4.01,8.33,6.34c0.93,0.94,1.51,0.84,0.62,2.61
				c-3.18,6.35-8.07,11.25-14.24,16.83c-3.59,3.24-11.53,8.91-16.39,12.03c-0.54,0.35-1.75,1.12-2.21,1.4
				c-11.74,7.11-27.34,19.57-40.95,20.3c-2.3,0.12-1.63-0.42-2.11-1.5c-1.19-2.66-1.14-5.89-2.16-8.66c-6.79,4.41-28.35,17.29-27,27
				c0.09,0.65,0.13,0.38,0.83,0.77C78.71,228.57,127.87,195.95,139.4,189z"/>
			<path class="st5" d="M91.5,200.79c0.44,1.04-0.19,1.62,2.11,1.5c13.6-0.74,29.21-13.18,40.95-20.31
				c0.46-0.28,1.63-1.01,2.16-1.37c-3.95,0.79-7.9,1.43-11.92,2.31c0.64-1.2-0.05,0.08,0.91-1.71c0.96-1.79,3.44-6.78,4.56-9.19
				c-0.86-1.49-0.69-1.09-1.85-2.9c-1.16-1.8-3.76-5.66-5.24-7.84c4.27,0.31,8.63,0.81,12.93,1.31c2.68-3.3,5.3-6.62,7.9-10
				c0.54,2.05,0.92,3.51,1.51,5.7c0.59,2.19,1.39,5.15,1.97,7.46c0.73,0.33,0.23,0.11,1.24,0.53c1,0.42,3.46,1.48,4.77,2
				c4.82-4.66,11.38-10.52,13.85-16.59c0.69-1.69,0.74-1.44-0.62-2.62c-3.38-2.94-3.84-2.91-8.94-6.71s-16.77-11.32-23.71-14.79
				c-2.12,1.11-3.82,2.51-5.78,3.73c0.56,4.39,0.75,8.83,0.89,13.25c-3.66-2.79-7.3-5.53-11.19-8c-3.97,1.41-7.81,3.18-11.78,4.62
				c1.16-4,1.85-8.15,2.63-12.24c-3.29-2.96-6.45-6.29-10.03-8.9c4.42-0.81,9.07-1.32,13.56-1.45c0.22-0.38,0.44-0.76,0.66-1.13
				c-21.71-9.05-44.36-10.69-67.59-9.67c-0.38,0.68-0.77,1.36-1.15,2.03c1.89,3.48,3.87,6.9,5.84,10.33
				c-4.33-0.21-8.64-0.53-12.96-0.89c-0.6,0.61-1.2,1.21-1.8,1.82c5.65,3.97,11.32,7.92,17.12,11.66c2.37-1.27,4.81-2.36,7.27-3.45
				c1.25-3.92,2.06-7.95,2.98-11.96c2.82,2.83,5.77,5.58,8.36,8.62c4.36-0.31,8.88-1.03,13.24-0.85c-2.78,3.15-5.48,6.37-8.23,9.54
				c1.04,3.54,2.14,7.03,2.62,10.69c-3.58-1.42-7.21-2.33-10.93-3.26c-0.74,0.5-1.48,1-2.22,1.51c7.12,7.4,12.88,16.45,16.59,26.03
				c1.3-0.06,2.6-0.11,3.9-0.16c2.64-3.02,4.97-6.32,7.38-9.52c1.03,3.56,2.15,7.08,2.97,10.7c3.75,1.13,7.5,2.52,11.16,3.91
				c-3.55,2.1-7.09,4.21-10.69,6.21c-0.47,3.84-1.13,7.65-1.76,11.47c-2.47-2.42-4.96-4.77-7.61-7.04c0.76,2.44,1.07,4.45,1.85,7.02
				C90.18,194.75,90.41,198.21,91.5,200.79z"/>
			<path class="st6" d="M147.5,165.74c-0.58-2.31-1.38-5.27-1.97-7.46c-0.59-2.19-0.98-3.64-1.51-5.7c-2.6,3.38-5.22,6.7-7.9,10
				c-4.3-0.5-8.66-1-12.93-1.31c1.47,2.17,4.07,6.03,5.24,7.84c1.16,1.8,0.99,1.41,1.85,2.9c-1.12,2.42-3.6,7.4-4.56,9.19
				c-0.96,1.79-0.26,0.51-0.91,1.71c4.03-0.88,7.95-1.51,11.93-2.31c5.8-3.81,11.49-7.81,16.75-12.32
				c-1.28-0.54-3.76-1.58-4.76-2.01C147.73,165.85,148.22,166.07,147.5,165.74z"/>
			<path class="st6" d="M50.16,120.13c-1.96-3.44-3.95-6.85-5.84-10.33c0.37-0.68,0.79-1.34,1.13-2.04
				c-6.67,0.45-14.32,0.36-20.72,0.39c-2.39,0.01-2.79,2.07-1.3,3.61c3.16,3.24,8.09,6.48,11.93,9.3c0.65-0.59,1.21-1.21,1.83-1.81
				C41.51,119.6,45.83,119.92,50.16,120.13z"/>
			<path class="st6" d="M78.76,145.32c-0.48-3.66-1.58-7.15-2.62-10.69c2.75-3.18,5.45-6.4,8.23-9.54
				c-4.36-0.19-8.89,0.54-13.24,0.85c-2.6-3.04-5.54-5.78-8.36-8.62c-0.91,4.01-1.73,8.04-2.98,11.96c-2.46,1.09-4.9,2.18-7.27,3.45
				c4.71,3.04,9.21,6.8,13.1,10.84c0.74-0.5,1.48-1,2.22-1.51C71.56,142.99,75.18,143.91,78.76,145.32z"/>
			<path class="st6" d="M98.84,120.02c3.58,2.61,6.74,5.93,10.03,8.9c-0.78,4.09-1.47,8.24-2.63,12.24
				c3.96-1.44,7.81-3.21,11.78-4.62c3.89,2.47,7.53,5.21,11.19,8c-0.13-4.41-0.33-8.86-0.88-13.25c1.89-1.27,3.78-2.53,5.67-3.8
				c-6.86-3.67-13.76-7.05-20.93-10.06c-0.22,0.38-0.44,0.76-0.66,1.13C107.91,118.69,103.26,119.21,98.84,120.02z"/>
			<path class="st6" d="M95.16,192.2c0.64-3.81,1.3-7.63,1.76-11.47c3.61-2,7.15-4.11,10.69-6.21c-3.67-1.38-7.41-2.78-11.16-3.91
				c-0.82-3.62-1.94-7.14-2.97-10.7c-2.41,3.2-4.74,6.51-7.38,9.52c-1.3,0.05-2.6,0.1-3.9,0.16c1.97,5.14,3.78,10.29,5.36,15.57
				C90.19,187.42,92.69,189.78,95.16,192.2z"/>
		</g>
	</g>
</g>
</svg>
