<?xml version="1.0" encoding="utf-8"?>
<!-- Generator: Adobe Illustrator 26.5.1, SVG Export Plug-In . SVG Version: 6.00 Build 0)  -->
<svg version="1.1" id="background" xmlns="http://www.w3.org/2000/svg" xmlns:xlink="http://www.w3.org/1999/xlink" x="0px" y="0px"
	 viewBox="0 0 5000 950" style="enable-background:new 0 0 5000 950;" xml:space="preserve">
<path id="bg6" style="fill:#565624;" d="M-0.01,0.75v779.6v170.4h5000v-950H-0.01z M145.76,570.89c-3.14,1.89-6.1,4.03-8.83,6.38
	c-12.95-15.47-34.14-24.97-57.54-23.7c-32.7,1.78-58.8,24-63.36,51.84c-0.85-0.24-1.71-0.46-2.58-0.65l32.47-313.23
	c3.65,2.51,7.59,4.78,11.82,6.75c26.53,12.34,57.28,9.98,80.47-3.79c3.82,1.89,7.76,3.49,11.77,4.85L145.76,570.89z M482.86,591.48
	c-2.25,0.33-4.46,0.76-6.65,1.23c-8.05-17.01-24.69-29.77-44.9-34.32c-28.3-12.74-60.28-6.33-77.75,14.55
	c-3.42-3.59-7.55-6.72-12.31-9.15c-13.22-6.75-28.03-6.51-39.42-0.59c-27.73-8.87-56.83-4.81-78.28,9.84
	c-6.94-4.61-14.89-8.11-23.57-10.14l4.06-260.27c4.35,2.11,9.03,3.84,14,5.09c18.54,4.68,37.44,1.97,52.76-6.12
	c1.56,0.85,3.15,1.66,4.79,2.42c31.66,14.71,69.8,8.99,98.47-11.72c4.52,3.46,9.54,6.52,15.05,9.08
	c14.74,6.85,30.77,9.16,46.09,7.51c3.35,1.41,6.87,2.6,10.56,3.53c10.66,2.69,21.45,2.93,31.6,1.12l38.49,261.14
	C502.03,575.23,489.96,581.77,482.86,591.48z M550.6,439.69l-20.13-136.57c5.68,3.35,12.02,5.99,18.92,7.73
	c5.45,1.37,10.92,2.1,16.33,2.25L550.6,439.69z M776.7,512.92c-36.83-18.26-80.54-11.36-104.34,18.88
	c-6.98,8.86-11.56,18.88-13.89,29.39c-11.34-18.21-32.98-30.7-58.02-31.08c-2.09-0.03-4.15,0.02-6.19,0.16l29.05-243.2
	c1.62-2.11,3.1-4.34,4.42-6.66c4.03,2.72,8.68,4.83,13.84,6.13c10.45,2.64,21.07,1.47,30.05-2.55c2.09,1.2,4.25,2.33,6.49,3.37
	c28.26,13.13,61.68,9.97,88.92-5.58c4.26,2.2,8.68,4.06,13.19,5.58L776.7,512.92z M865.94,576.9c-0.38,1.2-0.73,2.42-1.02,3.65
	c-4.68-1.71-9.78-2.7-15.13-2.78c-7.25-0.11-14.09,1.44-20.07,4.25l4.51-289.48c13.5-0.92,26.57-4.9,37.86-11.6
	c8.9,4.4,18.42,7.35,28.14,8.87L865.94,576.9z M1172.5,575.06c-14.8,2.35-27.92,7.12-38.02,13.45c-5.96-2.78-12.83-4.2-20.0699-3.8
	c-2.05,0.11-4.05,0.37-6,0.75c-9.14-25.07-36.34-42.42-67.4301-40.73c-20.05,1.09-37.6,9.87-49.24,22.91
	c-10.68-20-33.4-33.99-59.94-34.4c-2.09-0.03-4.15,0.02-6.19,0.16l27.91-233.61c15.71-1.58,31.19-6.92,44.89-15.49
	c3.45,2.3,7.13,4.38,11.05,6.2c17.96,8.35,38,10.11,57.22,6.3c15.55-1.9,30.3-7.88,42.13-17.39c4.29,3.2,9.01,6.05,14.1801,8.45
	c14.0601,6.54,29.3,8.93,43.98,7.71l38.14,258.78C1192.59,558.54,1181.36,565.55,1172.5,575.06z M1496.16,564.94
	c-0.38,1.2-0.73,2.42-1.02,3.65c-4.6801-1.71-9.78-2.7-15.13-2.78c-14.88-0.23-28.03,6.51-35.5699,16.83
	c-5.13,0.76-10.11,1.91-14.9,3.41c-6.1-14.22-17.5699-26.87-33.25-34.87c-29.1-14.87-62.98-8.79-81.15,12.93
	c-3.42-3.59-7.55-6.72-12.3101-9.15c-13.22-6.75-28.03-6.51-39.42-0.59c-1.27-0.41-2.54-0.78-3.8199-1.14l-37.73-255.96
	c15.34-5.19,28.39-15.3,36.08-28.82c4.03,2.72,8.6801,4.83,13.84,6.13c14.33,3.61,29,0.1,39.26-8.14
	c22.84,1.92,45.1-4.04,62.6801-15.83c7.41,4.19,15.51,6.95,23.8199,8.31c4.65,21.66,22.5601,40.26,48.03,46.68
	c31,7.82,63-4.98,77.58-29.19c1.4399,0.34,2.88,0.63,4.33,0.9c0.9301,0.5,1.88,0.98,2.87,1.42L1496.16,564.94z M1775.47,574.26
	c-18.21-19.43-46.64-30.64-77.38-27.77c-20.6801,1.93-39.13,9.92-53.3199,21.78c-3.86-1.23-8-1.93-12.3199-2
	c-2.05-0.03-4.0699,0.08-6.04,0.33c-7.34-25.65-33.24-44.84-64.38-45.31c-2.09-0.03-4.15,0.02-6.1899,0.16l29.61-247.91
	c12.53,0,24.73-2.34,35.9-6.67c5.38,4.56,11.51,8.5,18.34,11.67c29.34,13.63,64.23,9.71,92.01-7.41
	c7.13,17.66,23.41,32.12,45.24,37.62c0.89,0.22,1.78,0.43,2.66,0.62L1775.47,574.26z M2107.1699,555.25
	c-3.1399,1.89-6.1001,4.03-8.8301,6.38c-12.95-15.47-34.1399-24.97-57.54-23.7c-32.7,1.78-58.8,24-63.36,51.84
	c-4.79-1.38-9.9399-2.01-15.29-1.72c-6.66,0.36-12.87,2.11-18.3199,4.89c-9.83-38.29-50.2-64.69-95.58-60.46
	c-6.26,0.58-12.3,1.73-18.1,3.36l3.67-235.61c8.89-5.53,16.34-12.97,21.42-21.92c4.03,2.72,8.6801,4.83,13.84,6.13
	c10.45,2.64,21.0699,1.47,30.05-2.55c2.09,1.2,4.25,2.33,6.49,3.37c31.66,14.71,69.8,8.99,98.47-11.72
	c4.52,3.46,9.54,6.52,15.05,9.08c26.53,12.34,57.2699,9.98,80.4701-3.79c3.8201,1.89,7.76,3.49,11.77,4.85L2107.1699,555.25z
	 M2495.99,558.13c-0.3799,1.2-0.73,2.42-1.02,3.65c-4.6799-1.71-9.78-2.7-15.1299-2.78c-14.8799-0.23-28.03,6.51-35.5701,16.83
	c-2.25,0.33-4.46,0.76-6.6499,1.23c-8.05-17.01-24.6899-29.77-44.8999-34.32c-28.3-12.74-60.28-6.33-77.75,14.55
	c-3.4199-3.59-7.55-6.72-12.3101-9.15c-13.22-6.75-28.03-6.51-39.4199-0.59c-27.73-8.87-56.8301-4.81-78.28,9.84
	c-6.9399-4.61-14.8899-8.11-23.5701-10.14l4.0601-260.27c4.3501,2.11,9.03,3.84,14,5.09c18.54,4.68,37.4399,1.97,52.76-6.12
	c1.5601,0.85,3.1499,1.66,4.79,2.42c31.6599,14.71,69.8,8.99,98.47-11.72c4.52,3.46,9.54,6.52,15.05,9.08
	c14.74,6.85,30.77,9.16,46.0901,7.51c3.3501,1.41,6.8701,2.6,10.5601,3.53c26.8799,6.78,54.51-1.94,70.8899-20.15
	c8.3501,8.62,19.54,15.24,32.76,18.58c5.45,1.37,10.9199,2.1,16.3301,2.25L2495.99,558.13z M2738.1101,497.28
	c-36.8301-18.26-80.54-11.36-104.3401,18.88c-6.98,8.86-11.5601,18.88-13.8899,29.39c-11.3401-18.21-32.98-30.7-58.02-31.08
	c-2.0901-0.03-4.1499,0.02-6.1899,0.16l29.05-243.2c1.6201-2.11,3.1001-4.34,4.4199-6.66c4.03,2.72,8.6799,4.83,13.8401,6.13
	c10.45,2.64,21.0701,1.47,30.05-2.55c2.0901,1.2,4.25,2.33,6.49,3.37c28.26,13.13,61.6799,9.97,88.9199-5.58
	c4.26,2.2,8.6799,4.06,13.1899,5.58L2738.1101,497.28z M2827.3501,561.25c-0.3799,1.2-0.73,2.42-1.02,3.65
	c-4.6799-1.71-9.78-2.7-15.1299-2.78c-7.25-0.11-14.0901,1.44-20.0701,4.25l4.51-289.48c13.5-0.92,26.5701-4.9,37.8601-11.6
	c8.8999,4.4,18.4199,7.35,28.1399,8.87L2827.3501,561.25z M3133.9099,559.42c-14.8,2.35-27.9199,7.12-38.02,13.45
	c-5.96-2.78-12.8301-4.2-20.0701-3.8c-2.05,0.11-4.05,0.37-6,0.75c-9.1399-25.07-36.3401-42.42-67.4299-40.73
	c-20.05,1.09-37.6001,9.87-49.24,22.91c-10.6799-20-33.3999-33.99-59.9399-34.4c-2.0901-0.03-4.1499,0.02-6.1899,0.16
	l27.9099-233.61c15.71-1.58,31.1899-6.92,44.8899-15.49c3.45,2.3,7.1299,4.38,11.05,6.2c17.96,8.35,38,10.11,57.21,6.3
	c15.55-1.9,30.3-7.88,42.1299-17.39c4.29,3.2,9.01,6.05,14.1799,8.45c14.73,6.85,30.77,9.16,46.0901,7.51
	c3.04,1.28,6.23,2.36,9.54,3.25l37.27,252.86C3160.49,539.17,3145.25,547.24,3133.9099,559.42z M3459.6101,532.2
	c-12.8101,4.53-24.1499,11.53-33.3501,20.27c-8.4299,2.78-15.5801,7.91-20.4099,14.53c-5.1299,0.76-10.1101,1.91-14.8999,3.41
	c-6.1001-14.22-17.5701-26.87-33.25-34.87c-29.1001-14.87-62.98-8.79-81.1499,12.93c-3.4199-3.59-7.55-6.72-12.3101-9.15
	c-10.6001-5.42-22.22-6.32-32.28-3.42l-38.1399-258.79c3.1499-1.67,6.1499-3.57,8.96-5.68c7.76,6.68,17.4299,11.81,28.55,14.61
	c31.53,7.95,64.1101-5.41,78.3301-30.43c4.03,2.72,8.6799,4.83,13.8401,6.13c14.3301,3.61,29,0.1,39.26-8.14
	c20.1299,1.69,39.8-2.74,56.23-11.88c0.6201,0.56,1.25,1.12,1.9199,1.65c11.0701,8.87,25.99,11.51,39.3201,8.16
	c9.8799,5.41,20.6299,8.96,31.6499,10.69L3459.6101,532.2z M3561.8101,517.01c-10.8201-6.96-24.04-11.15-38.3799-11.37
	c-2.0901-0.03-4.1499,0.02-6.1899,0.16l26.78-224.22c5.6101,3.27,11.8601,5.86,18.6599,7.58c0.8899,0.22,1.78,0.43,2.6599,0.62
	L3561.8101,517.01z M3892.9199,535.66c-3.1399,1.89-6.1001,4.03-8.8301,6.38c-12.95-15.47-34.1399-24.97-57.54-23.7
	c-32.7,1.78-58.8,24-63.3601,51.84c-4.79-1.38-9.9399-2.01-15.29-1.72c-6.6599,0.36-12.8701,2.11-18.3201,4.89
	c-9.8301-38.29-50.2-64.69-95.5801-60.46c-6.26,0.58-12.3,1.73-18.1001,3.36l3.6699-235.61c4.5-2.8,8.6299-6.08,12.26-9.81
	c12.8501,0.98,25.9099-0.7,38.3401-4.74c5.1699-0.44,10.1499-1.74,14.71-3.78c2.0901,1.2,4.25,2.33,6.49,3.37
	c23.3,10.83,50.1101,10.58,74.0701,1.44c10.1899-1.66,19.95-5.09,28.6899-10.12c3.3501,2.23,6.9299,4.27,10.76,6.05
	c26.53,12.34,57.28,9.98,80.47-3.79c3.8201,1.89,7.76,3.49,11.77,4.85L3892.9199,535.66z M4281.75,538.55
	c-0.3799,1.2-0.73,2.42-1.02,3.65c-4.6802-1.71-9.7798-2.7-15.1299-2.78c-14.8799-0.23-28.0298,6.51-35.5698,16.83
	c-2.25,0.33-4.46,0.76-6.6499,1.23c-8.0498-17.01-24.6899-29.77-44.8999-34.32c-28.2998-12.74-60.2798-6.33-77.75,14.55
	c-3.4199-3.59-7.55-6.72-12.3101-9.15c-13.22-6.75-28.03-6.51-39.4199-0.59c-27.73-8.87-56.8301-4.81-78.28,9.84
	c-6.9399-4.61-14.8899-8.11-23.5701-10.14l4.0601-260.27c4.3501,2.11,9.03,3.84,14,5.09c18.54,4.68,37.4399,1.97,52.76-6.13
	c1.5601,0.85,3.1499,1.66,4.79,2.42c31.6599,14.71,69.8,8.99,98.47-11.72c4.52,3.46,9.54,6.52,15.0498,9.08
	c14.73,6.85,30.77,9.16,46.0898,7.51c3.3501,1.41,6.8701,2.6,10.5601,3.53c26.8799,6.78,54.5098-1.94,70.8901-20.15
	c8.3501,8.62,19.54,15.24,32.7598,18.58c5.4502,1.37,10.9199,2.1,16.3301,2.25L4281.75,538.55z M4419.5098,496.58
	c-6.98,8.86-11.5601,18.88-13.8901,29.39c-11.3398-18.21-32.98-30.7-58.02-31.08c-2.0801-0.03-4.1499,0.02-6.1899,0.16
	l29.0498-243.2c1.6201-2.11,3.1001-4.34,4.4199-6.66c4.0298,2.72,8.6802,4.83,13.8398,6.13c3.4302,0.87,6.8901,1.31,10.29,1.39
	l34,230.68C4428.0498,487.13,4423.5,491.52,4419.5098,496.58z M4523.8599,477.69c-12.3901-6.14-25.5498-9.44-38.48-9.95
	L4454.75,259.96c20.3198,1.82,41.25-3.03,59.4302-13.41c4.2598,2.2,8.6802,4.06,13.1899,5.58L4523.8599,477.69z M4613.1001,541.67
	c-0.3799,1.2-0.73,2.42-1.02,3.65c-4.6802-1.71-9.7798-2.7-15.1299-2.78c-7.25-0.11-14.0898,1.44-20.0698,4.25l4.5098-289.48
	c13.5-0.92,26.5698-4.9,37.8599-11.6c8.8999,4.4,18.4199,7.35,28.1401,8.87L4613.1001,541.67z M4956.5,517.81
	c-14.2002,3.97-26.98,11.45-36.8301,22.02c-14.7998,2.35-27.9199,7.12-38.02,13.45c-5.96-2.78-12.8301-4.2-20.0698-3.8
	c-2.0498,0.11-4.0498,0.37-6,0.75c-9.1401-25.07-36.3301-42.42-67.4302-40.73c-20.0498,1.09-37.6001,9.87-49.2402,22.91
	c-10.6802-20-33.3999-33.99-59.9399-34.4c-2.0898-0.03-4.1499,0.02-6.1899,0.16l27.9102-233.61
	c15.71-1.58,31.1899-6.92,44.8901-15.49c3.4502,2.3,7.1299,4.38,11.0498,6.2c17.96,8.35,38,10.11,57.2202,6.3
	c15.5498-1.9,30.2998-7.88,42.1299-17.39c4.29,3.2,9.0098,6.05,14.1802,8.45c14.73,6.85,30.77,9.16,46.0898,7.51
	c3.3501,1.41,6.8701,2.6,10.5601,3.53c20.27,5.11,40.9702,1.4,56.9502-8.54L4956.5,517.81z"/>
</svg>
