<?xml version="1.0" encoding="utf-8"?>
<!-- Generator: Adobe Illustrator 26.5.1, SVG Export Plug-In . SVG Version: 6.00 Build 0)  -->
<svg version="1.1" id="obstacle" xmlns="http://www.w3.org/2000/svg" xmlns:xlink="http://www.w3.org/1999/xlink" x="0px" y="0px"
	 viewBox="0 0 350 325" style="enable-background:new 0 0 350 325;" xml:space="preserve">
<g id="bush1">
	<path style="fill:#3C2E1E;stroke:#000000;stroke-width:5;stroke-miterlimit:10;" d="M189.84,263.19l9.63-27.96l-16.39-27.34
		c-1.24-2.06-0.57-4.74,1.49-5.97l0.97-0.58c2.06-1.23,4.73-0.56,5.96,1.5l12.15,20.26l14.16-41.14c0.14-0.4,0.31-0.78,0.5-1.15
		l0.17,6.68l6.33-7.87l0.26,10.11l5.57-6.92l0.03,1.22l0.26,10.11l2.04-2.53l-26.6,77.29c-0.78,2.28-2.41,4.02-4.42,5
		c-2,0.97-4.38,1.18-6.66,0.39C190.7,272.72,188.27,267.74,189.84,263.19z"/>
	<path style="fill:#3A4929;stroke:#000000;stroke-width:5;stroke-miterlimit:10;" d="M109.72,33.25c1.07-0.81,2.3-1.43,3.67-1.81
		c3.75-1.04,7.59,0.02,10.28,2.45c5.28,0.09,10.4,2.83,13.32,7.71c0.25,0.43,0.48,0.86,0.69,1.3c2.52-0.17,4.96,0.31,7.14,1.32
		c0.47-0.46,0.95-0.91,1.44-1.33c-0.13-0.45-0.24-0.92-0.32-1.4c-1.01-6.22,3.21-12.07,9.41-13.07c1.42-0.23,2.82-0.18,4.15,0.1
		c0.54-0.53,1.15-1.01,1.81-1.43c4.66-2.97,10.67-2.11,14.34,1.76c0.81-0.29,1.62-0.54,2.44-0.76c0.97-1.1,2.1-2.09,3.39-2.92
		c6.72-4.29,15.45-2.86,20.51,3.03c0.05-0.03,0.09-0.06,0.14-0.09c6.11-3.89,14.22-2.09,18.11,4.04c0.72,1.13,1.24,2.32,1.58,3.54
		c6.69-4.12,15.28-2.66,20.29,3.15c0.05-0.03,0.09-0.06,0.14-0.09c6.11-3.89,14.22-2.09,18.11,4.04c2.88,4.53,2.65,10.16-0.14,14.36
		c1.08,0.79,2.04,1.79,2.81,2.99c2.09,3.29,2.22,7.28,0.68,10.57c0.21,0.72,0.36,1.45,0.46,2.18c0.82,0.85,1.56,1.79,2.19,2.85
		c2.93,4.87,2.94,10.69,0.53,15.4c0.63,1.39,1.16,2.84,1.58,4.35c1.25,4.46,1.42,8.97,0.69,13.25c2.01,1.81,3.55,4.2,4.33,7
		c0.82,2.95,0.7,5.93-0.19,8.63c0.51,0.41,1.01,0.84,1.49,1.29c0.43-0.18,0.88-0.34,1.35-0.47c6.05-1.69,12.33,1.85,14.03,7.92
		c1.49,5.34-1.06,10.85-5.81,13.25c0.04,0.86,0.05,1.71,0.02,2.56c0.77,1.25,1.39,2.62,1.8,4.11c2.15,7.7-1.73,15.66-8.81,18.8
		c0.02,0.05,0.03,0.11,0.05,0.16c1.96,6.99-2.11,14.25-9.08,16.2c-3.5,0.98-7.05,0.43-9.98-1.23c-0.79,2.62-2.52,4.82-4.8,6.2
		c-1.58,5.05-5.66,9.18-11.15,10.58c-5.5,1.4-11.06-0.28-14.86-3.96c-1.5,0.2-3.04,0.29-4.61,0.26c-4.62-0.09-8.98-1.23-12.86-3.18
		c-2.31,1.4-5.03,2.19-7.93,2.13c-3.05-0.06-5.87-1.05-8.19-2.68c-0.54,0.37-1.09,0.72-1.66,1.05c0.05,0.47,0.07,0.95,0.07,1.43
		c-0.12,6.3-5.31,11.3-11.59,11.17c-5.53-0.11-10.06-4.16-10.99-9.42c-0.83-0.21-1.65-0.45-2.45-0.73c-1.41,0.38-2.9,0.57-4.44,0.54
		c-2.33-0.05-4.53-0.61-6.51-1.56c-2.24,1.57-4.73,2.85-7.43,3.78c-0.21,6.27-4.41,11.95-10.76,13.73
		c-7.85,2.21-16.02-2.38-18.23-10.26c-0.83-2.95-0.71-5.93,0.18-8.63c-0.51-0.41-1.01-0.84-1.49-1.29
		c-0.43,0.18-0.88,0.34-1.35,0.48c-6.05,1.7-12.34-1.83-14.04-7.9c-1.18-4.18,0.14-8.47,3.05-11.29c-1.05-0.87-1.98-1.9-2.74-3.11
		c-2.87-4.54-2.61-10.17,0.19-14.35c-1.08-0.79-2.04-1.79-2.8-3c-2.08-3.3-2.19-7.28-0.65-10.57c-0.2-0.72-0.35-1.45-0.46-2.18
		c-0.82-0.85-1.55-1.8-2.19-2.85c-2.92-4.88-2.9-10.7-0.48-15.41c-0.62-1.39-1.15-2.84-1.57-4.35c-1.24-4.47-1.4-8.98-0.65-13.26
		c-2-1.82-3.53-4.21-4.31-7.01c-0.82-2.95-0.68-5.94,0.22-8.63c-0.51-0.42-1-0.84-1.48-1.29c-0.43,0.18-0.88,0.34-1.35,0.47
		c-6.06,1.67-12.33-1.89-14.01-7.97c-1.48-5.34,1.09-10.85,5.86-13.23c-0.04-0.86-0.04-1.71-0.01-2.56
		c-0.77-1.25-1.38-2.63-1.79-4.11c-2.13-7.71,1.78-15.65,8.87-18.77c-0.02-0.05-0.03-0.11-0.05-0.16c-1.93-7,2.16-14.24,9.14-16.17
		C101.23,27.46,106.52,29.35,109.72,33.25z"/>
	
		<ellipse transform="matrix(0.963 -0.2695 0.2695 0.963 -27.2042 47.8873)" style="fill:#8E090E;stroke:#000000;stroke-width:5;stroke-miterlimit:10;" cx="160.8" cy="123.0194" rx="8.72" ry="8.74"/>
	
		<ellipse transform="matrix(0.963 -0.2695 0.2695 0.963 -17.8489 32.7338)" style="fill:#8E090E;stroke:#000000;stroke-width:5;stroke-miterlimit:10;" cx="110.2896" cy="81.3712" rx="8.72" ry="8.74"/>
	<path style="fill:#3A4929;stroke:#000000;stroke-width:5;stroke-miterlimit:10;" d="M133.69,62.19c-0.55,0.36-1.09,0.73-1.62,1.12
		c-2.39-1.54-5.24-2.42-8.29-2.37c-8.16,0.14-14.65,6.89-14.49,15.07c0.12,6.61,4.55,12.12,10.54,13.93
		c1.19,15.86,14.54,28.22,30.59,27.94c1.57-0.03,3.1-0.18,4.6-0.43c3.56,3.18,8.48,4.7,13.41,3.78c0.01,0.03,0.02,0.06,0.03,0.08
		c-2.73,4.53-3.14,10.33-0.56,15.4c2.58,5.06,7.5,8.14,12.77,8.59c2.52,2.61,6.28,3.92,10.09,3.14c1.4-0.29,2.66-0.83,3.79-1.56
		c2.92,4.12,8.07,6.35,13.33,5.28c7.09-1.45,11.66-8.4,10.2-15.51c-0.01-0.05-0.02-0.11-0.04-0.16c7.28-2.64,11.72-10.3,10.11-18.13
		c-0.31-1.5-0.83-2.92-1.51-4.22c0.09-0.85,0.14-1.7,0.16-2.56c4.91-2.06,7.85-7.38,6.74-12.81c-1.27-6.17-7.28-10.15-13.44-8.9
		c-0.47,0.1-0.93,0.23-1.38,0.38c-0.45-0.48-0.92-0.94-1.39-1.39c1.08-2.63,1.41-5.6,0.8-8.6c-1.65-8.02-9.45-13.19-17.45-11.55
		c-4.84,0.99-8.62,4.24-10.51,8.43c-2.41-3.55-6.5-5.84-11.09-5.77c-0.06,0-0.12,0-0.17,0.01c-1.26-7.66-7.97-13.44-15.94-13.3
		c-1.54,0.03-3.02,0.28-4.41,0.71c-0.81-0.25-1.64-0.46-2.48-0.63c-1.13-5.22-5.8-9.09-11.33-9c-6.28,0.1-11.28,5.3-11.16,11.6
		C133.58,61.25,133.62,61.73,133.69,62.19z"/>
	<path style="fill:#58595B;stroke:#000000;stroke-width:5;stroke-miterlimit:10;" d="M153.72,269.26
		c0.74,1.66,17.26,16.8,19.78,16.54c0.47-0.05,1.13-0.48,1.9-1.16c4.86,0.67,11.99,0.76,13.77,0.76c2.61,0,19.08-0.13,22.09-0.66
		c0,0,0.49-0.91,1.04-2.08c3.93,0.69,7.53,1.26,8.81,1.29c0,0,3.84-4.61,3.77-6.25c-0.08-1.63-4.74-5.67-5.74-6.68
		c-1-1.01-0.3-8.58-1.45-9.54c-1.14-0.96-17.51-3.12-18.46-3.68c-0.46-0.27-1.16-1.73-1.94-3.27c0.3-0.52,0.54-0.94,0.68-1.24
		c0,0-2.61-5.42-4.12-6.01s-7.05,2.08-8.37,2.6c-1.32,0.51-7.88-3.2-9.21-2.53s-9.92,14.92-10.81,15.57
		c-0.9,0.65-6.9,0.17-8.28,1.41C155.79,265.57,152.98,267.61,153.72,269.26z"/>
	
		<ellipse transform="matrix(0.963 -0.2695 0.2695 0.963 -22.9142 70.9394)" style="fill:#8E090E;stroke:#000000;stroke-width:5;stroke-miterlimit:10;" cx="246.8991" cy="118.9216" rx="8.72" ry="8.74"/>
	
		<ellipse transform="matrix(0.963 -0.2695 0.2695 0.963 -38.5834 52.8236)" style="fill:#8E090E;stroke:#000000;stroke-width:5;stroke-miterlimit:10;" cx="173.088" cy="166.9298" rx="8.72" ry="8.74"/>
	
		<ellipse transform="matrix(0.963 -0.2695 0.2695 0.963 -7.1391 52.9414)" style="fill:#8E090E;stroke:#000000;stroke-width:5;stroke-miterlimit:10;" cx="189.2393" cy="52.4706" rx="8.72" ry="8.74"/>
	
		<ellipse transform="matrix(0.963 -0.2695 0.2695 0.963 -27.541 60.2758)" style="fill:#8E090E;stroke:#000000;stroke-width:5;stroke-miterlimit:10;" cx="205.7496" cy="130.4403" rx="8.72" ry="8.74"/>
</g>
</svg>
