<?xml version="1.0" encoding="utf-8"?>
<!-- Generator: Adobe Illustrator 26.5.1, SVG Export Plug-In . SVG Version: 6.00 Build 0)  -->
<svg version="1.1" id="charAnimations" xmlns="http://www.w3.org/2000/svg" xmlns:xlink="http://www.w3.org/1999/xlink" x="0px"
	 y="0px" viewBox="0 0 240 325" style="enable-background:new 0 0 240 325;" xml:space="preserve">
<g id="fall2">
	
		<circle id="Backfoot_00000181799489637200961040000017177997199908964231_" style="stroke:#000000;stroke-width:7;stroke-miterlimit:10;" cx="154.38" cy="257.26" r="26.56"/>
	
		<ellipse id="body_00000124150563712550660580000006459991707600246658_" transform="matrix(0.7071 -0.7071 0.7071 0.7071 -122.8123 142.5642)" style="fill:#6D6E71;stroke:#000000;stroke-width:6.9999;stroke-miterlimit:9.9999;" cx="110.6841" cy="219.5296" rx="43.0196" ry="78.0892"/>
	
		<circle id="frontFoot_00000039849377135874227850000009095159463097183151_" style="fill:#A7A9AC;stroke:#000000;stroke-width:7;stroke-miterlimit:10;" cx="97.35" cy="283.82" r="26.56"/>
	
		<circle id="eye_00000009566670814184035160000013067970458472620421_" style="fill:#F1F2F2;stroke:#000000;stroke-width:7;stroke-miterlimit:10;" cx="137.95" cy="223.79" r="16.44"/>
	
		<circle id="pupil_00000080912849583087576640000002687923628175293623_" style="stroke:#000000;stroke-width:7;stroke-miterlimit:10;" cx="144.26" cy="230.75" r="5.68"/>
	<g id="hat_copy_7">
		<path style="fill:#3A297A;stroke:#000000;stroke-width:7;stroke-miterlimit:10;" d="M106.98,162.51
			c41.1-11.26,73.21-26.07,74.1-33.93c0.04-0.35,0.02-0.7-0.07-1.02c-1.33-4.86-17.03-5.15-39.55-1.57l5.51,8.17
			c0.55,0.82,0.4,1.86-0.23,2.51c-1.99,2.56-9.16,6.24-19.31,10.05c-5.89,2.21-12.79,4.48-20.26,6.59c-0.83,0.24-1.67,0.47-2.52,0.7
			c-21.5,5.89-40.08,8.49-45.05,6.54c-0.87-0.23-1.53-1.05-1.48-2.04l0.57-9.84c-21.2,8.4-34.56,16.65-33.23,21.52
			c0.09,0.33,0.25,0.63,0.46,0.91C30.7,177.41,65.88,173.78,106.98,162.51z"/>
		<path style="fill:#502D8D;stroke:#000000;stroke-width:7;stroke-miterlimit:10;" d="M58.12,158.52c-0.06,0.99,0.61,1.81,1.48,2.04
			c4.97,1.95,23.54-0.64,45.05-6.54c0.85-0.23,1.69-0.47,2.52-0.7l-11.55-1.53l1.13-1.13l7.92-7.92l-0.57-3.08l-1.76-9.5l11.4,5.81
			l11.25-6.1l-0.84,5.32l-1.16,7.32l0.78,0.74l3.65,3.47c10.15-3.81,17.31-7.49,19.31-10.05c0.63-0.65,0.78-1.69,0.23-2.51
			l-5.51-8.17l-14.11-20.94l-6.73,1.07l-5.52,11.54l-5.81-11.4l-12.68-1.68l9.05-9.05l-2.32-12.58l11.4,5.81l1.2-0.65L81.19,36.58
			l-2.2,0.35l-5.52,11.54l-5.81-11.4l-2.48-0.33L63.87,59.3l6.98,3.56l11.25-6.1l-2,12.64l9.27,8.81l-12.64,2l-5.52,11.54
			l-5.81-11.4L62.68,80l-2.31,39.75l3.68,1.87l11.25-6.1l-2,12.64l9.27,8.81l-12.64,2l-5.52,11.54l-5.23-10.27l-0.49,8.43
			L58.12,158.52z"/>
		<path style="fill:#FFCD05;stroke:#000000;stroke-width:7;stroke-miterlimit:10;" d="M122.99,142.51l1.16-7.32l0.84-5.32
			l-11.25,6.1l-11.4-5.81l1.76,9.5l0.57,3.08l-7.92,7.92l-1.13,1.13l11.55,1.53c7.47-2.12,14.36-4.38,20.26-6.59l-3.65-3.47
			L122.99,142.51z"/>
		<path style="fill:#FFCD05;stroke:#000000;stroke-width:7;stroke-miterlimit:10;" d="M73.48,48.47L79,36.93l2.2-0.35L69.77,19.62
			c-1.07-1.58-3.53-0.91-3.64,1l-0.94,16.12l2.48,0.33L73.48,48.47z"/>
		<polygon style="fill:#FFCD05;stroke:#000000;stroke-width:7;stroke-miterlimit:10;" points="71.23,91.76 76.74,80.21 89.38,78.21 
			80.1,69.4 82.11,56.77 70.86,62.86 63.88,59.31 62.68,80 65.42,80.36 		"/>
		<polygon style="fill:#FFCD05;stroke:#000000;stroke-width:7;stroke-miterlimit:10;" points="103.33,82.96 105.65,95.54 
			96.61,104.59 109.29,106.26 115.1,117.66 120.61,106.12 127.34,105.05 115.93,88.12 114.73,88.77 		"/>
		<polygon style="fill:#FFCD05;stroke:#000000;stroke-width:7;stroke-miterlimit:10;" points="64.42,150.52 69.94,138.98 
			82.57,136.98 73.3,128.16 75.3,115.53 64.05,121.62 60.37,119.75 59.18,140.25 		"/>
	</g>
</g>
</svg>
