<?xml version="1.0" encoding="utf-8"?>
<!-- Generator: Adobe Illustrator 26.5.1, SVG Export Plug-In . SVG Version: 6.00 Build 0)  -->
<svg version="1.1" id="charAnimations" xmlns="http://www.w3.org/2000/svg" xmlns:xlink="http://www.w3.org/1999/xlink" x="0px"
	 y="0px" viewBox="0 0 240 325" style="enable-background:new 0 0 240 325;" xml:space="preserve">
<g id="fall1">
	
		<circle id="Backfoot_00000036211161949989759660000003560197955405255557_" style="stroke:#000000;stroke-width:7;stroke-miterlimit:10;" cx="155.51" cy="283.46" r="26.56"/>
	
		<ellipse id="body_00000078034361088564921310000007171530332045050273_" transform="matrix(0.7522 -0.6589 0.6589 0.7522 -117.8286 128.4064)" style="fill:#6D6E71;stroke:#000000;stroke-width:6.9998;stroke-miterlimit:9.9998;" cx="111.8177" cy="220.8707" rx="43.019" ry="78.0882"/>
	
		<circle id="frontFoot_00000150807603138625062650000016409341530689381260_" style="fill:#A7A9AC;stroke:#000000;stroke-width:7;stroke-miterlimit:10;" cx="92.27" cy="270.73" r="26.56"/>
	
		<circle id="eye_00000119080387121629507590000006894946809788762040_" style="fill:#F1F2F2;stroke:#000000;stroke-width:7;stroke-miterlimit:10;" cx="140.45" cy="227.84" r="16.44"/>
	
		<circle id="pupil_00000019662668993159251560000002832588278898500492_" style="stroke:#000000;stroke-width:7;stroke-miterlimit:10;" cx="147.63" cy="234.79" r="5.68"/>
	<g id="hat_copy_6">
		<path style="fill:#3A297A;stroke:#000000;stroke-width:7;stroke-miterlimit:10;" d="M86.99,160.33
			c41.66-8.96,74.55-21.95,75.88-29.74c0.06-0.35,0.06-0.69-0.01-1.02c-1.06-4.93-16.72-6.09-39.4-3.77l5.04,8.47
			c0.51,0.85,0.3,1.88-0.37,2.49c-2.13,2.44-9.49,5.72-19.84,8.96c-6.01,1.88-13.02,3.76-20.59,5.45c-0.85,0.19-1.7,0.38-2.56,0.56
			c-21.8,4.69-40.49,6.24-45.34,4.02c-0.86-0.28-1.47-1.13-1.36-2.12l1.12-9.79c-21.63,7.21-35.43,14.7-34.37,19.63
			c0.07,0.33,0.21,0.64,0.41,0.94C10.01,170.95,45.33,169.28,86.99,160.33z"/>
		<path style="fill:#502D8D;stroke:#000000;stroke-width:7;stroke-miterlimit:10;" d="M38.44,153.62c-0.11,0.99,0.5,1.84,1.36,2.12
			c4.85,2.23,23.54,0.67,45.34-4.02c0.86-0.18,1.71-0.37,2.56-0.56l-11.45-2.17l1.19-1.06l8.35-7.46l-0.4-3.1l-1.22-9.59l11.06,6.44
			l11.57-5.46l-1.14,5.26l-1.57,7.24l0.74,0.79l3.46,3.67c10.34-3.24,17.71-6.51,19.84-8.96c0.67-0.61,0.88-1.64,0.37-2.49
			l-5.04-8.47l-12.92-21.69l-6.78,0.69L97.6,116l-5.16-11.71l-12.57-2.38l9.54-8.53l-1.62-12.69l11.06,6.44l1.23-0.58l-31.81-53.4
			l-2.21,0.23L59.91,44.6l-5.16-11.71l-2.46-0.47l-2.56,22.46l6.77,3.94l11.57-5.46l-2.7,12.5l8.77,9.32L61.4,76.47l-6.15,11.22
			l-5.16-11.71l-2.72-0.51l-4.52,39.56l3.57,2.08l11.57-5.46l-2.7,12.5l8.77,9.32l-12.73,1.29l-6.15,11.22l-4.65-10.55l-0.96,8.39
			L38.44,153.62z"/>
		<path style="fill:#FFCD05;stroke:#000000;stroke-width:7;stroke-miterlimit:10;" d="M104.1,141.25l1.57-7.24l1.14-5.26
			l-11.57,5.46l-11.06-6.44l1.22,9.59l0.4,3.1l-8.35,7.46l-1.19,1.06l11.45,2.17c7.57-1.7,14.59-3.57,20.59-5.45l-3.46-3.67
			L104.1,141.25z"/>
		<path style="fill:#FFCD05;stroke:#000000;stroke-width:7;stroke-miterlimit:10;" d="M59.91,44.59l6.15-11.22l2.21-0.23
			L57.81,15.59c-0.98-1.64-3.48-1.1-3.69,0.79l-1.83,16.04l2.46,0.47L59.91,44.59z"/>
		<polygon style="fill:#FFCD05;stroke:#000000;stroke-width:7;stroke-miterlimit:10;" points="55.25,87.69 61.4,76.47 74.12,75.18 
			65.36,65.86 68.06,53.36 56.49,58.82 49.72,54.88 47.37,75.47 50.08,75.99 		"/>
		<polygon style="fill:#FFCD05;stroke:#000000;stroke-width:7;stroke-miterlimit:10;" points="87.79,80.69 89.41,93.39 
			79.87,101.91 92.44,104.3 97.6,116 103.75,104.78 110.53,104.1 100.08,86.55 98.85,87.13 		"/>
		<polygon style="fill:#FFCD05;stroke:#000000;stroke-width:7;stroke-miterlimit:10;" points="45.17,145.98 51.32,134.76 
			64.05,133.47 55.28,124.15 57.99,111.65 46.42,117.11 42.85,115.03 40.52,135.43 		"/>
	</g>
</g>
</svg>
