<?xml version="1.0" encoding="utf-8"?>
<!-- Generator: Adobe Illustrator 26.5.1, SVG Export Plug-In . SVG Version: 6.00 Build 0)  -->
<svg version="1.1" id="background" xmlns="http://www.w3.org/2000/svg" xmlns:xlink="http://www.w3.org/1999/xlink" x="0px" y="0px"
	 viewBox="0 0 5000 950" style="enable-background:new 0 0 5000 950;" xml:space="preserve">
<g id="mtn1_00000082340706366480796030000003519016369600498561_">
	<rect id="sky" style="fill:#3E77AA;" width="5000" height="950"/>
	<polygon id="mtn1" style="fill:#FFFFFF;" points="4952.6299,310 4931.2402,328.04 4919.27,317.95 4895.4102,338.07 
		4895.0498,337.77 4771.0698,233.21 4676.9302,312.6 4616.8799,261.95 4603.5498,273.19 4556.1401,233.21 4520.25,263.48 
		4433.8701,190.64 4310.5,294.68 4271.7002,261.95 4231.5098,295.85 4149.5498,226.73 4055.4099,306.12 3995.3601,255.47 
		3982.03,266.71 3934.6201,226.73 3898.73,257 3812.3501,184.15 3688.98,288.19 3650.1799,255.47 3604.8201,293.72 3565.21,260.32 
		3471.0801,339.71 3411.02,289.06 3397.6899,300.3 3350.28,260.32 3314.3899,290.59 3228.01,217.75 3168.8301,267.66 
		3101.96,211.26 3033.26,269.2 3022.1499,259.82 2955.75,315.82 2934.3501,333.87 2922.3899,323.77 2898.53,343.9 2898.1699,343.59 
		2774.1799,239.03 2680.05,318.42 2619.99,267.78 2606.6599,279.02 2559.25,239.03 2523.3601,269.3 2436.99,196.46 2313.6201,300.5 
		2274.8101,267.78 2234.6201,301.67 2152.6599,232.55 2058.53,311.94 1998.47,261.29 1985.14,272.53 1937.73,232.55 1901.84,262.82 
		1815.47,189.97 1692.1,294.02 1653.29,261.29 1589.79,314.84 1508.5699,251.95 1417.8199,335.2 1355.71,287.1 1342.86,298.89 
		1293.8199,260.92 1259.23,292.66 1169.89,223.48 1112.84,275.82 1043.67,222.26 977.45,283.01 965.96,274.11 901.95,332.83 
		881.33,351.75 868.95,342.17 845.95,363.27 845.58,362.98 717.34,263.69 626.59,346.94 564.48,298.84 551.63,310.62 502.59,272.66 
		468,304.4 378.66,235.22 259.74,344.32 219.6,313.24 180.86,348.78 96.09,283.15 63.14,313.37 0,271.52 0,362.25 0,374.59 
		0,386.87 0,496.46 0,950 5000,950 5000,442.33 5000,374.59 5000,270.05 	"/>
</g>
</svg>
