<?xml version="1.0" encoding="utf-8"?>
<!-- Generator: Adobe Illustrator 26.5.1, SVG Export Plug-In . SVG Version: 6.00 Build 0)  -->
<svg version="1.1" id="background" xmlns="http://www.w3.org/2000/svg" xmlns:xlink="http://www.w3.org/1999/xlink" x="0px" y="0px"
	 viewBox="0 0 5000 950" style="enable-background:new 0 0 5000 950;" xml:space="preserve">
<polygon id="mtn3" style="fill:#CDD3D1;" points="4953.8301,322.13 4943.0898,314.96 4878.9399,357.78 4858.27,371.58 
	4846.71,363.86 4823.6499,379.25 4823.3101,379.02 4703.52,299.06 4612.5698,359.77 4554.5498,321.04 4541.6699,329.63 
	4495.8599,299.06 4461.1899,322.21 4377.7402,266.5 4258.54,346.06 4221.0498,321.04 4182.2202,346.96 4103.04,294.1 
	4012.0901,354.81 3954.0601,316.08 3941.1899,324.68 3895.3799,294.1 3860.71,317.25 3777.25,261.54 3658.0601,341.11 
	3620.5701,316.08 3556.4199,358.9 3541.9199,368.58 3470.8899,321.16 3379.9399,381.87 3321.9099,343.14 3309.04,351.74 
	3263.23,321.16 3228.5601,344.31 3145.1001,288.6 3087.9199,326.77 3023.3201,283.64 2956.9399,327.95 2946.21,320.78 
	2882.05,363.61 2861.3799,377.4 2849.8201,369.69 2826.77,385.08 2826.4199,384.84 2706.6299,304.88 2615.6799,365.59 
	2557.6599,326.86 2544.78,335.46 2498.98,304.88 2464.3,328.03 2380.8501,272.32 2261.6599,351.89 2224.1699,326.86 
	2185.3401,352.78 2106.1499,299.92 2015.2,360.64 1957.1801,321.9 1944.3,330.5 1898.5,299.92 1863.8199,323.07 1780.37,267.36 
	1661.1801,346.93 1623.6899,321.9 1559.53,364.73 1532.74,382.61 1416.76,312.01 1328.4301,376.46 1268.84,340.19 1256.33,349.31 
	1209.29,320.67 1175.61,345.25 1089.91,293.07 1034.37,333.59 968.02,293.2 903.55,340.24 892.53,333.52 830.22,378.99 
	810.14,393.64 798.26,386.41 775.87,402.75 775.52,402.53 652.5,327.63 564.16,392.09 504.57,355.81 492.06,364.94 445.02,336.3 
	411.34,360.87 325.64,308.7 209.87,393.17 171.37,369.73 133.65,397.25 52.33,347.74 25.65,367.2 0,350.2 0,950 5000,950 
	5000,442.7 5000,291.3 "/>
</svg>
