<?xml version="1.0" encoding="utf-8"?>
<!-- Generator: Adobe Illustrator 26.5.1, SVG Export Plug-In . SVG Version: 6.00 Build 0)  -->
<svg version="1.1" id="obstacle" xmlns="http://www.w3.org/2000/svg" xmlns:xlink="http://www.w3.org/1999/xlink" x="0px" y="0px"
	 viewBox="0 0 350 325" style="enable-background:new 0 0 350 325;" xml:space="preserve">
<g id="trunk1">
	
		<ellipse style="fill:#917A47;stroke:#000000;stroke-width:5;stroke-miterlimit:10;" cx="189.48" cy="126.66" rx="71.83" ry="21.95"/>
	<path style="fill:#3C2E1E;stroke:#000000;stroke-width:5;stroke-miterlimit:10;" d="M271.15,243.44
		c-3.42-4.71-6.2-10.45-7.94-16.88c-1.27-4.69-1.87-9.33-1.89-13.75c0-0.01-0.01-0.02-0.01-0.02v-86.12
		c0,12.12-32.16,21.95-71.83,21.95s-71.83-9.83-71.83-21.95v101.62l-0.34,0.79c-0.89,6.82-3.56,14.1-8.04,20.92
		c-0.85,1.29-1.75,2.53-2.67,3.71l-2.22,5.11c-3.72,8.53,0.19,18.47,8.73,22.18l6.59,2.87c3.83,1.67,7.95,1.79,11.65,0.65
		c0.01-1.93,0.28-3.93,0.89-5.93c2.18-7.14,7.77-12.04,13.65-12.67l0.04-0.09c0.08,0.02,0.16,0.04,0.24,0.05
		c1.45-0.12,2.92,0.01,4.36,0.45c6.48,1.98,10.13,9.32,9.01,17.21c1.87,0.96,3.95,1.59,6.18,1.79l7.16,0.64
		c9.28,0.83,17.47-6.01,18.3-15.28l0.03-0.38c0.73,0,1.46-0.01,2.18-0.02l3.48,17.01c1.87,9.12,10.78,15,19.9,13.13l7.04-1.44
		c2.32-0.48,4.42-1.41,6.25-2.68c-2.79-20.32-0.99-36.58,4.5-37.56c4.56-0.81,10.36,9.13,14.72,23.99c2.92,0.72,6.07,0.68,9.15-0.3
		l6.85-2.2c8.86-2.84,13.74-12.33,10.9-21.19L271.15,243.44z"/>
	<g>
		<path style="fill:#3A4929;stroke:#000000;stroke-width:3;stroke-miterlimit:10;" d="M119.54,285.06c2.48,0.87,5.11,0.88,7.67-0.02
			c0-0.4,0-0.79,0-1.2c1.98,0.19,3.93,0.15,5.92-0.13c-0.04-4.72-0.04-10.47-0.04-16.51c2.57-9.41,6.57-18.5,8-25.92
			c2.13-11.04,0.95-10.83,0.21-18.72c-0.74-7.89-4.43-11.08-6.17-18.23c0.73,7.26,3.27,11.49,2.78,19.11s-0.57,7.99-3.67,18.23
			c-0.35,1.17-0.76,2.4-1.2,3.67c-0.04-5.11-0.12-9.73-0.27-13.33c-0.5-12.39-1.04-15.54-1.57-24.8
			c-0.53-9.25-1.18-15.24-1.72-24.16c-0.55,8.93-1.22,14.91-1.74,24.17c-0.12,2.19-0.25,4.03-0.38,5.74
			c-2.14-5.77-4.99-9.63-7.43-15.93c1.79,8.04,3.85,12.73,5.05,21.14c1.2,8.41,1.22,10.78,0.3,22.52
			C124.36,252.42,119.37,271.45,119.54,285.06z"/>
	</g>
	<path style="fill:#58595B;stroke:#000000;stroke-width:5;stroke-miterlimit:10;" d="M112.37,292.71c0,0-3.66-6.66-3.16-8.65
		c0.5-2,7.32-5.83,8.82-6.82c1.5-1,2.5-10.52,4.16-11.42s22.63,0.52,23.97,0.06c1.33-0.46,5.24-7.06,7.53-7.59s6.45-1.97,7.61,0
		s4.61,30.15,2.5,32.59s-19.97,2.66-23.3,2.66C137.17,293.55,116.2,293.38,112.37,292.71z"/>
	<g>
		<path style="fill:#917A47;stroke:#000000;stroke-miterlimit:10;" d="M189.96,110.54c-34.85,0-63.11,7.2-63.11,16.08
			s28.25,16.08,63.11,16.08c34.85,0,63.11-7.2,63.11-16.08S224.82,110.54,189.96,110.54z M189.96,135.38
			c-26.39,0-47.78-4.36-47.78-9.74s21.39-9.74,47.78-9.74s47.78,4.36,47.78,9.74C237.74,131.01,216.35,135.38,189.96,135.38z"/>
	</g>
	<g>
		<path style="fill:#917A47;stroke:#000000;stroke-width:0.75;stroke-miterlimit:10;" d="M189.48,118.76c-18.5,0-33.5,3.2-33.5,7.15
			c0,3.95,15,7.15,33.5,7.15s33.5-3.2,33.5-7.15C222.98,121.96,207.98,118.76,189.48,118.76z M189.48,129.8
			c-14.01,0-25.36-1.94-25.36-4.33s11.35-4.33,25.36-4.33s25.36,1.94,25.36,4.33S203.49,129.8,189.48,129.8z"/>
	</g>
	<g>
		<path style="fill:#3A4929;stroke:#000000;stroke-width:3;stroke-miterlimit:10;" d="M194.01,292.72c-3.22,1.1-6.64,1.11-9.95-0.02
			c0.01-0.5,0.01-1,0-1.51c-2.57,0.24-5.1,0.19-7.68-0.17c0.06-5.94,0.06-13.18,0.06-20.79c-3.33-11.85-8.53-23.3-10.39-32.64
			c-2.76-13.9-1.24-13.64-0.27-23.57c0.96-9.94,5.75-13.95,8.01-22.96c-0.95,9.14-4.24,14.46-3.61,24.06
			c0.64,9.6,0.74,10.06,4.76,22.96c0.46,1.47,0.99,3.02,1.56,4.62c0.06-6.43,0.16-12.26,0.35-16.78c0.65-15.6,1.35-19.57,2.04-31.23
			c0.69-11.65,1.53-19.19,2.23-30.43c0.71,11.24,1.58,18.77,2.26,30.43c0.16,2.75,0.33,5.08,0.49,7.23
			c2.78-7.27,6.47-12.13,9.64-20.06c-2.32,10.12-5,16.03-6.56,26.62s-1.59,13.58-0.39,28.36
			C187.75,251.63,194.23,275.59,194.01,292.72z"/>
	</g>
	<g>
		<path style="fill:#3A4929;stroke:#000000;stroke-width:3;stroke-miterlimit:10;" d="M227.45,290.14
			c3.85,1.54,7.94,1.55,11.91-0.03c-0.01-0.7-0.01-1.4,0-2.11c3.07,0.34,6.1,0.26,9.19-0.24c-0.07-8.34-0.07-18.49-0.07-29.15
			c3.99-16.62,10.21-32.67,12.43-45.77c3.31-19.49,1.48-19.12,0.33-33.05c-1.15-13.93-6.88-19.56-9.59-32.19
			c1.14,12.81,5.08,20.28,4.32,33.74c-0.76,13.46-0.88,14.11-5.69,32.19c-0.55,2.07-1.18,4.23-1.87,6.48
			c-0.07-9.02-0.19-17.19-0.42-23.53c-0.78-21.88-1.61-27.44-2.44-43.79c-0.83-16.34-1.83-26.91-2.67-42.67
			c-0.85,15.76-1.89,26.32-2.7,42.67c-0.19,3.86-0.39,7.12-0.59,10.14c-3.33-10.19-7.75-17.01-11.53-28.12
			c2.78,14.19,5.98,22.47,7.85,37.33c1.87,14.85,1.9,19.04,0.47,39.77C234.93,232.52,227.18,266.12,227.45,290.14z"/>
	</g>
</g>
</svg>
