<?xml version="1.0" encoding="utf-8"?>
<!-- Generator: Adobe Illustrator 26.5.1, SVG Export Plug-In . SVG Version: 6.00 Build 0)  -->
<svg version="1.1" id="charAnimations" xmlns="http://www.w3.org/2000/svg" xmlns:xlink="http://www.w3.org/1999/xlink" x="0px"
	 y="0px" viewBox="0 0 240 325" style="enable-background:new 0 0 240 325;" xml:space="preserve">
<g id="walk1">
	
		<circle id="Backfoot_00000007418081495340673250000011623984716073813181_" style="stroke:#000000;stroke-width:7;stroke-miterlimit:10;" cx="93.41" cy="262.75" r="26.56"/>
	
		<ellipse id="body_00000018950102397287180680000006056261774348435890_" style="fill:#6D6E71;stroke:#000000;stroke-width:7;stroke-miterlimit:10;" cx="126.46" cy="225.7" rx="68.95" ry="57.52"/>
	
		<circle id="frontFoot_00000160150863291166285590000007329976861967318428_" style="fill:#A7A9AC;stroke:#000000;stroke-width:7;stroke-miterlimit:10;" cx="165.65" cy="262.75" r="26.56"/>
	
		<circle id="eye_00000126315943523983447820000001653222481976916119_" style="fill:#F1F2F2;stroke:#000000;stroke-width:7;stroke-miterlimit:10;" cx="155.73" cy="202.72" r="16.44"/>
	
		<circle id="pupil_00000066494982938237682260000004873231145788578703_" style="stroke:#000000;stroke-width:7;stroke-miterlimit:10;" cx="165.84" cy="203.95" r="5.68"/>
	<g id="hat_copy_2">
		<path style="fill:#3A297A;stroke:#000000;stroke-width:7;stroke-miterlimit:10;" d="M128.51,195.81
			c41.7,8.76,77.03,10.27,81.41,3.69c0.2-0.3,0.34-0.61,0.41-0.94c1.04-4.93-12.8-12.36-34.46-19.47l1.16,9.79
			c0.12,0.98-0.5,1.84-1.35,2.13c-2.94,1.37-11,1.36-21.77,0.12c-6.25-0.72-13.42-1.86-21.03-3.4c-0.85-0.17-1.7-0.35-2.56-0.53
			c-21.82-4.59-39.53-10.76-43.05-14.77c-0.67-0.61-0.89-1.63-0.38-2.49l5-8.49c-22.7-2.21-38.35-0.98-39.39,3.95
			c-0.07,0.33-0.07,0.67-0.01,1.02C53.86,174.2,86.81,187.05,128.51,195.81z"/>
		<path style="fill:#502D8D;stroke:#000000;stroke-width:7;stroke-miterlimit:10;" d="M86.88,169.93c-0.5,0.85-0.29,1.88,0.38,2.49
			c3.53,4.01,21.23,10.19,43.05,14.77c0.86,0.18,1.71,0.36,2.56,0.53l-9.57-6.64l1.52-0.49l10.66-3.42l0.9-3l2.78-9.26l7.48,10.38
			l12.79-0.28l-3.18,4.34l-4.38,5.98l0.36,1.02l1.66,4.76c10.77,1.24,18.82,1.25,21.77-0.12c0.86-0.29,1.47-1.14,1.35-2.13
			l-1.16-9.79L172.87,154l-6.47-2.13l-10.18,7.75l0.04-12.79l-10.51-7.29l12.18-3.91l3.68-12.25l7.48,10.38l1.36-0.03l-7.34-61.72
			l-2.11-0.7l-10.18,7.75l0.04-12.79l-2.06-1.43l-11.48,19.47l4.58,6.35l12.79-0.28l-7.56,10.32l4.22,12.08l-12.15-4l-10.18,7.75
			l0.04-12.79l-2.27-1.57l-20.22,34.31l2.41,3.35l12.79-0.28l-7.56,10.32l4.22,12.08l-12.15-4L96.1,165.7l0.04-11.53l-4.29,7.28
			L86.88,169.93z"/>
		<path style="fill:#FFCD05;stroke:#000000;stroke-width:7;stroke-miterlimit:10;" d="M151.89,185.33l4.38-5.98l3.18-4.34
			l-12.79,0.28l-7.48-10.38l-2.78,9.26l-0.9,3l-10.66,3.42l-1.52,0.49l9.57,6.64c7.61,1.53,14.78,2.67,21.03,3.4l-1.66-4.76
			L151.89,185.33z"/>
		<path style="fill:#FFCD05;stroke:#000000;stroke-width:7;stroke-miterlimit:10;" d="M150.83,79.06l10.18-7.75l2.11,0.7l-2.41-20.3
			c-0.23-1.89-2.73-2.42-3.7-0.78l-8.2,13.91l2.06,1.43L150.83,79.06z"/>
		<polygon style="fill:#FFCD05;stroke:#000000;stroke-width:7;stroke-miterlimit:10;" points="129.05,116.54 139.23,108.79 
			151.38,112.79 147.16,100.71 154.72,90.39 141.93,90.67 137.35,84.32 126.82,102.17 129.09,103.74 		"/>
		<polygon style="fill:#FFCD05;stroke:#000000;stroke-width:7;stroke-miterlimit:10;" points="161.63,123.38 157.94,135.64 
			145.76,139.55 156.28,146.84 156.23,159.63 166.41,151.88 172.88,154.01 170.47,133.73 169.11,133.76 		"/>
		<polygon style="fill:#FFCD05;stroke:#000000;stroke-width:7;stroke-miterlimit:10;" points="96.14,165.69 106.32,157.95 
			118.47,161.94 114.25,149.86 121.81,139.54 109.02,139.82 106.6,136.48 96.18,154.16 		"/>
	</g>
</g>
</svg>
