<?xml version="1.0" encoding="utf-8"?>
<!-- Generator: Adobe Illustrator 26.5.1, SVG Export Plug-In . SVG Version: 6.00 Build 0)  -->
<svg version="1.1" id="charAnimations" xmlns="http://www.w3.org/2000/svg" xmlns:xlink="http://www.w3.org/1999/xlink" x="0px"
	 y="0px" viewBox="0 0 240 325" style="enable-background:new 0 0 240 325;" xml:space="preserve">
<g id="walk3">
	
		<circle id="Backfoot_00000150817896061820682070000002342116158104557735_" style="stroke:#000000;stroke-width:7;stroke-miterlimit:10;" cx="162.91" cy="263.09" r="26.56"/>
	
		<ellipse id="body_00000131351662729757722620000013357008264820804792_" style="fill:#6D6E71;stroke:#000000;stroke-width:7;stroke-miterlimit:10;" cx="124.16" cy="226.57" rx="68.31" ry="56.99"/>
	
		<circle id="frontFoot_00000023981352874788169210000016309091673255690400_" style="fill:#A7A9AC;stroke:#000000;stroke-width:7;stroke-miterlimit:10;" cx="89.37" cy="263.09" r="26.56"/>
	
		<circle id="eye_00000121979422729983209880000006980034697155368630_" style="fill:#F1F2F2;stroke:#000000;stroke-width:7;stroke-miterlimit:10;" cx="151.14" cy="203.06" r="16.44"/>
	
		<circle id="pupil_00000043418174112705159260000005888025406301837964_" style="stroke:#000000;stroke-width:7;stroke-miterlimit:10;" cx="156.82" cy="204.29" r="5.68"/>
	<g id="hat_copy">
		<path style="fill:#3A297A;stroke:#000000;stroke-width:7;stroke-miterlimit:10;" d="M129.89,198.09
			c42.36,4.61,77.67,2.62,81.38-4.36c0.17-0.31,0.28-0.64,0.31-0.97c0.55-5.01-13.95-11.04-36.22-15.98l2.12,9.62
			c0.21,0.97-0.31,1.88-1.13,2.25c-2.79,1.65-10.81,2.44-21.65,2.26c-6.29-0.1-13.54-0.53-21.26-1.31c-0.86-0.09-1.73-0.18-2.6-0.27
			c-22.17-2.41-40.4-6.81-44.3-10.45c-0.72-0.54-1.04-1.54-0.62-2.44l4.14-8.94c-22.8,0.04-38.26,2.81-38.8,7.82
			c-0.04,0.34,0,0.68,0.09,1.02C53.47,183.94,87.53,193.48,129.89,198.09z"/>
		<path style="fill:#502D8D;stroke:#000000;stroke-width:7;stroke-miterlimit:10;" d="M85.91,176.44c-0.42,0.9-0.1,1.9,0.62,2.44
			c3.9,3.64,22.13,8.04,44.3,10.45c0.87,0.1,1.74,0.18,2.6,0.27l-10.18-5.66l1.46-0.64l10.27-4.46l0.6-3.07l1.86-9.49l8.47,9.59
			l12.7-1.54l-2.74,4.64l-3.77,6.38l0.46,0.98l2.12,4.57c10.84,0.18,18.86-0.61,21.65-2.26c0.82-0.37,1.35-1.28,1.13-2.25
			l-2.12-9.62l-5.44-24.66l-6.65-1.48l-9.37,8.71l-1.22-12.74l-11.18-6.22l11.74-5.09l2.46-12.56l8.47,9.59l1.35-0.16l-13.39-60.69
			L149.96,71l-9.37,8.71l-1.22-12.74l-2.19-1.22l-9.5,20.51l5.19,5.87l12.7-1.54l-6.5,11.02l5.39,11.6l-12.49-2.78l-9.37,8.71
			l-1.22-12.74l-2.42-1.34l-16.74,36.13l2.73,3.09l12.7-1.54l-6.5,11.02l5.39,11.6l-12.49-2.78l-9.37,8.71l-1.1-11.48l-3.55,7.67
			L85.91,176.44z"/>
		<path style="fill:#FFCD05;stroke:#000000;stroke-width:7;stroke-miterlimit:10;" d="M152.13,185.36l3.77-6.38l2.74-4.64
			l-12.7,1.54l-8.47-9.59l-1.86,9.49l-0.6,3.07l-10.27,4.46l-1.46,0.64l10.18,5.66c7.72,0.77,14.97,1.2,21.26,1.31l-2.12-4.57
			L152.13,185.36z"/>
		<path style="fill:#FFCD05;stroke:#000000;stroke-width:7;stroke-miterlimit:10;" d="M140.6,79.71l9.37-8.71l2.17,0.48l-4.4-19.96
			c-0.41-1.86-2.95-2.14-3.75-0.41l-6.79,14.65l2.19,1.22L140.6,79.71z"/>
		<polygon style="fill:#FFCD05;stroke:#000000;stroke-width:7;stroke-miterlimit:10;" points="122.61,119.15 131.98,110.44 
			144.47,113.22 139.08,101.61 145.58,90.59 132.88,92.14 127.69,86.27 118.98,105.07 121.39,106.41 		"/>
		<polygon style="fill:#FFCD05;stroke:#000000;stroke-width:7;stroke-miterlimit:10;" points="155.7,122.75 153.25,135.31 
			141.51,140.4 152.69,146.62 153.91,159.35 163.28,150.64 169.93,152.12 165.53,132.17 164.17,132.34 		"/>
		<polygon style="fill:#FFCD05;stroke:#000000;stroke-width:7;stroke-miterlimit:10;" points="94.71,171.31 104.07,162.6 
			116.56,165.38 111.17,153.77 117.67,142.75 104.97,144.3 102.24,141.2 93.61,159.83 		"/>
	</g>
</g>
</svg>
